<?xml version="1.0" encoding="iso-8859-1"?>
<!-- Generator: Adobe Illustrator 16.0.2, SVG Export Plug-In . SVG Version: 6.00 Build 0)  -->
<!DOCTYPE svg PUBLIC "-//W3C//DTD SVG 1.1//EN" "http://www.w3.org/Graphics/SVG/1.1/DTD/svg11.dtd">
<svg version="1.1" id="co_x5F_food_x5F_1" xmlns="http://www.w3.org/2000/svg" xmlns:xlink="http://www.w3.org/1999/xlink" x="0px"
	 y="0px" width="40px" height="40px" viewBox="0 0 40 40" style="enable-background:new 0 0 40 40;" xml:space="preserve">
<path fill="#0D47A1" style="fill-rule:evenodd;clip-rule:evenodd;" d="M32.631,20.183c-3.674,0-6.65,2.979-6.65,6.651
	c0,2.548,1.496,4.641,3.545,5.854c0.971,0.576,0.547,1.433-0.1,1.949c-2.598,2.076-5.855,3.429-9.436,3.429
	C11.713,38.066,5,31.018,5,23.565c0-7.45,5.451-14.653,14.99-11.472c8.223-1.846,12.848,1.544,14.293,6.697
	c0.289,1.032-0.412,1.591-0.689,1.475C33.301,20.143,32.959,20.183,32.631,20.183z M26.869,9.027c-1.725,0.989-4.1,0.808-6.787,1.72
	c-0.908-1.656-0.135-5.388,3.268-7.252c3.404-1.864,6.016-1.159,7.805-0.378C30.691,4.847,30.236,7.097,26.869,9.027z"/>
</svg>
