<?xml version="1.0" encoding="iso-8859-1"?>
<!-- Generator: Adobe Illustrator 16.0.2, SVG Export Plug-In . SVG Version: 6.00 Build 0)  -->
<!DOCTYPE svg PUBLIC "-//W3C//DTD SVG 1.1//EN" "http://www.w3.org/Graphics/SVG/1.1/DTD/svg11.dtd">
<svg version="1.1" id="co_x5F_food_x5F_1" xmlns="http://www.w3.org/2000/svg" xmlns:xlink="http://www.w3.org/1999/xlink" x="0px"
	 y="0px" width="40px" height="40px" viewBox="0 0 40 40" style="enable-background:new 0 0 40 40;" xml:space="preserve">
<path fill="#0D47A1" style="fill-rule:evenodd;clip-rule:evenodd;" d="M22.982,38.026c-2.322,0.191-1.963-1.077-2.869-1.077
	c-0.971,0-1.096,1.229-3.189,0.968C11.916,37.29,5.971,27.919,5.971,21.333c0-6.995,4.205-11.566,12.6-9.486
	c0.559,0.139,1.137,0.307,1.734,0.506c10.619-2.384,15.678,1.521,15.678,8.98C35.982,27.977,29.547,37.486,22.982,38.026z
	 M28.141,8.387c-3.402,1.864-5.84,1.81-7.607,2.478c-1.297-1.338-0.586-5.505,2.816-7.369c3.404-1.864,7.527-0.848,8.967,0.444
	C31.926,5.268,31.543,6.521,28.141,8.387z"/>
</svg>
