<?xml version="1.0" encoding="iso-8859-1"?>
<!-- Generator: Adobe Illustrator 16.0.2, SVG Export Plug-In . SVG Version: 6.00 Build 0)  -->
<!DOCTYPE svg PUBLIC "-//W3C//DTD SVG 1.1//EN" "http://www.w3.org/Graphics/SVG/1.1/DTD/svg11.dtd">
<svg version="1.1" id="co_x5F_food_x5F_1" xmlns="http://www.w3.org/2000/svg" xmlns:xlink="http://www.w3.org/1999/xlink" x="0px"
	 y="0px" width="40px" height="40px" viewBox="0 0 40 40" style="enable-background:new 0 0 40 40;" xml:space="preserve">
<path fill="#0D47A1" style="fill-rule:evenodd;clip-rule:evenodd;" d="M33,23.132v12.369c0,1.381-1.119,2.5-2.5,2.5s-2.5-1.119-2.5-2.5V23.138
	c-0.444-0.164-0.854-0.397-1.242-0.67c1.213-1.379,1.97-3.584,1.97-6.866c0-3.038-0.965-6.384-2.208-9.11
	c1.333-2.499,2.909-4.302,3.972-4.428c2.17,0.257,6.491,7.496,6.491,13.43C36.982,19.955,35.339,22.262,33,23.132z M22,23.132
	v12.369c0,1.381-1.119,2.5-2.5,2.5s-2.5-1.119-2.5-2.5V23.138c-0.444-0.164-0.854-0.397-1.242-0.67
	c1.213-1.379,1.97-3.584,1.97-6.866c0-3.038-0.965-6.384-2.208-9.11c1.333-2.499,2.909-4.302,3.972-4.428
	c2.171,0.257,6.491,7.496,6.491,13.43C25.982,19.955,24.339,22.262,22,23.132z M11,23.132v12.369c0,1.381-1.119,2.5-2.5,2.5
	S6,36.882,6,35.501V23.138c-2.348-0.865-4-3.172-4-7.645C2,9.56,6.32,2.32,8.491,2.063c2.17,0.257,6.491,7.496,6.491,13.43
	C14.982,19.955,13.339,22.262,11,23.132z"/>
</svg>
