<?xml version="1.0" encoding="iso-8859-1"?>
<!-- Generator: Adobe Illustrator 16.0.2, SVG Export Plug-In . SVG Version: 6.00 Build 0)  -->
<!DOCTYPE svg PUBLIC "-//W3C//DTD SVG 1.1//EN" "http://www.w3.org/Graphics/SVG/1.1/DTD/svg11.dtd">
<svg version="1.1" id="co_x5F_basic" xmlns="http://www.w3.org/2000/svg" xmlns:xlink="http://www.w3.org/1999/xlink" x="0px"
	 y="0px" width="40px" height="40px" viewBox="0 0 40 40" style="enable-background:new 0 0 40 40;" xml:space="preserve">
<path fill="#0D47A1" style="fill-rule:evenodd;clip-rule:evenodd;" d="M35.527,33h-2.519v2.519c0,1.09-0.89,1.98-1.98,1.98h-0.04
	c-1.09,0-1.979-0.89-1.979-1.98V33h-2.52c-1.09,0-1.979-0.89-1.979-1.98v-0.04c0-1.09,0.889-1.979,1.979-1.979h2.52v-2.52
	c0-1.09,0.889-1.98,1.979-1.98h0.04c1.09,0,1.98,0.89,1.98,1.98V29h2.519c1.09,0,1.98,0.889,1.98,1.979v0.04
	C37.507,32.11,36.618,33,35.527,33z M27,25.999L2.011,25.983v-6.999h26.994c0,0-0.002,1.558-0.003,3.57
	C27.811,23.247,27,24.522,27,25.999z M2.011,9.995h26.994v6.999H2.011V9.995z M2.011,6.309c0-2.921,2.382-5.303,5.303-5.303h16.389
	c2.92,0,5.302,2.382,5.302,5.303v1.695H2.011V6.309z M22,31c0,2.209,1.791,4,4,4h0c-5.784,0.001-14.099,0.004-18.687,0.004
	c-2.92,0-5.303-2.602-5.303-5.522v-1.478l21.367-0.003C22.541,28.734,22,29.798,22,31z"/>
</svg>
