<?xml version="1.0" encoding="iso-8859-1"?>
<!-- Generator: Adobe Illustrator 16.0.2, SVG Export Plug-In . SVG Version: 6.00 Build 0)  -->
<!DOCTYPE svg PUBLIC "-//W3C//DTD SVG 1.1//EN" "http://www.w3.org/Graphics/SVG/1.1/DTD/svg11.dtd">
<svg version="1.1" id="co_x5F_food_x5F_1" xmlns="http://www.w3.org/2000/svg" xmlns:xlink="http://www.w3.org/1999/xlink" x="0px"
	 y="0px" width="40px" height="40px" viewBox="0 0 40 40" style="enable-background:new 0 0 40 40;" xml:space="preserve">
<path fill="#0D47A1" style="fill-rule:evenodd;clip-rule:evenodd;" d="M24.674,11.824c1.844-0.861,3.174-2.019,5.121-2.417
	c8.752-1.79,10.4,8.633,5.496,14.553c-2.926,3.532-8.066,6.202-15.328,6.074C12.85,29.908,7.771,27.338,4.816,23.97
	C0.184,18.69,0.877,8.075,9.279,9.259c2.15,0.304,3.801,1.613,5.955,2.561c-1.279,0.663-1.168,2.673-0.023,3.795
	c0.932,0.912,2.529,1.609,4.771,1.644c2.287,0.034,3.908-0.689,4.828-1.646C25.986,14.39,25.967,12.462,24.674,11.824L24.674,11.824
	z M21.742,13.178c-1.486,0.405-2.059,0.381-3.402-0.019c-1.318-0.391-1.471,1.143-0.742,1.826c1.211,1.131,3.74,1.099,5.057-0.002
	C23.502,14.275,23.141,12.796,21.742,13.178z"/>
</svg>
