<?xml version="1.0" encoding="iso-8859-1"?>
<!-- Generator: Adobe Illustrator 16.0.2, SVG Export Plug-In . SVG Version: 6.00 Build 0)  -->
<!DOCTYPE svg PUBLIC "-//W3C//DTD SVG 1.1//EN" "http://www.w3.org/Graphics/SVG/1.1/DTD/svg11.dtd">
<svg version="1.1" id="co_x5F_food_x5F_3" xmlns="http://www.w3.org/2000/svg" xmlns:xlink="http://www.w3.org/1999/xlink" x="0px"
	 y="0px" width="40px" height="40px" viewBox="0 0 40 40" style="enable-background:new 0 0 40 40;" xml:space="preserve">
<path fill="#0D47A1" style="fill-rule:evenodd;clip-rule:evenodd;" d="M29.995,11.857v2.158h2.399c3.634,0,6.599,2.965,6.599,6.6v1.799
	c0,3.634-2.965,6.599-6.599,6.599h-2.399v3.6c0,2.421-1.979,4.399-4.4,4.399H9.4c-2.422,0-4.4-1.977-4.4-4.399V11.951
	c0.455,0.139,0.971,0.087,1.54-0.359c1.729-1.356,1.87,2.195,6.081,2.427c3.563,0.189,5.226-2.418,6.477-2.846
	c0.976-0.334,0.989,0.99,3.114,1.099c3.012,0.152,4.332-2.547,6.126-1.445c0.502,0.52,1.056,1.045,1.618,1.033L29.995,11.857
	L29.995,11.857z M5.167,9.948c0.811,0.074,2.404-0.656,2.598-2.394c1.746,6.574,9.672,5.024,10.96,0.398
	c4.473,5.679,7.597-1.581,10.446,1.374c1.442,1.494,2.881-1.857,2.26-3.468c-0.482-1.254-1.875-2.546-4.622-2.016
	c-3.288,0.635-7.147,1.202-9.811,0.175C0.59-2.314,2.912,9.742,5.167,9.948L5.167,9.948z M9.013,17.035L9.02,30.823
	c0,1.211,1.022,2.199,2.23,2.199h12.596c1.206,0,2.169-0.993,2.169-2.199l-0.008-13.788C18.933,14.312,14.725,21.243,9.013,17.035
	L9.013,17.035z M34.993,22.374v-1.719c0-1.454-1.185-2.64-2.639-2.64h-2.359v6.998h2.359C33.809,25.014,34.993,23.829,34.993,22.374
	z"/>
</svg>
