<?xml version="1.0" encoding="iso-8859-1"?>
<!-- Generator: Adobe Illustrator 16.0.2, SVG Export Plug-In . SVG Version: 6.00 Build 0)  -->
<!DOCTYPE svg PUBLIC "-//W3C//DTD SVG 1.1//EN" "http://www.w3.org/Graphics/SVG/1.1/DTD/svg11.dtd">
<svg version="1.1" id="co_x5F_food_x5F_2" xmlns="http://www.w3.org/2000/svg" xmlns:xlink="http://www.w3.org/1999/xlink" x="0px"
	 y="0px" width="40px" height="40px" viewBox="0 0 40 40" style="enable-background:new 0 0 40 40;" xml:space="preserve">
<path fill="#0D47A1" style="fill-rule:evenodd;clip-rule:evenodd;" d="M28.148,5.153c1.563,1.561,1.561,4.094,0,5.655l0,0
	c1.563-1.562,4.096-1.562,5.656,0s1.561,4.094,0,5.656c-1.561,1.561-4.094,1.561-5.656,0c-0.244-0.245-0.449-0.513-0.617-0.797
	L14.629,28.571c0.283,0.167,0.551,0.374,0.795,0.618c1.563,1.562,1.563,4.094,0,5.656c-1.563,1.561-4.094,1.561-5.656,0
	c-1.561-1.563-1.561-4.095,0-5.656l0,0c-1.561,1.562-4.094,1.562-5.654,0s-1.561-4.095,0-5.655c1.561-1.562,4.094-1.562,5.654,0
	c0.244,0.244,0.451,0.511,0.619,0.795l12.902-12.903c-0.283-0.167-0.551-0.373-0.795-0.617c-1.563-1.562-1.563-4.095,0-5.655
	C24.055,3.591,26.588,3.591,28.148,5.153z"/>
</svg>
