<?xml version="1.0" encoding="iso-8859-1"?>
<!-- Generator: Adobe Illustrator 16.0.2, SVG Export Plug-In . SVG Version: 6.00 Build 0)  -->
<!DOCTYPE svg PUBLIC "-//W3C//DTD SVG 1.1//EN" "http://www.w3.org/Graphics/SVG/1.1/DTD/svg11.dtd">
<svg version="1.1" id="co_x5F_food_x5F_3" xmlns="http://www.w3.org/2000/svg" xmlns:xlink="http://www.w3.org/1999/xlink" x="0px"
	 y="0px" width="40px" height="40px" viewBox="0 0 40 40" style="enable-background:new 0 0 40 40;" xml:space="preserve">
<path fill="#0D47A1" style="fill-rule:evenodd;clip-rule:evenodd;" d="M22.368,6.39v0.213c0,1.073,0.404,1.93,0.884,2.889l2.811,4.747
	c0.64,1.279,0.929,2.505,0.929,3.936v4.493c0,0.992-0.137,1.841-0.452,2.782l-0.867,2.603c-0.423,1.268-0.281,2.443,0.406,3.571
	c0.599,0.979,0.783,2.025,0.558,3.152l-0.433,2.161c-0.125,0.623-0.659,1.062-1.294,1.062h-0.993c-0.476,0-0.989-0.533-0.989-0.533
	c-0.257-0.257-0.677-0.257-0.934,0c0,0-0.513,0.533-0.988,0.533h-1.026c-0.476,0-0.989-0.533-0.989-0.533
	c-0.257-0.257-0.676-0.257-0.933,0c0,0-0.513,0.533-0.989,0.533h-0.993c-0.635,0-1.169-0.438-1.294-1.062l-0.433-2.161
	c-0.225-1.127-0.041-2.173,0.558-3.154c0.687-1.126,0.828-2.302,0.406-3.569l-0.868-2.603c-0.313-0.941-0.451-1.79-0.451-2.782
	v-4.493c0-1.431,0.289-2.656,0.929-3.936l2.811-4.747c0.48-0.959,0.884-1.815,0.884-2.889V6.39h-0.188
	c-0.242,0-0.44-0.198-0.44-0.439V2.665c0-0.362,0.296-0.66,0.66-0.66h3.686c0.363,0,0.66,0.298,0.66,0.66V5.95
	c0,0.241-0.197,0.439-0.44,0.439H22.368z"/>
</svg>
