<?xml version="1.0" encoding="iso-8859-1"?>
<!-- Generator: Adobe Illustrator 16.0.2, SVG Export Plug-In . SVG Version: 6.00 Build 0)  -->
<!DOCTYPE svg PUBLIC "-//W3C//DTD SVG 1.1//EN" "http://www.w3.org/Graphics/SVG/1.1/DTD/svg11.dtd">
<svg version="1.1" id="co_x5F_food_x5F_3" xmlns="http://www.w3.org/2000/svg" xmlns:xlink="http://www.w3.org/1999/xlink" x="0px"
	 y="0px" width="40px" height="40px" viewBox="0 0 40 40" style="enable-background:new 0 0 40 40;" xml:space="preserve">
<path fill="#0D47A1" style="fill-rule:evenodd;clip-rule:evenodd;" d="M26.567,37.007H14.411c-1.334,0-2.421-1.087-2.421-2.42
	c0-6.416,0-12.832,0-19.247c0-0.854,0.208-1.585,0.656-2.312l2.688-4.354c0.448-0.726,0.656-1.457,0.656-2.311V5.013
	c-0.55,0-1-0.449-1-0.999v-2c0-0.55,0.45-1,1-1h8.998c0.55,0,1,0.45,1,1v2c0,0.549-0.45,0.999-1,0.999v1.352
	c0,0.854,0.207,1.585,0.656,2.311l2.687,4.354c0.449,0.727,0.657,1.458,0.657,2.312c0,6.415,0,12.831,0,19.247
	C28.988,35.92,27.901,37.007,26.567,37.007z"/>
</svg>
