<?xml version="1.0" encoding="iso-8859-1"?>
<!-- Generator: Adobe Illustrator 16.0.2, SVG Export Plug-In . SVG Version: 6.00 Build 0)  -->
<!DOCTYPE svg PUBLIC "-//W3C//DTD SVG 1.1//EN" "http://www.w3.org/Graphics/SVG/1.1/DTD/svg11.dtd">
<svg version="1.1" id="co_x5F_food_x5F_3" xmlns="http://www.w3.org/2000/svg" xmlns:xlink="http://www.w3.org/1999/xlink" x="0px"
	 y="0px" width="40px" height="40px" viewBox="0 0 40 40" style="enable-background:new 0 0 40 40;" xml:space="preserve">
<path fill="#0D47A1" style="fill-rule:evenodd;clip-rule:evenodd;" d="M26.56,37.007H14.401c-1.332,0-2.419-1.087-2.419-2.42
	c0-6.416,0-12.832,0-19.247c0-0.854,0.208-1.585,0.654-2.312l2.688-4.354c0.449-0.726,0.656-1.457,0.656-2.311V5.013
	c-0.55,0-0.998-0.449-0.998-0.999v-2c0-0.55,0.448-1,0.998-1h9c0.548,0,0.998,0.45,0.998,1v2c0,0.549-0.45,0.999-0.998,0.999v1.352
	c0,0.854,0.207,1.585,0.654,2.311l2.688,4.354c0.448,0.727,0.656,1.458,0.656,2.312c0,6.415,0,12.831,0,19.247
	C28.979,35.92,27.892,37.007,26.56,37.007L26.56,37.007z M15.669,18.994c-0.362,0.001-0.659,0.296-0.659,0.66v7.679
	c0,0.362,0.297,0.659,0.66,0.659h9.678c0.364,0,0.659-0.297,0.659-0.659v-7.679c0-0.363-0.295-0.66-0.659-0.66H15.669z"/>
</svg>
