<?xml version="1.0" encoding="iso-8859-1"?>
<!-- Generator: Adobe Illustrator 16.0.2, SVG Export Plug-In . SVG Version: 6.00 Build 0)  -->
<!DOCTYPE svg PUBLIC "-//W3C//DTD SVG 1.1//EN" "http://www.w3.org/Graphics/SVG/1.1/DTD/svg11.dtd">
<svg version="1.1" id="co_x5F_food_x5F_2" xmlns="http://www.w3.org/2000/svg" xmlns:xlink="http://www.w3.org/1999/xlink" x="0px"
	 y="0px" width="40px" height="40px" viewBox="0 0 40 40" style="enable-background:new 0 0 40 40;" xml:space="preserve">
<path fill="#0D47A1" style="fill-rule:evenodd;clip-rule:evenodd;" d="M4.009,30.004l1.307-1.308c0.072-0.071,0.18-0.085,0.268-0.033
	c0.087,0.053,0.127,0.154,0.098,0.253c-0.823,2.743,1.755,5.388,2.797,6.993c0.157,0.242,0.2,0.511,0.127,0.79
	c-0.074,0.28-0.243,0.491-0.5,0.626c-1.858,0.973-3.631,0.646-4.849-0.575C1.624,35.112,1.533,32.479,4.009,30.004L4.009,30.004z
	 M7.034,26.979c-0.245,0.244-0.34,0.568-0.268,0.907c0.392,1.838,3.749,4.831,3.039,7.615C9.78,35.6,9.821,35.698,9.909,35.748
	c0.088,0.049,0.193,0.035,0.264-0.036l3.322-3.32c0.32-0.322,0.383-0.799,0.159-1.192c-0.898-1.571-3.858-4.383-2.955-7.299
	c0.03-0.099-0.009-0.2-0.097-0.254c-0.087-0.053-0.196-0.04-0.269,0.032L7.034,26.979L7.034,26.979z M12.038,21.976l3.286-3.286
	c0.073-0.073,0.182-0.085,0.27-0.032c0.088,0.054,0.127,0.158,0.095,0.255c-0.937,2.918,2.015,5.734,2.93,7.316
	c0.228,0.394,0.164,0.874-0.157,1.195l-3.27,3.27c-0.07,0.071-0.176,0.085-0.262,0.036c-0.088-0.048-0.13-0.145-0.106-0.243
	c0.679-2.798-2.714-5.803-3.058-7.629C11.703,22.527,11.799,22.214,12.038,21.976L12.038,21.976z M17.009,17.003
	c-0.232,0.231-0.329,0.533-0.277,0.855c0.29,1.816,3.726,4.833,3.071,7.648c-0.022,0.098,0.021,0.194,0.108,0.243
	c0.087,0.046,0.191,0.031,0.261-0.038l3.277-3.277c0.32-0.319,0.385-0.796,0.162-1.188c-0.891-1.568-3.855-4.379-2.962-7.297
	c0.029-0.098-0.009-0.2-0.097-0.253c-0.088-0.052-0.197-0.039-0.269,0.033L17.009,17.003L17.009,17.003z M21.991,12.021l3.142-3.141
	c0.073-0.073,0.182-0.087,0.268-0.033c0.088,0.052,0.127,0.154,0.097,0.252c-0.887,2.918,2.081,5.728,2.968,7.295
	c0.223,0.393,0.157,0.868-0.162,1.187l-3.165,3.166c-0.071,0.069-0.176,0.085-0.264,0.036c-0.088-0.05-0.13-0.146-0.106-0.245
	c0.692-2.793-2.686-5.792-3.05-7.624C21.654,12.579,21.75,12.263,21.991,12.021L21.991,12.021z M26.844,7.168
	c-0.241,0.241-0.338,0.562-0.27,0.897c0.374,1.834,3.744,4.83,3.046,7.621c-0.024,0.098,0.017,0.196,0.104,0.244
	c0.088,0.05,0.192,0.035,0.264-0.034l3.348-3.349c0.328-0.329,0.387-0.823,0.144-1.219c-1.002-1.632-3.889-4.463-2.807-7.373
	c0.037-0.097,0.003-0.201-0.082-0.259s-0.194-0.051-0.271,0.019c-0.155,0.139-0.313,0.288-0.47,0.445L26.844,7.168L26.844,7.168z
	 M32.355,2.362c1.794-0.779,3.348-0.326,4.481,0.809c1.616,1.619,1.889,3.988-1.05,6.926l-0.647,0.648
	c-0.07,0.069-0.171,0.085-0.258,0.04s-0.132-0.137-0.115-0.233c0.438-2.484-2.186-5.105-2.931-6.902
	C31.629,3.151,31.861,2.575,32.355,2.362z"/>
</svg>
