<?xml version="1.0" encoding="iso-8859-1"?>
<!-- Generator: Adobe Illustrator 16.0.2, SVG Export Plug-In . SVG Version: 6.00 Build 0)  -->
<!DOCTYPE svg PUBLIC "-//W3C//DTD SVG 1.1//EN" "http://www.w3.org/Graphics/SVG/1.1/DTD/svg11.dtd">
<svg version="1.1" id="co_x5F_food_x5F_2" xmlns="http://www.w3.org/2000/svg" xmlns:xlink="http://www.w3.org/1999/xlink" x="0px"
	 y="0px" width="40px" height="40px" viewBox="0 0 40 40" style="enable-background:new 0 0 40 40;" xml:space="preserve">
<path fill="#0D47A1" style="fill-rule:evenodd;clip-rule:evenodd;" d="M13.632,14.587c-1.076,5.213,3.329,12.37,4.564,16.108
	c0.182,0.551-0.044,1.14-0.548,1.429c-1.247,0.714-2.461,1.246-3.624,1.556c-0.118,0.032-0.234,0-0.32-0.087
	c-0.086-0.088-0.116-0.204-0.083-0.322c1.302-4.574-3.243-11.182-4.081-14.136c-0.109-0.386-0.033-0.767,0.216-1.08
	c1.038-1.312,2.154-2.559,3.314-3.764c0.104-0.107,0.259-0.132,0.391-0.063C13.595,14.299,13.663,14.44,13.632,14.587L13.632,14.587
	z M15.569,11.826c-0.328,0.307-0.455,0.735-0.348,1.17c0.874,3.563,5.963,11.469,4.751,16.905c-0.031,0.136,0.024,0.271,0.143,0.349
	c0.118,0.075,0.265,0.071,0.377-0.015c1.254-0.938,2.528-2.021,3.806-3.21c0.334-0.311,0.461-0.75,0.346-1.192
	c-0.98-3.731-6.07-11.771-4.37-17.168c0.043-0.139-0.005-0.282-0.123-0.367c-0.118-0.085-0.271-0.084-0.388,0.003
	C18.383,9.313,16.978,10.506,15.569,11.826L15.569,11.826z M22.262,6.651c1.269-0.734,2.504-1.284,3.687-1.602
	c0.115-0.032,0.229-0.002,0.315,0.08c0.085,0.083,0.119,0.197,0.092,0.313c-1.104,4.742,3.525,11.357,4.169,14.146
	c0.085,0.368,0.006,0.724-0.229,1.021c-1.064,1.351-2.214,2.636-3.409,3.872c-0.103,0.106-0.257,0.132-0.389,0.063
	c-0.131-0.066-0.2-0.207-0.173-0.353c0.989-5.379-3.632-12.645-4.622-16.166C21.552,7.486,21.778,6.931,22.262,6.651L22.262,6.651z
	 M30.097,5.006c-0.468-0.146-0.948-0.009-1.27,0.359c-0.322,0.369-0.392,0.863-0.185,1.308c1.375,2.946,3.522,7.026,3.395,10.353
	c-0.006,0.153,0.089,0.286,0.237,0.329c0.147,0.044,0.3-0.018,0.377-0.15c2.383-4.063,2.867-7.78,0.078-10.569
	C31.924,5.83,31.042,5.298,30.097,5.006L30.097,5.006z M10.117,33.774c0.463,0.125,0.927-0.02,1.237-0.383
	c0.311-0.365,0.379-0.846,0.182-1.282c-1.326-2.94-3.577-7.162-3.42-10.658c0.007-0.153-0.087-0.286-0.234-0.331
	c-0.146-0.044-0.299,0.014-0.378,0.146c-2.509,4.158-3.071,7.972-0.225,10.818C8.141,32.947,9.094,33.498,10.117,33.774z"/>
</svg>
