<?xml version="1.0" encoding="iso-8859-1"?>
<!-- Generator: Adobe Illustrator 16.0.2, SVG Export Plug-In . SVG Version: 6.00 Build 0)  -->
<!DOCTYPE svg PUBLIC "-//W3C//DTD SVG 1.1//EN" "http://www.w3.org/Graphics/SVG/1.1/DTD/svg11.dtd">
<svg version="1.1" id="co_x5F_food_x5F_2" xmlns="http://www.w3.org/2000/svg" xmlns:xlink="http://www.w3.org/1999/xlink" x="0px"
	 y="0px" width="40px" height="40px" viewBox="0 0 40 40" style="enable-background:new 0 0 40 40;" xml:space="preserve">
<path fill="#0D47A1" style="fill-rule:evenodd;clip-rule:evenodd;" d="M36.019,29.018v1.012c0,2.198-1.8,3.998-3.999,3.998H8.025
	c-2.199,0-3.999-1.8-3.999-3.998v-1.012c0-0.544,0.445-0.989,0.99-0.989h30.013C35.574,28.028,36.019,28.474,36.019,29.018
	L36.019,29.018z M10.13,10.075c0.494,0,0.894,0.313,0.894,0.698c0,0.387-0.4,0.698-0.894,0.698c-0.493,0-0.893-0.312-0.893-0.698
	C9.237,10.389,9.638,10.075,10.13,10.075L10.13,10.075z M30.126,10.075c0.494,0,0.894,0.313,0.894,0.698
	c0,0.387-0.4,0.698-0.894,0.698c-0.493,0-0.893-0.312-0.893-0.698C29.233,10.389,29.633,10.075,30.126,10.075L30.126,10.075z
	 M25.127,7.239c0.494,0,0.893,0.313,0.893,0.699c0,0.385-0.399,0.698-0.893,0.698c-0.493,0-0.894-0.313-0.894-0.698
	C24.234,7.553,24.634,7.239,25.127,7.239L25.127,7.239z M15.129,7.239c0.494,0,0.894,0.313,0.894,0.699
	c0,0.385-0.4,0.698-0.894,0.698c-0.493,0-0.893-0.313-0.893-0.698C14.236,7.553,14.636,7.239,15.129,7.239L15.129,7.239z
	 M20.02,10.075c0.493,0,0.893,0.313,0.893,0.698c0,0.387-0.4,0.698-0.893,0.698c-0.494,0-0.894-0.312-0.894-0.698
	C19.126,10.389,19.526,10.075,20.02,10.075L20.02,10.075z M6.025,22.043H6.29l3.538,2.737c0.362,0.28,0.85,0.28,1.211,0l3.271-2.529
	c0.181-0.142,0.377-0.208,0.606-0.208h0.704c0.229,0,0.425,0.066,0.606,0.208l3.27,2.529c0.362,0.28,0.85,0.28,1.211,0l3.271-2.529
	c0.181-0.142,0.377-0.208,0.606-0.208h0.704c0.229,0,0.425,0.066,0.606,0.208l3.271,2.529c0.362,0.28,0.85,0.28,1.211,0l3.538-2.737
	h0.106c1.1,0,2,0.9,2,2v0.938c0,1.1-0.9,1.998-2,1.998H6.025c-1.1,0-2-0.898-2-1.998v-0.938C4.026,22.943,4.925,22.043,6.025,22.043
	L6.025,22.043z M5.803,21.03c1.185,0,2.37-1,3.555-1c1.185,0,2.37,1,3.555,1s2.37-1,3.555-1s2.37,1,3.555,1c1.186,0,2.37-1,3.555-1
	s2.37,1,3.555,1s2.37-1,3.555-1s2.37,1,3.555,1c0.978,0,1.777-0.902,1.777-1.999v-1c0-1.098-0.802-2-1.777-2
	c-1.185,0-2.37-1-3.555-1s-2.37,1-3.555,1s-2.37-1-3.555-1s-2.37,1-3.555,1c-1.185,0-2.37-1-3.555-1s-2.37,1-3.555,1
	s-2.37-1-3.555-1c-1.185,0-2.37,1-3.555,1c-0.976,0-1.777,0.899-1.777,2v1C4.026,20.13,4.826,21.03,5.803,21.03L5.803,21.03z
	 M20.022,5.033c-8.096,0-14.789,3.385-15.85,7.775c-0.074,0.306-0.01,0.599,0.185,0.846c0.194,0.246,0.464,0.377,0.778,0.377H34.91
	c0.313,0,0.584-0.131,0.778-0.378c0.193-0.246,0.258-0.539,0.185-0.845C34.812,8.418,28.118,5.033,20.022,5.033z"/>
</svg>
