<?xml version="1.0" encoding="iso-8859-1"?>
<!-- Generator: Adobe Illustrator 16.0.2, SVG Export Plug-In . SVG Version: 6.00 Build 0)  -->
<!DOCTYPE svg PUBLIC "-//W3C//DTD SVG 1.1//EN" "http://www.w3.org/Graphics/SVG/1.1/DTD/svg11.dtd">
<svg version="1.1" id="co_x5F_food_x5F_2" xmlns="http://www.w3.org/2000/svg" xmlns:xlink="http://www.w3.org/1999/xlink" x="0px"
	 y="0px" width="40px" height="40px" viewBox="0 0 40 40" style="enable-background:new 0 0 40 40;" xml:space="preserve">
<path fill="#0D47A1" style="fill-rule:evenodd;clip-rule:evenodd;" d="M36.027,27.736v1.229c0,2.199-1.8,4-3.999,4H8.034
	c-2.199,0-3.999-1.801-3.999-4v-1.229c0-0.424,0.346-0.77,0.77-0.77h30.453C35.682,26.967,36.027,27.313,36.027,27.736
	L36.027,27.736z M7.405,16.818c0.512,0,0.928,0.415,0.928,0.927c0,0.513-0.416,0.928-0.928,0.928s-0.927-0.415-0.927-0.928
	C6.478,17.233,6.893,16.818,7.405,16.818L7.405,16.818z M10.14,10.013c0.493,0,0.894,0.313,0.894,0.698
	c0,0.387-0.4,0.698-0.894,0.698s-0.894-0.312-0.894-0.698C9.246,10.326,9.646,10.013,10.14,10.013L10.14,10.013z M30.135,10.013
	c0.494,0,0.894,0.313,0.894,0.698c0,0.387-0.4,0.698-0.894,0.698c-0.493,0-0.894-0.312-0.894-0.698
	C29.242,10.326,29.642,10.013,30.135,10.013L30.135,10.013z M25.136,7.177c0.494,0,0.894,0.313,0.894,0.699
	c0,0.385-0.4,0.697-0.894,0.697c-0.493,0-0.893-0.313-0.893-0.697C24.243,7.49,24.644,7.177,25.136,7.177L25.136,7.177z
	 M15.139,7.177c0.493,0,0.894,0.313,0.894,0.699c0,0.385-0.4,0.697-0.894,0.697s-0.894-0.313-0.894-0.697
	C14.245,7.49,14.646,7.177,15.139,7.177L15.139,7.177z M20.029,10.013c0.494,0,0.894,0.313,0.894,0.698
	c0,0.387-0.4,0.698-0.894,0.698c-0.493,0-0.893-0.312-0.893-0.698C19.136,10.326,19.536,10.013,20.029,10.013L20.029,10.013z
	 M20.031,4.971c-8.29,0-15.11,3.55-15.917,8.094c-0.042,0.232,0.017,0.449,0.168,0.629c0.151,0.181,0.354,0.275,0.59,0.275h30.317
	c0.236,0,0.439-0.095,0.59-0.275c0.151-0.18,0.209-0.396,0.168-0.629C35.141,8.521,28.321,4.971,20.031,4.971L20.031,4.971z
	 M7.034,14.969c-1.1,0-2,0.9-2,2v1c0,1.1,0.9,1.999,2,1.999h12.455c0.288,0,0.526-0.22,0.549-0.508
	c0.062-0.799,0.729-1.491,1.598-1.491c0.868,0,1.537,0.692,1.599,1.492c0.022,0.287,0.26,0.507,0.548,0.507h9.245
	c1.099,0,2-0.9,2-1.999v-1c0-1.1-0.9-2-2-2h-0.783c-0.153,0-0.285,0.055-0.393,0.165c-0.107,0.109-0.16,0.242-0.157,0.395
	c0.015,0.852-0.662,1.65-1.602,1.65c-0.941,0-1.616-0.799-1.601-1.649c0.003-0.153-0.05-0.286-0.157-0.396s-0.239-0.165-0.393-0.165
	H14.566c-0.278,0-0.509,0.203-0.545,0.479c-0.08,0.603-0.595,1.113-1.26,1.113c-0.665,0-1.18-0.511-1.259-1.113
	c-0.036-0.276-0.267-0.479-0.545-0.479H7.034L7.034,14.969z M4.035,20.968h3.292c0.273,0,0.507,0.098,0.7,0.29l2.838,2.839
	c0.471,0.471,1.24,0.471,1.711,0l2.838-2.839c0.193-0.192,0.428-0.29,0.7-0.29h19.914c1.1,0,2,0.9,2,1.999v1.001
	c0,1.1-0.899,1.999-2,1.999H4.035c-1.1,0-2-0.899-2-1.999v-1.001C2.035,21.868,2.935,20.968,4.035,20.968z"/>
</svg>
