<?xml version="1.0" encoding="iso-8859-1"?>
<!-- Generator: Adobe Illustrator 16.0.2, SVG Export Plug-In . SVG Version: 6.00 Build 0)  -->
<!DOCTYPE svg PUBLIC "-//W3C//DTD SVG 1.1//EN" "http://www.w3.org/Graphics/SVG/1.1/DTD/svg11.dtd">
<svg version="1.1" id="co_x5F_food_x5F_1" xmlns="http://www.w3.org/2000/svg" xmlns:xlink="http://www.w3.org/1999/xlink" x="0px"
	 y="0px" width="40px" height="40px" viewBox="0 0 40 40" style="enable-background:new 0 0 40 40;" xml:space="preserve">
<path fill="#0D47A1" style="fill-rule:evenodd;clip-rule:evenodd;" d="M36.375,15.984c0.078,2.716-0.514,5.488-1.852,8.071
	c-2.414,4.663-6.74,7.683-11.523,8.621v1.324c0,1.656-1.342,3-3,3c-1.656,0-3-1.344-3-3v-1.247
	c-1.629-0.282-3.242-0.813-4.787-1.612c-2.217-1.147-3.777-1.738-5.662-3.963c-0.758-0.895-2.131-1.446-2.658-2.576
	c-0.848-1.755-0.072-3.832,2.48-0.742c1.873,2.271,5.953,4.596,8.547,3.731c-1.807-11.736,16.135-3.682,15.348-6.319
	c-3.611-5.417,6.195-13.371,7.02-8.398C37.408,13.611,36.354,15.233,36.375,15.984z M32.713,10.752
	c-3.672,1.029-6.189,5.503-5.096,8.771c-2.125-0.204-3.162-0.599-5.301-0.652c-0.527-0.716-1.256-1.645-2.094-1.956
	c0.018-1.182,0.678-2.016,2.508-2.016c0-4.817,3.211-5.62,6.422-5.62c-0.838-1.258-1.816-3.115-2.389-4.566
	c-0.502-1.267-0.291-2.564,1.154-2.19c0.854,0.222,2.336,1.507,2.586,3.146c0.211,1.383,1.736,2.235,2.336,3.584
	C33.391,10.493,33.016,10.667,32.713,10.752z M21.328,11.269c-0.936-1.042-2.086-1.524-3.561-1.502
	c0.439-1.584,0.592-3.319-0.15-4.825c-0.143-0.291,0.012-0.643,0.324-0.732c1.451-1.29,5.967-1.178,6.688,0.67
	c0.445,1.146,0.906,1.822,1.49,2.879C24.184,7.964,22.072,9.364,21.328,11.269z M20.391,13.097
	c-0.068,0.351-0.131,0.239-0.162,0.635c-2.404,1.02-1.938,4.054-1.938,4.054s-1.691-0.61-2.971-0.145
	c-1.127-3.25-3.068-3.326-4.768-3.327c0.326-1.147,1.846-5.337,0.352-8.884c-0.254-0.596-0.43-1.315-0.066-2.037
	c0.15-0.81,1.027-0.702,1.803-0.614c2.07,0.146,4.986,4.049,2.279,9.465C17.119,11.144,18.873,11.442,20.391,13.097z M13.729,20.265
	c1.939-1.275,3.52-0.805,3-0.466c-2.012,0.642-3.797,1.84-3.658,4.96c0.018,0.368-0.352,0.636-0.707,0.543
	c-5.092-1.671-5.836-4.521-6.594-4.891c-0.6-1.496-0.949-2.369-0.949-4.078c0-1.673,0.217-2.125,0.764-3.62
	c0.67-1.606-0.816-4.193,0.693-5.841c0.666-0.662,2.037-0.064,2.436,1.24c0.846,2.784-0.301,7.774-0.539,8.566
	C9.982,16.046,13.99,16.805,13.729,20.265z"/>
</svg>
