<?xml version="1.0" encoding="iso-8859-1"?>
<!-- Generator: Adobe Illustrator 16.0.2, SVG Export Plug-In . SVG Version: 6.00 Build 0)  -->
<!DOCTYPE svg PUBLIC "-//W3C//DTD SVG 1.1//EN" "http://www.w3.org/Graphics/SVG/1.1/DTD/svg11.dtd">
<svg version="1.1" id="co_x5F_food_x5F_2" xmlns="http://www.w3.org/2000/svg" xmlns:xlink="http://www.w3.org/1999/xlink" x="0px"
	 y="0px" width="40px" height="40px" viewBox="0 0 40 40" style="enable-background:new 0 0 40 40;" xml:space="preserve">
<path fill="#0D47A1" style="fill-rule:evenodd;clip-rule:evenodd;" d="M16.236,20.295c1.012,0,2.502-2.353,3.752-2.381
	c1.252,0.028,2.697,2.381,3.85,2.381s2.422-2.381,3.705-2.381s2.504,2.381,3.754,2.381c1.039,0,1.732-0.958,1.732-2.124v-0.547
	c0-1.455-1.029-2.64-2.484-2.64H9.463c-1.453,0-2.482,1.185-2.482,2.64v0.547c0,1.169,0.693,2.124,1.732,2.124
	c1.252,0,2.365-2.381,3.754-2.381S14.732,20.295,16.236,20.295z M8.66,30.003c1.258,0,2.518,2.383,3.775,2.383
	c1.26,0,2.518-2.383,3.777-2.383c1.258,0,2.518,2.383,3.775,2.383c1.26,0,2.52-2.383,3.777-2.383c1.26,0,2.52,2.383,3.777,2.383
	c1.26,0,2.52-2.383,3.777-2.383c1.26,0,2.52,2.383,3.777,2.383c1.037,0,1.92-0.959,1.92-2.125v-0.609
	c0-1.454-1.217-2.641-2.672-2.641H5.633c-1.453,0-2.639,1.187-2.639,2.641v0.609c0,1.169,0.846,2.125,1.889,2.125
	C6.422,32.386,7.113,30.003,8.66,30.003z M34.986,37.13c0,0.484-0.396,0.879-0.881,0.879H5.873c-0.484,0-0.881-0.395-0.881-0.879
	v-2.583c2.133-0.104,2.803-2.384,3.668-2.384c0.861,0,1.994,2.387,3.775,2.387s3.037-2.383,3.777-2.383
	c0.814,0,1.873,2.379,3.775,2.379c2.025,0,2.857-2.383,3.777-2.383c0.758,0,2.104,2.383,3.777,2.383
	c1.887,0,3.027-2.379,3.777-2.379c0.654,0,1.957,2.292,3.666,2.376V37.13z M16.213,5.899c1.127,0,2.252,1.908,3.381,2.309
	c0,0,0.359,0.115,0.57,0.058c1.143-0.191,2.283-2.158,3.426-2.351l0.426,0.015c1.176,0.274,2.354,2.352,3.529,2.352
	c1.037,0,2.451-0.959,2.451-2.126V5.608c0-1.453-1.313-2.639-2.766-2.639H12.625c-1.455,0-2.641,1.186-2.641,2.639v0.547
	c0,1.169,1.611,2.126,2.451,2.126C13.859,8.281,14.846,5.899,16.213,5.899z M27.986,13.087c0,0.484-0.393,0.881-0.879,0.881H12.871
	c-0.484,0-0.881-0.396-0.881-0.881v-2.682c0.242,0.004,0.98,0.602,3.125-1.472l0.004,0.001c1.234-1.165,0.951-1.169,2.186-0.004
	c1.963,1.917,2.941,1.563,3.145,1.489s0.879-0.259,2.223-1.486c0.99-0.904,1.143-1.268,2.188,0.001
	c1.793,1.964,3.049,1.571,3.127,1.469V13.087z M30.986,22.434v2.667c0,0.485-0.395,0.881-0.879,0.881H9.902
	c-0.484,0-0.879-0.396-0.879-0.881v-2.666c1.367-0.189,2.799-2.355,3.432-2.355c0.674,0,1.662,2.376,3.813,2.376
	c1.439-0.021,3.072-2.376,3.709-2.376c0.57,0,2.17,2.374,3.857,2.374c1.705,0,2.844-2.374,3.695-2.374S29.582,22.247,30.986,22.434z
	"/>
</svg>
