<?xml version="1.0" encoding="iso-8859-1"?>
<!-- Generator: Adobe Illustrator 16.0.2, SVG Export Plug-In . SVG Version: 6.00 Build 0)  -->
<!DOCTYPE svg PUBLIC "-//W3C//DTD SVG 1.1//EN" "http://www.w3.org/Graphics/SVG/1.1/DTD/svg11.dtd">
<svg version="1.1" id="co_x5F_food_x5F_2" xmlns="http://www.w3.org/2000/svg" xmlns:xlink="http://www.w3.org/1999/xlink" x="0px"
	 y="0px" width="40px" height="40px" viewBox="0 0 40 40" style="enable-background:new 0 0 40 40;" xml:space="preserve">
<path fill="#0D47A1" style="fill-rule:evenodd;clip-rule:evenodd;" d="M5.431,23.013h28.171c0.801,0,1.457,0.674,1.457,1.499l0,0
	c0,0.826-0.656,1.501-1.457,1.501H5.431c-0.801,0-1.456-0.675-1.456-1.501l0,0C3.975,23.687,4.63,23.013,5.431,23.013L5.431,23.013z
	 M19.494,1.982c0.832,1.253,2.498,2.232,2.498,3.964c0,1.12-0.469,1.756-1.174,2.065c0.135-0.223,0.209-0.481,0.209-0.759
	c0-0.833-0.686-1.509-1.533-1.509c-0.847,0-1.535,0.676-1.535,1.509c0,0.277,0.078,0.536,0.213,0.761
	c-0.709-0.31-1.178-0.947-1.178-2.067C16.995,4.215,18.661,3.235,19.494,1.982L19.494,1.982z M17.657,9.015h3.679
	c0.363,0,0.66,0.298,0.66,0.661v5.678c0,0.364-0.297,0.659-0.66,0.659h-3.679c-0.363,0-0.66-0.295-0.66-0.659V9.676
	C16.997,9.313,17.293,9.015,17.657,9.015L17.657,9.015z M26.494,1.982c0.834,1.253,2.502,2.232,2.502,3.964
	c0,1.12-0.471,1.756-1.176,2.065c0.131-0.223,0.209-0.481,0.209-0.759c0-0.833-0.686-1.509-1.535-1.509
	c-0.846,0-1.533,0.676-1.533,1.509c0,0.277,0.076,0.536,0.209,0.761c-0.703-0.31-1.174-0.947-1.174-2.067
	C23.996,4.215,25.66,3.235,26.494,1.982L26.494,1.982z M24.656,9.015h3.68c0.363,0,0.66,0.298,0.66,0.661v5.678
	c0,0.364-0.297,0.659-0.66,0.659h-3.68c-0.361,0-0.658-0.295-0.658-0.659V9.676C23.998,9.313,24.295,9.015,24.656,9.015
	L24.656,9.015z M12.502,1.982C13.335,3.235,15,4.215,15,5.946c0,1.12-0.47,1.756-1.175,2.065c0.134-0.223,0.212-0.481,0.212-0.759
	c0-0.833-0.689-1.509-1.535-1.509c-0.849,0-1.536,0.676-1.536,1.509c0,0.277,0.078,0.536,0.212,0.761
	c-0.704-0.31-1.177-0.947-1.177-2.067C10.001,4.215,11.668,3.235,12.502,1.982L12.502,1.982z M10.661,9.015h3.68
	C14.704,9.015,15,9.313,15,9.676v5.678c0,0.364-0.296,0.659-0.659,0.659h-3.68c-0.363,0-0.661-0.295-0.661-0.659V9.676
	C10,9.313,10.298,9.015,10.661,9.015L10.661,9.015z M8.507,19.943c1.224,0,2.448,2.381,3.67,2.381c1.224,0,2.446-2.381,3.67-2.381
	c1.224,0,2.447,2.381,3.669,2.381c1.225,0,2.447-2.381,3.67-2.381c1.225,0,2.447,2.381,3.67,2.381c1.225,0,2.447-2.381,3.67-2.381
	s2.445,2.381,3.67,2.381c1.01,0,1.836-0.958,1.836-2.123v-0.547c0-1.455-1.154-2.641-2.566-2.641H5.567
	c-1.412,0-2.565,1.186-2.565,2.641v0.547c0,1.168,0.37,2.123,1.835,2.123C6.638,22.324,7.297,19.943,8.507,19.943z M5.431,35.009
	h28.171c0.801,0,1.457,0.676,1.457,1.501l0,0c0,0.824-0.656,1.499-1.457,1.499H5.431c-0.801,0-1.456-0.675-1.456-1.499l0,0
	C3.975,35.685,4.63,35.009,5.431,35.009L5.431,35.009z M5.431,31.011h28.171c0.801,0,1.457,0.675,1.457,1.499l0,0
	c0,0.826-0.656,1.5-1.457,1.5H5.431c-0.801,0-1.456-0.674-1.456-1.5l0,0C3.975,31.686,4.63,31.011,5.431,31.011L5.431,31.011z
	 M5.431,27.011h28.171c0.801,0,1.457,0.675,1.457,1.501l0,0c0,0.824-0.656,1.499-1.457,1.499H5.431
	c-0.801,0-1.456-0.675-1.456-1.499l0,0C3.975,27.686,4.63,27.011,5.431,27.011z"/>
</svg>
