<?xml version="1.0" encoding="iso-8859-1"?>
<!-- Generator: Adobe Illustrator 16.0.2, SVG Export Plug-In . SVG Version: 6.00 Build 0)  -->
<!DOCTYPE svg PUBLIC "-//W3C//DTD SVG 1.1//EN" "http://www.w3.org/Graphics/SVG/1.1/DTD/svg11.dtd">
<svg version="1.1" id="co_x5F_food_x5F_2" xmlns="http://www.w3.org/2000/svg" xmlns:xlink="http://www.w3.org/1999/xlink" x="0px"
	 y="0px" width="40px" height="40px" viewBox="0 0 40 40" style="enable-background:new 0 0 40 40;" xml:space="preserve">
<path fill="#0D47A1" style="fill-rule:evenodd;clip-rule:evenodd;" d="M3.966,21.078c0.546,0.409,1.21,0.694,2.327,0.694
	c0.038,0,0.077-0.002,0.116-0.002l4.71,17.15c-1.551-0.311-2.805-1.419-3.299-2.986c-1.513-4.791-3.025-9.582-4.538-14.373
	c-0.059-0.185,0.007-0.377,0.166-0.491C3.605,20.958,3.811,20.962,3.966,21.078L3.966,21.078z M20.288,1.955
	c-1.857,0-3.366,1.543-3.366,3.448c0,0.653,0.178,1.263,0.485,1.782c-6.29,1.027-11.254,5.361-12.448,10.86
	c-0.102,0.463,0.184,0.923,0.645,1.039c0.198,0.05,0.424,0.079,0.689,0.079v-0.006c0.694,0,1.385-0.323,2.119-0.667
	c1.376-0.643,2.858-1.337,5.17-1.081c2.098,0.233,3.441,1.116,4.646,1.908c0.753,0.496,1.43,0.938,2.073,0.938
	c0.743,0,1.551-0.493,2.432-1.029c1.233-0.752,2.572-1.568,4.483-1.812c2.228-0.282,3.675,0.417,5.03,1.07
	c0.714,0.344,1.392,0.672,2.037,0.672h0.001v0.006c0.254,0,0.508-0.052,0.751-0.134c0.426-0.146,0.673-0.583,0.575-1.022
	c-1.209-5.48-6.164-9.796-12.44-10.822c0.307-0.52,0.485-1.129,0.485-1.782C23.656,3.498,22.148,1.955,20.288,1.955L20.288,1.955z
	 M7.924,21.451l4.821,17.558h2.705l-2.693-19.037C10.653,19.938,9.346,20.924,7.924,21.451L7.924,21.451z M14.35,20.183
	c2.341,0.594,3.58,2.24,5.265,2.613v16.213h-2.6L14.35,20.183L14.35,20.183z M21.166,22.764c1.702-0.423,3.128-1.96,5.299-2.562
	l-2.66,18.807h-2.639V22.764L21.166,22.764z M28.063,19.968c2.026-0.037,3.328,1.011,4.759,1.525l-4.81,17.516h-2.645L28.063,19.968
	L28.063,19.968z M34.349,21.771c0.707-0.013,1.539-0.265,2.305-0.762c0.159-0.104,0.355-0.096,0.506,0.018
	c0.15,0.115,0.211,0.304,0.153,0.484l-4.555,14.424c-0.475,1.502-1.646,2.582-3.107,2.941L34.349,21.771z"/>
</svg>
