<?xml version="1.0" encoding="iso-8859-1"?>
<!-- Generator: Adobe Illustrator 16.0.2, SVG Export Plug-In . SVG Version: 6.00 Build 0)  -->
<!DOCTYPE svg PUBLIC "-//W3C//DTD SVG 1.1//EN" "http://www.w3.org/Graphics/SVG/1.1/DTD/svg11.dtd">
<svg version="1.1" id="co_x5F_food_x5F_2" xmlns="http://www.w3.org/2000/svg" xmlns:xlink="http://www.w3.org/1999/xlink" x="0px"
	 y="0px" width="40px" height="40px" viewBox="0 0 40 40" style="enable-background:new 0 0 40 40;" xml:space="preserve">
<path fill="#0D47A1" style="fill-rule:evenodd;clip-rule:evenodd;" d="M19.9,10.016c4.58,0,8.439,2.927,9.623,6.919
	c2.221-2.217,5.826-4.855,7.645-3.405c0.531,0.424,0.83,1.115,0.83,1.92c0,1.796-1.375,3.089-2,4.063c0.627,0.977,2,2.268,2,4.065
	c0,0.803-0.299,1.494-0.83,1.919c-1.82,1.45-5.424-1.188-7.645-3.406c-1.184,3.992-5.043,6.921-9.623,6.921
	c-4.551,0-8.391-2.891-9.602-6.843c-2.225,2.2-5.766,4.762-7.564,3.328c-0.531-0.425-0.83-1.116-0.83-1.919
	c0-1.798,1.375-3.089,2-4.065c-0.625-0.975-2-2.268-2-4.063c0-0.805,0.299-1.496,0.83-1.92c1.799-1.434,5.34,1.127,7.564,3.326
	C11.51,12.904,15.35,10.016,19.9,10.016z"/>
</svg>
