<?xml version="1.0" encoding="iso-8859-1"?>
<!-- Generator: Adobe Illustrator 16.0.2, SVG Export Plug-In . SVG Version: 6.00 Build 0)  -->
<!DOCTYPE svg PUBLIC "-//W3C//DTD SVG 1.1//EN" "http://www.w3.org/Graphics/SVG/1.1/DTD/svg11.dtd">
<svg version="1.1" id="co_x5F_food_x5F_2" xmlns="http://www.w3.org/2000/svg" xmlns:xlink="http://www.w3.org/1999/xlink" x="0px"
	 y="0px" width="40px" height="40px" viewBox="0 0 40 40" style="enable-background:new 0 0 40 40;" xml:space="preserve">
<path fill="#0D47A1" style="fill-rule:evenodd;clip-rule:evenodd;" d="M11.707,12.015h16.484c0.512,0,0.949,0.15,1.352,0.464l8.063,6.271
	c0.221,0.171,0.34,0.414,0.34,0.694v0.14c0,0.279-0.119,0.521-0.34,0.693l-8.063,6.272c-0.402,0.313-0.84,0.462-1.352,0.462H11.707
	c-0.512,0-0.949-0.149-1.352-0.462l-8.063-6.272c-0.223-0.172-0.34-0.414-0.34-0.693v-0.14c0-0.28,0.117-0.523,0.34-0.694
	l8.063-6.271C10.758,12.165,11.195,12.015,11.707,12.015z"/>
</svg>
