<?xml version="1.0" encoding="iso-8859-1"?>
<!-- Generator: Adobe Illustrator 16.0.2, SVG Export Plug-In . SVG Version: 6.00 Build 0)  -->
<!DOCTYPE svg PUBLIC "-//W3C//DTD SVG 1.1//EN" "http://www.w3.org/Graphics/SVG/1.1/DTD/svg11.dtd">
<svg version="1.1" id="co_x5F_food_x5F_2" xmlns="http://www.w3.org/2000/svg" xmlns:xlink="http://www.w3.org/1999/xlink" x="0px"
	 y="0px" width="40px" height="40px" viewBox="0 0 40 40" style="enable-background:new 0 0 40 40;" xml:space="preserve">
<path fill="#0D47A1" d="M11.789,16.937c0,1.285-1.043,2.328-2.329,2.328c-0.36,0-0.701-0.084-1.005-0.229l3.333-3.332V16.937L11.789,16.937z
	 M7.663,18.414l4.126-4.126v-1.147V13.14h-0.01c0-0.592,0.08-1.166,0.228-1.714l-4.875,4.875v0.636
	C7.132,17.497,7.331,18.013,7.663,18.414L7.663,18.414z M7.132,14.888v-1.747V13.14h0.009c0-0.318,0.014-0.635,0.04-0.946
	L17.51,1.864c0.312-0.025,0.627-0.04,0.945-0.04v-0.01h0.003h0.001v0.01c0.549,0,1.089,0.04,1.618,0.116L7.132,14.888L7.132,14.888z
	 M7.45,10.51l8.376-8.376c-2.001,0.479-3.797,1.492-5.228,2.877c-0.048,0.041-0.095,0.084-0.141,0.13
	C9.005,6.592,7.944,8.442,7.45,10.51L7.45,10.51z M21.256,2.177l-4.512,4.512c0.546-0.146,1.121-0.227,1.71-0.227v0.009h0.003h0.001
	V6.462c0.364,0,0.72,0.03,1.068,0.088l3.677-3.678C22.583,2.583,21.932,2.35,21.256,2.177L21.256,2.177z M24.133,3.357
	c0.549,0.321,1.069,0.686,1.555,1.09l-3.305,3.306c-0.525-0.385-1.107-0.696-1.73-0.916L24.133,3.357L24.133,3.357z M26.429,5.12
	l0.031,0.03c0.432,0.432,0.829,0.899,1.187,1.396l-3.357,3.359c-0.305-0.545-0.683-1.043-1.121-1.481l-0.022-0.021L26.429,5.12
	L26.429,5.12z M28.205,7.401l-3.471,3.471c0.257,0.703,0.399,1.458,0.402,2.243l3.924-3.926C28.828,8.566,28.54,7.968,28.205,7.401
	L28.205,7.401z M29.402,10.263c0.194,0.737,0.316,1.502,0.357,2.287l-4.631,4.632v-2.645L29.402,10.263L29.402,10.263z
	 M29.784,13.939l-4.656,4.656v2.646l4.656-4.658V13.939L29.784,13.939z M29.784,17.997v2.645l-4.656,4.656v-2.644L29.784,17.997
	L29.784,17.997z M29.784,22.057l-4.656,4.656v2.644l4.656-4.657V22.057L29.784,22.057z M29.784,26.113v2.646l-4.656,4.656v-2.644
	L29.784,26.113L29.784,26.113z M29.784,30.173l-4.656,4.656v0.932c0,0.486,0.148,0.937,0.402,1.31l4.254-4.253V30.173L29.784,30.173
	z M29.784,34.23v1.53c0,1.285-1.042,2.328-2.328,2.328c-0.438,0-0.848-0.121-1.198-0.332L29.784,34.23z"/>
</svg>
