<?xml version="1.0" encoding="iso-8859-1"?>
<!-- Generator: Adobe Illustrator 16.0.2, SVG Export Plug-In . SVG Version: 6.00 Build 0)  -->
<!DOCTYPE svg PUBLIC "-//W3C//DTD SVG 1.1//EN" "http://www.w3.org/Graphics/SVG/1.1/DTD/svg11.dtd">
<svg version="1.1" id="co_x5F_food_x5F_2" xmlns="http://www.w3.org/2000/svg" xmlns:xlink="http://www.w3.org/1999/xlink" x="0px"
	 y="0px" width="40px" height="40px" viewBox="0 0 40 40" style="enable-background:new 0 0 40 40;" xml:space="preserve">
<path fill="#0D47A1" style="fill-rule:evenodd;clip-rule:evenodd;" d="M31.556,13.992H7.496c-1.788,0-1.848-2.995,0-2.995h1.42
	c0.658-5.275,5.157-9.004,10.609-9.004c5.453,0,9.952,3.729,10.61,9.004h1.42C33.304,10.997,33.251,13.992,31.556,13.992z
	 M10.408,15.985h18.289c0.3,0,0.559,0.136,0.728,0.385c0.17,0.247,0.203,0.537,0.094,0.816c-1.257,3.23-4.088,5.685-7.52,6.508
	v11.807c0,1.381-1.119,2.5-2.5,2.5s-2.5-1.119-2.5-2.5V23.674c-3.384-0.848-6.169-3.289-7.414-6.487
	C9.478,16.907,9.51,16.617,9.68,16.37C9.85,16.121,10.108,15.985,10.408,15.985z"/>
</svg>
