<?xml version="1.0" encoding="iso-8859-1"?>
<!-- Generator: Adobe Illustrator 16.0.2, SVG Export Plug-In . SVG Version: 6.00 Build 0)  -->
<!DOCTYPE svg PUBLIC "-//W3C//DTD SVG 1.1//EN" "http://www.w3.org/Graphics/SVG/1.1/DTD/svg11.dtd">
<svg version="1.1" id="co_x5F_food_x5F_1" xmlns="http://www.w3.org/2000/svg" xmlns:xlink="http://www.w3.org/1999/xlink" x="0px"
	 y="0px" width="40px" height="40px" viewBox="0 0 40 40" style="enable-background:new 0 0 40 40;" xml:space="preserve">
<path fill="#0D47A1" style="fill-rule:evenodd;clip-rule:evenodd;" d="M24.976,28.675c-0.727,1.016-1.808,5.016-1.671,7.726
	c-0.074,0.984-5.741,0.921-5.7,0c0.274-2.402-0.521-6.053-1.642-7.674c1.168-1.148,1.411-2.863,0.521-4.244
	c0.94-0.544,1.37-1.122,1.294-2.288c1.413,0.55,3.853,0.538,5.434-0.015c-0.063,0.951,0.393,1.66,1.176,2.156
	c0,0-1.655,0.973,1.494,4.387L24.976,28.675z M33.905,25.061c2.293-0.166,4.1-1.907,4.1-4.029c0-1.7-1.157-3.155-2.796-3.752
	c0.401-0.608,0.634-1.318,0.634-2.078c0-2.231-1.996-4.042-4.458-4.042c-0.304,0-0.602,0.027-0.888,0.08
	c0.112-0.355,0.173-0.728,0.173-1.114c0-2.232-1.996-4.043-4.457-4.043c-0.787,0-1.525,0.184-2.166,0.509
	c-0.087-1.956-1.862-3.518-4.039-3.518c-2.178,0-3.953,1.562-4.04,3.518c-0.641-0.325-1.38-0.509-2.166-0.509
	c-2.461,0-4.458,1.811-4.458,4.043c0,0.387,0.061,0.759,0.172,1.114c-0.287-0.053-0.583-0.08-0.886-0.08
	c-2.461,0-4.458,1.811-4.458,4.042c0,0.76,0.232,1.47,0.633,2.078c-1.638,0.597-2.795,2.052-2.795,3.752
	c0,2.231,1.996,4.043,4.458,4.043c0.242,0,0.479-0.018,0.711-0.052C7.102,25.31,7.06,25.608,7.06,25.918
	c0,2.025,1.81,3.667,4.042,3.667c2.233,0,4.043-1.642,4.043-3.667c0-1.038-0.477-1.978-1.244-2.645
	c2.116-0.881,2.813-2.749,1.108-4.203c3.219,1.452,7.654,1.569,10.997,0c-1.637,1.624-0.852,3.429,1.188,4.188
	c-0.778,0.668-1.263,1.613-1.263,2.659c0,2.025,1.812,3.667,4.042,3.667c2.235,0,4.045-1.642,4.045-3.667
	C34.018,25.623,33.979,25.336,33.905,25.061z"/>
</svg>
