<?xml version="1.0" encoding="iso-8859-1"?>
<!-- Generator: Adobe Illustrator 16.0.2, SVG Export Plug-In . SVG Version: 6.00 Build 0)  -->
<!DOCTYPE svg PUBLIC "-//W3C//DTD SVG 1.1//EN" "http://www.w3.org/Graphics/SVG/1.1/DTD/svg11.dtd">
<svg version="1.1" id="co_x5F_food_x5F_3" xmlns="http://www.w3.org/2000/svg" xmlns:xlink="http://www.w3.org/1999/xlink" x="0px"
	 y="0px" width="40px" height="40px" viewBox="0 0 40 40" style="enable-background:new 0 0 40 40;" xml:space="preserve">
<path fill="#0D47A1" style="fill-rule:evenodd;clip-rule:evenodd;" d="M26.085,36.997H14.9c-1.049,0-1.905-0.987-1.905-2.199V20.82
	c0-1.956,0.376-3.632,1.199-5.342l1.934-4.015c0.522-1.088,0.867-2.164,1.047-3.306c0.017-0.108,0.108-0.186,0.217-0.186h0.392
	c0.11,0,0.203,0.082,0.218,0.192c0.096,0.767,1.752,1.367,2.545,1.367c0.794,0,2.45-0.597,2.544-1.365
	c0.014-0.11,0.106-0.192,0.219-0.193l0.285-0.001c0.108,0,0.199,0.077,0.218,0.187c0.181,1.141,0.522,2.217,1.048,3.305l1.932,4.015
	c0.825,1.71,1.201,3.386,1.201,5.342v13.978C27.992,36.009,27.136,36.997,26.085,36.997z M24.063,34.729
	c0.382,0,0.691-0.309,0.691-0.69c0-0.381-0.31-0.69-0.691-0.69s-0.691,0.31-0.691,0.69C23.372,34.42,23.682,34.729,24.063,34.729z
	 M20.983,32.155c0.354,0,0.642-0.287,0.642-0.642c0-0.354-0.288-0.642-0.642-0.642c-0.354,0-0.643,0.288-0.643,0.642
	C20.341,31.868,20.629,32.155,20.983,32.155z M17.057,34.361c0.365,0,0.661-0.297,0.661-0.662c0-0.364-0.296-0.661-0.661-0.661
	s-0.661,0.297-0.661,0.661C16.396,34.064,16.691,34.361,17.057,34.361z M17.134,15.959c-0.316,0-0.571,0.256-0.571,0.573
	c0,0.315,0.255,0.571,0.571,0.571c0.315,0,0.573-0.256,0.573-0.571C17.707,16.215,17.449,15.959,17.134,15.959z M18.835,11.333
	c-0.293,0-0.529,0.237-0.529,0.53c0,0.292,0.236,0.529,0.529,0.529c0.292,0,0.53-0.237,0.53-0.529
	C19.365,11.57,19.127,11.333,18.835,11.333z M19.816,18.058c-0.292,0-0.53,0.237-0.53,0.53c0,0.292,0.238,0.529,0.53,0.529
	c0.293,0,0.529-0.237,0.529-0.529C20.346,18.295,20.109,18.058,19.816,18.058z M21.431,13.359c-0.437,0-0.793,0.355-0.793,0.793
	c0,0.438,0.356,0.793,0.793,0.793c0.438,0,0.793-0.354,0.793-0.793C22.224,13.715,21.869,13.359,21.431,13.359z M24.089,16.331
	c-0.471,0-0.854,0.382-0.854,0.854c0,0.473,0.384,0.854,0.854,0.854c0.474,0,0.855-0.382,0.855-0.854
	C24.944,16.713,24.563,16.331,24.089,16.331z M24.992,20.409c0-0.242-0.198-0.439-0.44-0.439h-8.117c-0.242,0-0.44,0.197-0.44,0.439
	v8.118c0,0.243,0.198,0.44,0.44,0.44h8.117c0.242,0,0.44-0.197,0.44-0.44V20.409z M24.012,4.973v0.561
	c0,0.241-0.197,0.439-0.439,0.439H17.4c-0.242,0-0.439-0.198-0.439-0.439V4.973C16.483,4.973,16,4.522,16,3.974v-2
	c0-0.551,0.483-1,0.961-1h7.051c0.478,0,0.992,0.449,0.992,1v2C25.004,4.522,24.489,4.973,24.012,4.973z"/>
</svg>
