<?xml version="1.0" encoding="iso-8859-1"?>
<!-- Generator: Adobe Illustrator 16.0.2, SVG Export Plug-In . SVG Version: 6.00 Build 0)  -->
<!DOCTYPE svg PUBLIC "-//W3C//DTD SVG 1.1//EN" "http://www.w3.org/Graphics/SVG/1.1/DTD/svg11.dtd">
<svg version="1.1" id="co_x5F_multimedia" xmlns="http://www.w3.org/2000/svg" xmlns:xlink="http://www.w3.org/1999/xlink" x="0px"
	 y="0px" width="40px" height="40px" viewBox="0 0 40 40" style="enable-background:new 0 0 40 40;" xml:space="preserve">
<path fill="#FFFFFF" style="fill-rule:evenodd;clip-rule:evenodd;" d="M7.412,3.011h25.191c1.744,0,3.256,1.022,3.967,2.499l-8.377,14.24
	l-2.76-6.211c-0.107-0.323-0.324-0.611-0.639-0.804c-0.705-0.433-1.627-0.213-2.063,0.492L16.25,23.763l-1.845-4.305
	c-0.089-0.221-0.23-0.425-0.425-0.59c-0.631-0.534-1.575-0.455-2.109,0.176l-8.859,10.47V7.41C3.012,4.987,4.988,3.011,7.412,3.011
	L7.412,3.011z M37.004,10.668l-7.705,13.098l0,0c-0.152,0.261-0.387,0.478-0.686,0.61c-0.754,0.333-1.635-0.008-1.969-0.761
	l-2.844-6.4l-6.511,10.58l-0.001,0c-0.157,0.255-0.394,0.466-0.69,0.593c-0.76,0.324-1.639-0.031-1.963-0.791l-2.044-4.769
	l-9.38,11.085c0.56,1.787,2.231,3.091,4.2,3.091h25.191c2.424,0,4.4-1.977,4.4-4.399V10.668z"/>
</svg>
