<?xml version="1.0" encoding="iso-8859-1"?>
<!-- Generator: Adobe Illustrator 16.0.2, SVG Export Plug-In . SVG Version: 6.00 Build 0)  -->
<!DOCTYPE svg PUBLIC "-//W3C//DTD SVG 1.1//EN" "http://www.w3.org/Graphics/SVG/1.1/DTD/svg11.dtd">
<svg version="1.1" id="co_x5F_food_x5F_2" xmlns="http://www.w3.org/2000/svg" xmlns:xlink="http://www.w3.org/1999/xlink" x="0px"
	 y="0px" width="40px" height="40px" viewBox="0 0 40 40" style="enable-background:new 0 0 40 40;" xml:space="preserve">
<path fill="#0D47A1" style="fill-rule:evenodd;clip-rule:evenodd;" d="M7.318,20.296c1.298,0,2.352,1.054,2.352,2.352
	c0,1.299-1.053,2.352-2.352,2.352s-2.352-1.053-2.352-2.352C4.967,21.35,6.02,20.296,7.318,20.296L7.318,20.296z M3.009,17.395
	v9.206c0,0.128,0.067,0.237,0.182,0.295c0.505,0.255,0.853,0.778,0.853,1.383s-0.347,1.128-0.853,1.383
	c-0.114,0.057-0.182,0.166-0.182,0.294v1.617c0,0.787,0.642,1.43,1.43,1.43H8.95c0.055-1.374,1.186-2.47,2.572-2.47
	s2.517,1.096,2.571,2.47h21.468c0.847,0,1.303-0.604,1.407-1.329c0.024-0.171-0.087-0.332-0.256-0.369
	c-0.852-0.185-1.489-0.942-1.489-1.85c0-0.912,0.646-1.675,1.506-1.853c0.155-0.032,0.263-0.165,0.263-0.324V20.91
	c0-0.16-0.112-0.296-0.271-0.324c-0.549-0.1-0.965-0.579-0.965-1.156c0-0.593,0.422-1.047,0.968-1.151
	c0.157-0.03,0.268-0.164,0.268-0.323v-1.111c0.118-4.199-4.052-8.244-11.347-11.06c-0.089-0.034-0.179-0.03-0.265,0.012
	c-0.255,0.125-0.65,0.206-1.093,0.206c-0.769,0-1.393-0.242-1.393-0.54c0-0.053,0.02-0.104,0.056-0.151
	c0.067-0.089,0.085-0.195,0.051-0.301s-0.11-0.182-0.217-0.214c-0.705-0.22-1.434-0.428-2.185-0.624
	c-0.434-0.113-0.856-0.031-1.216,0.237l-5.748,4.282c-0.098,0.073-0.146,0.184-0.131,0.304c0.015,0.121,0.087,0.218,0.199,0.265
	c0.493,0.21,0.794,0.488,0.794,0.794c0,0.652-1.365,1.182-3.048,1.182c-0.345,0-0.677-0.021-0.986-0.063
	c-0.089-0.012-0.17,0.01-0.242,0.063l-6.643,5.018C3.208,16.533,3.009,16.932,3.009,17.395L3.009,17.395z M20.038,16.886
	c0.012,0.095,0.018,0.191,0.018,0.289c0,1.367-1.108,2.475-2.476,2.475s-2.475-1.107-2.475-2.475c0-0.098,0.005-0.194,0.017-0.29
	c-0.011-0.037-0.017-0.074-0.017-0.112c0-0.53,1.109-0.959,2.475-0.959c1.367,0,2.476,0.429,2.476,0.959
	C20.056,16.811,20.049,16.849,20.038,16.886L20.038,16.886z M19.485,8.043c0.926,0,1.676,0.291,1.676,0.65
	c0,0.358-0.75,0.649-1.676,0.649c-0.925,0-1.676-0.291-1.676-0.649C17.809,8.334,18.56,8.043,19.485,8.043L19.485,8.043z
	 M10.213,14.632c0.621,0,1.124,0.194,1.124,0.436c0,0.24-0.503,0.435-1.124,0.435s-1.124-0.194-1.124-0.435
	C9.089,14.826,9.592,14.632,10.213,14.632L10.213,14.632z M30.551,11.166c0.621,0,1.124,0.195,1.124,0.436s-0.503,0.436-1.124,0.436
	s-1.124-0.195-1.124-0.436S29.93,11.166,30.551,11.166L30.551,11.166z M23.7,11.633c1.544,0,2.795,0.484,2.795,1.083
	c0,0.598-1.251,1.083-2.795,1.083c-1.543,0-2.794-0.485-2.794-1.083C20.905,12.117,22.157,11.633,23.7,11.633L23.7,11.633z
	 M26.605,28.589c0.547,0,0.99,0.442,0.99,0.989s-0.443,0.99-0.99,0.99c-0.546,0-0.99-0.443-0.99-0.99S26.059,28.589,26.605,28.589
	L26.605,28.589z M30.376,18.812c1.298,0,2.352,1.053,2.352,2.352c0,1.298-1.053,2.351-2.352,2.351c-1.299,0-2.352-1.053-2.352-2.351
	C28.025,19.864,29.078,18.812,30.376,18.812L30.376,18.812z M17.889,25.309c0.854,0,1.547,0.692,1.547,1.547
	s-0.693,1.547-1.547,1.547c-0.854,0-1.546-0.692-1.546-1.547S17.035,25.309,17.889,25.309z"/>
</svg>
