<?xml version="1.0" encoding="iso-8859-1"?>
<!-- Generator: Adobe Illustrator 16.0.2, SVG Export Plug-In . SVG Version: 6.00 Build 0)  -->
<!DOCTYPE svg PUBLIC "-//W3C//DTD SVG 1.1//EN" "http://www.w3.org/Graphics/SVG/1.1/DTD/svg11.dtd">
<svg version="1.1" id="co_x5F_food_x5F_2" xmlns="http://www.w3.org/2000/svg" xmlns:xlink="http://www.w3.org/1999/xlink" x="0px"
	 y="0px" width="40px" height="40px" viewBox="0 0 40 40" style="enable-background:new 0 0 40 40;" xml:space="preserve">
<path fill="#0D47A1" style="fill-rule:evenodd;clip-rule:evenodd;" d="M9.747,16.802c1.018,0,1.843,0.825,1.843,1.844
	c0,1.018-0.825,1.843-1.843,1.843c-1.018,0-1.843-0.825-1.843-1.843C7.904,17.627,8.729,16.802,9.747,16.802L9.747,16.802z
	 M37.853,10.354c-0.027-0.769-0.66-1.379-1.429-1.379h-8.686c-0.367,0-0.676,0.249-0.753,0.609
	c-0.308,1.438-1.587,2.518-3.118,2.518s-2.81-1.079-3.118-2.518c-0.077-0.359-0.385-0.609-0.753-0.609H9.983
	c-0.349,0-0.644,0.223-0.74,0.558c-0.265,0.924-1.116,1.6-2.125,1.6s-1.859-0.676-2.124-1.6c-0.096-0.335-0.392-0.558-0.74-0.558
	H3.485c-0.77,0-1.402,0.609-1.429,1.379c-0.171,4.796,1.572,9.648,5.232,13.31c6.994,6.994,18.337,6.994,25.332,0
	C36.28,20.003,38.024,15.15,37.853,10.354L37.853,10.354z M13.098,12.037c0.484,0,0.876,0.392,0.876,0.876
	c0,0.483-0.392,0.875-0.876,0.875s-0.876-0.392-0.876-0.875C12.222,12.429,12.614,12.037,13.098,12.037L13.098,12.037z
	 M32.895,11.423c0.605,0,1.095,0.49,1.095,1.095c0,0.605-0.49,1.096-1.095,1.096c-0.604,0-1.095-0.49-1.095-1.096
	C31.8,11.913,32.291,11.423,32.895,11.423L32.895,11.423z M19.65,14.572c0.724,0,1.311,0.587,1.311,1.311s-0.587,1.311-1.311,1.311
	c-0.723,0-1.31-0.587-1.31-1.311S18.927,14.572,19.65,14.572L19.65,14.572z M18.498,20.576c1.603,0,2.902,1.3,2.902,2.902
	S20.1,26.38,18.498,26.38s-2.902-1.299-2.902-2.901S16.895,20.576,18.498,20.576L18.498,20.576z M30.113,17.667
	c1.224,0,2.216,0.992,2.216,2.215c0,1.224-0.992,2.216-2.216,2.216c-1.223,0-2.215-0.992-2.215-2.216
	C27.897,18.659,28.89,17.667,30.113,17.667z"/>
</svg>
