<?xml version="1.0" encoding="iso-8859-1"?>
<!-- Generator: Adobe Illustrator 16.0.2, SVG Export Plug-In . SVG Version: 6.00 Build 0)  -->
<!DOCTYPE svg PUBLIC "-//W3C//DTD SVG 1.1//EN" "http://www.w3.org/Graphics/SVG/1.1/DTD/svg11.dtd">
<svg version="1.1" id="co_x5F_food_x5F_1" xmlns="http://www.w3.org/2000/svg" xmlns:xlink="http://www.w3.org/1999/xlink" x="0px"
	 y="0px" width="40px" height="40px" viewBox="0 0 40 40" style="enable-background:new 0 0 40 40;" xml:space="preserve">
<path fill="#0D47A1" style="fill-rule:evenodd;clip-rule:evenodd;" d="M31.817,37.658c-4.428,1.229-9.016-1.366-10.244-5.794
	c-1.229-4.428,1.168-8.721,6.491-7.73c3.841-3.533,8.318-1.147,9.546,3.28S36.245,36.43,31.817,37.658z M25.696,22.215
	c0.054-0.042-1.699-0.327-2.036-0.418c-2.462-1.787-5.075-6.469-7.232-10.585c-1.278,0.975-5.914,3.218-6.218,10.162
	C9.005,22.313,7.467,22.06,7.078,21.8C6.485,12.31,16.355,9.983,15.71,4.751c-0.439-1.224-0.326-1.904-0.215-2.275
	c0.162-1.708,3.663-1.608,3.072,0.02c-0.902,8.125,3.613,14.682,7.763,18.019C27.314,21.307,26.09,21.734,25.696,22.215z
	 M9.52,24.089c4.197-3.103,8.393-0.252,9.142,4.281c0.749,4.534-2.321,8.818-6.855,9.566c-4.534,0.749-8.818-2.32-9.567-6.854
	C1.491,26.549,4.332,22.536,9.52,24.089z"/>
</svg>
