<?xml version="1.0" encoding="iso-8859-1"?>
<!-- Generator: Adobe Illustrator 16.0.2, SVG Export Plug-In . SVG Version: 6.00 Build 0)  -->
<!DOCTYPE svg PUBLIC "-//W3C//DTD SVG 1.1//EN" "http://www.w3.org/Graphics/SVG/1.1/DTD/svg11.dtd">
<svg version="1.1" id="co_x5F_food_x5F_2" xmlns="http://www.w3.org/2000/svg" xmlns:xlink="http://www.w3.org/1999/xlink" x="0px"
	 y="0px" width="40px" height="40px" viewBox="0 0 40 40" style="enable-background:new 0 0 40 40;" xml:space="preserve">
<path fill="#0D47A1" style="fill-rule:evenodd;clip-rule:evenodd;" d="M30.002,3.115c1.578,1.58,1.578,4.142,0,5.722c1.578-1.58,4.141-1.58,5.721,0
	c1.58,1.579,1.58,4.142,0,5.721c-1.58,1.58-4.143,1.58-5.721,0c-0.246-0.247-0.455-0.519-0.623-0.807l-0.871,0.87
	c-0.031,0.054-0.07,0.108-0.117,0.161c-3.191,3.677-3.779,14.65-8.104,18.975c-5.222,5.221-10.309,3.606-14.44-0.525
	s-5.746-9.22-0.524-14.441c4.097-4.096,14.502-5.104,18.307-7.872l1.457-1.457c-0.287-0.17-0.557-0.378-0.805-0.624
	c-1.58-1.58-1.58-4.142,0-5.722C25.861,1.536,28.422,1.536,30.002,3.115L30.002,3.115z M9.234,29.843
	c-1.297-1.297-2.806-1.89-3.369-1.325c-0.566,0.565,0.028,2.073,1.324,3.37c1.297,1.297,2.806,1.891,3.371,1.325
	C11.125,32.648,10.531,31.14,9.234,29.843z"/>
</svg>
