<?xml version="1.0" encoding="iso-8859-1"?>
<!-- Generator: Adobe Illustrator 16.0.2, SVG Export Plug-In . SVG Version: 6.00 Build 0)  -->
<!DOCTYPE svg PUBLIC "-//W3C//DTD SVG 1.1//EN" "http://www.w3.org/Graphics/SVG/1.1/DTD/svg11.dtd">
<svg version="1.1" id="co_x5F_food_x5F_2" xmlns="http://www.w3.org/2000/svg" xmlns:xlink="http://www.w3.org/1999/xlink" x="0px"
	 y="0px" width="40px" height="40px" viewBox="0 0 40 40" style="enable-background:new 0 0 40 40;" xml:space="preserve">
<path fill="#0D47A1" style="fill-rule:evenodd;clip-rule:evenodd;" d="M19.933,2.022c5.288,0,8.353,2.69,8.353,6.008c0,0.11-0.005,0.22-0.013,0.328
	c0.279,0.252,0.55,0.486,0.796,0.66c2.505,1.782-0.294-6.889,0.843-6.501c1.448,0.493,2.357,3.087,2.679,5.601
	c0.449,3.498-0.6,6.718-2.5,6.452c-0.92-0.128-1.93-0.521-2.776-1.365c0.014,0.582-0.047,1.144-0.183,1.715
	c-0.059,0.247-0.129,0.492-0.207,0.733c0.657-0.06,1.31-0.032,1.834,0.075c2.648,0.536,3.941,3.438,3.658,6.591
	c-0.593,6.611-5.127,8.78-5.521,13.032c0.746,0.487,0.582,1.445,0.178,2.059c-0.403,0.614-1.587,0.725-1.931,0.02
	c-1.316,0.312-1.935-0.889-1.759-1.684c0.184-0.833,0.953-1.201,1.186-1.091c0.953-4.239,0.327-6.556-0.486-8.266
	c-1.052,2.006-2.522,3.253-4.15,3.253c-1.628,0-3.1-1.247-4.152-3.253c-0.812,1.71-1.438,4.026-0.485,8.266
	c0.232-0.11,1.002,0.258,1.186,1.091c0.174,0.795-0.443,1.995-1.758,1.684c-0.346,0.705-1.528,0.595-1.931-0.02
	c-0.404-0.613-0.57-1.571,0.178-2.059c-0.395-4.252-4.929-6.421-5.523-13.032c-0.282-3.152,1.011-6.055,3.661-6.591
	c0.544-0.111,1.226-0.137,1.91-0.068c-0.088-0.244-0.167-0.491-0.238-0.74c-0.165-0.589-0.241-1.151-0.229-1.714
	c-0.847,0.844-1.857,1.236-2.775,1.364c-1.902,0.266-2.949-2.954-2.502-6.452c0.321-2.514,1.232-5.107,2.682-5.601
	c1.137-0.388-1.665,8.283,0.842,6.501c0.244-0.174,0.516-0.408,0.796-0.66C11.584,8.25,11.58,8.141,11.58,8.03
	C11.58,4.713,14.643,2.022,19.933,2.022z"/>
</svg>
