<?xml version="1.0" encoding="iso-8859-1"?>
<!-- Generator: Adobe Illustrator 16.0.2, SVG Export Plug-In . SVG Version: 6.00 Build 0)  -->
<!DOCTYPE svg PUBLIC "-//W3C//DTD SVG 1.1//EN" "http://www.w3.org/Graphics/SVG/1.1/DTD/svg11.dtd">
<svg version="1.1" id="co_x5F_food_x5F_2" xmlns="http://www.w3.org/2000/svg" xmlns:xlink="http://www.w3.org/1999/xlink" x="0px"
	 y="0px" width="40px" height="40px" viewBox="0 0 40 40" style="enable-background:new 0 0 40 40;" xml:space="preserve">
<path fill="#0D47A1" style="fill-rule:evenodd;clip-rule:evenodd;" d="M32.18,14.983c-1.221,5.666-6.129,10.392-11.994,10.392
	S9.414,20.649,8.194,14.983c-0.046-0.211,0.066-0.421,0.267-0.502c0.201-0.08,0.429-0.005,0.541,0.182
	c2.367,3.934,6.493,6.728,11.184,6.728c4.691,0,8.818-2.794,11.188-6.728c0.109-0.187,0.336-0.262,0.537-0.182
	S32.225,14.771,32.18,14.983L32.18,14.983z M32.18,26.693c-1.221,5.665-6.129,10.391-11.994,10.391S9.414,32.358,8.194,26.694
	c-0.046-0.212,0.066-0.421,0.267-0.501c0.201-0.081,0.429-0.005,0.541,0.182c2.367,3.933,6.493,6.727,11.184,6.727
	c4.691,0,8.818-2.795,11.188-6.729c0.109-0.185,0.336-0.261,0.537-0.182C32.111,26.272,32.225,26.481,32.18,26.693L32.18,26.693z
	 M32.18,20.838c0.045-0.212-0.068-0.421-0.27-0.501c-0.201-0.081-0.428-0.004-0.537,0.182c-2.369,3.933-6.496,6.728-11.188,6.728
	c-4.69,0-8.816-2.795-11.184-6.727c-0.112-0.187-0.34-0.264-0.541-0.183c-0.2,0.081-0.313,0.29-0.267,0.501
	c1.22,5.666,6.126,10.392,11.991,10.392S30.959,26.504,32.18,20.838L32.18,20.838z M20.186,4.776
	c-6.782,0-12.284-5.146-12.284,1.639c0,6.782,5.502,13.104,12.284,13.104c6.783,0,12.285-6.322,12.285-13.104
	C32.471-0.369,26.969,4.776,20.186,4.776z"/>
</svg>
