<?xml version="1.0" encoding="iso-8859-1"?>
<!-- Generator: Adobe Illustrator 16.0.2, SVG Export Plug-In . SVG Version: 6.00 Build 0)  -->
<!DOCTYPE svg PUBLIC "-//W3C//DTD SVG 1.1//EN" "http://www.w3.org/Graphics/SVG/1.1/DTD/svg11.dtd">
<svg version="1.1" id="co_x5F_food_x5F_2" xmlns="http://www.w3.org/2000/svg" xmlns:xlink="http://www.w3.org/1999/xlink" x="0px"
	 y="0px" width="40px" height="40px" viewBox="0 0 40 40" style="enable-background:new 0 0 40 40;" xml:space="preserve">
<path fill="#0D47A1" style="fill-rule:evenodd;clip-rule:evenodd;" d="M35.781,34.01H20.865c-0.483,0-0.879-0.396-0.879-0.879V7.895
	c0-0.484,0.396-0.878,0.879-0.878h14.916c1.213,0,2.201,0.988,2.201,2.198v22.596C37.982,33.021,36.994,34.01,35.781,34.01z
	 M16,33.001h-3c-1.104,0-2-0.896-2-2v-3c0-1.104,0.896-2,2-2h3c1.104,0,2,0.896,2,2v3C18,32.105,17.104,33.001,16,33.001z
	 M16,24.001h-3c-1.104,0-2-0.896-2-2v-3c0-1.104,0.896-2,2-2h3c1.104,0,2,0.896,2,2v3C18,23.105,17.104,24.001,16,24.001z
	 M16,15.001h-3c-1.104,0-2-0.896-2-2v-3c0-1.104,0.896-2,2-2h3c1.104,0,2,0.896,2,2v3C18,14.105,17.104,15.001,16,15.001z M7,33.001
	H4c-1.104,0-2-0.896-2-2v-3c0-1.104,0.896-2,2-2h3c1.104,0,2,0.896,2,2v3C9,32.105,8.104,33.001,7,33.001z M7,24.001H4
	c-1.104,0-2-0.896-2-2v-3c0-1.104,0.896-2,2-2h3c1.104,0,2,0.896,2,2v3C9,23.105,8.104,24.001,7,24.001z M7,15.001H4
	c-1.104,0-2-0.896-2-2v-3c0-1.104,0.896-2,2-2h3c1.104,0,2,0.896,2,2v3C9,14.105,8.104,15.001,7,15.001z"/>
</svg>
