<?xml version="1.0" encoding="iso-8859-1"?>
<!-- Generator: Adobe Illustrator 16.0.2, SVG Export Plug-In . SVG Version: 6.00 Build 0)  -->
<!DOCTYPE svg PUBLIC "-//W3C//DTD SVG 1.1//EN" "http://www.w3.org/Graphics/SVG/1.1/DTD/svg11.dtd">
<svg version="1.1" id="co_x5F_food_x5F_2" xmlns="http://www.w3.org/2000/svg" xmlns:xlink="http://www.w3.org/1999/xlink" x="0px"
	 y="0px" width="40px" height="40px" viewBox="0 0 40 40" style="enable-background:new 0 0 40 40;" xml:space="preserve">
<path fill="#0D47A1" style="fill-rule:evenodd;clip-rule:evenodd;" d="M35,33.001h-3c-1.104,0-2-0.896-2-2v-3c0-1.104,0.896-2,2-2h3
	c1.104,0,2,0.896,2,2v3C37,32.105,36.104,33.001,35,33.001z M35,24.001h-3c-1.104,0-2-0.896-2-2v-3c0-1.104,0.896-2,2-2h3
	c1.104,0,2,0.896,2,2v3C37,23.105,36.104,24.001,35,24.001z M35,15.001h-3c-1.104,0-2-0.896-2-2v-3c0-1.104,0.896-2,2-2h3
	c1.104,0,2,0.896,2,2v3C37,14.105,36.104,15.001,35,15.001z M26,33.001h-3c-1.104,0-2-0.896-2-2v-3c0-1.104,0.896-2,2-2h3
	c1.104,0,2,0.896,2,2v3C28,32.105,27.104,33.001,26,33.001z M26,24.001h-3c-1.104,0-2-0.896-2-2v-3c0-1.104,0.896-2,2-2h3
	c1.104,0,2,0.896,2,2v3C28,23.105,27.104,24.001,26,24.001z M26,15.001h-3c-1.104,0-2-0.896-2-2v-3c0-1.104,0.896-2,2-2h3
	c1.104,0,2,0.896,2,2v3C28,14.105,27.104,15.001,26,15.001z M17,33.001h-3c-1.104,0-2-0.896-2-2v-3c0-1.104,0.896-2,2-2h3
	c1.104,0,2,0.896,2,2v3C19,32.105,18.104,33.001,17,33.001z M17,24.001h-3c-1.104,0-2-0.896-2-2v-3c0-1.104,0.896-2,2-2h3
	c1.104,0,2,0.896,2,2v3C19,23.105,18.104,24.001,17,24.001z M17,15.001h-3c-1.104,0-2-0.896-2-2v-3c0-1.104,0.896-2,2-2h3
	c1.104,0,2,0.896,2,2v3C19,14.105,18.104,15.001,17,15.001z M8,33.001H5c-1.104,0-2-0.896-2-2v-3c0-1.104,0.896-2,2-2h3
	c1.104,0,2,0.896,2,2v3C10,32.105,9.104,33.001,8,33.001z M8,24.001H5c-1.104,0-2-0.896-2-2v-3c0-1.104,0.896-2,2-2h3
	c1.104,0,2,0.896,2,2v3C10,23.105,9.104,24.001,8,24.001z M8,15.001H5c-1.104,0-2-0.896-2-2v-3c0-1.104,0.896-2,2-2h3
	c1.104,0,2,0.896,2,2v3C10,14.105,9.104,15.001,8,15.001z"/>
</svg>
