<?xml version="1.0" encoding="iso-8859-1"?>
<!-- Generator: Adobe Illustrator 16.0.2, SVG Export Plug-In . SVG Version: 6.00 Build 0)  -->
<!DOCTYPE svg PUBLIC "-//W3C//DTD SVG 1.1//EN" "http://www.w3.org/Graphics/SVG/1.1/DTD/svg11.dtd">
<svg version="1.1" id="co_x5F_food_x5F_3" xmlns="http://www.w3.org/2000/svg" xmlns:xlink="http://www.w3.org/1999/xlink" x="0px"
	 y="0px" width="40px" height="40px" viewBox="0 0 40 40" style="enable-background:new 0 0 40 40;" xml:space="preserve">
<path fill="#0D47A1" style="fill-rule:evenodd;clip-rule:evenodd;" d="M24.011,37.996h-7.998c-4.949,0-8.998-4.049-8.998-8.997v-9.998
	c0-2.497,0.032-4.766,1.689-6.399c0.87-0.857,1.31-1.91,1.31-3.133V8.663c0-0.363,0.296-0.659,0.66-0.659h1.666
	C12.703,8.004,13,8.3,13,8.663v0.806c0,1.28-0.302,2.481-0.885,3.553c5.992,1.301,11.846-1.581,15.789,0.333
	c0.09,0.037,0.167,0.076,0.248,0.114c-0.758-1.181-1.159-2.537-1.159-4V8.663c0-0.363,0.296-0.659,0.66-0.659h1.697
	c0.363,0,0.66,0.296,0.66,0.659v0.806c0,1.222,0.441,2.275,1.311,3.133c1.657,1.634,1.688,3.903,1.688,6.399v9.998
	C33.009,33.947,28.959,37.996,24.011,37.996z M27.466,21.979c-0.107-0.263-0.302-0.445-0.57-0.537
	c-0.268-0.091-0.534-0.065-0.779,0.076l-6.083,3.512l5.38-4.515c0.217-0.182,0.333-0.423,0.338-0.706
	c0.006-0.283-0.1-0.529-0.309-0.72c-0.506-0.461-1.07-0.855-1.677-1.174c-0.25-0.132-0.518-0.147-0.782-0.045
	c-0.264,0.102-0.452,0.293-0.548,0.559l-2.402,6.601l1.22-6.917c0.049-0.278-0.018-0.537-0.195-0.758s-0.417-0.341-0.7-0.353
	c-0.685-0.027-1.37,0.032-2.04,0.178c-0.276,0.061-0.491,0.221-0.627,0.469s-0.157,0.515-0.061,0.78l2.403,6.601l-3.512-6.083
	c-0.142-0.244-0.359-0.4-0.637-0.455s-0.538,0.007-0.762,0.18c-0.542,0.419-1.029,0.906-1.448,1.448
	c-0.173,0.224-0.235,0.483-0.18,0.762c0.054,0.278,0.21,0.495,0.456,0.637l6.083,3.512l-6.6-2.402
	c-0.266-0.097-0.533-0.076-0.781,0.061s-0.408,0.352-0.468,0.628c-0.146,0.669-0.206,1.355-0.179,2.039
	c0.011,0.283,0.131,0.522,0.352,0.699c0.221,0.179,0.48,0.245,0.759,0.196l6.917-1.221l-6.6,2.402
	c-0.266,0.097-0.458,0.284-0.56,0.548c-0.102,0.265-0.087,0.532,0.045,0.782c0.318,0.606,0.713,1.171,1.174,1.677
	c0.19,0.21,0.437,0.316,0.72,0.311c0.283-0.006,0.524-0.122,0.706-0.339l4.515-5.381l-3.512,6.083
	c-0.142,0.245-0.167,0.512-0.076,0.779c0.092,0.268,0.275,0.463,0.537,0.57c0.634,0.26,1.299,0.438,1.978,0.53
	c0.281,0.038,0.537-0.039,0.75-0.226c0.213-0.186,0.324-0.43,0.324-0.713v-7.024l1.22,6.917c0.049,0.279,0.2,0.5,0.442,0.646
	s0.508,0.178,0.778,0.092c0.652-0.208,1.277-0.499,1.855-0.865c0.239-0.151,0.386-0.375,0.43-0.655
	c0.043-0.279-0.028-0.537-0.21-0.754l-4.515-5.381l5.38,4.515c0.217,0.183,0.475,0.254,0.754,0.211
	c0.28-0.044,0.503-0.19,0.655-0.43c0.366-0.579,0.658-1.203,0.866-1.855c0.086-0.27,0.055-0.535-0.092-0.777
	c-0.146-0.243-0.367-0.395-0.646-0.443l-6.917-1.22l7.023,0.001c0.283,0,0.526-0.111,0.713-0.324
	c0.186-0.213,0.263-0.469,0.226-0.75C27.904,23.277,27.726,22.612,27.466,21.979z M30,7.001c-0.506,0-0.979-1.997-1.988-1.997
	c-0.578,0-1.286,2-2.082,2c-0.597,0-1.243-2-1.922-2c-0.659,0-1.348,2-2.051,2c-0.68,0-1.374-2-2.066-2c-0.617,0-1.234,2-1.84,2
	c-0.701,0-1.387-2-2.043-2c-0.677,0-1.322,2-1.918,2c-0.807,0-1.523-2-2.105-2c-0.993,0-0.932,1.997-1.984,1.997
	c-1.168,0-2-0.543-2-1.531c0-0.29,0.014-0.966,0.014-0.966c0-1.293,1.243-2.499,2.375-2.499h19.246c1.131,0,2.375,1.235,2.375,2.499
	C32.009,4.638,32,4.931,32,5.501C32,6.474,31.293,7.001,30,7.001z"/>
</svg>
