<?xml version="1.0" encoding="iso-8859-1"?>
<!-- Generator: Adobe Illustrator 16.0.2, SVG Export Plug-In . SVG Version: 6.00 Build 0)  -->
<!DOCTYPE svg PUBLIC "-//W3C//DTD SVG 1.1//EN" "http://www.w3.org/Graphics/SVG/1.1/DTD/svg11.dtd">
<svg version="1.1" id="co_x5F_food_x5F_3" xmlns="http://www.w3.org/2000/svg" xmlns:xlink="http://www.w3.org/1999/xlink" x="0px"
	 y="0px" width="40px" height="40px" viewBox="0 0 40 40" style="enable-background:new 0 0 40 40;" xml:space="preserve">
<path fill="#0D47A1" style="fill-rule:evenodd;clip-rule:evenodd;" d="M23.631,2.556c5.947,1.959,10.324,8.563,10.324,16.404
	c0,8.824-5.543,16.08-12.63,16.915c-0.485,0.057-0.929-0.136-1.218-0.529c-1.492-2.03-2.27-5.304-1.119-9.464
	c0.263-0.953,0.63-1.955,1.113-3.002c0.488-1.059,1.092-2.154,1.824-3.28l0.005-0.008c4.237-6.517,3.463-12.038,1.486-15.842
	c-0.099-0.188-0.201-0.375-0.305-0.557c-0.093-0.161-0.078-0.354,0.04-0.497C23.27,2.551,23.454,2.497,23.631,2.556L23.631,2.556z
	 M16.634,35.472c0.169,0.05,0.34,0,0.457-0.132c0.115-0.133,0.142-0.311,0.069-0.47c-1.104-2.462-1.478-5.741-0.408-9.607
	c0.298-1.078,0.707-2.199,1.241-3.355c0.528-1.146,1.187-2.338,1.988-3.572l0.004-0.008c3.656-5.622,3.031-10.305,1.368-13.504
	c-0.33-0.635-0.692-1.202-1.063-1.702c-0.164-0.22-0.33-0.429-0.498-0.625c-0.293-0.346-0.705-0.509-1.155-0.458
	C11.529,2.848,5.962,10.116,5.962,18.96C5.962,26.953,10.51,33.658,16.634,35.472z"/>
</svg>
