<?xml version="1.0" encoding="iso-8859-1"?>
<!-- Generator: Adobe Illustrator 16.0.2, SVG Export Plug-In . SVG Version: 6.00 Build 0)  -->
<!DOCTYPE svg PUBLIC "-//W3C//DTD SVG 1.1//EN" "http://www.w3.org/Graphics/SVG/1.1/DTD/svg11.dtd">
<svg version="1.1" id="co_x5F_food_x5F_3" xmlns="http://www.w3.org/2000/svg" xmlns:xlink="http://www.w3.org/1999/xlink" x="0px"
	 y="0px" width="40px" height="40px" viewBox="0 0 40 40" style="enable-background:new 0 0 40 40;" xml:space="preserve">
<path fill="#0D47A1" style="fill-rule:evenodd;clip-rule:evenodd;" d="M18.987,2.005h3.999c0.275,0,0.5,0.226,0.5,0.501l0,0
	c0,0.269-0.215,0.489-0.481,0.499l0.015,0.029l0.293,1.82c0.031,0.192-0.012,0.369-0.127,0.523
	c-0.271,0.364-0.407,0.763-0.258,1.262l2.78,9.368c0.12,0.403-0.323,0.838-0.323,0.838s0.424,0.361,0.489,1.265l0.364,5.102
	c0.03,0.428-0.303,0.896-0.303,0.896s0.346,0.441,0.242,0.975l-0.783,4.028c-0.156,0.807-0.128,1.614-0.128,1.614
	c0,0.767,0.103,1.421,0.338,2.147l0.436,1.343c0.157,0.485,0.226,0.921,0.226,1.431c0,1.015-0.764,2.352-1.986,2.352h-6.584
	c-1.227,0-1.986-1.333-1.986-2.352c0-0.51,0.068-0.945,0.226-1.431l0.436-1.343c0.235-0.727,0.338-1.381,0.338-2.147
	c0,0,0.028-0.808-0.128-1.614l-0.771-3.961c-0.119-0.616,0.309-1.042,0.309-1.042s-0.414-0.447-0.377-0.963L16.1,18.11
	c0.064-0.903,0.488-1.265,0.488-1.265s-0.442-0.435-0.323-0.838l2.78-9.368c0.148-0.499,0.012-0.897-0.259-1.262
	c-0.115-0.154-0.158-0.331-0.127-0.523l0.294-1.82l0.015-0.029c-0.267-0.01-0.481-0.23-0.481-0.499l0,0
	C18.487,2.23,18.712,2.005,18.987,2.005z"/>
</svg>
