<?xml version="1.0" encoding="iso-8859-1"?>
<!-- Generator: Adobe Illustrator 16.0.2, SVG Export Plug-In . SVG Version: 6.00 Build 0)  -->
<!DOCTYPE svg PUBLIC "-//W3C//DTD SVG 1.1//EN" "http://www.w3.org/Graphics/SVG/1.1/DTD/svg11.dtd">
<svg version="1.1" id="co_x5F_food_x5F_3" xmlns="http://www.w3.org/2000/svg" xmlns:xlink="http://www.w3.org/1999/xlink" x="0px"
	 y="0px" width="40px" height="40px" viewBox="0 0 40 40" style="enable-background:new 0 0 40 40;" xml:space="preserve">
<path fill="#0D47A1" style="fill-rule:evenodd;clip-rule:evenodd;" d="M28.598,5.927l-1.138,4.077h3.61c0.385,0,0.712,0.236,0.833,0.602
	l0.406,1.813c0.097,0.284-0.114,0.579-0.416,0.579H10.72c-0.304,0-0.512-0.295-0.419-0.579l0.406-1.813
	c0.123-0.365,0.45-0.602,0.836-0.602h14.062l1.528-5.48c0.103-0.368,0.362-0.637,0.726-0.752l4.937-1.565
	c0.35-0.111,0.72,0.083,0.829,0.43l0.141,0.445c0.109,0.347-0.085,0.719-0.43,0.827l-4.009,1.266
	C28.96,5.289,28.701,5.559,28.598,5.927L28.598,5.927z M31.499,14.523l-3.02,18.905c-0.052,0.323-0.324,0.557-0.651,0.557H14.785
	c-0.328,0-0.602-0.234-0.652-0.557l-3.021-18.905c-0.04-0.266,0.165-0.508,0.435-0.508h19.519
	C31.334,14.016,31.542,14.258,31.499,14.523L31.499,14.523z M27.96,35.767l-0.168,1.673c-0.05,0.323-0.324,0.559-0.652,0.559H15.473
	c-0.327,0-0.602-0.235-0.651-0.559l-0.17-1.673c-0.062-0.4,0.247-0.763,0.653-0.763h12.004
	C27.713,35.004,28.024,35.366,27.96,35.767z"/>
</svg>
