<?xml version="1.0" encoding="iso-8859-1"?>
<!-- Generator: Adobe Illustrator 16.0.2, SVG Export Plug-In . SVG Version: 6.00 Build 0)  -->
<!DOCTYPE svg PUBLIC "-//W3C//DTD SVG 1.1//EN" "http://www.w3.org/Graphics/SVG/1.1/DTD/svg11.dtd">
<svg version="1.1" id="co_x5F_layout_x5F_1_x5C_2" xmlns="http://www.w3.org/2000/svg" xmlns:xlink="http://www.w3.org/1999/xlink"
	 x="0px" y="0px" width="40px" height="40px" viewBox="0 0 40 40" style="enable-background:new 0 0 40 40;" xml:space="preserve">
<path fill="#0D47A1" style="fill-rule:evenodd;clip-rule:evenodd;" d="M17.941,21.172c0.005,0.108,0.008,0.217,0.008,0.326
	c0,4.141-3.358,7.499-7.499,7.499c-4.14,0-7.499-3.358-7.499-7.499c0-0.109,0.003-0.216,0.008-0.324
	c-0.02-0.244,0.037-0.495,0.177-0.717l6.339-9.979c0.344-0.542,1.063-0.703,1.605-0.359c0.154,0.098,0.278,0.226,0.368,0.372
	l6.316,9.966C17.904,20.679,17.96,20.929,17.941,21.172L17.941,21.172z M19.948,4.034c-1.581,0-2.991,0.735-3.907,1.881L9.824,4.25
	c-1.054-0.283-2.143,0.347-2.425,1.4l-0.01,0.039C7.106,6.741,7.735,7.83,8.788,8.113l6.216,1.666
	c0.36,2.406,2.437,4.252,4.943,4.252c1.582,0,2.991-0.735,3.908-1.881l6.217,1.667c1.053,0.282,2.143-0.347,2.425-1.4l0.01-0.039
	c0.283-1.053-0.346-2.143-1.4-2.424l-6.215-1.666C24.531,5.88,22.455,4.034,19.948,4.034L19.948,4.034z M19.948,7.366
	c0.92,0,1.667,0.747,1.667,1.667s-0.746,1.667-1.667,1.667c-0.92,0-1.666-0.747-1.666-1.667S19.028,7.366,19.948,7.366L19.948,7.366
	z M36.937,26.164c0.005,0.108,0.008,0.217,0.008,0.327c0,4.14-3.358,7.498-7.499,7.498c-4.14,0-7.498-3.358-7.498-7.498
	c0-0.099,0.002-0.196,0.006-0.294c0-0.038,0.002-0.075,0.006-0.113l0.005-0.093h0.007c0.026-0.143,0.079-0.281,0.16-0.411
	l6.339-10.104c0.341-0.543,1.058-0.706,1.6-0.364c0.151,0.095,0.273,0.219,0.362,0.36l0.002,0l6.325,9.979
	C36.9,25.671,36.956,25.922,36.937,26.164L36.937,26.164z M24.615,25.991h9.733l-4.892-7.719L24.615,25.991L24.615,25.991z
	 M5.549,20.999h9.803l-4.896-7.727L5.549,20.999z"/>
</svg>
