<?xml version="1.0" encoding="iso-8859-1"?>
<!-- Generator: Adobe Illustrator 16.0.2, SVG Export Plug-In . SVG Version: 6.00 Build 0)  -->
<!DOCTYPE svg PUBLIC "-//W3C//DTD SVG 1.1//EN" "http://www.w3.org/Graphics/SVG/1.1/DTD/svg11.dtd">
<svg version="1.1" id="co_x5F_food_x5F_2" xmlns="http://www.w3.org/2000/svg" xmlns:xlink="http://www.w3.org/1999/xlink" x="0px"
	 y="0px" width="40px" height="40px" viewBox="0 0 40 40" style="enable-background:new 0 0 40 40;" xml:space="preserve">
<path fill="#0D47A1" style="fill-rule:evenodd;clip-rule:evenodd;" d="M37.01,24.205c0,2.053-1.466,3.769-3.413,4.16v0.29
	c1.946,0.396,3.413,2.111,3.413,4.163c0,2.347-1.91,4.247-4.266,4.247c-2.062,0-3.785-1.457-4.18-3.396h-0.071
	c-0.396,1.938-2.117,3.396-4.18,3.396s-3.785-1.457-4.181-3.396h-0.171c-0.396,1.938-2.117,3.396-4.18,3.396
	c-2.063,0-3.785-1.457-4.181-3.396h-0.171c-0.396,1.938-2.117,3.396-4.18,3.396c-2.355,0-4.266-1.9-4.266-4.247
	c0-3.693,3.413-4.332,3.413-4.332c0-0.043,0-0.078,0-0.121c-1.946-0.392-3.412-2.107-3.412-4.16c0-2.055,1.466-3.771,3.412-4.162
	v-0.172c-1.946-0.394-3.412-2.106-3.412-4.16c0-2.056,1.466-3.771,3.412-4.164v-0.172c-1.947-0.393-3.413-2.105-3.413-4.16
	c0-2.347,1.911-4.248,4.266-4.248c2.064,0,3.786,1.459,4.18,3.397h0.17c0.396-1.938,2.118-3.397,4.181-3.397
	c2.064,0,3.786,1.459,4.18,3.397h0.17c0.396-1.938,2.118-3.397,4.181-3.397c2.064,0,3.785,1.459,4.18,3.397h0.07
	c0.396-1.938,2.118-3.397,4.181-3.397c2.356,0,4.266,1.901,4.266,4.248c0,2.055-1.466,3.768-3.413,4.16v0.172
	c1.946,0.394,3.413,2.108,3.413,4.164c0,2.054-1.466,3.767-3.413,4.16v0.172C35.543,20.435,37.01,22.15,37.01,24.205z M11.414,9.834
	c-0.953,0-1.725,0.772-1.725,1.726s0.772,1.726,1.725,1.726c0.952,0,1.725-0.772,1.725-1.726S12.366,9.834,11.414,9.834z
	 M11.414,18.495c-0.953,0-1.725,0.77-1.725,1.723c0,0.952,0.772,1.725,1.725,1.725c0.952,0,1.725-0.772,1.725-1.725
	C13.139,19.265,12.366,18.495,11.414,18.495z M11.414,27.153c-0.953,0-1.725,0.771-1.725,1.726c0,0.952,0.772,1.723,1.725,1.723
	c0.952,0,1.725-0.771,1.725-1.723C13.139,27.925,12.366,27.153,11.414,27.153z M20.037,9.834c-0.953,0-1.725,0.772-1.725,1.726
	s0.772,1.726,1.725,1.726c0.952,0,1.725-0.772,1.725-1.726S20.989,9.834,20.037,9.834z M20.037,18.495
	c-0.953,0-1.725,0.77-1.725,1.723c0,0.952,0.772,1.725,1.725,1.725c0.952,0,1.725-0.772,1.725-1.725
	C21.762,19.265,20.989,18.495,20.037,18.495z M20.037,27.153c-0.953,0-1.725,0.771-1.725,1.726c0,0.952,0.772,1.723,1.725,1.723
	c0.952,0,1.725-0.771,1.725-1.723C21.762,27.925,20.989,27.153,20.037,27.153z M28.66,9.834c-0.952,0-1.725,0.772-1.725,1.726
	s0.772,1.726,1.725,1.726c0.953,0,1.725-0.772,1.725-1.726S29.612,9.834,28.66,9.834z M28.66,18.495
	c-0.952,0-1.725,0.77-1.725,1.723c0,0.952,0.772,1.725,1.725,1.725c0.953,0,1.725-0.772,1.725-1.725
	C30.384,19.265,29.612,18.495,28.66,18.495z M28.66,27.153c-0.952,0-1.725,0.771-1.725,1.726c0,0.952,0.772,1.723,1.725,1.723
	c0.953,0,1.725-0.771,1.725-1.723C30.384,27.925,29.612,27.153,28.66,27.153z"/>
</svg>
