<?xml version="1.0" encoding="iso-8859-1"?>
<!-- Generator: Adobe Illustrator 16.0.2, SVG Export Plug-In . SVG Version: 6.00 Build 0)  -->
<!DOCTYPE svg PUBLIC "-//W3C//DTD SVG 1.1//EN" "http://www.w3.org/Graphics/SVG/1.1/DTD/svg11.dtd">
<svg version="1.1" id="co_x5F_food_x5F_1" xmlns="http://www.w3.org/2000/svg" xmlns:xlink="http://www.w3.org/1999/xlink" x="0px"
	 y="0px" width="40px" height="40px" viewBox="0 0 40 40" style="enable-background:new 0 0 40 40;" xml:space="preserve">
<path fill="#0D47A1" style="fill-rule:evenodd;clip-rule:evenodd;" d="M37.374,25.482c-3.77-1.829-5.215,0.926-10.958,6.667
	c1.621,0.702,2.45,1.271,4.128,2.417c0.511,0.351,0.528,1.084,0.03,1.366c-3.763,2.124-10.413,3.104-15.068,0.273
	c-0.496-0.302-0.478-1.254,0.557-1.185c0.764,0.053,2.464-0.171,3.936-1.644c3.397-3.397,5.79-5.959,9.354-9.523
	C33.333,19.876,37.67,23.415,37.374,25.482z M32.194,15.049c-0.852-0.853-0.852-2.233,0-3.085c0.852-0.853,2.233-0.853,3.085,0
	c0.852,0.852,0.852,2.232,0,3.085C34.427,15.899,33.046,15.899,32.194,15.049z M30.665,9.236c-0.852-0.853-0.852-2.233,0-3.085
	c0.852-0.852,2.233-0.852,3.084,0c0.852,0.852,0.852,2.232,0,3.085C32.898,10.087,31.517,10.087,30.665,9.236z M29.467,13.519
	c-0.852,0.852-2.233,0.852-3.084,0c-0.852-0.852-0.852-2.233,0-3.084c0.852-0.853,2.232-0.853,3.084,0
	C30.318,11.285,30.318,12.667,29.467,13.519z M24.853,7.706C24,6.854,24,5.474,24.853,4.621c0.852-0.852,2.233-0.852,3.084,0
	c0.852,0.853,0.852,2.233,0,3.085C27.085,8.559,25.704,8.559,24.853,7.706z M23.654,11.989c-0.852,0.852-2.233,0.852-3.084,0
	c-0.852-0.853-0.852-2.232,0-3.085c0.852-0.852,2.233-0.852,3.084,0C24.506,9.757,24.506,11.137,23.654,11.989z M19.372,16.272
	c-0.852,0.852-2.233,0.852-3.085,0c-0.852-0.853-0.852-2.233,0-3.085c0.852-0.853,2.233-0.853,3.085,0
	C20.223,14.039,20.223,15.42,19.372,16.272z M6.529,20.114c-1.472,1.473-1.696,3.172-1.644,3.936
	c0.07,1.035-0.882,1.053-1.184,0.557C0.87,19.951,1.851,13.302,3.975,9.538C4.256,9.04,4.99,9.058,5.34,9.569
	c1.146,1.678,1.715,2.507,2.417,4.129C13.5,7.955,16.254,6.509,14.424,2.74c2.067-0.297,5.606,4.041,1.628,8.021
	C12.488,14.325,9.926,16.717,6.529,20.114z M4.141,32.074c-0.5-0.662-0.476-1.594,0.127-2.196c0.598-0.598,1.519-0.625,2.179-0.138
	c-0.163,0.989,0.13,2.039,0.893,2.802c0.772,0.773,1.839,1.066,2.839,0.89c0.586,0.663,0.578,1.668-0.056,2.302
	c-0.659,0.659-1.728,0.659-2.386,0l-0.092-0.092L6.366,36.92c-0.781,0.78-2.047,0.78-2.828,0l-0.708-0.707
	c-0.781-0.781-0.781-2.048,0-2.829L4.141,32.074z M9.25,27.565c0.852-0.852,2.233-0.852,3.085,0c0.852,0.852,0.852,2.232,0,3.085
	c-0.852,0.852-2.233,0.852-3.085,0C8.399,29.798,8.399,28.417,9.25,27.565z M7.721,24.838c-0.852-0.852-0.852-2.233,0-3.085
	c0.852-0.853,2.233-0.853,3.084,0c0.852,0.852,0.852,2.233,0,3.085C9.954,25.689,8.573,25.689,7.721,24.838z M15.088,17.47
	c0.852,0.853,0.852,2.233,0,3.085c-0.852,0.852-2.233,0.852-3.084,0s-0.852-2.232,0-3.085C12.855,16.618,14.237,16.618,15.088,17.47
	z M13.534,23.282c0.852-0.852,2.233-0.852,3.084,0c0.852,0.853,0.852,2.232,0,3.085c-0.852,0.853-2.233,0.853-3.084,0
	C12.682,25.515,12.682,24.135,13.534,23.282z M19.346,27.897c-0.852-0.853-0.852-2.234,0-3.085c0.852-0.853,2.233-0.853,3.085,0
	c0.852,0.851,0.852,2.232,0,3.085C21.579,28.749,20.198,28.749,19.346,27.897z M17.816,22.085c-0.852-0.853-0.852-2.233,0-3.085
	c0.852-0.853,2.233-0.853,3.084,0c0.852,0.852,0.852,2.232,0,3.085C20.049,22.937,18.668,22.937,17.816,22.085z M25.184,14.717
	c0.852,0.852,0.852,2.232,0,3.085c-0.852,0.852-2.233,0.852-3.085,0c-0.852-0.853-0.852-2.233,0-3.085
	C22.951,13.865,24.332,13.865,25.184,14.717z M30.996,16.247c0.852,0.852,0.852,2.232,0,3.084c-0.852,0.852-2.232,0.852-3.084,0
	c-0.852-0.852-0.852-2.232,0-3.084C28.764,15.395,30.145,15.395,30.996,16.247z M23.629,23.614c-0.852-0.852-0.852-2.233,0-3.085
	c0.852-0.852,2.233-0.852,3.084,0c0.852,0.852,0.852,2.233,0,3.085C25.862,24.465,24.48,24.465,23.629,23.614z M18.148,29.095
	c0.852,0.853,0.852,2.233,0,3.085c-0.852,0.852-2.233,0.852-3.085,0c-0.852-0.852-0.852-2.232,0-3.085
	C15.915,28.243,17.296,28.243,18.148,29.095z"/>
</svg>
