<?xml version="1.0" encoding="iso-8859-1"?>
<!-- Generator: Adobe Illustrator 16.0.2, SVG Export Plug-In . SVG Version: 6.00 Build 0)  -->
<!DOCTYPE svg PUBLIC "-//W3C//DTD SVG 1.1//EN" "http://www.w3.org/Graphics/SVG/1.1/DTD/svg11.dtd">
<svg version="1.1" id="co_x5F_food_x5F_2" xmlns="http://www.w3.org/2000/svg" xmlns:xlink="http://www.w3.org/1999/xlink" x="0px"
	 y="0px" width="40px" height="40px" viewBox="0 0 40 40" style="enable-background:new 0 0 40 40;" xml:space="preserve">
<path fill="#0D47A1" style="fill-rule:evenodd;clip-rule:evenodd;" d="M3.93,23.57c0.855,0.965,1.918,1.896,2.948,2.644
	c0.45,0.329,0.443,0.816,0.17,1.238c-1.633,2.519-2.985,2.431-4.022,1.479c-1.036-0.95-2.253-3.197-0.629-5.193
	C2.778,23.266,3.422,22.999,3.93,23.57L3.93,23.57z M29.428,14.139c-0.154,2.697-1.41,6.417-2.91,9.071
	c-0.17,0.301-0.24,0.613-0.127,0.939c0.412,1.187,2.984,1.557,4.049,1.385c1.23-0.197,2.416-1.038,4.098-2.917
	c2.994-3.349,0.678-8.542-3.543-9.498C30.195,12.938,29.477,13.284,29.428,14.139L29.428,14.139z M36.096,23.57
	c0.508-0.571,1.152-0.305,1.533,0.167c1.625,1.996,0.408,4.243-0.629,5.193c-1.037,0.952-2.389,1.04-4.021-1.479
	c-0.273-0.422-0.279-0.909,0.17-1.238C34.178,25.466,35.24,24.535,36.096,23.57L36.096,23.57z M27.113,12.21
	c0.924,3.233-1.314,10.131-3.369,11.955c-0.955,0.847-1.871,1.16-3.883,1.16c-1.925,0-2.417-0.292-3.324-1.063
	c-2.001-1.702-4.479-8.68-3.686-11.872c0.7-2.828,3.713-4.509,7.125-4.541C23.387,7.815,26.322,9.433,27.113,12.21L27.113,12.21z
	 M10.598,14.139c-0.049-0.854-0.771-1.2-1.566-1.02c-4.221,0.956-6.536,6.149-3.543,9.498c1.682,1.879,2.868,2.72,4.099,2.917
	c1.064,0.172,3.637-0.198,4.048-1.385c0.113-0.326,0.044-0.639-0.126-0.939C12.009,20.556,10.752,16.836,10.598,14.139z"/>
</svg>
