<?xml version="1.0" encoding="iso-8859-1"?>
<!-- Generator: Adobe Illustrator 16.0.2, SVG Export Plug-In . SVG Version: 6.00 Build 0)  -->
<!DOCTYPE svg PUBLIC "-//W3C//DTD SVG 1.1//EN" "http://www.w3.org/Graphics/SVG/1.1/DTD/svg11.dtd">
<svg version="1.1" id="co_x5F_food_x5F_3" xmlns="http://www.w3.org/2000/svg" xmlns:xlink="http://www.w3.org/1999/xlink" x="0px"
	 y="0px" width="40px" height="40px" viewBox="0 0 40 40" style="enable-background:new 0 0 40 40;" xml:space="preserve">
<path fill="#0D47A1" style="fill-rule:evenodd;clip-rule:evenodd;" d="M24.011,37.996h-7.998c-4.949,0-8.998-4.049-8.998-8.997v-9.997
	c0-2.498,0.031-4.767,1.688-6.4c0.87-0.857,1.311-1.91,1.311-3.133V8.663c0-0.363,0.297-0.659,0.66-0.659h1.666
	C12.703,8.004,13,8.3,13,8.663v0.806c0,1.28-0.303,2.481-0.886,3.553c5.992,1.301,11.847-1.58,15.789,0.333
	c0.09,0.037,0.168,0.076,0.248,0.114c-0.758-1.181-1.158-2.537-1.158-4V8.663c0-0.363,0.296-0.659,0.659-0.659h1.697
	c0.363,0,0.66,0.296,0.66,0.659v0.806c0,1.222,0.44,2.275,1.311,3.133c1.656,1.634,1.688,3.903,1.688,6.4v9.997
	C33.009,33.947,28.96,37.996,24.011,37.996z M27.737,15.999c-0.328,0.047-0.846,0.515-1.237,0.969
	c-0.504-0.41-1.229-0.433-2.105-0.146c-0.168-0.13-0.41-0.114-0.565,0.044c-0.063,0.064-0.104,0.145-0.12,0.228
	c-0.281,0.129-0.574,0.284-0.878,0.462c-0.194-0.191-0.506-0.187-0.7,0.012c-0.137,0.139-0.18,0.338-0.127,0.514
	c-0.292,0.197-0.591,0.413-0.896,0.646c-0.208-0.206-0.543-0.202-0.751,0.011c-0.177,0.18-0.206,0.451-0.088,0.658
	c-0.273,0.227-0.55,0.465-0.829,0.712c-0.248-0.211-0.622-0.195-0.858,0.046c-0.221,0.225-0.249,0.569-0.084,0.82
	c-0.236,0.226-0.474,0.455-0.712,0.692c-0.28-0.197-0.671-0.166-0.925,0.091c-0.254,0.26-0.283,0.659-0.087,0.944
	c-0.22,0.232-0.435,0.464-0.644,0.693c-0.246-0.173-0.591-0.146-0.813,0.081c-0.241,0.245-0.253,0.633-0.035,0.886
	c-0.24,0.284-0.472,0.565-0.69,0.844c-0.205-0.134-0.483-0.106-0.666,0.078c-0.21,0.214-0.212,0.559-0.005,0.77
	c0.006,0.006,0.012,0.011,0.018,0.017c-0.223,0.309-0.429,0.61-0.617,0.905c-0.181-0.074-0.396-0.035-0.544,0.114
	c-0.196,0.2-0.199,0.522-0.005,0.721c0.011,0.011,0.022,0.021,0.034,0.032c-0.158,0.292-0.296,0.574-0.41,0.847
	c-0.111,0-0.223,0.044-0.308,0.13c-0.17,0.173-0.172,0.451-0.005,0.62c0.013,0.014,0.026,0.025,0.039,0.035
	c-0.229,0.864-0.149,1.567,0.316,2.041c0.465,0.475,1.155,0.555,2.004,0.322c0.011,0.014,0.022,0.027,0.035,0.039
	c0.167,0.171,0.439,0.169,0.609-0.004c0.085-0.087,0.128-0.2,0.128-0.313c0.267-0.116,0.545-0.256,0.832-0.418
	c0.01,0.012,0.021,0.024,0.031,0.035c0.194,0.198,0.51,0.195,0.707-0.004c0.147-0.151,0.186-0.371,0.112-0.555
	c0.29-0.192,0.587-0.401,0.89-0.629l0.017,0.019c0.207,0.211,0.545,0.208,0.755-0.006c0.182-0.186,0.208-0.468,0.077-0.678
	c0.272-0.223,0.549-0.458,0.828-0.702c0.249,0.222,0.63,0.209,0.87-0.036c0.223-0.226,0.25-0.576,0.079-0.828
	c0.227-0.212,0.454-0.431,0.682-0.655c0.281,0.2,0.673,0.171,0.928-0.088c0.253-0.258,0.283-0.656,0.089-0.941
	c0.232-0.243,0.459-0.484,0.68-0.726c0.247,0.169,0.586,0.141,0.807-0.085c0.237-0.24,0.253-0.621,0.045-0.874
	c0.243-0.285,0.477-0.566,0.699-0.844c0.203,0.12,0.471,0.09,0.647-0.089C25.199,23.242,25.203,22.9,25,22.69
	c0.229-0.311,0.44-0.615,0.636-0.913c0.171,0.054,0.366,0.011,0.504-0.129c0.194-0.197,0.198-0.515,0.011-0.713
	c0.175-0.309,0.327-0.607,0.454-0.894c0.082-0.017,0.16-0.058,0.224-0.122c0.155-0.159,0.171-0.405,0.043-0.576
	c0.274-0.869,0.261-1.591-0.11-2.102c0.187-0.563,0.949-0.872,1.24-0.898C27.995,16.104,27.711,15.991,27.737,15.999z M30,7.001
	c-0.506,0-0.979-1.997-1.988-1.997c-0.578,0-1.286,2-2.082,2c-0.597,0-1.243-2-1.922-2c-0.658,0-1.348,2-2.051,2
	c-0.68,0-1.374-2-2.066-2c-0.617,0-1.234,2-1.84,2c-0.701,0-1.387-2-2.043-2c-0.678,0-1.322,2-1.918,2c-0.808,0-1.523-2-2.105-2
	c-0.992,0-0.932,1.997-1.984,1.997c-1.168,0-2-0.543-2-1.531c0-0.289,0.014-0.966,0.014-0.966c0-1.293,1.244-2.499,2.375-2.499
	h19.246c1.131,0,2.374,1.236,2.374,2.499C32.009,4.638,32,4.931,32,5.501C32,6.474,31.293,7.001,30,7.001z"/>
</svg>
