<?xml version="1.0" encoding="iso-8859-1"?>
<!-- Generator: Adobe Illustrator 16.0.2, SVG Export Plug-In . SVG Version: 6.00 Build 0)  -->
<!DOCTYPE svg PUBLIC "-//W3C//DTD SVG 1.1//EN" "http://www.w3.org/Graphics/SVG/1.1/DTD/svg11.dtd">
<svg version="1.1" id="co_x5F_food_x5F_3" xmlns="http://www.w3.org/2000/svg" xmlns:xlink="http://www.w3.org/1999/xlink" x="0px"
	 y="0px" width="40px" height="40px" viewBox="0 0 40 40" style="enable-background:new 0 0 40 40;" xml:space="preserve">
<path fill="#0D47A1" style="fill-rule:evenodd;clip-rule:evenodd;" d="M38.318,24.638l-5.355,5.354l-4.064,4.067
	c-1.285,1.285-2.85,1.933-4.667,1.933H13.702c-1.817,0-3.381-0.647-4.667-1.933l-2.776-2.777c-0.857-0.857-1.288-1.899-1.288-3.111
	V14.995h27.992v2h3.8c1.211,0,2.199,0.988,2.199,2.2v3.888C38.962,23.688,38.747,24.21,38.318,24.638z M35.963,20.655
	c0-0.364-0.296-0.661-0.659-0.661h-2.341v5.998l2.808-2.806c0.127-0.128,0.192-0.284,0.192-0.466V20.655z M8,10.001h22
	c1.657,0,3,1.343,3,3H5C5,11.344,6.343,10.001,8,10.001z M24.646,7.998h-0.359c-0.728,0-1.32-0.594-1.32-1.321V4.318
	c0-0.727,0.593-1.32,1.32-1.32h0.359c0.728,0,1.32,0.594,1.32,1.32v2.358C25.966,7.404,25.373,7.998,24.646,7.998z M18.646,7.998
	h-0.359c-0.728,0-1.32-0.594-1.32-1.321V4.318c0-0.727,0.593-1.32,1.32-1.32h0.359c0.728,0,1.32,0.594,1.32,1.32v2.358
	C19.967,7.404,19.374,7.998,18.646,7.998z M12.647,7.998h-0.359c-0.726,0-1.32-0.594-1.32-1.321V4.318c0-0.727,0.595-1.32,1.32-1.32
	h0.359c0.728,0,1.32,0.594,1.32,1.32v2.358C13.968,7.404,13.375,7.998,12.647,7.998z"/>
</svg>
