<?xml version="1.0" encoding="iso-8859-1"?>
<!-- Generator: Adobe Illustrator 16.0.2, SVG Export Plug-In . SVG Version: 6.00 Build 0)  -->
<!DOCTYPE svg PUBLIC "-//W3C//DTD SVG 1.1//EN" "http://www.w3.org/Graphics/SVG/1.1/DTD/svg11.dtd">
<svg version="1.1" id="co_x5F_food_x5F_3" xmlns="http://www.w3.org/2000/svg" xmlns:xlink="http://www.w3.org/1999/xlink" x="0px"
	 y="0px" width="40px" height="40px" viewBox="0 0 40 40" style="enable-background:new 0 0 40 40;" xml:space="preserve">
<path fill="#0D47A1" style="fill-rule:evenodd;clip-rule:evenodd;" d="M35.973,24.985h-6.998v6.6c0,2.421-1.978,4.398-4.4,4.398H8.38
	c-2.424,0-4.4-1.977-4.4-4.398L4,5.001c0-1.657,1.343-3,3-3h19c1.657,0,3,1.343,3,3V8.99h6.772c1.211,0,2.199,0.999,2.199,2.198
	v11.797C37.972,23.986,36.971,24.985,35.973,24.985z M7.978,29.784c0,1.212,0.99,2.2,2.2,2.2h12.596c1.211,0,2.2-0.99,2.2-2.2
	v-1.799v-9.998H7.978V29.784z M33.973,13.648c0-0.363-0.297-0.659-0.659-0.659h-4.339v7.997h4.338c0.363,0,0.66-0.296,0.66-0.66
	V13.648z"/>
</svg>
