<?xml version="1.0" encoding="iso-8859-1"?>
<!-- Generator: Adobe Illustrator 16.0.2, SVG Export Plug-In . SVG Version: 6.00 Build 0)  -->
<!DOCTYPE svg PUBLIC "-//W3C//DTD SVG 1.1//EN" "http://www.w3.org/Graphics/SVG/1.1/DTD/svg11.dtd">
<svg version="1.1" id="co_x5F_food_x5F_2" xmlns="http://www.w3.org/2000/svg" xmlns:xlink="http://www.w3.org/1999/xlink" x="0px"
	 y="0px" width="40px" height="40px" viewBox="0 0 40 40" style="enable-background:new 0 0 40 40;" xml:space="preserve">
<path fill="#0D47A1" style="fill-rule:evenodd;clip-rule:evenodd;" d="M20.004,2.983c9.385,0,16.998,7.61,16.998,16.997
	c0,9.385-7.613,16.995-16.998,16.995S3.008,29.365,3.008,19.98C3.008,10.594,10.619,2.983,20.004,2.983L20.004,2.983z M11.014,7.982
	c-0.551,0-1,0.447-1,0.999c0,0.553,0.449,1,1,1c0.553,0,1-0.447,1-1C12.014,8.43,11.566,7.982,11.014,7.982L11.014,7.982z
	 M19.473,4.504c-0.553,0-1,0.448-1,1s0.447,1,1,1s0.998-0.448,0.998-1S20.025,4.504,19.473,4.504L19.473,4.504z M12.014,22.979
	c-0.553,0-1,0.448-1,1s0.447,1.001,1,1.001s1-0.449,1-1.001S12.566,22.979,12.014,22.979L12.014,22.979z M30.02,15
	c-0.549,0-0.988,0.44-0.988,0.991c0,0.549,0.439,0.989,0.988,0.989s0.99-0.44,0.99-0.989C31.01,15.44,30.568,15,30.02,15L30.02,15z
	 M11.717,15.015c-0.551,0-0.99,0.439-0.99,0.99c0,0.55,0.439,0.989,0.99,0.989c0.549,0,0.99-0.439,0.99-0.989
	C12.707,15.454,12.266,15.015,11.717,15.015L11.717,15.015z M6.016,16.98c-0.553,0-1,0.448-1,0.999c0,0.554,0.447,1.001,1,1.001
	c0.551,0,0.998-0.447,0.998-1.001C7.014,17.429,6.566,16.98,6.016,16.98L6.016,16.98z M10.613,28.853c-0.551,0-0.998,0.447-0.998,1
	s0.447,1,0.998,1c0.553,0,1-0.447,1-1S11.166,28.853,10.613,28.853L10.613,28.853z M16.012,31.977c-0.551,0-0.998,0.449-0.998,1.001
	s0.447,0.999,0.998,0.999c0.553,0,1.002-0.447,1.002-0.999S16.564,31.977,16.012,31.977L16.012,31.977z M22.5,28.811
	c-0.553,0-1,0.448-1,1c0,0.553,0.447,1.001,1,1.001s1-0.448,1-1.001C23.5,29.259,23.053,28.811,22.5,28.811L22.5,28.811z
	 M28.01,29.978c-0.551,0-1,0.447-1,1.001c0,0.551,0.449,0.998,1,0.998c0.553,0,1-0.447,1-0.998
	C29.01,30.425,28.563,29.978,28.01,29.978L28.01,29.978z M33.01,22.979c-0.553,0-1.002,0.448-1.002,1s0.449,1.001,1.002,1.001
	c0.551,0,1-0.449,1-1.001S33.561,22.979,33.01,22.979L33.01,22.979z M30.01,7.982c-0.553,0-1,0.447-1,0.999c0,0.553,0.447,1,1,1
	c0.551,0,1-0.447,1-1C31.01,8.43,30.561,7.982,30.01,7.982L30.01,7.982z M24.066,10.084c-0.551,0-0.998,0.447-0.998,0.999
	c0,0.553,0.447,1.001,0.998,1.001c0.553,0,1-0.448,1-1.001C25.066,10.531,24.619,10.084,24.066,10.084L24.066,10.084z M20.004,13.98
	c-3.311,0-5.998,2.687-5.998,6c0,3.312,2.688,5.997,5.998,5.997c3.313,0,6-2.686,6-5.997C26.004,16.667,23.316,13.98,20.004,13.98z"
	/>
</svg>
