<?xml version="1.0" encoding="iso-8859-1"?>
<!-- Generator: Adobe Illustrator 16.0.2, SVG Export Plug-In . SVG Version: 6.00 Build 0)  -->
<!DOCTYPE svg PUBLIC "-//W3C//DTD SVG 1.1//EN" "http://www.w3.org/Graphics/SVG/1.1/DTD/svg11.dtd">
<svg version="1.1" id="co_x5F_food_x5F_2" xmlns="http://www.w3.org/2000/svg" xmlns:xlink="http://www.w3.org/1999/xlink" x="0px"
	 y="0px" width="40px" height="40px" viewBox="0 0 40 40" style="enable-background:new 0 0 40 40;" xml:space="preserve">
<path fill="#0D47A1" style="fill-rule:evenodd;clip-rule:evenodd;" d="M30.617,14.01c4.385,2.308,7.342,6.033,7.342,7.104
	c0,1.072-2.957,4.796-7.344,7.104c-0.5,0.263-1.041,0.277-1.553,0.043c-0.512-0.235-0.855-0.653-0.982-1.203
	c-0.377-1.631-0.609-3.295-0.672-4.996c-0.004-0.095-0.041-0.177-0.115-0.238c-0.072-0.063-0.158-0.088-0.254-0.077
	c-0.088,0.011-0.178,0.021-0.27,0.031c-0.166,0.019-0.291,0.156-0.293,0.323c-0.064,4.946-0.613,8.811-1.279,8.811
	c-0.654,0-1.195-3.735-1.273-8.562c-0.002-0.093-0.039-0.173-0.107-0.236c-0.066-0.063-0.148-0.093-0.24-0.088
	c-0.105,0.006-0.213,0.011-0.322,0.016c-0.174,0.009-0.311,0.151-0.313,0.326c-0.072,5.435-0.615,9.658-1.27,9.658
	c-0.65,0-1.189-4.174-1.266-9.563c-0.004-0.182-0.154-0.328-0.336-0.325c-0.111,0.001-0.227,0.003-0.342,0.004
	c-0.176,0.002-0.322,0.146-0.324,0.325c-0.082,5.01-0.615,8.878-1.257,8.878c-0.645,0-1.176-3.876-1.258-8.892
	c-0.002-0.178-0.145-0.321-0.322-0.324c-0.102-0.002-0.203-0.005-0.303-0.007c-0.181-0.004-0.333,0.141-0.337,0.322
	c-0.099,4.094-0.646,7.229-1.307,7.229c-0.665,0-1.217-3.201-1.308-7.359c-0.003-0.172-0.138-0.313-0.31-0.322
	c-0.091-0.006-0.182-0.012-0.271-0.018c-0.092-0.006-0.172,0.021-0.24,0.081c-0.068,0.061-0.105,0.137-0.111,0.228
	c-0.14,2.181-0.663,3.802-1.284,3.802c-0.678,0-1.235-1.916-1.313-4.384c-0.076-0.01-0.15-0.02-0.223-0.029
	c-0.137-0.02-0.267,0.045-0.334,0.167c-0.67,1.218-2.667,3.289-5.552,5.218c-0.335,0.224-0.747,0.227-1.087,0.009
	c-0.338-0.219-0.506-0.595-0.44-0.993c0.264-1.605,0.788-3.186,1.334-4.486c0.103-0.244,0.107-0.488,0.012-0.736
	c-0.543-1.42-1.064-3.084-1.334-4.679c-0.066-0.398,0.099-0.776,0.438-0.996c0.339-0.22,0.753-0.217,1.088,0.009
	c2.654,1.775,4.556,3.671,5.361,4.909c0.072,0.11,0.195,0.166,0.325,0.146c0.052-0.008,0.104-0.016,0.158-0.023
	c0.156-0.021,0.272-0.147,0.283-0.305c0.143-2.162,0.662-3.765,1.282-3.765c0.59,0,1.09,1.454,1.26,3.462
	c0.015,0.179,0.169,0.313,0.349,0.302c0.102-0.007,0.204-0.014,0.306-0.02c0.172-0.01,0.307-0.148,0.311-0.319
	c0.112-3.989,0.652-7.015,1.299-7.015c0.642,0,1.177,2.96,1.298,6.885c0.005,0.18,0.156,0.323,0.336,0.319
	c0.105-0.002,0.213-0.005,0.318-0.007c0.178-0.003,0.32-0.146,0.322-0.322c0.1-4.848,0.621-8.545,1.252-8.545
	c0.629,0,1.15,3.69,1.25,8.531c0.004,0.178,0.148,0.321,0.326,0.323c0.119,0.001,0.236,0.003,0.354,0.004
	c0.18,0.003,0.33-0.143,0.336-0.323c0.094-5.221,0.623-9.217,1.26-9.217c0.641,0,1.172,4.045,1.264,9.313
	c0.002,0.174,0.139,0.315,0.313,0.324c0.113,0.005,0.223,0.011,0.334,0.017c0.092,0.005,0.174-0.025,0.24-0.089
	c0.068-0.063,0.104-0.142,0.107-0.233c0.098-4.659,0.629-8.216,1.268-8.216c0.65,0,1.189,3.684,1.273,8.463
	c0.004,0.167,0.127,0.304,0.295,0.322c0.098,0.011,0.195,0.022,0.291,0.033c0.094,0.012,0.178-0.015,0.25-0.076
	c0.074-0.061,0.113-0.141,0.117-0.235c0.078-1.521,0.291-3.071,0.658-4.656c0.127-0.549,0.469-0.968,0.982-1.203
	C29.576,13.732,30.117,13.748,30.617,14.01L30.617,14.01z M32.131,19.734c-0.764,0-1.379,0.618-1.379,1.38
	c0,0.763,0.615,1.381,1.379,1.381c0.762,0,1.381-0.618,1.381-1.381C33.512,20.353,32.893,19.734,32.131,19.734z"/>
</svg>
