<?xml version="1.0" encoding="iso-8859-1"?>
<!-- Generator: Adobe Illustrator 16.0.2, SVG Export Plug-In . SVG Version: 6.00 Build 0)  -->
<!DOCTYPE svg PUBLIC "-//W3C//DTD SVG 1.1//EN" "http://www.w3.org/Graphics/SVG/1.1/DTD/svg11.dtd">
<svg version="1.1" id="co_x5F_food_x5F_3" xmlns="http://www.w3.org/2000/svg" xmlns:xlink="http://www.w3.org/1999/xlink" x="0px"
	 y="0px" width="40px" height="40px" viewBox="0 0 40 40" style="enable-background:new 0 0 40 40;" xml:space="preserve">
<path fill="#0D47A1" style="fill-rule:evenodd;clip-rule:evenodd;" d="M20.09,17.3l2.245-2.244l-0.803-0.804c-0.882-0.883-0.883-2.327,0-3.212
	l8.109-8.107c0.481-0.481,1.237-0.515,1.678-0.073l0,0c0.441,0.442,0.409,1.197-0.073,1.679c0,0-5.407,5.401-6.506,6.5l1.611,1.611
	c2.086-2.087,6.5-6.506,6.5-6.506c0.482-0.481,1.237-0.515,1.679-0.073l0,0c0.441,0.442,0.408,1.197-0.073,1.679
	c0,0-4.821,4.813-6.506,6.5l1.611,1.611c2.425-2.426,6.501-6.506,6.501-6.506c0.482-0.482,1.237-0.515,1.679-0.073l0,0
	c0.441,0.441,0.408,1.197-0.073,1.679l-8.109,8.108c-0.883,0.883-2.328,0.883-3.211,0l-0.803-0.802l-2.245,2.244l11.683,11.683
	c0.882,0.883,0.883,2.327,0,3.211l0,0c-0.883,0.883-2.328,0.883-3.211,0L20.09,23.722L8.417,35.395c-0.882,0.882-2.328,0.882-3.21,0
	l0,0c-0.883-0.884-0.883-2.329,0-3.212l11.672-11.672l-2.182-2.183c-1.228,0.545-2.716,0.294-3.733-0.712
	c-4.145-4.098-2.867-2.801-6.988-6.922c-1.308-1.307-1.308-3.447,0-4.754l0,0c1.308-1.309,3.447-1.309,4.755,0L20.09,17.3z"/>
</svg>
