<?xml version="1.0" encoding="iso-8859-1"?>
<!-- Generator: Adobe Illustrator 16.0.2, SVG Export Plug-In . SVG Version: 6.00 Build 0)  -->
<!DOCTYPE svg PUBLIC "-//W3C//DTD SVG 1.1//EN" "http://www.w3.org/Graphics/SVG/1.1/DTD/svg11.dtd">
<svg version="1.1" id="co_x5F_food_x5F_3" xmlns="http://www.w3.org/2000/svg" xmlns:xlink="http://www.w3.org/1999/xlink" x="0px"
	 y="0px" width="40px" height="40px" viewBox="0 0 40 40" style="enable-background:new 0 0 40 40;" xml:space="preserve">
<path fill="#FFFFFF" style="fill-rule:evenodd;clip-rule:evenodd;" d="M24,17.001h1c1.104,0,2,0.896,2,2v15c0,1.104-0.896,2-2,2h-1
	c-1.104,0-2-0.896-2-2v-15C22,17.896,22.896,17.001,24,17.001z"/>
<path fill="#FFFFFF" style="fill-rule:evenodd;clip-rule:evenodd;" d="M19.5,2.001c0.829,0,1.5,0.671,1.5,1.5v11c0,0.828-0.671,1.5-1.5,1.5
	s-1.5-0.672-1.5-1.5v-11C18,2.672,18.671,2.001,19.5,2.001z"/>
<path fill="#FFFFFF" style="fill-rule:evenodd;clip-rule:evenodd;" d="M24.5,2.001c0.829,0,1.5,0.671,1.5,1.5v11c0,0.828-0.671,1.5-1.5,1.5
	s-1.5-0.672-1.5-1.5v-11C23,2.672,23.671,2.001,24.5,2.001z"/>
<path fill="#FFFFFF" style="fill-rule:evenodd;clip-rule:evenodd;" d="M29.5,2.001c0.829,0,1.5,0.671,1.5,1.5v11c0,0.828-0.671,1.5-1.5,1.5
	s-1.5-0.672-1.5-1.5v-11C28,2.672,28.671,2.001,29.5,2.001z"/>
<path fill="#FFFFFF" style="fill-rule:evenodd;clip-rule:evenodd;" d="M20,14.001h9c1.104,0,2-1.104,2,0v3c0,1.104-0.896,2-2,2h-9
	c-1.104,0-2-0.896-2-2v-3C18,12.896,18.896,14.001,20,14.001z"/>
<path fill="#FFFFFF" style="fill-rule:evenodd;clip-rule:evenodd;" d="M11,12.001h2c1.657,0,3,1.343,3,3v5c0,1.656-1.343,3-3,3h-2
	c-1.657,0-3-1.344-3-3v-5C8,13.344,9.343,12.001,11,12.001z"/>
<path fill="#FFFFFF" style="fill-rule:evenodd;clip-rule:evenodd;" d="M13.5,6.001c1.381,0,2.5,1.119,2.5,2.5v25c0,1.381-1.119,2.5-2.5,2.5
	s-2.5-1.119-2.5-2.5v-25C11,7.12,12.119,6.001,13.5,6.001z"/>
<path fill="#FFFFFF" style="fill-rule:evenodd;clip-rule:evenodd;" d="M12,2.001c2.209,0,4,1.791,4,4v10c0,2.209-1.791,4-4,4s-4-1.791-4-4v-10
	C8,3.792,9.791,2.001,12,2.001z"/>
</svg>
