<?xml version="1.0" encoding="iso-8859-1"?>
<!-- Generator: Adobe Illustrator 16.0.2, SVG Export Plug-In . SVG Version: 6.00 Build 0)  -->
<!DOCTYPE svg PUBLIC "-//W3C//DTD SVG 1.1//EN" "http://www.w3.org/Graphics/SVG/1.1/DTD/svg11.dtd">
<svg version="1.1" id="co_x5F_food_x5F_2" xmlns="http://www.w3.org/2000/svg" xmlns:xlink="http://www.w3.org/1999/xlink" x="0px"
	 y="0px" width="40px" height="40px" viewBox="0 0 40 40" style="enable-background:new 0 0 40 40;" xml:space="preserve">
<path fill="#0D47A1" style="fill-rule:evenodd;clip-rule:evenodd;" d="M16.106,15.663c0.947,0.205,2.24,1.406,2.39,2.407
	c0.235,1.559,0.296,3.468-0.259,6.638c-0.555,3.171-0.618,4.479-0.294,7.518c0.014,0.133-0.063,0.248-0.17,0.33
	c-0.791,0.611-2.161-1.279-2.539-1.715c-1.083-1.249-0.344-5.086,0.054-7.467c0.396-2.381,0.538-4.95,0.284-7.298
	c-0.013-0.134,0.064-0.249,0.17-0.33C15.85,15.662,15.975,15.635,16.106,15.663L16.106,15.663z M32.967,33.95
	c0.022-0.133-0.013-0.256-0.099-0.359c-0.088-0.102-0.206-0.174-0.34-0.153c-2.333,0.365-4.906,0.35-7.303,0.067
	c-2.397-0.281-6.266-0.834-7.461,0.309c-0.417,0.398-2.239,1.858-1.59,2.618c0.088,0.103,0.206,0.176,0.339,0.154
	c3.02-0.471,4.329-0.471,7.521-0.069c3.194,0.399,5.099,0.247,6.644-0.063C31.671,36.256,32.808,34.907,32.967,33.95L32.967,33.95z
	 M12.667,9.789c-0.923-0.301-2.644,0.083-3.278,0.871c-0.989,1.228-2.007,2.846-3.127,5.861c-1.121,3.017-1.728,4.178-3.54,6.638
	c-0.08,0.107-0.071,0.247-0.02,0.37c0.372,0.927,2.51-0.013,3.057-0.198c1.564-0.531,2.863-4.216,3.723-6.472
	c0.857-2.257,2.034-4.546,3.438-6.444c0.08-0.107,0.071-0.247,0.02-0.371C12.889,9.918,12.795,9.831,12.667,9.789L12.667,9.789z
	 M14.036,37.456c0.481-0.843,0.451-2.605-0.192-3.387c-1.002-1.216-2.383-2.538-5.111-4.244s-3.743-2.533-5.787-4.806
	c-0.089-0.1-0.227-0.118-0.358-0.095c-0.984,0.18-0.494,2.463-0.422,3.035c0.205,1.641,3.553,3.654,5.589,4.95
	c2.037,1.296,4.042,2.909,5.619,4.667c0.09,0.101,0.228,0.118,0.359,0.094S13.971,37.573,14.036,37.456L14.036,37.456z
	 M12.721,2.089c0.574,0.782,0.745,2.538,0.193,3.388c-0.857,1.322-2.078,2.792-4.594,4.798c-2.516,2.005-3.432,2.943-5.203,5.434
	c-0.077,0.109-0.212,0.143-0.347,0.135C1.774,15.775,2,13.452,2.006,12.875c0.019-1.653,3.115-4.035,4.99-5.555
	c1.876-1.52,3.686-3.35,5.052-5.275c0.078-0.11,0.212-0.144,0.347-0.136C12.529,1.919,12.642,1.98,12.721,2.089L12.721,2.089z
	 M13.109,12.828c-0.119-0.061-0.247-0.065-0.371-0.013c-0.124,0.054-0.229,0.146-0.248,0.277c-0.343,2.337-1.123,4.789-2.105,6.995
	c-0.982,2.204-2.66,5.733-1.925,7.215c0.258,0.516,1.109,2.689,2.027,2.296c0.125-0.053,0.229-0.146,0.249-0.277
	c0.447-3.023,0.837-4.273,2.169-7.203c1.331-2.929,1.752-4.793,1.916-6.36C14.926,14.751,13.977,13.265,13.109,12.828L13.109,12.828
	z M32.353,5.063c-0.241,0.939-1.488,2.186-2.495,2.299c-1.566,0.175-3.477,0.164-6.623-0.509c-3.146-0.675-4.451-0.787-7.501-0.578
	c-0.134,0.011-0.245-0.072-0.324-0.182c-0.581-0.813,1.359-2.111,1.81-2.473c1.29-1.035,5.096-0.152,7.46,0.334
	c2.364,0.487,4.928,0.725,7.281,0.561c0.135-0.01,0.247,0.073,0.324,0.183C32.363,4.807,32.386,4.935,32.353,5.063L32.353,5.063z
	 M30.411,8.769c0.015-0.133-0.024-0.256-0.115-0.354c-0.093-0.099-0.214-0.165-0.346-0.14c-2.314,0.469-4.887,0.565-7.293,0.389
	c-2.407-0.178-6.296-0.561-7.44,0.633c-0.398,0.416-2.155,1.955-1.474,2.687c0.091,0.097,0.214,0.165,0.345,0.139
	c2.996-0.603,4.304-0.66,7.511-0.399c3.207,0.262,5.105,0.025,6.635-0.353C29.217,11.128,30.293,9.731,30.411,8.769L30.411,8.769z
	 M21.057,31.128c0.552,0.798,2.155,1.531,3.139,1.287c1.529-0.381,3.316-1.055,6.032-2.78s3.901-2.284,6.833-3.147
	c0.129-0.038,0.204-0.154,0.239-0.283c0.262-0.964-2.009-1.509-2.556-1.69c-1.568-0.522-4.83,1.629-6.878,2.907
	c-2.048,1.277-4.368,2.392-6.634,3.056c-0.129,0.038-0.205,0.154-0.239,0.284C20.958,30.892,20.979,31.018,21.057,31.128
	L21.057,31.128z M34.377,7.038c-0.08-0.107-0.193-0.169-0.328-0.176C33.915,6.854,33.78,6.89,33.704,7
	c-1.347,1.94-3.137,3.789-4.997,5.327c-1.859,1.54-4.932,3.955-4.932,5.607c0,0.577-0.201,2.903,0.796,2.96
	c0.133,0.008,0.269-0.029,0.346-0.139c1.744-2.51,2.649-3.456,5.146-5.487c2.494-2.031,3.699-3.515,4.544-4.847
	C35.148,9.567,34.958,7.814,34.377,7.038L34.377,7.038z M37.745,13.709c0.417,0.876,0.256,2.631-0.444,3.362
	c-1.09,1.139-2.564,2.354-5.41,3.854c-2.849,1.498-3.923,2.247-6.13,4.361c-0.096,0.094-0.234,0.102-0.365,0.068
	c-0.967-0.252-0.309-2.492-0.195-3.059c0.327-1.62,3.814-3.381,5.943-4.521c2.126-1.141,4.246-2.6,5.948-4.235
	c0.098-0.095,0.236-0.102,0.367-0.068C37.589,13.505,37.688,13.588,37.745,13.709L37.745,13.709z M18.019,12.618
	c-0.132,0.018-0.24,0.086-0.313,0.199c-0.072,0.113-0.107,0.248-0.048,0.369c1.03,2.124,1.766,4.591,2.195,6.967
	c0.43,2.375,1.029,6.235,2.471,7.046c0.502,0.282,2.432,1.6,2.968,0.757c0.073-0.112,0.107-0.248,0.049-0.368
	c-1.331-2.751-1.713-4.005-2.262-7.176c-0.547-3.171-1.249-4.947-1.996-6.335C20.602,13.186,18.981,12.491,18.019,12.618z"/>
</svg>
