<?xml version="1.0" encoding="iso-8859-1"?>
<!-- Generator: Adobe Illustrator 16.0.2, SVG Export Plug-In . SVG Version: 6.00 Build 0)  -->
<!DOCTYPE svg PUBLIC "-//W3C//DTD SVG 1.1//EN" "http://www.w3.org/Graphics/SVG/1.1/DTD/svg11.dtd">
<svg version="1.1" id="co_x5F_food_x5F_1" xmlns="http://www.w3.org/2000/svg" xmlns:xlink="http://www.w3.org/1999/xlink" x="0px"
	 y="0px" width="40px" height="40px" viewBox="0 0 40 40" style="enable-background:new 0 0 40 40;" xml:space="preserve">
<path fill="#0D47A1" style="fill-rule:evenodd;clip-rule:evenodd;" d="M31.909,33.384c-2.181,0.286-3.112-1.006-3.649-1.694
	c-0.538-0.689-1.025-1.509-1.544-2.344c0.052,0.36,0.109,0.722,0.109,1.097c0,4.155-3.312,7.523-7.396,7.523
	s-7.396-3.368-7.396-7.523c0-0.413,0.057-0.812,0.12-1.207c-0.481,0.842-0.911,1.691-1.358,2.454
	c-0.736,1.254-1.141,2.001-3.401,1.757c-5.77-1.417-5.402-5.676-5.402-7.589c0-6.036,7.893-8.716,14.255-17.414
	c1.01-1.259,1.13-5.391,3.178-5.391c2.017,0,2.189,4.271,2.979,5.354c6.516,8.929,14.67,11.462,14.67,17.451
	C37.071,27.697,37.172,32.301,31.909,33.384z"/>
</svg>
