<?xml version="1.0" encoding="iso-8859-1"?>
<!-- Generator: Adobe Illustrator 16.0.2, SVG Export Plug-In . SVG Version: 6.00 Build 0)  -->
<!DOCTYPE svg PUBLIC "-//W3C//DTD SVG 1.1//EN" "http://www.w3.org/Graphics/SVG/1.1/DTD/svg11.dtd">
<svg version="1.1" id="co_x5F_food_x5F_3" xmlns="http://www.w3.org/2000/svg" xmlns:xlink="http://www.w3.org/1999/xlink" x="0px"
	 y="0px" width="40px" height="40px" viewBox="0 0 40 40" style="enable-background:new 0 0 40 40;" xml:space="preserve">
<path fill="#0D47A1" style="fill-rule:evenodd;clip-rule:evenodd;" d="M22.854,26.082c-0.5,0.121-0.843,0.556-0.843,1.069v4.716
	c0,0.605,0.494,1.1,1.101,1.1l2.389,0.034c0.828,0,1.5,0.671,1.5,1.5c0,0.828-0.672,1.5-1.5,1.5h-11c-0.828,0-1.5-0.672-1.5-1.5
	c0-0.829,0.672-1.5,1.5-1.5l2.412-0.034c0.604,0,1.099-0.494,1.099-1.1v-4.721c0-0.514-0.339-0.947-0.839-1.069
	c-4.655-1.134-7.657-5.534-7.657-10.506c0-4.891,1.096-7.299,1.694-11.224c0.033-0.216,0.217-0.374,0.435-0.374h2.541
	c0.231,0,0.409,0.236,0.367,0.491c-0.59,3.744-1.808,7.074-1.808,10.439c0,4.419,3.242,8.377,7.255,8.377s7.254-3.96,7.254-8.377
	c0-3.365-1.235-6.695-1.829-10.439c-0.042-0.255,0.136-0.491,0.368-0.491h2.611c0.221,0,0.403,0.158,0.436,0.374
	c0.601,3.925,1.696,6.333,1.696,11.224C30.535,20.55,27.52,24.957,22.854,26.082z"/>
</svg>
