<?xml version="1.0" encoding="iso-8859-1"?>
<!-- Generator: Adobe Illustrator 16.0.2, SVG Export Plug-In . SVG Version: 6.00 Build 0)  -->
<!DOCTYPE svg PUBLIC "-//W3C//DTD SVG 1.1//EN" "http://www.w3.org/Graphics/SVG/1.1/DTD/svg11.dtd">
<svg version="1.1" id="co_x5F_food_x5F_3" xmlns="http://www.w3.org/2000/svg" xmlns:xlink="http://www.w3.org/1999/xlink" x="0px"
	 y="0px" width="40px" height="40px" viewBox="0 0 40 40" style="enable-background:new 0 0 40 40;" xml:space="preserve">
<path fill="#0D47A1" style="fill-rule:evenodd;clip-rule:evenodd;" d="M28.336,3.798L24.492,4.88c-0.364,0.115-0.625,0.383-0.728,0.751
	l-2.068,7.354h2.049c0.219,0,0.401,0.156,0.435,0.372c0.423,2.717,1.169,5.764,1.169,9.138c0,3.509-2.527,6.612-5.83,7.369
	c-0.304,0.069-0.513,0.332-0.513,0.643v4.843c0,0.349,0.275,0.628,0.618,0.651H21c0.552,0,1,0.447,1,1c0,0.552-0.448,1-1,1h-7
	c-0.552,0-1-0.448-1-1c0-0.553,0.448-1,1-1h1.354c0.342-0.023,0.617-0.303,0.617-0.651v-4.847c0-0.31-0.208-0.572-0.511-0.643
	c-3.293-0.764-5.813-3.861-5.813-7.365c0-3.374,0.747-6.42,1.169-9.138c0.034-0.216,0.216-0.372,0.435-0.372h8.087l2.461-8.757
	c0.104-0.367,0.362-0.636,0.726-0.751l5.148-1.633c0.115-0.037,0.228-0.026,0.336,0.029c0.107,0.055,0.18,0.142,0.217,0.258
	l0.397,1.114C28.696,3.478,28.567,3.726,28.336,3.798z M18.415,25.955c-0.053,0.168-0.248,0.267-0.437,0.222l-1.763-0.17
	c-0.192-0.046-0.306-0.223-0.252-0.394l1.237-3.923c-1.258,0.442-2.235,0.667-3.942-0.098c-0.641-0.289-0.553,0.571-0.553,1.27
	c0,2.361,2.171,4.473,4.86,4.473c2.688,0,4.86-2.112,4.86-4.473c0-1.692-0.141-1.754-0.222-1.85
	c-0.725-0.856-1.076-0.553-2.213-0.053L18.415,25.955z M17.024,12.001l-2.379,0.009c-0.097,0-0.177-0.076-0.181-0.173
	c-0.037-0.875-0.337-1.745-0.915-2.488c-1.479-1.902-4.22-2.243-6.121-0.764c-1.901,1.479-2.243,4.22-0.764,6.121
	c0.652,0.838,1.55,1.372,2.512,1.582c0.094,0.021,0.155,0.11,0.14,0.205c-0.031,0.191-0.383,2.102-0.422,2.36
	c-0.01,0.069-0.045,0.125-0.103,0.166c-0.058,0.039-0.122,0.053-0.191,0.038c-1.605-0.338-3.105-1.223-4.19-2.618
	C1.973,13.306,2.537,8.787,5.67,6.349c3.134-2.438,7.653-1.873,10.091,1.259c0.96,1.236,1.454,2.686,1.509,4.139
	c0.002,0.068-0.021,0.129-0.068,0.179C17.153,11.976,17.093,12.001,17.024,12.001z"/>
</svg>
