<?xml version="1.0" encoding="iso-8859-1"?>
<!-- Generator: Adobe Illustrator 16.0.2, SVG Export Plug-In . SVG Version: 6.00 Build 0)  -->
<!DOCTYPE svg PUBLIC "-//W3C//DTD SVG 1.1//EN" "http://www.w3.org/Graphics/SVG/1.1/DTD/svg11.dtd">
<svg version="1.1" id="co_x5F_food_x5F_3" xmlns="http://www.w3.org/2000/svg" xmlns:xlink="http://www.w3.org/1999/xlink" x="0px"
	 y="0px" width="40px" height="40px" viewBox="0 0 40 40" style="enable-background:new 0 0 40 40;" xml:space="preserve">
<path fill="#0D47A1" style="fill-rule:evenodd;clip-rule:evenodd;" d="M36.041,7.184L23.33,21.608c-0.224,0.252-0.333,0.541-0.333,0.877v9.176
	c0,0.727,0.593,1.319,1.32,1.319L26,33.001c1.104,0,2,0.896,2,2s-0.896,2-2,2H15c-1.104,0-2-0.896-2-2s0.896-2,2-2l1.677-0.021
	c0.727,0,1.32-0.593,1.32-1.32v-9.175c0-0.336-0.11-0.625-0.333-0.877L4.954,7.184C4.196,6.333,4.801,4.987,5.94,4.987h29.114
	C36.194,4.987,36.795,6.335,36.041,7.184z"/>
</svg>
