<?xml version="1.0" encoding="iso-8859-1"?>
<!-- Generator: Adobe Illustrator 16.0.2, SVG Export Plug-In . SVG Version: 6.00 Build 0)  -->
<!DOCTYPE svg PUBLIC "-//W3C//DTD SVG 1.1//EN" "http://www.w3.org/Graphics/SVG/1.1/DTD/svg11.dtd">
<svg version="1.1" id="co_x5F_food_x5F_3" xmlns="http://www.w3.org/2000/svg" xmlns:xlink="http://www.w3.org/1999/xlink" x="0px"
	 y="0px" width="40px" height="40px" viewBox="0 0 40 40" style="enable-background:new 0 0 40 40;" xml:space="preserve">
<path fill="#0D47A1" style="fill-rule:evenodd;clip-rule:evenodd;" d="M22.832,26.096c-0.5,0.121-0.842,0.556-0.842,1.069v6.778
	c0,0.531,0.389,0.956,0.892,1.058H25.5c0.829,0,1.5,0.672,1.5,1.5s-0.671,1.5-1.5,1.5h-10c-0.829,0-1.5-0.672-1.5-1.5
	s0.671-1.5,1.5-1.5h2.63c0.503-0.102,0.892-0.526,0.892-1.058v-6.785c0-0.513-0.34-0.946-0.839-1.067
	c-4.656-1.135-8.159-5.534-8.159-10.506c0-4.738,1.03-9.023,1.639-12.855c0.068-0.431,0.433-0.74,0.869-0.74h16.006
	c0.436,0,0.801,0.31,0.869,0.74c0.609,3.832,1.638,8.117,1.638,12.855C31.045,20.563,27.5,24.972,22.832,26.096z M18.502,6.283
	c-0.822,0-1.489,0.667-1.489,1.489s0.667,1.488,1.489,1.488s1.489-0.666,1.489-1.488S19.325,6.283,18.502,6.283z M27.696,13.342
	c-0.024-0.271-0.116-0.498-0.288-0.711c-2.613-3.234-6.813,4.337-13.353,1.084c-0.361-0.18-0.79,0.065-0.814,0.469
	c-0.034,0.547-0.052,1.099-0.052,1.656c0,3.983,3.266,7.549,7.311,7.549c4.043,0,7.311-3.566,7.311-7.549
	C27.812,14.994,27.769,14.163,27.696,13.342z M25.621,15.353c-0.445,0-0.805-0.359-0.805-0.805s0.36-0.806,0.805-0.806
	s0.805,0.36,0.805,0.806S26.065,15.353,25.621,15.353z M21.996,20.438c-1.04,0-1.883-0.844-1.883-1.883
	c0-1.04,0.843-1.883,1.883-1.883c1.04,0,1.883,0.843,1.883,1.883C23.879,19.594,23.036,20.438,21.996,20.438z M17.856,21.012
	c-0.445,0-0.805-0.361-0.805-0.806s0.36-0.806,0.805-0.806c0.444,0,0.805,0.361,0.805,0.806S18.3,21.012,17.856,21.012z
	 M15.914,18.378c-0.703,0-1.272-0.57-1.272-1.273c0-0.702,0.569-1.271,1.272-1.271s1.272,0.569,1.272,1.271
	C17.186,17.808,16.616,18.378,15.914,18.378z"/>
</svg>
