<?xml version="1.0" encoding="iso-8859-1"?>
<!-- Generator: Adobe Illustrator 16.0.2, SVG Export Plug-In . SVG Version: 6.00 Build 0)  -->
<!DOCTYPE svg PUBLIC "-//W3C//DTD SVG 1.1//EN" "http://www.w3.org/Graphics/SVG/1.1/DTD/svg11.dtd">
<svg version="1.1" id="co_x5F_food_x5F_2" xmlns="http://www.w3.org/2000/svg" xmlns:xlink="http://www.w3.org/1999/xlink" x="0px"
	 y="0px" width="40px" height="40px" viewBox="0 0 40 40" style="enable-background:new 0 0 40 40;" xml:space="preserve">
<path fill="#0D47A1" style="fill-rule:evenodd;clip-rule:evenodd;" d="M5.008,3.003c1.102,0,1.998,0.895,1.998,1.999
	c0,1.104-0.896,1.999-1.998,1.999c-1.105,0-2.002-0.896-2.002-1.999C3.006,3.897,3.902,3.003,5.008,3.003L5.008,3.003z
	 M5.008,32.996c1.102,0,1.998,0.895,1.998,2c0,1.103-0.896,1.999-1.998,1.999c-1.105,0-2.002-0.896-2.002-1.999
	C3.006,33.891,3.902,32.996,5.008,32.996L5.008,32.996z M35,32.996c1.104,0,2,0.895,2,2c0,1.103-0.896,1.999-2,1.999
	c-1.105,0-2-0.896-2-1.999C33,33.891,33.895,32.996,35,32.996L35,32.996z M29.002,32.996c1.104,0,1.998,0.895,1.998,2
	c0,1.103-0.895,1.999-1.998,1.999c-1.105,0-2-0.896-2-1.999C27.002,33.891,27.896,32.996,29.002,32.996L29.002,32.996z
	 M23.002,32.996c1.104,0,2,0.895,2,2c0,1.103-0.896,1.999-2,1.999s-1.998-0.896-1.998-1.999
	C21.004,33.891,21.898,32.996,23.002,32.996L23.002,32.996z M17.004,32.996c1.104,0,1.998,0.895,1.998,2
	c0,1.103-0.895,1.999-1.998,1.999s-2-0.896-2-1.999C15.004,33.891,15.9,32.996,17.004,32.996L17.004,32.996z M11.004,32.996
	c1.105,0,2.002,0.895,2.002,2c0,1.103-0.896,1.999-2.002,1.999c-1.104,0-1.998-0.896-1.998-1.999
	C9.006,33.891,9.9,32.996,11.004,32.996L11.004,32.996z M5.008,26.998c1.102,0,1.998,0.895,1.998,1.999
	c0,1.104-0.896,1.999-1.998,1.999c-1.105,0-2.002-0.896-2.002-1.999C3.006,27.893,3.902,26.998,5.008,26.998L5.008,26.998z
	 M35,26.998c1.104,0,2,0.895,2,1.999c0,1.104-0.896,1.999-2,1.999c-1.105,0-2-0.896-2-1.999C33,27.893,33.895,26.998,35,26.998
	L35,26.998z M29.002,26.998c1.104,0,1.998,0.895,1.998,1.999c0,1.104-0.895,1.999-1.998,1.999c-1.105,0-2-0.896-2-1.999
	C27.002,27.893,27.896,26.998,29.002,26.998L29.002,26.998z M23.002,26.998c1.104,0,2,0.895,2,1.999c0,1.104-0.896,1.999-2,1.999
	s-1.998-0.896-1.998-1.999C21.004,27.893,21.898,26.998,23.002,26.998L23.002,26.998z M17.004,26.998
	c1.104,0,1.998,0.895,1.998,1.999c0,1.104-0.895,1.999-1.998,1.999s-2-0.896-2-1.999C15.004,27.893,15.9,26.998,17.004,26.998
	L17.004,26.998z M11.004,26.998c1.105,0,2.002,0.895,2.002,1.999c0,1.104-0.896,1.999-2.002,1.999c-1.104,0-1.998-0.896-1.998-1.999
	C9.006,27.893,9.9,26.998,11.004,26.998L11.004,26.998z M5.008,20.999c1.102,0,1.998,0.895,1.998,1.999s-0.896,1.999-1.998,1.999
	c-1.105,0-2.002-0.895-2.002-1.999S3.902,20.999,5.008,20.999L5.008,20.999z M35,20.999c1.104,0,2,0.895,2,1.999
	s-0.896,1.999-2,1.999c-1.105,0-2-0.895-2-1.999S33.895,20.999,35,20.999L35,20.999z M29.002,20.999
	c1.104,0,1.998,0.895,1.998,1.999s-0.895,1.999-1.998,1.999c-1.105,0-2-0.895-2-1.999S27.896,20.999,29.002,20.999L29.002,20.999z
	 M23.002,20.999c1.104,0,2,0.895,2,1.999s-0.896,1.999-2,1.999s-1.998-0.895-1.998-1.999S21.898,20.999,23.002,20.999L23.002,20.999
	z M17.004,20.999c1.104,0,1.998,0.895,1.998,1.999s-0.895,1.999-1.998,1.999s-2-0.895-2-1.999S15.9,20.999,17.004,20.999
	L17.004,20.999z M11.004,20.999c1.105,0,2.002,0.895,2.002,1.999s-0.896,1.999-2.002,1.999c-1.104,0-1.998-0.895-1.998-1.999
	S9.9,20.999,11.004,20.999L11.004,20.999z M5.008,14.999c1.102,0,1.998,0.896,1.998,2c0,1.104-0.896,2-1.998,2
	c-1.105,0-2.002-0.896-2.002-2C3.006,15.896,3.902,14.999,5.008,14.999L5.008,14.999z M35,14.999c1.104,0,2,0.896,2,2
	c0,1.104-0.896,2-2,2c-1.105,0-2-0.896-2-2C33,15.896,33.895,14.999,35,14.999L35,14.999z M29.002,14.999
	c1.104,0,1.998,0.896,1.998,2c0,1.104-0.895,2-1.998,2c-1.105,0-2-0.896-2-2C27.002,15.896,27.896,14.999,29.002,14.999
	L29.002,14.999z M23.002,14.999c1.104,0,2,0.896,2,2c0,1.104-0.896,2-2,2s-1.998-0.896-1.998-2
	C21.004,15.896,21.898,14.999,23.002,14.999L23.002,14.999z M17.004,14.999c1.104,0,1.998,0.896,1.998,2c0,1.104-0.895,2-1.998,2
	s-2-0.896-2-2C15.004,15.896,15.9,14.999,17.004,14.999L17.004,14.999z M11.004,14.999c1.105,0,2.002,0.896,2.002,2
	c0,1.104-0.896,2-2.002,2c-1.104,0-1.998-0.896-1.998-2C9.006,15.896,9.9,14.999,11.004,14.999L11.004,14.999z M5.008,9.001
	c1.102,0,1.998,0.896,1.998,1.999c0,1.104-0.896,2-1.998,2c-1.105,0-2.002-0.896-2.002-2C3.006,9.896,3.902,9.001,5.008,9.001
	L5.008,9.001z M35,9.001c1.104,0,2,0.896,2,1.999c0,1.104-0.896,2-2,2c-1.105,0-2-0.896-2-2C33,9.896,33.895,9.001,35,9.001
	L35,9.001z M29.002,9.001C30.105,9.001,31,9.896,31,11c0,1.104-0.895,2-1.998,2c-1.105,0-2-0.896-2-2
	C27.002,9.896,27.896,9.001,29.002,9.001L29.002,9.001z M23.002,9.001c1.104,0,2,0.896,2,1.999c0,1.104-0.896,2-2,2
	s-1.998-0.896-1.998-2C21.004,9.896,21.898,9.001,23.002,9.001L23.002,9.001z M17.004,9.001c1.104,0,1.998,0.896,1.998,1.999
	c0,1.104-0.895,2-1.998,2s-2-0.896-2-2C15.004,9.896,15.9,9.001,17.004,9.001L17.004,9.001z M11.004,9.001
	c1.105,0,2.002,0.896,2.002,1.999c0,1.104-0.896,2-2.002,2c-1.104,0-1.998-0.896-1.998-2C9.006,9.896,9.9,9.001,11.004,9.001
	L11.004,9.001z M35,3.003c1.104,0,2,0.895,2,1.999c0,1.104-0.896,1.999-2,1.999c-1.105,0-2-0.896-2-1.999
	C33,3.897,33.895,3.003,35,3.003L35,3.003z M29.002,3.003C30.105,3.003,31,3.897,31,5.002c0,1.104-0.895,1.999-1.998,1.999
	c-1.105,0-2-0.896-2-1.999C27.002,3.897,27.896,3.003,29.002,3.003L29.002,3.003z M23.002,3.003c1.104,0,2,0.895,2,1.999
	c0,1.104-0.896,1.999-2,1.999s-1.998-0.896-1.998-1.999C21.004,3.897,21.898,3.003,23.002,3.003L23.002,3.003z M17.004,3.003
	c1.104,0,1.998,0.895,1.998,1.999c0,1.104-0.895,1.999-1.998,1.999s-2-0.896-2-1.999C15.004,3.897,15.9,3.003,17.004,3.003
	L17.004,3.003z M11.004,3.003c1.105,0,2.002,0.895,2.002,1.999c0,1.104-0.896,1.999-2.002,1.999c-1.104,0-1.998-0.896-1.998-1.999
	C9.006,3.897,9.9,3.003,11.004,3.003z"/>
</svg>
