<?xml version="1.0" encoding="iso-8859-1"?>
<!-- Generator: Adobe Illustrator 16.0.2, SVG Export Plug-In . SVG Version: 6.00 Build 0)  -->
<!DOCTYPE svg PUBLIC "-//W3C//DTD SVG 1.1//EN" "http://www.w3.org/Graphics/SVG/1.1/DTD/svg11.dtd">
<svg version="1.1" id="co_x5F_food_x5F_1" xmlns="http://www.w3.org/2000/svg" xmlns:xlink="http://www.w3.org/1999/xlink" x="0px"
	 y="0px" width="40px" height="40px" viewBox="0 0 40 40" style="enable-background:new 0 0 40 40;" xml:space="preserve">
<path fill="#0D47A1" style="fill-rule:evenodd;clip-rule:evenodd;" d="M35.751,3.779c-1.933-0.229-3.451,0.395-4.377,1.575
	c-0.066,0.085-0.129,0.172-0.19,0.261c0.244-0.077,2.62-0.854,4.183,1.04c0.823,0.997,1.036,2.388,0.633,3.562
	c-0.638,1.865-2.833,2.766-4.593,2.248c-2.013-0.524-2.508-2.281-2.646-2.846c-0.716,0.763-0.688,0.869-1.136,1.465
	c1.388,0.466,2.453,2.021,2.219,3.202c0,0,1.646-0.647,3.456,1.161c1.263,1.263,1.263,3.313,0,4.577
	c-0.209,0.209-0.441,0.384-0.687,0.523c1.022,1.299,0.935,3.186-0.263,4.383c-0.688,0.688-1.605,1.011-2.506,0.966
	c0.566,1.271,0.329,2.812-0.713,3.854c-1.272,1.272-3.29,1.346-4.648,0.221c0.215,1.113-0.108,2.309-0.97,3.171
	c-1.379,1.378-3.615,1.378-4.994,0c-0.124-0.124-0.236-0.255-0.337-0.391c0.054,0.892-0.26,1.803-0.941,2.483
	c-1.263,1.264-3.313,1.264-4.576,0c-0.166-0.165-0.309-0.343-0.431-0.531c-0.109,0.571-0.385,1.118-0.828,1.561
	c-1.177,1.178-3.086,1.178-4.264,0c-0.323-0.323-0.558-0.703-0.704-1.106c-0.126,0.287-0.306,0.557-0.541,0.791
	c-1.012,1.012-2.653,1.012-3.665,0s-1.012-2.652,0-3.665c0.224-0.224,0.479-0.397,0.751-0.521c-0.37-0.147-0.716-0.371-1.014-0.669
	c-1.177-1.178-1.177-3.087,0-4.263c0.442-0.443,0.99-0.72,1.562-0.829c-0.188-0.122-0.367-0.266-0.532-0.431
	c-1.264-1.263-1.264-3.313,0-4.575C3.683,20.313,4.594,20,5.486,20.054c-0.137-0.102-0.268-0.214-0.391-0.337
	c-1.379-1.38-1.379-3.616,0-4.995c0.713-0.713,1.656-1.058,2.592-1.033c-0.834-1.334-0.67-3.115,0.49-4.276
	c1.146-1.146,2.898-1.318,4.227-0.517c-0.216-1.054,0.084-2.194,0.901-3.01c1.228-1.229,3.183-1.289,4.482-0.184
	c0.139-0.241,0.311-0.469,0.517-0.674c1.264-1.264,3.313-1.264,4.577,0c0.896,0.896,1.438,1.817,1.142,3.06
	c1.584,0.073,2.143,0.657,2.41,1.34c-0.658,0.825,1.14-1.438,2.104-2.254c0.195-1.483,1.047-2.677,1.314-3.017
	c1.341-1.707,3.47-2.618,6.127-2.303C37.074,1.983,36.847,3.908,35.751,3.779z M30.941,17.687c0-0.662-0.537-1.2-1.2-1.2
	c-0.663,0-1.2,0.538-1.2,1.2c0,0.663,0.538,1.201,1.2,1.201C30.404,18.888,30.941,18.35,30.941,17.687z M26.297,28.595
	c0.568,0,1.028-0.46,1.028-1.028c0-0.567-0.46-1.027-1.028-1.027c-0.567,0-1.027,0.46-1.027,1.027
	C25.27,28.135,25.729,28.595,26.297,28.595z M24.558,23.926c0-1.042-0.845-1.887-1.887-1.887c-1.042,0-1.887,0.845-1.887,1.887
	s0.845,1.887,1.887,1.887C23.713,25.813,24.558,24.968,24.558,23.926z M20.929,31.235c0.78,0,1.413-0.633,1.413-1.412
	c0-0.78-0.632-1.412-1.413-1.412c-0.78,0-1.412,0.632-1.412,1.412C19.517,30.603,20.149,31.235,20.929,31.235z M18.985,26.005
	c0-1.042-0.845-1.887-1.887-1.887s-1.887,0.845-1.887,1.887s0.845,1.887,1.887,1.887S18.985,27.047,18.985,26.005z M15.074,32.713
	c0.78,0,1.412-0.632,1.412-1.412s-0.632-1.412-1.412-1.412s-1.412,0.632-1.412,1.412S14.294,32.713,15.074,32.713z M13.001,27.359
	c0-1.042-0.845-1.887-1.887-1.887s-1.887,0.845-1.887,1.887s0.845,1.886,1.887,1.886S13.001,28.401,13.001,27.359z M9.229,34.067
	c0.78,0,1.412-0.632,1.412-1.411c0-0.78-0.632-1.413-1.412-1.413s-1.412,0.633-1.412,1.413C7.817,33.436,8.449,34.067,9.229,34.067z
	 M4.458,29.297c0,0.78,0.632,1.412,1.412,1.412s1.412-0.632,1.412-1.412c0-0.779-0.632-1.411-1.412-1.411S4.458,28.518,4.458,29.297
	z M5.729,23.359c0,0.779,0.632,1.412,1.412,1.412c0.78,0,1.412-0.633,1.412-1.412c0-0.78-0.632-1.412-1.412-1.412
	C6.361,21.947,5.729,22.579,5.729,23.359z M7.453,17.758c0,0.78,0.632,1.412,1.412,1.412s1.412-0.632,1.412-1.412
	c0-0.779-0.632-1.412-1.412-1.412S7.453,16.979,7.453,17.758z M10.873,11.106c-0.567,0-1.028,0.46-1.028,1.027
	c0,0.568,0.46,1.028,1.028,1.028c0.568,0,1.028-0.46,1.028-1.028C11.9,11.566,11.44,11.106,10.873,11.106z M10.824,21.633
	c0,1.042,0.845,1.887,1.887,1.887s1.887-0.845,1.887-1.887s-0.845-1.887-1.887-1.887S10.824,20.591,10.824,21.633z M12.61,15.779
	c0,1.042,0.845,1.887,1.887,1.887s1.887-0.845,1.887-1.887s-0.845-1.887-1.887-1.887S12.61,14.737,12.61,15.779z M15.864,8.545
	c-0.78,0-1.412,0.633-1.412,1.412c0,0.78,0.632,1.412,1.412,1.412s1.412-0.632,1.412-1.412C17.276,9.178,16.644,8.545,15.864,8.545z
	 M16.7,19.875c0,1.042,0.845,1.887,1.887,1.887s1.887-0.845,1.887-1.887s-0.845-1.887-1.887-1.887S16.7,18.833,16.7,19.875z
	 M17.974,13.955c0,1.042,0.845,1.888,1.887,1.888c1.042,0,1.887-0.846,1.887-1.888s-0.844-1.887-1.887-1.887
	C18.819,12.068,17.974,12.913,17.974,13.955z M20.613,7.367c-0.663,0-1.201,0.537-1.201,1.2s0.538,1.2,1.201,1.2
	c0.663,0,1.2-0.537,1.2-1.2S21.275,7.367,20.613,7.367z M22.404,18.403c0,1.043,0.845,1.887,1.887,1.887s1.887-0.844,1.887-1.887
	c0-1.041-0.845-1.886-1.887-1.886S22.404,17.362,22.404,18.403z M25.18,11.567c-0.858,0-1.553,0.695-1.553,1.553
	c0,0.858,0.695,1.554,1.553,1.554s1.553-0.695,1.553-1.554C26.733,12.263,26.038,11.567,25.18,11.567z M26.895,22.372
	c0,0.779,0.632,1.412,1.412,1.412s1.412-0.633,1.412-1.412c0-0.78-0.632-1.412-1.412-1.412S26.895,21.592,26.895,22.372z
	 M30.715,9.333c0.135,0.323,0.316,0.614,0.538,0.842c0.27,0.275,0.886,0.792,2.128,0.271c0.883-0.369,0.926-1.313,0.852-1.749h0
	l0-0.005c-0.068-0.398-0.375-1.303-1.552-1.363c-0.747-0.038-1.515,0.292-2.25,0.804C30.461,8.539,30.556,8.952,30.715,9.333z"/>
</svg>
