<?xml version="1.0" encoding="iso-8859-1"?>
<!-- Generator: Adobe Illustrator 16.0.2, SVG Export Plug-In . SVG Version: 6.00 Build 0)  -->
<!DOCTYPE svg PUBLIC "-//W3C//DTD SVG 1.1//EN" "http://www.w3.org/Graphics/SVG/1.1/DTD/svg11.dtd">
<svg version="1.1" id="co_x5F_food_x5F_2" xmlns="http://www.w3.org/2000/svg" xmlns:xlink="http://www.w3.org/1999/xlink" x="0px"
	 y="0px" width="40px" height="40px" viewBox="0 0 40 40" style="enable-background:new 0 0 40 40;" xml:space="preserve">
<path fill="#0D47A1" style="fill-rule:evenodd;clip-rule:evenodd;" d="M31.16,3.057c1.572,1.572,1.572,4.123,0,5.695
	c1.572-1.572,4.123-1.572,5.695,0c1.573,1.572,1.573,4.123,0,5.695c-1.572,1.572-4.123,1.572-5.695,0
	c-0.245-0.245-0.453-0.516-0.621-0.802l-2.512,2.512c2.815,5.644,0.373,14.422-4.132,18.928c-5.199,5.198-11.585,3.152-16.783-2.046
	C1.913,27.84-0.134,21.454,5.065,16.256C9.487,11.834,18.021,9.4,23.671,11.97l2.597-2.596c-0.286-0.17-0.556-0.377-0.802-0.622
	c-1.573-1.572-1.573-4.123,0-5.695C27.038,1.484,29.588,1.484,31.16,3.057L31.16,3.057z M13.023,27.128
	c-1.583-1.582-3.6-2.132-4.503-1.229c-0.903,0.904-0.354,2.921,1.229,4.503s3.598,2.132,4.501,1.228
	C15.155,30.727,14.604,28.71,13.023,27.128L13.023,27.128z M14.604,25.546c-3.842-3.842-8.313-5.602-9.988-3.929
	c-1.673,1.674,0.087,6.146,3.929,9.989c3.842,3.842,8.315,5.601,9.988,3.928S18.448,29.388,14.604,25.546z"/>
</svg>
