<?xml version="1.0" encoding="iso-8859-1"?>
<!-- Generator: Adobe Illustrator 16.0.2, SVG Export Plug-In . SVG Version: 6.00 Build 0)  -->
<!DOCTYPE svg PUBLIC "-//W3C//DTD SVG 1.1//EN" "http://www.w3.org/Graphics/SVG/1.1/DTD/svg11.dtd">
<svg version="1.1" id="co_x5F_food_x5F_2" xmlns="http://www.w3.org/2000/svg" xmlns:xlink="http://www.w3.org/1999/xlink" x="0px"
	 y="0px" width="40px" height="40px" viewBox="0 0 40 40" style="enable-background:new 0 0 40 40;" xml:space="preserve">
<path fill="#0D47A1" style="fill-rule:evenodd;clip-rule:evenodd;" d="M20.076,33.028c7.511,0,13.815-2.914,15.534-6.842
	c0.214-0.491,0.171-1.012-0.123-1.459c-0.292-0.449-0.753-0.697-1.288-0.697H5.953c-0.536,0-0.996,0.248-1.289,0.697
	c-0.293,0.447-0.337,0.968-0.123,1.459C6.261,30.114,12.564,33.028,20.076,33.028L20.076,33.028z M5.079,16.031h29.993
	c1.65,0,3,1.35,3,3l0,0c0,1.649-1.35,3-3,3H5.079c-1.65,0-3-1.351-3-3l0,0C2.08,17.381,3.429,16.031,5.079,16.031L5.079,16.031z
	 M35.072,19.449c-0.425,0-0.969-0.437-1.513-0.871c-0.706-0.563-1.412-1.129-2.236-1.129s-1.53,0.565-2.236,1.129
	c-0.544,0.435-1.088,0.871-1.513,0.871s-0.97-0.437-1.513-0.871c-0.706-0.563-1.412-1.129-2.236-1.129s-1.53,0.565-2.236,1.129
	c-0.544,0.435-1.088,0.871-1.513,0.871s-0.969-0.437-1.513-0.871c-0.706-0.563-1.412-1.129-2.236-1.129
	c-0.824,0-1.531,0.565-2.236,1.129c-0.544,0.435-1.088,0.871-1.514,0.871c-0.425,0-0.969-0.437-1.513-0.871
	c-0.705-0.563-1.412-1.129-2.236-1.129s-1.53,0.565-2.236,1.129c-0.543,0.435-1.087,0.871-1.513,0.871
	c-0.322,0-0.582,0.261-0.582,0.582s0.26,0.582,0.582,0.582c0.824,0,1.53-0.564,2.236-1.13c0.543-0.436,1.088-0.871,1.513-0.871
	s0.97,0.436,1.513,0.871c0.706,0.565,1.412,1.13,2.236,1.13s1.531-0.564,2.236-1.13c0.543-0.436,1.088-0.871,1.513-0.871
	s0.969,0.436,1.513,0.871c0.706,0.565,1.412,1.13,2.236,1.13s1.53-0.564,2.236-1.13c0.543-0.436,1.088-0.871,1.513-0.871
	c0.425,0,0.97,0.436,1.513,0.871c0.706,0.565,1.412,1.13,2.236,1.13c0.824,0,1.53-0.564,2.235-1.13
	c0.544-0.436,1.088-0.871,1.514-0.871s0.97,0.436,1.513,0.871c0.706,0.565,1.412,1.13,2.236,1.13c0.321,0,0.582-0.261,0.582-0.582
	S35.394,19.449,35.072,19.449L35.072,19.449z M20.076,5.033c7.511,0,13.815,2.913,15.534,6.841c0.214,0.491,0.171,1.013-0.122,1.461
	c-0.293,0.447-0.753,0.696-1.289,0.696H5.953c-0.536,0-0.996-0.249-1.289-0.696c-0.293-0.448-0.337-0.97-0.123-1.461
	C6.261,7.946,12.564,5.033,20.076,5.033z"/>
</svg>
