<?xml version="1.0" encoding="iso-8859-1"?>
<!-- Generator: Adobe Illustrator 16.0.2, SVG Export Plug-In . SVG Version: 6.00 Build 0)  -->
<!DOCTYPE svg PUBLIC "-//W3C//DTD SVG 1.1//EN" "http://www.w3.org/Graphics/SVG/1.1/DTD/svg11.dtd">
<svg version="1.1" id="co_x5F_food_x5F_2" xmlns="http://www.w3.org/2000/svg" xmlns:xlink="http://www.w3.org/1999/xlink" x="0px"
	 y="0px" width="40px" height="40px" viewBox="0 0 40 40" style="enable-background:new 0 0 40 40;" xml:space="preserve">
<path fill="#0D47A1" style="fill-rule:evenodd;clip-rule:evenodd;" d="M27.98,21.513l-6.663,15.658c-0.204,0.512-0.674,0.83-1.226,0.83h-0.212
	c-0.55,0-1.02-0.318-1.225-0.83l-6.664-15.658c-0.14-0.35-0.1-0.713,0.11-1.025c0.211-0.311,0.535-0.482,0.911-0.482h13.947
	c0.376,0,0.7,0.172,0.911,0.482C28.081,20.8,28.12,21.163,27.98,21.513L27.98,21.513z M8.751,17.388
	c-1.086-1.047-1.763-2.517-1.763-4.146c0-3.183,2.582-5.763,5.763-5.763c0.509,0,1.003,0.066,1.472,0.189
	c0.056-3.135,2.614-5.659,5.762-5.659c3.148,0,5.707,2.524,5.763,5.659c0.47-0.124,0.963-0.189,1.472-0.189
	c3.183,0,5.762,2.58,5.762,5.763c0,1.63-0.676,3.1-1.763,4.148c-0.425,0.41-0.935,0.615-1.525,0.615H10.278
	C9.687,18.005,9.178,17.799,8.751,17.388z"/>
</svg>
