<?xml version="1.0" encoding="iso-8859-1"?>
<!-- Generator: Adobe Illustrator 16.0.2, SVG Export Plug-In . SVG Version: 6.00 Build 0)  -->
<!DOCTYPE svg PUBLIC "-//W3C//DTD SVG 1.1//EN" "http://www.w3.org/Graphics/SVG/1.1/DTD/svg11.dtd">
<svg version="1.1" id="co_x5F_food_x5F_2" xmlns="http://www.w3.org/2000/svg" xmlns:xlink="http://www.w3.org/1999/xlink" x="0px"
	 y="0px" width="40px" height="40px" viewBox="0 0 40 40" style="enable-background:new 0 0 40 40;" xml:space="preserve">
<path fill="#0D47A1" style="fill-rule:evenodd;clip-rule:evenodd;" d="M13.973,2.009h8.998c1.65,0,3,1.349,3,2.999v16.997
	c0,1.649-1.35,2.998-3,2.998h-1.968v10.998c0,1.1-0.9,2-2,2h-1c-1.1,0-2-0.9-2-2V25.003h-2.031c-1.649,0-2.999-1.349-2.999-2.998
	V5.008C10.974,3.357,12.324,2.009,13.973,2.009L13.973,2.009z M13.993,3.988c-0.561,0-1.02,0.459-1.02,1.02v10.758
	c0,0.825,0.25,1.25,1.014,1.25l0,0c0.764,0,1.014-0.426,1.014-1.25v-5c0-2.123,3.007-2.139,3.007,0.165v1.836
	c0,2.014,3.276,1.978,3.276,0v-0.813c0-1.724,2.726-1.628,2.726-0.093V5.008c0-0.561-0.458-1.02-1.02-1.02H13.993z"/>
</svg>
