<?xml version="1.0" encoding="iso-8859-1"?>
<!-- Generator: Adobe Illustrator 16.0.2, SVG Export Plug-In . SVG Version: 6.00 Build 0)  -->
<!DOCTYPE svg PUBLIC "-//W3C//DTD SVG 1.1//EN" "http://www.w3.org/Graphics/SVG/1.1/DTD/svg11.dtd">
<svg version="1.1" id="co_x5F_food_x5F_3" xmlns="http://www.w3.org/2000/svg" xmlns:xlink="http://www.w3.org/1999/xlink" x="0px"
	 y="0px" width="40px" height="40px" viewBox="0 0 40 40" style="enable-background:new 0 0 40 40;" xml:space="preserve">
<path fill="#0D47A1" style="fill-rule:evenodd;clip-rule:evenodd;" d="M24.011,37.996h-7.998c-4.949,0-8.998-4.049-8.998-8.997v-9.997
	c0-2.498,0.032-4.767,1.688-6.4c0.87-0.857,1.311-1.91,1.311-3.133V8.663c0-0.363,0.297-0.659,0.66-0.659h1.666
	C12.703,8.004,13,8.3,13,8.663v0.806c0,1.28-0.303,2.481-0.886,3.553c5.992,1.301,11.847-1.58,15.789,0.333
	c0.09,0.037,0.168,0.076,0.248,0.114c-0.758-1.181-1.158-2.537-1.158-4V8.663c0-0.363,0.296-0.659,0.659-0.659h1.697
	c0.363,0,0.66,0.296,0.66,0.659v0.806c0,1.222,0.44,2.275,1.311,3.133c1.656,1.634,1.688,3.903,1.688,6.4v9.997
	C33.009,33.947,28.96,37.996,24.011,37.996z M26.75,33.751c1.104,0,2-0.896,2-2s-0.896-2-2-2s-2,0.896-2,2
	S25.646,33.751,26.75,33.751z M13.833,32.834c1.104,0,2-0.896,2-2s-0.896-2-2-2s-2,0.896-2,2S12.729,32.834,13.833,32.834z
	 M12.333,20.751c-1.104,0-2,0.896-2,2s0.896,2,2,2s2-0.896,2-2S13.438,20.751,12.333,20.751z M16.492,16.001
	c-0.828,0-1.5,0.671-1.5,1.5c0,0.828,0.672,1.5,1.5,1.5s1.5-0.672,1.5-1.5C17.992,16.672,17.32,16.001,16.492,16.001z
	 M21.333,22.584c-1.656,0-3,1.343-3,3c0,1.656,1.344,3,3,3c1.657,0,3-1.344,3-3C24.333,23.927,22.99,22.584,21.333,22.584z
	 M26.487,15.987c-1.381,0-2.5,1.12-2.5,2.5c0,1.381,1.119,2.5,2.5,2.5s2.5-1.119,2.5-2.5C28.987,17.107,27.868,15.987,26.487,15.987
	z M30,7.001c-0.506,0-0.979-1.997-1.988-1.997c-0.578,0-1.286,2-2.082,2c-0.597,0-1.243-2-1.922-2c-0.658,0-1.348,2-2.051,2
	c-0.68,0-1.374-2-2.066-2c-0.617,0-1.234,2-1.84,2c-0.701,0-1.387-2-2.043-2c-0.678,0-1.322,2-1.918,2c-0.808,0-1.523-2-2.105-2
	c-0.992,0-0.932,1.997-1.984,1.997c-1.168,0-2-0.543-2-1.531c0-0.289,0.014-0.966,0.014-0.966c0-1.293,1.244-2.499,2.375-2.499
	h19.246c1.131,0,2.374,1.236,2.374,2.499C32.009,4.638,32,4.931,32,5.501C32,6.474,31.293,7.001,30,7.001z"/>
</svg>
