<?xml version="1.0" encoding="iso-8859-1"?>
<!-- Generator: Adobe Illustrator 16.0.2, SVG Export Plug-In . SVG Version: 6.00 Build 0)  -->
<!DOCTYPE svg PUBLIC "-//W3C//DTD SVG 1.1//EN" "http://www.w3.org/Graphics/SVG/1.1/DTD/svg11.dtd">
<svg version="1.1" id="co_x5F_food_x5F_3" xmlns="http://www.w3.org/2000/svg" xmlns:xlink="http://www.w3.org/1999/xlink" x="0px"
	 y="0px" width="40px" height="40px" viewBox="0 0 40 40" style="enable-background:new 0 0 40 40;" xml:space="preserve">
<path fill="#0D47A1" style="fill-rule:evenodd;clip-rule:evenodd;" d="M24.011,37.996h-7.998c-4.949,0-8.998-4.049-8.998-8.997v-9.997
	c0-2.498,0.031-4.767,1.688-6.4c0.87-0.857,1.311-1.91,1.311-3.133V8.663c0-0.363,0.297-0.659,0.66-0.659h1.666
	C12.703,8.004,13,8.3,13,8.663v0.806c0,1.28-0.303,2.481-0.886,3.553c5.992,1.301,11.847-1.58,15.789,0.333
	c0.09,0.037,0.168,0.076,0.248,0.114c-0.758-1.181-1.158-2.537-1.158-4V8.663c0-0.363,0.296-0.659,0.659-0.659h1.697
	c0.363,0,0.66,0.296,0.66,0.659v0.806c0,1.222,0.44,2.275,1.311,3.133c1.656,1.634,1.688,3.903,1.688,6.4v9.997
	C33.009,33.947,28.96,37.996,24.011,37.996z M23.847,18.283c-0.303-0.521-1.461-0.42-2.628,0.208
	c-0.033-1.326-0.525-2.382-1.134-2.382c-0.605,0-1.096,1.045-1.133,2.36c-1.153-0.607-2.288-0.701-2.588-0.187
	c-0.314,0.542,0.412,1.546,1.624,2.24c0.749,0.43,1.508,0.64,2.052,0.61c0.016,0.002,0.029,0.011,0.045,0.011
	c0.018,0,0.034-0.011,0.052-0.013c0.547,0.041,1.321-0.169,2.086-0.608C23.435,19.829,24.161,18.825,23.847,18.283z M20.085,21.74
	c-4.531,0-6.085,1.128-6.085,4.454c0,3.327,4.111,7.595,6.085,7.595c1.975,0,6.086-4.268,6.086-7.595
	C26.171,22.868,24.616,21.74,20.085,21.74z M30,7.001c-0.506,0-0.979-1.997-1.988-1.997c-0.578,0-1.286,2-2.082,2
	c-0.597,0-1.243-2-1.922-2c-0.658,0-1.348,2-2.051,2c-0.68,0-1.374-2-2.066-2c-0.617,0-1.234,2-1.84,2c-0.701,0-1.387-2-2.043-2
	c-0.678,0-1.322,2-1.918,2c-0.808,0-1.523-2-2.105-2c-0.992,0-0.932,1.997-1.984,1.997c-1.168,0-2-0.543-2-1.531
	c0-0.289,0.014-0.966,0.014-0.966c0-1.293,1.244-2.499,2.375-2.499h19.246c1.131,0,2.374,1.236,2.374,2.499
	C32.009,4.638,32,4.931,32,5.501C32,6.474,31.293,7.001,30,7.001z"/>
</svg>
