<?xml version="1.0" encoding="iso-8859-1"?>
<!-- Generator: Adobe Illustrator 16.0.2, SVG Export Plug-In . SVG Version: 6.00 Build 0)  -->
<!DOCTYPE svg PUBLIC "-//W3C//DTD SVG 1.1//EN" "http://www.w3.org/Graphics/SVG/1.1/DTD/svg11.dtd">
<svg version="1.1" id="co_x5F_food_x5F_1" xmlns="http://www.w3.org/2000/svg" xmlns:xlink="http://www.w3.org/1999/xlink" x="0px"
	 y="0px" width="40px" height="40px" viewBox="0 0 40 40" style="enable-background:new 0 0 40 40;" xml:space="preserve">
<path fill="#0D47A1" style="fill-rule:evenodd;clip-rule:evenodd;" d="M33.043,28.165c-4.729,0.796-7.652,2.408-9.328,4.852
	c-2.057,2.996-2.191,4.984-3.715,4.984s-1.658-1.988-3.713-4.984c-1.678-2.443-4.6-4.056-9.33-4.852
	c-3.303-0.557-5.225-2.655-4.486-4.899c0.641-1.948,2.48-2.255,5.789-1.705c0.891,0.147,1.711,0.344,2.475,0.577
	c-0.617-0.398-1.254-0.806-1.928-1.236c-1.533-0.979-1.762-2.347-1.063-3.485c0.754-1.226,2.166-1.474,3.719-0.521
	c2.512,1.54,4.484,3.894,5.91,6.823c0.021-0.008,0.045-0.015,0.066-0.023c0.014-0.264,0.025-0.528,0.035-0.798
	c-0.732-2.326-2.008-6.067-5.387-8.856c-2.047-1.69-2.076-3.59-0.947-4.556c1.129-0.965,3.014-0.67,5.031,1.058
	c0.361,0.31,0.709,0.949,1.029,1.782c-0.154-1.672-0.355-3.006-0.58-3.712C15.369,4.688,17.695,2.001,20,2.001
	s4.633,2.687,3.381,6.612c-0.227,0.706-0.426,2.04-0.582,3.712c0.32-0.833,0.668-1.473,1.029-1.782
	c2.018-1.728,3.904-2.022,5.031-1.058c1.129,0.966,1.102,2.865-0.945,4.556c-3.379,2.789-4.656,6.53-5.389,8.856
	c0.01,0.27,0.023,0.534,0.037,0.798c0.021,0.009,0.043,0.016,0.064,0.023c1.428-2.93,3.4-5.283,5.91-6.823
	c1.553-0.953,2.965-0.705,3.719,0.521c0.701,1.139,0.473,2.507-1.061,3.485c-0.674,0.431-1.311,0.838-1.928,1.236
	c0.764-0.233,1.582-0.43,2.473-0.577c3.309-0.55,5.15-0.243,5.791,1.705C38.268,25.51,36.346,27.608,33.043,28.165z"/>
</svg>
