<?xml version="1.0" encoding="iso-8859-1"?>
<!-- Generator: Adobe Illustrator 16.0.2, SVG Export Plug-In . SVG Version: 6.00 Build 0)  -->
<!DOCTYPE svg PUBLIC "-//W3C//DTD SVG 1.1//EN" "http://www.w3.org/Graphics/SVG/1.1/DTD/svg11.dtd">
<svg version="1.1" id="co_x5F_food_x5F_1" xmlns="http://www.w3.org/2000/svg" xmlns:xlink="http://www.w3.org/1999/xlink" x="0px"
	 y="0px" width="40px" height="40px" viewBox="0 0 40 40" style="enable-background:new 0 0 40 40;" xml:space="preserve">
<path fill="#0D47A1" style="fill-rule:evenodd;clip-rule:evenodd;" d="M35.473,9.898c3.009,6.141,1.461,14.367-4.324,20.152
	c-5.787,5.786-14.011,7.335-20.15,4.325c-0.452-0.222-0.917-0.255-1.396-0.102c-1.432,0.461-2.961,0.202-3.982-0.819
	c-1.022-1.021-1.281-2.551-0.82-3.983c0.154-0.478,0.12-0.943-0.101-1.395c-3.01-6.14-1.461-14.365,4.324-20.151
	c5.786-5.785,14.012-7.334,20.152-4.324c0.452,0.222,0.917,0.255,1.396,0.101c1.431-0.46,2.958-0.201,3.98,0.82
	c1.022,1.021,1.281,2.55,0.821,3.981C35.218,8.982,35.252,9.447,35.473,9.898z"/>
</svg>
