<?xml version="1.0" encoding="iso-8859-1"?>
<!-- Generator: Adobe Illustrator 16.0.2, SVG Export Plug-In . SVG Version: 6.00 Build 0)  -->
<!DOCTYPE svg PUBLIC "-//W3C//DTD SVG 1.1//EN" "http://www.w3.org/Graphics/SVG/1.1/DTD/svg11.dtd">
<svg version="1.1" id="co_x5F_food_x5F_1" xmlns="http://www.w3.org/2000/svg" xmlns:xlink="http://www.w3.org/1999/xlink" x="0px"
	 y="0px" width="40px" height="40px" viewBox="0 0 40 40" style="enable-background:new 0 0 40 40;" xml:space="preserve">
<path fill="#0D47A1" style="fill-rule:evenodd;clip-rule:evenodd;" d="M9.401,34.704c-1.5,0.521-3.12,0.27-4.195-0.805
	C4.13,32.823,3.878,31.204,4.4,29.703c0.539-1.551-1.36-2.871-1.161-2.767c-0.096-0.05-0.186-0.115-0.266-0.196
	c-0.352-0.351-0.411-0.885-0.177-1.297c0.564-1.001-0.18-2.249-0.395-2.444c-0.013-0.011-0.026-0.023-0.038-0.036
	c-0.414-0.413-0.422-1.079-0.026-1.504c0.847-0.906,0.299-2.41,0.231-2.518c-0.26-0.418-0.209-0.976,0.154-1.338
	c1.061-1.055,0.951-2.255,0.828-2.576c-0.147-0.387-0.065-0.841,0.246-1.152c0.095-0.095,0.203-0.169,0.319-0.221
	c1.092-0.494,1.237-2.03,1.177-2.307c-0.208-0.959,0.698-1.266,0.865-1.295c1.274-0.23,1.673-1.844,1.677-1.954
	c0.022-0.572,0.479-1.005,1.02-1.036c1.373-0.079,2.099-1.746,2.114-1.829c0.033-0.173,0.337-1.043,1.272-0.859
	c1.311,0.256,2.332-1.184,2.339-1.198c-0.151,0.313,0.266-0.911,1.323-0.553c1.775,0.603,4.138-2.303,2.613-0.815
	c0.349-0.349,0.876-0.409,1.287-0.183c1.111,0.61,2.586-0.22,2.613-0.241c0.421-0.353,1.047-0.336,1.448,0.053
	c0.906,0.88,2.539,0.42,2.555,0.412c1.099-0.529,1.729,0.953,1.391,0.408c0.786,1.268,2.781,1.177,2.897,1.137
	c1.5-0.522,3.121-0.269,4.196,0.806c1.076,1.076,1.328,2.695,0.806,4.196c-0.279,0.803,0.315,1.67,0.517,2.157
	c0.251,0.606,1.488,0.985,0.998,2.068c0.024-0.055-0.46,1.645,0.419,2.596c0.364,0.394,0.382,0.992,0.054,1.406
	c-0.846,1.068-0.151,2.847-0.244,2.665c0.208,0.406,0.142,0.917-0.199,1.258c-0.015,0.016-0.031,0.031-0.048,0.045
	c-1.01,0.895-0.723,2.712-0.756,2.604c0.307,1.015-0.851,1.439-0.53,1.271c-1.143,0.603-1.239,2.313-1.226,2.394
	c0.145,0.9-0.675,1.194-0.83,1.229c-1.468,0.331-1.89,2.385-1.869,2.162c-0.047,0.51-0.454,0.936-0.992,0.977
	c-1.24,0.097-1.967,1.552-2.002,1.716c-0.032,0.15-0.329,1.004-1.253,0.836c-1.321-0.242-2.362,1.212-2.358,1.205
	c0.162-0.328-0.266,0.907-1.323,0.542c-1.786-0.616-4.1,2.299-2.609,0.816c-0.355,0.355-0.896,0.412-1.311,0.17
	c-1.041-0.608-2.444,0.127-2.566,0.234c-0.424,0.377-1.076,0.362-1.483-0.045c-0.007-0.007-0.014-0.014-0.021-0.021
	c-0.809-0.854-2.285-0.506-2.479-0.4c-1.165,0.626-1.753-0.982-1.466-0.442C11.477,34.609,9.609,34.632,9.401,34.704L9.401,34.704z
	 M22.902,5.581c-0.969,0-1.755,0.786-1.755,1.755c0,0.97,0.786,1.755,1.755,1.755s1.755-0.785,1.755-1.755
	C24.657,6.367,23.871,5.581,22.902,5.581L22.902,5.581z M14.534,14.774c-1.165,0-2.109,0.945-2.109,2.109
	c0,1.165,0.944,2.109,2.109,2.109c1.165,0,2.109-0.944,2.109-2.109C16.644,15.72,15.699,14.774,14.534,14.774L14.534,14.774z
	 M7.21,19.226c-0.902,0-1.632,0.731-1.632,1.633c0,0.902,0.73,1.634,1.632,1.634c0.903,0,1.634-0.731,1.634-1.634
	C8.844,19.957,8.113,19.226,7.21,19.226L7.21,19.226z M18.672,29.743c-0.824,0-1.493,0.668-1.493,1.493s0.668,1.493,1.493,1.493
	c0.825,0,1.493-0.668,1.493-1.493S19.497,29.743,18.672,29.743L18.672,29.743z M24.658,14.587c-1.215,0-2.2,0.984-2.2,2.199
	s0.985,2.2,2.2,2.2c1.214,0,2.2-0.985,2.2-2.2S25.872,14.587,24.658,14.587L24.658,14.587z M30.945,10.563
	c-0.844,0-1.529,0.685-1.529,1.529c0,0.844,0.685,1.529,1.529,1.529c0.845,0,1.529-0.686,1.529-1.529
	C32.474,11.247,31.79,10.563,30.945,10.563L30.945,10.563z M13.856,7.973c-0.889,0-1.609,0.721-1.609,1.609s0.72,1.609,1.609,1.609
	s1.609-0.721,1.609-1.609S14.745,7.973,13.856,7.973L13.856,7.973z M10.808,26.54c-1.048,0-1.898,0.85-1.898,1.897
	c0,1.049,0.85,1.898,1.898,1.898s1.898-0.85,1.898-1.898C12.706,27.39,11.856,26.54,10.808,26.54L10.808,26.54z M26.166,25.806
	c-0.989,0-1.791,0.801-1.791,1.79s0.802,1.791,1.791,1.791s1.791-0.802,1.791-1.791S27.155,25.806,26.166,25.806L26.166,25.806z
	 M19.049,21.958c-0.889,0-1.609,0.721-1.609,1.609s0.721,1.609,1.609,1.609s1.609-0.721,1.609-1.609S19.938,21.958,19.049,21.958
	L19.049,21.958z M30.997,20.27c-0.843,0-1.527,0.684-1.527,1.526c0,0.844,0.684,1.527,1.527,1.527s1.527-0.684,1.527-1.527
	C32.523,20.953,31.84,20.27,30.997,20.27z"/>
</svg>
