<?xml version="1.0" encoding="iso-8859-1"?>
<!-- Generator: Adobe Illustrator 16.0.2, SVG Export Plug-In . SVG Version: 6.00 Build 0)  -->
<!DOCTYPE svg PUBLIC "-//W3C//DTD SVG 1.1//EN" "http://www.w3.org/Graphics/SVG/1.1/DTD/svg11.dtd">
<svg version="1.1" id="co_x5F_food_x5F_1" xmlns="http://www.w3.org/2000/svg" xmlns:xlink="http://www.w3.org/1999/xlink" x="0px"
	 y="0px" width="40px" height="40px" viewBox="0 0 40 40" style="enable-background:new 0 0 40 40;" xml:space="preserve">
<path fill="#0D47A1" style="fill-rule:evenodd;clip-rule:evenodd;" d="M32.694,32.625c-7.01,7.011-18.38,7.011-25.39,0
	c-7.01-7.011-7.01-18.38,0-25.391c7.01-7.01,18.38-7.01,25.39,0C39.704,14.245,39.704,25.614,32.694,32.625z M29.869,10.063
	c-5.449-5.449-14.287-5.449-19.735,0c-5.449,5.448-5.449,14.286,0,19.735c5.449,5.448,14.287,5.448,19.735,0
	C35.317,24.35,35.317,15.512,29.869,10.063z M31.558,19.48c-0.279,0.319-0.645,0.486-1.07,0.486l-10.541-0.001l9.129-5.271
	c0.368-0.213,0.768-0.252,1.17-0.114c0.402,0.137,0.695,0.412,0.856,0.805c0.39,0.951,0.658,1.95,0.795,2.969
	C31.953,18.776,31.837,19.161,31.558,19.48z M31.298,22.461c0.22,0.363,0.267,0.763,0.137,1.168
	c-0.313,0.979-0.75,1.915-1.299,2.784c-0.228,0.359-0.563,0.579-0.983,0.645c-0.42,0.064-0.807-0.043-1.132-0.315l-8.075-6.776
	l10.382,1.83C30.747,21.87,31.078,22.097,31.298,22.461z M27.039,29.173c-0.065,0.42-0.286,0.756-0.645,0.983
	c-0.869,0.55-1.806,0.986-2.786,1.298c-0.404,0.129-0.803,0.082-1.167-0.138c-0.364-0.219-0.591-0.551-0.665-0.97l-1.831-10.381
	l6.776,8.075C26.996,28.366,27.104,28.754,27.039,29.173z M19.461,31.577c-0.32,0.28-0.704,0.396-1.125,0.339
	c-1.019-0.138-2.017-0.405-2.968-0.796c-0.393-0.161-0.668-0.453-0.805-0.855s-0.099-0.802,0.114-1.17l5.271-9.129l0,10.542
	C19.947,30.933,19.781,31.298,19.461,31.577z M12.111,28.549c-0.425,0.009-0.794-0.15-1.08-0.464
	c-0.692-0.761-1.285-1.607-1.762-2.518c-0.198-0.376-0.22-0.777-0.067-1.174c0.153-0.396,0.44-0.677,0.839-0.822l9.906-3.605
	l-6.776,8.076C12.897,28.367,12.535,28.541,12.111,28.549z M8.427,21.504c-0.331-0.267-0.511-0.625-0.528-1.05
	c-0.041-1.027,0.049-2.057,0.269-3.061c0.09-0.415,0.331-0.737,0.703-0.942s0.772-0.235,1.171-0.091l9.906,3.605L9.565,21.797
	C9.147,21.871,8.758,21.771,8.427,21.504z M10.134,13.739c-0.083-0.416,0.01-0.808,0.27-1.144c0.628-0.813,1.359-1.544,2.173-2.173
	c0.336-0.26,0.727-0.353,1.144-0.27c0.417,0.082,0.744,0.315,0.956,0.684l5.271,9.129l-9.129-5.271
	C10.449,14.483,10.215,14.156,10.134,13.739z M16.432,8.888c0.205-0.372,0.527-0.611,0.942-0.702
	c1.004-0.219,2.034-0.309,3.061-0.268c0.425,0.017,0.783,0.198,1.05,0.528c0.267,0.331,0.367,0.721,0.293,1.139l-1.831,10.381
	l-3.605-9.906C16.196,9.661,16.227,9.261,16.432,8.888z M24.375,9.221c0.396-0.153,0.797-0.131,1.173,0.066
	c0.91,0.479,1.756,1.071,2.517,1.764c0.314,0.285,0.473,0.654,0.464,1.079c-0.008,0.426-0.182,0.787-0.507,1.061l-8.075,6.775
	l3.605-9.906C23.697,9.66,23.978,9.374,24.375,9.221z"/>
</svg>
