<?xml version="1.0" encoding="iso-8859-1"?>
<!-- Generator: Adobe Illustrator 16.0.2, SVG Export Plug-In . SVG Version: 6.00 Build 0)  -->
<!DOCTYPE svg PUBLIC "-//W3C//DTD SVG 1.1//EN" "http://www.w3.org/Graphics/SVG/1.1/DTD/svg11.dtd">
<svg version="1.1" id="co_x5F_user" xmlns="http://www.w3.org/2000/svg" xmlns:xlink="http://www.w3.org/1999/xlink" x="0px"
	 y="0px" width="40px" height="40px" viewBox="0 0 40 40" style="enable-background:new 0 0 40 40;" xml:space="preserve">
<path fill="#0D47A1" style="fill-rule:evenodd;clip-rule:evenodd;" d="M19.548,1.529c2.158,0,3.908,1.75,3.908,3.909
	c0,1.592-0.954,2.963-2.321,3.57h3.339c1.938,0,3.519,1.584,3.519,3.52v9.165c0,0.725-0.595,1.319-1.32,1.319h-0.359
	c-0.724,0-1.32-0.594-1.32-1.319v-8.125c0-0.242-0.201-0.44-0.44-0.44h-0.12c-0.241,0-0.44,0.199-0.44,0.44v20.456
	c0,1.089-0.891,1.979-1.98,1.979h-0.039c-1.09,0-1.98-0.89-1.98-1.979V23.446c0-0.243-0.197-0.439-0.44-0.439h-0.12
	c-0.242,0-0.44,0.196-0.44,0.439v10.578c0,1.09-0.889,1.979-1.979,1.979h-0.04c-1.089,0-1.98-0.89-1.98-1.979V13.568
	c0-0.242-0.198-0.44-0.44-0.44h-0.12c-0.239,0-0.44,0.201-0.44,0.44v8.125c0,0.724-0.596,1.319-1.32,1.319h-0.36
	c-0.725,0-1.32-0.594-1.32-1.319v-9.165c0-1.938,1.582-3.52,3.52-3.52h3.444c-1.367-0.607-2.322-1.979-2.322-3.57
	C15.64,3.279,17.39,1.529,19.548,1.529z"/>
</svg>
