<?xml version="1.0" encoding="iso-8859-1"?>
<!-- Generator: Adobe Illustrator 16.0.2, SVG Export Plug-In . SVG Version: 6.00 Build 0)  -->
<!DOCTYPE svg PUBLIC "-//W3C//DTD SVG 1.1//EN" "http://www.w3.org/Graphics/SVG/1.1/DTD/svg11.dtd">
<svg version="1.1" id="co_x5F_food_x5F_1" xmlns="http://www.w3.org/2000/svg" xmlns:xlink="http://www.w3.org/1999/xlink" x="0px"
	 y="0px" width="40px" height="40px" viewBox="0 0 40 40" style="enable-background:new 0 0 40 40;" xml:space="preserve">
<path fill="#0D47A1" style="fill-rule:evenodd;clip-rule:evenodd;" d="M32.385,3.139c3.533,3.533,5.604,8.489,5.604,13.879
	c0,11.044-8.955,20-19.998,20c-5.352,0-10.293-2.02-13.801-5.527c-1.756-1.756-0.621-3.244,0.035-3.9
	c2.24-2.241,7.137-7.139,7.137-7.139c0.436-0.435,1.115-0.477,1.6-0.1c1.936,1.505,4.699,1.649,6.811,0.17
	c2.596-1.816,3.229-5.395,1.41-7.989c-0.057-0.079-0.113-0.156-0.172-0.232c-0.375-0.483-0.332-1.164,0.102-1.597
	c0,0,4.971-4.973,7.33-7.332C29.217,2.596,30.926,1.679,32.385,3.139z"/>
</svg>
