<?xml version="1.0" encoding="iso-8859-1"?>
<!-- Generator: Adobe Illustrator 16.0.2, SVG Export Plug-In . SVG Version: 6.00 Build 0)  -->
<!DOCTYPE svg PUBLIC "-//W3C//DTD SVG 1.1//EN" "http://www.w3.org/Graphics/SVG/1.1/DTD/svg11.dtd">
<svg version="1.1" id="co_x5F_food_x5F_3" xmlns="http://www.w3.org/2000/svg" xmlns:xlink="http://www.w3.org/1999/xlink" x="0px"
	 y="0px" width="40px" height="40px" viewBox="0 0 40 40" style="enable-background:new 0 0 40 40;" xml:space="preserve">
<path fill="#0D47A1" style="fill-rule:evenodd;clip-rule:evenodd;" d="M20.977,2.982v-1.12c0-0.484,0.395-0.88,0.879-0.88h0.239
	c0.485,0,0.881,0.396,0.881,0.88v1.12l9.674,9.675c0.216,0.215,0.323,0.476,0.323,0.778v22.659c0,0.484-0.396,0.881-0.88,0.881
	H11.858c-0.485,0-0.881-0.396-0.88-0.881c0-7.553,0-15.106,0-22.659c0-0.303,0.107-0.563,0.322-0.778L20.977,2.982L20.977,2.982z
	 M14.618,24.343c-0.293-0.15-0.639,0.063-0.639,0.392c0,3.267,0,5.534,0,8.802c-0.001,0.241,0.197,0.439,0.439,0.439h15.116
	c0.242,0,0.439-0.197,0.439-0.439v-9.311c0-0.16-0.079-0.299-0.217-0.38C23.716,20.285,20.617,27.413,14.618,24.343L14.618,24.343z
	 M22.131,6.138c-0.085-0.086-0.226-0.086-0.311,0l-6.467,6.467c-0.14,0.138-0.04,0.375,0.155,0.375h12.934
	c0.196,0,0.295-0.237,0.155-0.375L22.131,6.138z"/>
</svg>
