<?xml version="1.0" encoding="iso-8859-1"?>
<!-- Generator: Adobe Illustrator 16.0.2, SVG Export Plug-In . SVG Version: 6.00 Build 0)  -->
<!DOCTYPE svg PUBLIC "-//W3C//DTD SVG 1.1//EN" "http://www.w3.org/Graphics/SVG/1.1/DTD/svg11.dtd">
<svg version="1.1" id="co_x5F_food_x5F_1" xmlns="http://www.w3.org/2000/svg" xmlns:xlink="http://www.w3.org/1999/xlink" x="0px"
	 y="0px" width="40px" height="40px" viewBox="0 0 40 40" style="enable-background:new 0 0 40 40;" xml:space="preserve">
<path fill="#0D47A1" style="fill-rule:evenodd;clip-rule:evenodd;" d="M20.023,2.464c8.832,0,16.188,5.854,16.993,11.717
	c0.461,3.358-1.541,6.924-4.659,6.998C31.734,21.193,29,20.393,29,19.001c0-1.187-3-1.787-3,1c0.086,3.177,1.879,6.194,1.848,9.073
	c-0.062,5.658-1.759,7.985-7.839,7.985c-6.009,0-7.72-2.322-7.81-7.977c-0.046-2.882,2.219-5.935,1.801-9.082c0-2.833-3-2.276-3-1
	c0,2.773-2.52,2.28-3.129,2.284c-3.173,0.024-5.106-3.572-4.84-7.104C3.474,8.279,11.192,2.464,20.023,2.464z"/>
</svg>
