<?xml version="1.0" encoding="iso-8859-1"?>
<!-- Generator: Adobe Illustrator 16.0.2, SVG Export Plug-In . SVG Version: 6.00 Build 0)  -->
<!DOCTYPE svg PUBLIC "-//W3C//DTD SVG 1.1//EN" "http://www.w3.org/Graphics/SVG/1.1/DTD/svg11.dtd">
<svg version="1.1" id="co_x5F_food_x5F_1" xmlns="http://www.w3.org/2000/svg" xmlns:xlink="http://www.w3.org/1999/xlink" x="0px"
	 y="0px" width="40px" height="40px" viewBox="0 0 40 40" style="enable-background:new 0 0 40 40;" xml:space="preserve">
<path fill="#0D47A1" style="fill-rule:evenodd;clip-rule:evenodd;" d="M19.964,22.592c-0.534-0.001-1.068-0.013-1.6-0.034
	c1.025,0.453,2.208,0.849,3.496,0.995c4.352,0.492,6.907,0.077,7.027,0.928c0.843,5.968-1.82,12.587-8.84,12.587
	c-7.933,0-10.199-8.191-8.313-14.775c0.064-0.226,0.225-0.391,0.422-0.483c-4.756-1.016-8.319-3.02-8.319-6.023
	c0-9.466,8.265-13.813,16.224-13.813c8.114,0,16.224,4.385,16.224,13.813C36.285,20.342,28.108,22.61,19.964,22.592z M8.434,10.703
	c-0.4-0.384-1.197,0.06-1.779,0.989c-0.583,0.931-0.732,1.997-0.332,2.381s1.197-0.061,1.78-0.99S8.833,11.087,8.434,10.703z
	 M10.821,15.644c-0.283,0.913,0.502,1.926,1.754,2.263c1.252,0.336,2.497-0.132,2.78-1.046s-0.502-1.927-1.754-2.263
	S11.104,14.729,10.821,15.644z M14.607,4.279c-1.467,0.312-2.652,1.153-2.646,1.881c0.005,0.729,1.199,1.066,2.666,0.753
	c1.466-0.312,2.652-1.155,2.646-1.882C17.268,4.304,16.074,3.966,14.607,4.279z M20.062,8.889c-1.462,0-2.647,0.947-2.647,2.116
	c0,1.167,1.186,2.115,2.647,2.115s2.647-0.948,2.647-2.115C22.709,9.836,21.523,8.889,20.062,8.889z M25.516,4.279
	c-1.467-0.313-2.661,0.024-2.666,0.752c-0.005,0.727,1.18,1.57,2.646,1.882c1.466,0.313,2.661-0.024,2.666-0.753
	C28.167,5.433,26.983,4.591,25.516,4.279z M29.303,15.644c-0.283-0.914-1.528-1.382-2.78-1.046
	c-1.251,0.336-2.037,1.349-1.753,2.263c0.283,0.914,1.528,1.382,2.78,1.046C28.8,17.569,29.586,16.557,29.303,15.644z
	 M33.494,11.709c-0.569-0.942-1.359-1.404-1.764-1.029c-0.406,0.374-0.272,1.443,0.296,2.387c0.569,0.943,1.359,1.404,1.765,1.03
	C34.196,13.722,34.063,12.652,33.494,11.709z"/>
</svg>
