<?xml version="1.0" encoding="iso-8859-1"?>
<!-- Generator: Adobe Illustrator 16.0.2, SVG Export Plug-In . SVG Version: 6.00 Build 0)  -->
<!DOCTYPE svg PUBLIC "-//W3C//DTD SVG 1.1//EN" "http://www.w3.org/Graphics/SVG/1.1/DTD/svg11.dtd">
<svg version="1.1" id="co_x5F_food_x5F_1" xmlns="http://www.w3.org/2000/svg" xmlns:xlink="http://www.w3.org/1999/xlink" x="0px"
	 y="0px" width="40px" height="40px" viewBox="0 0 40 40" style="enable-background:new 0 0 40 40;" xml:space="preserve">
<path fill="#0D47A1" style="fill-rule:evenodd;clip-rule:evenodd;" d="M31.59,10.13c1.589,1.907,2.849,4.048,3.581,6.22
	c1.265,3.752,0.818,7.65,0.399,7.694c-0.261,0.027-0.806-0.599-1.183-1.643c-0.005,1.208-0.487,1.789-0.563,2.445
	c-0.554,4.788-3.753,8.505-4.268,8.442c-0.45-0.054-1.208-2.566-0.839-6.366c-1.858,1.389-3.617,2.073-4.053,1.854
	c-0.677-0.343-0.744-4.752,0.755-8.669c-3.446,2.605-8.544,3.235-9.07,2.71c-0.526-0.526,0.102-5.613,2.7-9.061
	c-3.943,1.469-8.457,1.282-8.799,0.605c-0.219-0.433,0.454-2.169,1.822-4.011c-3.633,0.264-6.3-0.427-6.353-0.854
	c-0.063-0.512,3.704-3.44,8.468-4.286c1.745-0.309,0.804-0.589,2.179-0.544c-0.803-0.149-1.418-0.862-1.38-1.216
	c0.046-0.427,4.028-0.883,7.862,0.408c2.162,0.729,4.264,2.006,6.13,3.613c-0.001-0.002-0.004-0.005-0.005-0.007
	c1.221-1.794,3.147-2.86,4.895-2.89c0,0,3.012,0.497,2.638,3.061C34.938,7.752,32.93,8.124,31.59,10.13z M8.408,12.195
	c0.404,0.021,0.642,0.461,0.442,0.811c-0.798,1.396-1.15,2.53-0.969,2.887c0.294,0.582,3.446,1.173,6.939,0.779
	c0.401-0.044,0.713,0.349,0.567,0.729c-1.275,3.369-1.426,6.756-0.945,7.238c0.469,0.469,3.693,0.338,6.972-0.847
	c0.374-0.132,0.762,0.165,0.724,0.563c-0.322,3.357,0.248,6.321,0.812,6.606c0.354,0.18,1.477-0.167,2.861-0.954
	c0.357-0.203,0.799,0.052,0.81,0.457c0.006,0.229,0.272,2.494,0.234,2.533c-6.316,6.315-19.398,3.476-21.958,0.918
	C2.338,31.359-0.5,18.274,5.815,11.959C6.002,11.775,8.022,12.175,8.408,12.195z"/>
</svg>
