<?xml version="1.0" encoding="iso-8859-1"?>
<!-- Generator: Adobe Illustrator 16.0.2, SVG Export Plug-In . SVG Version: 6.00 Build 0)  -->
<!DOCTYPE svg PUBLIC "-//W3C//DTD SVG 1.1//EN" "http://www.w3.org/Graphics/SVG/1.1/DTD/svg11.dtd">
<svg version="1.1" id="co_x5F_food_x5F_1" xmlns="http://www.w3.org/2000/svg" xmlns:xlink="http://www.w3.org/1999/xlink" x="0px"
	 y="0px" width="40px" height="40px" viewBox="0 0 40 40" style="enable-background:new 0 0 40 40;" xml:space="preserve">
<path fill="#0D47A1" style="fill-rule:evenodd;clip-rule:evenodd;" d="M9.27,8.271c7.304-7.303,18.038-8.413,23.973-2.479
	c5.934,5.934,4.823,16.668-2.48,23.971c-7.303,7.303-18.038,8.414-23.972,2.48C0.856,26.308,1.967,15.573,9.27,8.271L9.27,8.271z
	 M18.848,12.326c1.944-1.576,4.921-1.356,6.862,0.587c1.943,1.941,2.163,4.916,0.586,6.862c1.585,0.065,3.101-0.442,4.212-1.555
	c2.356-2.356,2.004-6.529-0.787-9.318c-2.788-2.791-6.962-3.143-9.318-0.786C19.291,9.228,18.782,10.742,18.848,12.326z"/>
</svg>
