<?xml version="1.0" encoding="iso-8859-1"?>
<!-- Generator: Adobe Illustrator 16.0.2, SVG Export Plug-In . SVG Version: 6.00 Build 0)  -->
<!DOCTYPE svg PUBLIC "-//W3C//DTD SVG 1.1//EN" "http://www.w3.org/Graphics/SVG/1.1/DTD/svg11.dtd">
<svg version="1.1" id="co_x5F_food_x5F_2" xmlns="http://www.w3.org/2000/svg" xmlns:xlink="http://www.w3.org/1999/xlink" x="0px"
	 y="0px" width="40px" height="40px" viewBox="0 0 40 40" style="enable-background:new 0 0 40 40;" xml:space="preserve">
<path fill="#0D47A1" style="fill-rule:evenodd;clip-rule:evenodd;" d="M35.439,24.372c0.939,1.295,1.493,2.887,1.493,4.608
	c0,4.344-3.524,7.867-7.868,7.867c-0.796,0-1.564-0.118-2.289-0.338c-1.307-0.397-2.593-0.205-3.727,0.558
	c-0.812,0.547-1.79,0.865-2.842,0.865c-1.433,0-2.727-0.592-3.653-1.544c-1.028-1.056-2.381-1.506-3.836-1.274
	c-4.489,0.713-9.175-2.66-9.175-7.749c0-0.942,0.166-1.846,0.47-2.684c0.589-1.621,0.288-5.117-0.577-6.502
	c-0.753-1.207-1.189-2.633-1.189-4.159c0-4.167,3.267-7.473,7.18-7.833c1.178-0.108,2.153-0.611,2.924-1.508
	c1.443-1.677,3.58-2.739,5.965-2.739c1.829,0,3.512,0.624,4.848,1.672c1.1,0.861,2.408,1.143,3.765,0.806
	c0.684-0.17,1.399-0.261,2.136-0.261c4.894,0,8.865,3.971,8.865,8.865c0,2.25-0.839,4.305-2.222,5.867
	C34.33,20.447,34.221,22.688,35.439,24.372L35.439,24.372z M19.754,13.628c-3.359,0-6.083,2.725-6.083,6.082
	c0,0.428,0.044,0.846,0.128,1.249c0.042,0.202,0.215,0.345,0.421,0.349c0.208,0.004,0.384-0.132,0.435-0.332
	c0.845-3.367,3.858-5.877,7.47-5.954c0.207-0.004,0.378-0.146,0.42-0.348c0.042-0.203-0.058-0.402-0.246-0.489
	C21.525,13.827,20.663,13.628,19.754,13.628L19.754,13.628z M20.013,12.189c-4.395,0-7.96,3.564-7.96,7.96s3.565,7.961,7.96,7.961
	c4.396,0,7.96-3.565,7.96-7.961S24.408,12.189,20.013,12.189z"/>
</svg>
