<?xml version="1.0" encoding="iso-8859-1"?>
<!-- Generator: Adobe Illustrator 16.0.2, SVG Export Plug-In . SVG Version: 6.00 Build 0)  -->
<!DOCTYPE svg PUBLIC "-//W3C//DTD SVG 1.1//EN" "http://www.w3.org/Graphics/SVG/1.1/DTD/svg11.dtd">
<svg version="1.1" id="co_x5F_food_x5F_1" xmlns="http://www.w3.org/2000/svg" xmlns:xlink="http://www.w3.org/1999/xlink" x="0px"
	 y="0px" width="40px" height="40px" viewBox="0 0 40 40" style="enable-background:new 0 0 40 40;" xml:space="preserve">
<path fill="#0D47A1" style="fill-rule:evenodd;clip-rule:evenodd;" d="M23.676,19.434c3.765,2.575,8.396,4.878,8.396,8.764
	c0,6.462-5.664,9.593-12.793,9.793c-0.472,0.013-1.242,0.008-1.462,0.002c-7.175-0.174-12.89-3.304-12.89-9.795
	c0-3.886,4.631-6.188,8.396-8.764c1.548-1.06,1.335-2.545,0.984-3.508c-2.066-5.661-6.408-9.481-5.446-9.91
	c0.83-0.37,5.043,2.024,7.761,6.219C16.672,6.513,17.491,1.953,18.5,1.873c1.009,0.08,1.827,4.64,1.876,10.361
	c2.717-4.194,6.931-6.589,7.761-6.219c0.962,0.429-3.38,4.249-5.446,9.91C22.341,16.889,22.128,18.374,23.676,19.434z"/>
</svg>
