<?xml version="1.0" encoding="iso-8859-1"?>
<!-- Generator: Adobe Illustrator 16.0.2, SVG Export Plug-In . SVG Version: 6.00 Build 0)  -->
<!DOCTYPE svg PUBLIC "-//W3C//DTD SVG 1.1//EN" "http://www.w3.org/Graphics/SVG/1.1/DTD/svg11.dtd">
<svg version="1.1" id="co_x5F_basic" xmlns="http://www.w3.org/2000/svg" xmlns:xlink="http://www.w3.org/1999/xlink" x="0px"
	 y="0px" width="40px" height="40px" viewBox="0 0 40 40" style="enable-background:new 0 0 40 40;" xml:space="preserve">
<path fill="#0D47A1" style="fill-rule:evenodd;clip-rule:evenodd;" d="M24.499,5.72c0.583,0.198,1.15,0.434,1.696,0.704
	c0.638,0.315,1.322,0.314,1.959-0.004l1.742-0.871c0.861-0.431,1.857-0.27,2.539,0.411l0.585,0.586
	c0.681,0.681,0.843,1.677,0.412,2.54l-0.871,1.742c-0.319,0.637-0.32,1.32-0.004,1.959c0.27,0.545,0.505,1.112,0.703,1.695
	c0.229,0.673,0.713,1.155,1.388,1.38l1.847,0.616c0.914,0.305,1.504,1.124,1.504,2.086v0.828c0,0.964-0.59,1.783-1.504,2.087
	l-1.847,0.615c-0.675,0.226-1.159,0.707-1.387,1.38c-0.198,0.582-0.434,1.148-0.703,1.694c-0.316,0.638-0.315,1.322,0.004,1.959
	l0.872,1.744c0.43,0.862,0.269,1.858-0.412,2.539l-0.585,0.586c-0.682,0.681-1.678,0.843-2.54,0.413l-1.743-0.872
	c-0.637-0.318-1.321-0.32-1.959-0.004c-0.546,0.27-1.112,0.505-1.696,0.703c-0.673,0.228-1.155,0.713-1.38,1.387l-0.615,1.845
	c-0.305,0.913-1.124,1.504-2.087,1.504h-0.828c-0.963,0-1.782-0.591-2.087-1.504l-0.615-1.844c-0.225-0.674-0.707-1.159-1.38-1.387
	c-0.584-0.198-1.151-0.434-1.697-0.704c-0.638-0.316-1.322-0.314-1.959,0.004l-1.741,0.871c-0.861,0.431-1.857,0.269-2.539-0.412
	l-0.586-0.586c-0.681-0.681-0.842-1.677-0.412-2.539l0.87-1.741c0.318-0.636,0.32-1.32,0.005-1.959
	c-0.27-0.546-0.506-1.113-0.704-1.696c-0.228-0.673-0.713-1.155-1.388-1.38l-1.845-0.616c-0.914-0.304-1.504-1.124-1.504-2.087
	v-0.828c0-0.964,0.59-1.782,1.504-2.087l1.846-0.615c0.674-0.225,1.159-0.707,1.387-1.38c0.198-0.584,0.434-1.15,0.704-1.696
	c0.315-0.638,0.313-1.322-0.005-1.959L6.573,9.086c-0.431-0.863-0.269-1.859,0.412-2.54L7.571,5.96
	c0.682-0.681,1.678-0.843,2.539-0.412l1.741,0.871c0.637,0.318,1.321,0.32,1.958,0.005c0.546-0.271,1.113-0.506,1.696-0.704
	c0.674-0.229,1.156-0.713,1.381-1.388l0.615-1.846c0.305-0.914,1.124-1.504,2.087-1.504h0.828c0.963,0,1.782,0.59,2.087,1.504
	l0.615,1.846C23.344,5.007,23.825,5.492,24.499,5.72L24.499,5.72z M19.991,11.98c-3.842,0-6.958,3.116-6.958,6.958
	s3.116,6.958,6.958,6.958c3.843,0,6.958-3.116,6.958-6.958S23.834,11.98,19.991,11.98z"/>
</svg>
