<?xml version="1.0" encoding="iso-8859-1"?>
<!-- Generator: Adobe Illustrator 16.0.2, SVG Export Plug-In . SVG Version: 6.00 Build 0)  -->
<!DOCTYPE svg PUBLIC "-//W3C//DTD SVG 1.1//EN" "http://www.w3.org/Graphics/SVG/1.1/DTD/svg11.dtd">
<svg version="1.1" id="co_x5F_food_x5F_3" xmlns="http://www.w3.org/2000/svg" xmlns:xlink="http://www.w3.org/1999/xlink" x="0px"
	 y="0px" width="40px" height="40px" viewBox="0 0 40 40" style="enable-background:new 0 0 40 40;" xml:space="preserve">
<path fill="#0D47A1" style="fill-rule:evenodd;clip-rule:evenodd;" d="M32.115,36.976H11.88c-0.485,0-0.881-0.396-0.881-0.881
	c0-7.553,0-15.106,0-22.659c0-0.303,0.109-0.563,0.323-0.778l9.676-9.675v-1.12c0-0.484,0.396-0.88,0.879-0.88h0.239
	c0.485,0,0.881,0.396,0.881,0.88v1.12l9.676,9.675c0.214,0.215,0.321,0.476,0.321,0.778c0,7.553,0,15.106,0,22.659
	C32.994,36.579,32.601,36.976,32.115,36.976L32.115,36.976z M22.153,6.138c-0.087-0.086-0.227-0.086-0.312,0l-6.468,6.467
	c-0.138,0.138-0.039,0.375,0.156,0.375h12.935c0.194,0,0.296-0.237,0.154-0.375L22.153,6.138z"/>
</svg>
