<?xml version="1.0" encoding="iso-8859-1"?>
<!-- Generator: Adobe Illustrator 16.0.2, SVG Export Plug-In . SVG Version: 6.00 Build 0)  -->
<!DOCTYPE svg PUBLIC "-//W3C//DTD SVG 1.1//EN" "http://www.w3.org/Graphics/SVG/1.1/DTD/svg11.dtd">
<svg version="1.1" id="co_x5F_food_x5F_3" xmlns="http://www.w3.org/2000/svg" xmlns:xlink="http://www.w3.org/1999/xlink" x="0px"
	 y="0px" width="40px" height="40px" viewBox="0 0 40 40" style="enable-background:new 0 0 40 40;" xml:space="preserve">
<path fill="#0D47A1" style="fill-rule:evenodd;clip-rule:evenodd;" d="M36.507,23.725l-3.539,1.771v7.098c0,2.423-1.977,4.399-4.4,4.399H11.373
	c-2.424,0-4.4-1.977-4.4-4.399v-7.098l-3.539-1.771c-0.917-0.458-1.459-1.336-1.459-2.36v-4.727c0-1.454,1.187-2.64,2.64-2.64h2.358
	h28.354c1.454,0,2.64,1.186,2.64,2.64v4.727C37.967,22.389,37.424,23.268,36.507,23.725z M6.973,16.996H5.854
	c-0.484,0-0.879,0.396-0.879,0.881v2.575c0,0.341,0.181,0.635,0.485,0.787l1.513,1.256V16.996z M34.967,17.877
	c0-0.484-0.396-0.881-0.88-0.881h-1.119v5.499l1.513-0.256c0.305-0.152,0.486-0.446,0.486-0.787V17.877z M32.309,11.998H7.634
	c-0.364,0-0.661-0.298-0.661-0.66v-0.261c0-1.695,1.384-3.079,3.08-3.079h4.92V5.199c0-1.212,0.986-2.2,2.199-2.2h5.599
	c1.211,0,2.199,0.988,2.199,2.2v2.799h4.918c1.696,0,3.08,1.384,3.08,3.079v0.261C32.968,11.7,32.671,11.998,32.309,11.998z
	 M21.971,6.879c0-0.485-0.396-0.88-0.881-0.88h-2.239c-0.483,0-0.879,0.395-0.879,0.88v1.119h3.999V6.879z"/>
</svg>
