<?xml version="1.0" encoding="iso-8859-1"?>
<!-- Generator: Adobe Illustrator 16.0.2, SVG Export Plug-In . SVG Version: 6.00 Build 0)  -->
<!DOCTYPE svg PUBLIC "-//W3C//DTD SVG 1.1//EN" "http://www.w3.org/Graphics/SVG/1.1/DTD/svg11.dtd">
<svg version="1.1" id="co_x5F_food_x5F_3" xmlns="http://www.w3.org/2000/svg" xmlns:xlink="http://www.w3.org/1999/xlink" x="0px"
	 y="0px" width="40px" height="40px" viewBox="0 0 40 40" style="enable-background:new 0 0 40 40;" xml:space="preserve">
<path fill="#0D47A1" style="fill-rule:evenodd;clip-rule:evenodd;" d="M36.985,12.706l-2.861,2.861c1.611,5.103,0.404,10.9-3.64,14.945
	c-4.044,4.044-9.843,5.251-14.944,3.64l-2.854,2.854c-1.342,1.343-3.518,1.343-4.86,0l-4.86-4.859c-1.342-1.343-1.342-3.519,0-4.86
	l2.891-2.892C4.298,19.321,5.521,13.578,9.535,9.563c4.015-4.015,9.758-5.236,14.832-3.68l2.898-2.897
	c1.342-1.342,3.518-1.342,4.86,0l4.86,4.86C38.327,9.188,38.327,11.364,36.985,12.706z M6.204,28.906
	c-0.447,0.448-0.447,1.173,0,1.621l3.24,3.239c0.447,0.448,1.173,0.448,1.62,0l1.147-1.147c-0.95-0.589-1.853-1.282-2.677-2.106
	c-0.852-0.852-1.563-1.788-2.164-2.772L6.204,28.906z M13.146,13.172c-3.791,3.792-3.791,9.938,0,13.729
	c3.792,3.791,9.938,3.791,13.729,0c3.791-3.791,3.791-9.938,0-13.729C23.083,9.381,16.937,9.381,13.146,13.172z M30.505,6.227
	c-0.447-0.447-1.173-0.447-1.62,0L27.711,7.4c0.984,0.601,1.921,1.312,2.772,2.163c0.825,0.824,1.518,1.729,2.107,2.677l1.154-1.153
	c0.448-0.447,0.448-1.173,0-1.62L30.505,6.227z M21.871,21.895c-1.027,1.026-2.691,1.026-3.718,0s-1.027-2.691,0-3.719
	c1.027-1.026,2.691-1.026,3.718,0C22.898,19.203,22.898,20.868,21.871,21.895z"/>
</svg>
