<?xml version="1.0" encoding="iso-8859-1"?>
<!-- Generator: Adobe Illustrator 16.0.2, SVG Export Plug-In . SVG Version: 6.00 Build 0)  -->
<!DOCTYPE svg PUBLIC "-//W3C//DTD SVG 1.1//EN" "http://www.w3.org/Graphics/SVG/1.1/DTD/svg11.dtd">
<svg version="1.1" id="co_x5F_food_x5F_3" xmlns="http://www.w3.org/2000/svg" xmlns:xlink="http://www.w3.org/1999/xlink" x="0px"
	 y="0px" width="40px" height="40px" viewBox="0 0 40 40" style="enable-background:new 0 0 40 40;" xml:space="preserve">
<path fill="#0D47A1" style="fill-rule:evenodd;clip-rule:evenodd;" d="M33.571,27.745c-5.108,5.109-12.945,5.83-18.826,2.166l-6.687,6.687
	c-1.391,1.392-3.666,1.392-5.057,0c-1.391-1.391-1.391-3.666,0-5.057l6.729-6.729c-3.519-5.855-2.756-13.567,2.292-18.614
	c5.95-5.95,15.6-5.95,21.549,0C39.521,12.146,39.521,21.796,33.571,27.745z M29.926,9.845c-3.936-3.936-10.318-3.936-14.254,0
	c-3.936,3.935-3.936,10.318,0,14.254s10.318,3.936,14.254,0S33.861,13.779,29.926,9.845z M20.022,19.759
	c-1.538-1.537-1.538-4.031,0-5.568c1.538-1.538,4.032-1.538,5.569,0c1.538,1.537,1.538,4.031,0,5.568
	C24.054,21.297,21.56,21.297,20.022,19.759z"/>
</svg>
