<?xml version="1.0" encoding="iso-8859-1"?>
<!-- Generator: Adobe Illustrator 16.0.2, SVG Export Plug-In . SVG Version: 6.00 Build 0)  -->
<!DOCTYPE svg PUBLIC "-//W3C//DTD SVG 1.1//EN" "http://www.w3.org/Graphics/SVG/1.1/DTD/svg11.dtd">
<svg version="1.1" id="co_x5F_food_x5F_3" xmlns="http://www.w3.org/2000/svg" xmlns:xlink="http://www.w3.org/1999/xlink" x="0px"
	 y="0px" width="40px" height="40px" viewBox="0 0 40 40" style="enable-background:new 0 0 40 40;" xml:space="preserve">
<path fill="#0D47A1" style="fill-rule:evenodd;clip-rule:evenodd;" d="M38.109,22.995h-1.24c-0.484,0-0.88-0.396-0.88-0.88v-0.68
	c0-0.243-0.197-0.44-0.439-0.44h-1.561v3.591c0,2.423-1.977,4.399-4.398,4.399H12.396c-2.424,0-4.4-1.977-4.4-4.399v-3.591h-1.56
	c-0.243,0-0.44,0.197-0.44,0.44v0.68c0,0.483-0.396,0.88-0.88,0.88H3.877c-0.485,0-0.88-0.396-0.88-0.88v-2.58
	c0-0.848,0.691-1.539,1.54-1.539h3.459H37.45c0.847,0,1.538,0.691,1.538,1.539v2.58C38.988,22.599,38.594,22.995,38.109,22.995z
	 M33.33,15.996H8.655c-0.363,0-0.659-0.297-0.659-0.66v-0.26c0-1.696,1.384-3.08,3.08-3.08h4.918V8.197c0-1.211,0.988-2.2,2.199-2.2
	h5.599c1.211,0,2.199,0.989,2.199,2.2v3.799h4.919c1.697,0,3.079,1.384,3.079,3.08v0.26C33.989,15.699,33.694,15.996,33.33,15.996z
	 M22.992,9.878c0-0.485-0.396-0.881-0.881-0.881h-2.237c-0.485,0-0.881,0.396-0.881,0.881v2.118h3.999V9.878z"/>
</svg>
