<?xml version="1.0" encoding="iso-8859-1"?>
<!-- Generator: Adobe Illustrator 16.0.2, SVG Export Plug-In . SVG Version: 6.00 Build 0)  -->
<!DOCTYPE svg PUBLIC "-//W3C//DTD SVG 1.1//EN" "http://www.w3.org/Graphics/SVG/1.1/DTD/svg11.dtd">
<svg version="1.1" id="co_x5F_food_x5F_2" xmlns="http://www.w3.org/2000/svg" xmlns:xlink="http://www.w3.org/1999/xlink" x="0px"
	 y="0px" width="40px" height="40px" viewBox="0 0 40 40" style="enable-background:new 0 0 40 40;" xml:space="preserve">
<path fill="#0D47A1" style="fill-rule:evenodd;clip-rule:evenodd;" d="M4.988,3.908h0.02c0.545,0,0.99,0.444,0.99,0.989v30.014
	c0,0.546-0.445,0.989-0.99,0.989h-0.02c-0.545,0-0.99-0.443-0.99-0.989V4.897C3.998,4.353,4.443,3.908,4.988,3.908L4.988,3.908z
	 M34.982,3.908h0.02c0.546,0,0.99,0.444,0.99,0.989v30.014c0,0.546-0.444,0.989-0.99,0.989h-0.02c-0.546,0-0.99-0.443-0.99-0.989
	V4.897C33.992,4.353,34.436,3.908,34.982,3.908L34.982,3.908z M29.983,3.908h0.02c0.546,0,0.99,0.444,0.99,0.989v30.014
	c0,0.546-0.444,0.989-0.99,0.989h-0.02c-0.546,0-0.99-0.443-0.99-0.989V4.897C28.994,4.353,29.438,3.908,29.983,3.908L29.983,3.908z
	 M24.984,3.908h0.02c0.545,0,0.991,0.444,0.991,0.989v30.014c0,0.546-0.446,0.989-0.991,0.989h-0.021
	c-0.545,0-0.989-0.443-0.989-0.989V4.897C23.993,4.353,24.439,3.908,24.984,3.908L24.984,3.908z M19.984,3.908h0.02
	c0.545,0,0.99,0.444,0.99,0.989v30.014c0,0.546-0.445,0.989-0.99,0.989h-0.02c-0.545,0-0.99-0.443-0.99-0.989V4.897
	C18.995,4.353,19.439,3.908,19.984,3.908L19.984,3.908z M14.986,3.908h0.02c0.546,0,0.99,0.444,0.99,0.989v30.014
	c0,0.546-0.444,0.989-0.99,0.989h-0.02c-0.545,0-0.99-0.443-0.99-0.989V4.897C13.996,4.353,14.441,3.908,14.986,3.908L14.986,3.908z
	 M9.987,3.908h0.02c0.545,0,0.99,0.444,0.99,0.989v30.014c0,0.546-0.444,0.989-0.99,0.989h-0.02c-0.545,0-0.99-0.443-0.99-0.989
	V4.897C8.997,4.353,9.441,3.908,9.987,3.908z"/>
</svg>
