<?xml version="1.0" encoding="iso-8859-1"?>
<!-- Generator: Adobe Illustrator 16.0.2, SVG Export Plug-In . SVG Version: 6.00 Build 0)  -->
<!DOCTYPE svg PUBLIC "-//W3C//DTD SVG 1.1//EN" "http://www.w3.org/Graphics/SVG/1.1/DTD/svg11.dtd">
<svg version="1.1" id="co_x5F_food_x5F_2" xmlns="http://www.w3.org/2000/svg" xmlns:xlink="http://www.w3.org/1999/xlink" x="0px"
	 y="0px" width="40px" height="40px" viewBox="0 0 40 40" style="enable-background:new 0 0 40 40;" xml:space="preserve">
<path fill="#0D47A1" style="fill-rule:evenodd;clip-rule:evenodd;" d="M4.661,6.406l2.603-2.604c0.278-0.278,0.751-0.079,0.751,0.311v10.445
	c0,0.604-0.218,1.128-0.645,1.555l-2.604,2.604c-0.277,0.277-0.751,0.081-0.751-0.31V7.961C4.017,7.354,4.232,6.834,4.661,6.406
	L4.661,6.406z M32.655,23.461l2.604-2.604c0.278-0.277,0.751-0.081,0.751,0.312v10.444c0,0.603-0.218,1.128-0.644,1.555
	l-2.604,2.604c-0.277,0.276-0.751,0.081-0.751-0.312V25.017C32.01,24.411,32.226,23.89,32.655,23.461L32.655,23.461z M25.656,23.461
	l2.604-2.604c0.278-0.277,0.751-0.081,0.751,0.312v10.444c0,0.603-0.217,1.128-0.644,1.555l-2.604,2.604
	c-0.277,0.275-0.751,0.081-0.751-0.312V25.017C25.012,24.411,25.228,23.89,25.656,23.461L25.656,23.461z M18.658,23.461l2.604-2.604
	c0.278-0.277,0.751-0.081,0.751,0.312v10.444c0,0.603-0.217,1.128-0.644,1.555l-2.604,2.604c-0.276,0.274-0.751,0.082-0.751-0.312
	V25.017C18.013,24.411,18.229,23.89,18.658,23.461L18.658,23.461z M11.66,23.461l2.604-2.604c0.277-0.276,0.751-0.082,0.751,0.312
	v10.444c0,0.603-0.218,1.128-0.644,1.555l-2.604,2.604c-0.277,0.275-0.751,0.082-0.751-0.312V25.017
	C11.015,24.411,11.231,23.89,11.66,23.461L11.66,23.461z M4.661,23.461l2.603-2.604c0.278-0.277,0.751-0.081,0.751,0.312v10.444
	c0,0.603-0.218,1.128-0.645,1.555l-2.604,2.604c-0.277,0.276-0.751,0.081-0.751-0.312V25.017C4.017,24.411,4.232,23.89,4.661,23.461
	L4.661,23.461z M32.655,6.406l2.604-2.604c0.278-0.278,0.751-0.079,0.751,0.311v10.445c0,0.604-0.218,1.128-0.644,1.555
	l-2.604,2.604c-0.277,0.277-0.751,0.081-0.751-0.31V7.961C32.01,7.354,32.226,6.834,32.655,6.406L32.655,6.406z M25.656,6.406
	l2.604-2.604c0.278-0.278,0.751-0.079,0.751,0.311v10.445c0,0.604-0.217,1.128-0.644,1.555l-2.604,2.604
	c-0.277,0.277-0.751,0.082-0.751-0.31V7.961C25.012,7.354,25.228,6.834,25.656,6.406L25.656,6.406z M18.658,6.406l2.604-2.604
	c0.278-0.278,0.751-0.079,0.751,0.311v10.445c0,0.604-0.217,1.128-0.644,1.555l-2.604,2.604c-0.276,0.275-0.751,0.083-0.751-0.31
	V7.961C18.013,7.354,18.229,6.834,18.658,6.406L18.658,6.406z M11.66,6.406l2.604-2.604c0.277-0.277,0.751-0.08,0.751,0.311v10.445
	c0,0.604-0.218,1.128-0.644,1.555l-2.604,2.604c-0.277,0.276-0.751,0.083-0.751-0.31V7.961C11.015,7.354,11.231,6.834,11.66,6.406z"
	/>
</svg>
