<?xml version="1.0" encoding="iso-8859-1"?>
<!-- Generator: Adobe Illustrator 16.0.2, SVG Export Plug-In . SVG Version: 6.00 Build 0)  -->
<!DOCTYPE svg PUBLIC "-//W3C//DTD SVG 1.1//EN" "http://www.w3.org/Graphics/SVG/1.1/DTD/svg11.dtd">
<svg version="1.1" id="co_x5F_food_x5F_2" xmlns="http://www.w3.org/2000/svg" xmlns:xlink="http://www.w3.org/1999/xlink" x="0px"
	 y="0px" width="40px" height="40px" viewBox="0 0 40 40" style="enable-background:new 0 0 40 40;" xml:space="preserve">
<path fill="#0D47A1" style="fill-rule:evenodd;clip-rule:evenodd;" d="M4.375,15.027l0.367-0.367c0.053-0.053,0.075-0.122,0.061-0.196
	c-0.014-0.075-0.061-0.133-0.13-0.161c-0.108-0.047-0.21-0.113-0.298-0.202l0,0c-0.368-0.368-0.368-0.97,0-1.338l0.367-0.367
	c0.053-0.053,0.075-0.122,0.06-0.196c-0.014-0.075-0.061-0.132-0.129-0.161c-0.109-0.045-0.21-0.113-0.298-0.201l0,0
	c-0.368-0.368-0.368-0.97,0-1.338l0.367-0.366c0.053-0.054,0.075-0.124,0.06-0.197C4.788,9.861,4.741,9.805,4.672,9.774
	c-0.109-0.046-0.21-0.112-0.298-0.2l0,0c-0.368-0.369-0.368-0.971,0-1.339l0.367-0.366c0.053-0.054,0.075-0.124,0.06-0.197
	C4.788,7.598,4.741,7.54,4.672,7.511C4.563,7.465,4.462,7.397,4.375,7.31l0,0c-0.368-0.368-0.368-0.971,0-1.339l2.007-2.006
	c0.368-0.369,0.97-0.369,1.338,0l0,0c0.368,0.368,0.368,0.97,0,1.338L7.353,5.669C7.299,5.724,7.278,5.794,7.292,5.868
	c0.015,0.073,0.061,0.13,0.13,0.159C7.53,6.074,7.632,6.141,7.72,6.229l0,0c0.368,0.368,0.368,0.971,0,1.337L7.353,7.934
	C7.299,7.987,7.278,8.058,7.292,8.131c0.015,0.074,0.061,0.132,0.13,0.16C7.531,8.337,7.632,8.404,7.72,8.492l0,0
	c0.368,0.367,0.368,0.971,0,1.338l-0.367,0.368c-0.053,0.053-0.075,0.123-0.061,0.197c0.015,0.074,0.061,0.132,0.13,0.16
	c0.108,0.046,0.209,0.112,0.297,0.2l0,0c0.368,0.368,0.368,0.97,0,1.338l-0.367,0.367c-0.054,0.055-0.075,0.125-0.061,0.198
	c0.015,0.074,0.061,0.131,0.13,0.161c0.108,0.046,0.209,0.112,0.297,0.2l0,0c0.368,0.368,0.368,0.971,0,1.339l-0.367,0.366
	c-0.054,0.053-0.075,0.124-0.061,0.197c0.014,0.074,0.061,0.131,0.13,0.16c0.108,0.047,0.209,0.113,0.297,0.2l0,0
	c0.368,0.368,0.368,0.971,0,1.339l-2.007,2.007c-0.368,0.368-0.97,0.368-1.338-0.001l0,0c-0.368-0.367-0.368-0.969,0-1.336
	l0.367-0.367c0.053-0.054,0.075-0.124,0.06-0.198c-0.014-0.074-0.061-0.131-0.13-0.16c-0.108-0.047-0.209-0.113-0.297-0.201l0,0
	C4.006,15.997,4.006,15.396,4.375,15.027L4.375,15.027z M32.316,32.023l0.367-0.366c0.053-0.054,0.075-0.125,0.06-0.198
	c-0.014-0.073-0.06-0.131-0.13-0.16c-0.108-0.047-0.209-0.113-0.298-0.201l0,0c-0.368-0.368-0.368-0.97,0-1.338l0.367-0.367
	c0.053-0.053,0.075-0.124,0.06-0.197c-0.014-0.074-0.06-0.132-0.129-0.16c-0.108-0.046-0.209-0.113-0.298-0.202l0,0
	c-0.368-0.368-0.368-0.97,0-1.338l0.367-0.367c0.053-0.053,0.075-0.123,0.06-0.196c-0.014-0.075-0.06-0.131-0.129-0.161
	c-0.108-0.046-0.209-0.112-0.298-0.201l0,0c-0.368-0.368-0.368-0.971,0-1.338l0.367-0.367c0.053-0.053,0.075-0.123,0.06-0.197
	c-0.014-0.073-0.06-0.13-0.129-0.16c-0.108-0.046-0.209-0.113-0.298-0.2l0,0c-0.368-0.369-0.368-0.972,0-1.339l2.007-2.007
	c0.368-0.368,0.97-0.368,1.338,0l0,0c0.368,0.368,0.368,0.97,0,1.337l-0.367,0.368c-0.053,0.054-0.075,0.124-0.06,0.197
	c0.015,0.074,0.061,0.132,0.13,0.16c0.108,0.046,0.209,0.113,0.297,0.2l0,0c0.368,0.369,0.368,0.971,0,1.339l-0.367,0.367
	c-0.053,0.054-0.075,0.124-0.06,0.197c0.015,0.075,0.061,0.132,0.13,0.161c0.108,0.046,0.209,0.112,0.297,0.2l0,0
	c0.368,0.368,0.368,0.97,0,1.339l-0.367,0.366c-0.053,0.054-0.075,0.124-0.06,0.198s0.061,0.131,0.13,0.16
	c0.108,0.047,0.209,0.113,0.297,0.201l0,0c0.368,0.367,0.368,0.97,0,1.337l-0.367,0.368c-0.053,0.053-0.075,0.124-0.06,0.197
	c0.014,0.074,0.061,0.131,0.13,0.16c0.108,0.046,0.209,0.114,0.297,0.201l0,0c0.368,0.368,0.368,0.97,0,1.337l-0.367,0.368
	c-0.053,0.054-0.075,0.123-0.06,0.197c0.014,0.075,0.06,0.131,0.13,0.161c0.108,0.046,0.209,0.112,0.297,0.2l0,0
	c0.368,0.368,0.368,0.97,0,1.338l-2.132,2.007c-0.368,0.368-0.97,0.368-1.338,0l0,0c-0.368-0.368-0.243-0.97,0.125-1.339
	l0.367-0.366c0.053-0.053,0.075-0.123,0.06-0.196c-0.014-0.075-0.06-0.132-0.13-0.161c-0.108-0.046-0.209-0.113-0.297-0.201l0,0
	C31.948,32.994,31.948,32.392,32.316,32.023L32.316,32.023z M25.346,32.023l0.367-0.366c0.053-0.054,0.075-0.125,0.06-0.198
	c-0.014-0.073-0.06-0.131-0.13-0.16c-0.108-0.047-0.209-0.113-0.298-0.201l0,0c-0.368-0.368-0.368-0.97,0-1.338l0.367-0.367
	c0.053-0.053,0.075-0.124,0.061-0.197c-0.014-0.074-0.061-0.132-0.13-0.16c-0.108-0.046-0.209-0.113-0.298-0.202l0,0
	c-0.368-0.368-0.368-0.97,0-1.338l0.367-0.367c0.053-0.053,0.075-0.123,0.061-0.196c-0.014-0.075-0.061-0.131-0.13-0.161
	c-0.108-0.046-0.209-0.112-0.298-0.201l0,0c-0.368-0.368-0.368-0.971,0-1.338l0.367-0.367c0.053-0.053,0.075-0.123,0.061-0.197
	c-0.014-0.073-0.061-0.13-0.13-0.16c-0.108-0.046-0.209-0.113-0.298-0.2l0,0c-0.368-0.369-0.368-0.972,0-1.339l2.007-2.007
	c0.368-0.368,0.97-0.368,1.338,0l0,0c0.369,0.368,0.369,0.97,0,1.337l-0.367,0.368c-0.054,0.054-0.075,0.124-0.061,0.197
	c0.015,0.074,0.061,0.132,0.13,0.16c0.108,0.046,0.21,0.113,0.297,0.2l0,0c0.369,0.369,0.369,0.971,0,1.339l-0.367,0.367
	c-0.054,0.054-0.075,0.124-0.061,0.197c0.015,0.075,0.061,0.132,0.13,0.161c0.108,0.046,0.21,0.112,0.297,0.2l0,0
	c0.369,0.368,0.369,0.97,0,1.339l-0.367,0.366c-0.054,0.054-0.075,0.124-0.061,0.198s0.061,0.131,0.13,0.16
	c0.108,0.047,0.21,0.113,0.297,0.201l0,0c0.369,0.367,0.369,0.97,0,1.337l-0.367,0.368c-0.054,0.053-0.075,0.124-0.061,0.197
	c0.014,0.074,0.061,0.131,0.13,0.16c0.108,0.046,0.21,0.114,0.297,0.201l0,0c0.369,0.368,0.369,0.97,0,1.337l-0.367,0.368
	c-0.053,0.054-0.075,0.123-0.06,0.197c0.014,0.075,0.06,0.131,0.13,0.161c0.108,0.046,0.209,0.112,0.297,0.2l0,0
	c0.369,0.368,0.369,0.97,0,1.338l-2.132,2.007c-0.368,0.368-0.97,0.368-1.338,0l0,0c-0.368-0.368-0.243-0.97,0.125-1.339
	l0.367-0.366c0.053-0.053,0.075-0.123,0.061-0.196c-0.014-0.075-0.061-0.132-0.13-0.161c-0.108-0.046-0.209-0.113-0.297-0.201l0,0
	C24.978,32.994,24.978,32.392,25.346,32.023L25.346,32.023z M18.314,32.023l0.367-0.366c0.053-0.054,0.075-0.125,0.06-0.198
	c-0.014-0.073-0.06-0.131-0.129-0.16c-0.108-0.047-0.21-0.113-0.298-0.201l0,0c-0.368-0.368-0.368-0.97,0-1.338l0.367-0.367
	c0.053-0.053,0.074-0.124,0.06-0.197c-0.014-0.074-0.061-0.132-0.13-0.16c-0.108-0.046-0.209-0.113-0.297-0.202l0,0
	c-0.368-0.368-0.368-0.97,0-1.338l0.367-0.367c0.053-0.053,0.074-0.123,0.06-0.196c-0.014-0.075-0.061-0.131-0.13-0.161
	c-0.108-0.046-0.209-0.112-0.297-0.201l0,0c-0.368-0.368-0.368-0.971,0-1.338l0.367-0.367c0.053-0.053,0.074-0.123,0.06-0.197
	c-0.014-0.073-0.061-0.13-0.13-0.16c-0.108-0.046-0.209-0.113-0.297-0.2l0,0c-0.368-0.369-0.368-0.972,0-1.339l2.007-2.007
	c0.368-0.368,0.97-0.368,1.338,0l0,0c0.368,0.368,0.368,0.97,0,1.337l-0.367,0.368c-0.053,0.054-0.075,0.124-0.061,0.197
	c0.015,0.074,0.061,0.132,0.13,0.16c0.108,0.046,0.209,0.113,0.297,0.2l0,0c0.368,0.369,0.368,0.971,0,1.339l-0.367,0.367
	c-0.053,0.054-0.075,0.124-0.061,0.197c0.015,0.075,0.061,0.132,0.13,0.161c0.108,0.046,0.209,0.112,0.297,0.2l0,0
	c0.368,0.368,0.368,0.97,0,1.339l-0.367,0.366c-0.053,0.054-0.075,0.124-0.061,0.198c0.015,0.074,0.061,0.131,0.13,0.16
	c0.108,0.047,0.209,0.113,0.297,0.201l0,0c0.368,0.367,0.368,0.97,0,1.337l-0.367,0.368c-0.054,0.053-0.075,0.124-0.061,0.197
	c0.015,0.074,0.061,0.131,0.13,0.16c0.108,0.046,0.209,0.114,0.297,0.201l0,0c0.368,0.368,0.368,0.97,0,1.337l-0.367,0.368
	c-0.053,0.054-0.075,0.123-0.06,0.197c0.014,0.075,0.061,0.131,0.13,0.161c0.108,0.046,0.209,0.112,0.297,0.2l0,0
	c0.368,0.368,0.368,0.97,0,1.338l-2.007,2.007c-0.369,0.368-0.97,0.368-1.338,0l0,0c-0.368-0.368-0.368-0.97,0-1.339l0.367-0.366
	c0.053-0.053,0.074-0.123,0.06-0.196c-0.014-0.075-0.061-0.132-0.13-0.161c-0.108-0.046-0.209-0.113-0.297-0.201l0,0
	C17.946,32.994,17.946,32.392,18.314,32.023L18.314,32.023z M11.282,32.023l0.367-0.366c0.053-0.054,0.075-0.125,0.06-0.198
	c-0.014-0.073-0.06-0.131-0.129-0.16c-0.108-0.047-0.21-0.113-0.298-0.201l0,0c-0.368-0.368-0.368-0.97,0-1.338l0.367-0.367
	c0.053-0.053,0.075-0.124,0.06-0.197c-0.014-0.074-0.061-0.132-0.13-0.16c-0.108-0.046-0.209-0.113-0.297-0.202l0,0
	c-0.368-0.368-0.368-0.97,0-1.338l0.367-0.367c0.053-0.053,0.075-0.123,0.06-0.196c-0.014-0.075-0.061-0.131-0.13-0.161
	c-0.108-0.046-0.209-0.112-0.297-0.201l0,0c-0.368-0.368-0.368-0.971,0-1.338l0.367-0.367c0.053-0.053,0.075-0.123,0.06-0.197
	c-0.014-0.073-0.061-0.13-0.13-0.16c-0.108-0.046-0.209-0.113-0.297-0.2l0,0c-0.368-0.369-0.368-0.972,0-1.339l2.007-2.007
	c0.368-0.368,0.97-0.368,1.338,0l0,0c0.368,0.368,0.368,0.97,0,1.337l-0.368,0.368c-0.053,0.054-0.074,0.124-0.06,0.197
	c0.015,0.074,0.061,0.132,0.13,0.16c0.108,0.046,0.209,0.113,0.297,0.2l0,0c0.368,0.369,0.368,0.971,0,1.339L14.26,24.93
	c-0.053,0.054-0.075,0.124-0.061,0.197c0.015,0.075,0.061,0.132,0.13,0.161c0.108,0.046,0.209,0.112,0.297,0.2l0,0
	c0.368,0.368,0.368,0.97,0,1.339l-0.367,0.366c-0.053,0.054-0.075,0.124-0.061,0.198c0.015,0.074,0.061,0.131,0.13,0.16
	c0.108,0.047,0.209,0.113,0.297,0.201l0,0c0.368,0.367,0.368,0.97,0,1.337l-0.368,0.368c-0.053,0.053-0.074,0.124-0.06,0.197
	c0.015,0.074,0.061,0.131,0.13,0.16c0.108,0.046,0.209,0.114,0.297,0.201l0,0c0.368,0.368,0.368,0.97,0,1.337l-0.367,0.368
	c-0.053,0.054-0.074,0.123-0.06,0.197c0.014,0.075,0.061,0.131,0.13,0.161c0.108,0.046,0.209,0.112,0.297,0.2l0,0
	c0.368,0.368,0.368,0.97,0,1.338l-2.007,2.007c-0.368,0.368-0.97,0.368-1.338,0l0,0c-0.368-0.368-0.368-0.97,0-1.339l0.367-0.366
	c0.053-0.053,0.075-0.123,0.06-0.196c-0.014-0.075-0.061-0.132-0.13-0.161c-0.108-0.046-0.209-0.113-0.297-0.201l0,0
	C10.914,32.994,10.914,32.392,11.282,32.023L11.282,32.023z M4.375,32.023l0.367-0.366c0.053-0.054,0.075-0.125,0.061-0.198
	s-0.061-0.131-0.13-0.16c-0.108-0.047-0.21-0.113-0.298-0.201l0,0c-0.368-0.368-0.368-0.97,0-1.338l0.367-0.367
	c0.053-0.053,0.075-0.124,0.06-0.197c-0.014-0.074-0.061-0.132-0.129-0.16c-0.109-0.046-0.21-0.113-0.298-0.202l0,0
	c-0.368-0.368-0.368-0.97,0-1.338l0.367-0.367c0.053-0.053,0.075-0.123,0.06-0.196c-0.014-0.075-0.061-0.131-0.129-0.161
	c-0.109-0.046-0.21-0.112-0.298-0.201l0,0c-0.368-0.368-0.368-0.971,0-1.338l0.367-0.367c0.053-0.053,0.075-0.123,0.06-0.197
	c-0.014-0.073-0.061-0.13-0.129-0.16c-0.109-0.046-0.21-0.113-0.298-0.2l0,0c-0.368-0.369-0.368-0.972,0-1.339l2.007-2.007
	c0.368-0.368,0.97-0.368,1.338,0l0,0c0.368,0.368,0.368,0.97,0,1.337l-0.367,0.368c-0.053,0.054-0.075,0.124-0.061,0.197
	c0.015,0.074,0.061,0.132,0.13,0.16c0.108,0.046,0.209,0.113,0.297,0.2l0,0c0.368,0.369,0.368,0.971,0,1.339L7.353,24.93
	c-0.053,0.054-0.075,0.124-0.061,0.197c0.015,0.075,0.061,0.132,0.13,0.161c0.108,0.046,0.209,0.112,0.297,0.2l0,0
	c0.368,0.368,0.368,0.97,0,1.339l-0.367,0.366c-0.053,0.054-0.075,0.124-0.061,0.198c0.015,0.074,0.061,0.131,0.13,0.16
	c0.108,0.047,0.209,0.113,0.297,0.201l0,0c0.368,0.367,0.368,0.97,0,1.337l-0.367,0.368c-0.054,0.053-0.075,0.124-0.061,0.197
	c0.015,0.074,0.061,0.131,0.13,0.16c0.108,0.046,0.209,0.114,0.297,0.201l0,0c0.368,0.368,0.368,0.97,0,1.337l-0.367,0.368
	c-0.054,0.054-0.075,0.123-0.061,0.197c0.014,0.075,0.061,0.131,0.13,0.161c0.108,0.046,0.209,0.112,0.297,0.2l0,0
	c0.368,0.368,0.368,0.97,0,1.338l-2.007,2.007c-0.368,0.368-0.97,0.368-1.338,0l0,0c-0.368-0.368-0.368-0.97,0-1.339l0.367-0.366
	c0.053-0.053,0.075-0.123,0.06-0.196c-0.014-0.075-0.061-0.132-0.13-0.161c-0.108-0.046-0.209-0.113-0.297-0.201l0,0
	C4.006,32.994,4.006,32.392,4.375,32.023L4.375,32.023z M32.316,15.027l0.367-0.367c0.053-0.053,0.075-0.122,0.06-0.196
	c-0.014-0.075-0.06-0.133-0.13-0.161c-0.108-0.047-0.209-0.113-0.298-0.202l0,0c-0.368-0.368-0.368-0.97,0-1.338l0.367-0.367
	c0.053-0.053,0.075-0.122,0.06-0.196c-0.014-0.075-0.06-0.132-0.129-0.161c-0.108-0.045-0.209-0.113-0.298-0.201l0,0
	c-0.368-0.368-0.368-0.97,0-1.338l0.367-0.366c0.053-0.054,0.075-0.124,0.06-0.197c-0.014-0.074-0.06-0.131-0.129-0.161
	c-0.108-0.046-0.209-0.112-0.298-0.2l0,0c-0.368-0.369-0.368-0.971,0-1.339l0.367-0.366c0.053-0.054,0.075-0.124,0.06-0.197
	c-0.014-0.074-0.06-0.132-0.129-0.161c-0.108-0.046-0.209-0.113-0.298-0.201l0,0c-0.368-0.368-0.368-0.971,0-1.339l2.007-2.006
	c0.368-0.369,0.97-0.369,1.338,0l0,0c0.368,0.368,0.368,0.97,0,1.338l-0.367,0.366c-0.053,0.055-0.075,0.125-0.06,0.199
	c0.015,0.073,0.061,0.13,0.13,0.159c0.108,0.047,0.209,0.113,0.297,0.201l0,0c0.368,0.368,0.368,0.971,0,1.337l-0.367,0.368
	c-0.053,0.054-0.075,0.124-0.06,0.197c0.015,0.074,0.061,0.132,0.13,0.16c0.108,0.046,0.209,0.113,0.297,0.201l0,0
	c0.368,0.367,0.368,0.971,0,1.338l-0.367,0.368c-0.053,0.053-0.075,0.123-0.06,0.197s0.061,0.132,0.13,0.16
	c0.108,0.046,0.209,0.112,0.297,0.2l0,0c0.368,0.368,0.368,0.97,0,1.338l-0.367,0.367c-0.053,0.055-0.075,0.125-0.06,0.198
	c0.014,0.074,0.061,0.131,0.13,0.161c0.108,0.046,0.209,0.112,0.297,0.2l0,0c0.368,0.368,0.368,0.971,0,1.339l-0.367,0.366
	c-0.053,0.053-0.075,0.124-0.06,0.197c0.014,0.074,0.06,0.131,0.13,0.16c0.108,0.047,0.209,0.113,0.297,0.2l0,0
	c0.368,0.368,0.368,0.971,0,1.339l-2.007,2.007c-0.368,0.368-0.97,0.368-1.338-0.001l0,0c-0.368-0.367-0.368-0.969,0-1.336
	l0.367-0.367c0.053-0.054,0.075-0.124,0.06-0.198c-0.014-0.074-0.06-0.131-0.13-0.16c-0.108-0.047-0.209-0.113-0.297-0.201l0,0
	C31.948,15.997,31.948,15.396,32.316,15.027L32.316,15.027z M25.346,15.027l0.367-0.367c0.053-0.053,0.075-0.122,0.06-0.196
	c-0.014-0.075-0.06-0.133-0.13-0.161c-0.108-0.047-0.209-0.113-0.298-0.202l0,0c-0.368-0.368-0.368-0.97,0-1.338l0.367-0.367
	c0.053-0.053,0.075-0.122,0.061-0.196c-0.014-0.075-0.061-0.132-0.13-0.161c-0.108-0.045-0.209-0.113-0.298-0.201l0,0
	c-0.368-0.368-0.368-0.97,0-1.338l0.367-0.366c0.053-0.054,0.075-0.124,0.061-0.197c-0.014-0.074-0.061-0.131-0.13-0.161
	c-0.108-0.046-0.209-0.112-0.298-0.2l0,0c-0.368-0.369-0.368-0.971,0-1.339l0.367-0.366c0.053-0.054,0.075-0.124,0.061-0.197
	c-0.014-0.074-0.061-0.132-0.13-0.161c-0.108-0.046-0.209-0.113-0.298-0.201l0,0c-0.368-0.368-0.368-0.971,0-1.339l2.007-2.006
	c0.368-0.369,0.97-0.369,1.338,0l0,0c0.369,0.368,0.369,0.97,0,1.338l-0.367,0.366c-0.054,0.055-0.075,0.125-0.061,0.199
	c0.015,0.073,0.061,0.13,0.13,0.159c0.108,0.047,0.21,0.113,0.297,0.201l0,0c0.369,0.368,0.369,0.971,0,1.337l-0.367,0.368
	c-0.054,0.054-0.075,0.124-0.061,0.197c0.015,0.074,0.061,0.132,0.13,0.16c0.108,0.046,0.21,0.113,0.297,0.201l0,0
	c0.369,0.367,0.369,0.971,0,1.338l-0.367,0.368c-0.054,0.053-0.075,0.123-0.061,0.197s0.061,0.132,0.13,0.16
	c0.108,0.046,0.21,0.112,0.297,0.2l0,0c0.369,0.368,0.369,0.97,0,1.338l-0.367,0.367c-0.054,0.055-0.075,0.125-0.061,0.198
	c0.014,0.074,0.061,0.131,0.13,0.161c0.108,0.046,0.21,0.112,0.297,0.2l0,0c0.369,0.368,0.369,0.971,0,1.339l-0.367,0.366
	c-0.053,0.053-0.075,0.124-0.06,0.197c0.014,0.074,0.06,0.131,0.13,0.16c0.108,0.047,0.209,0.113,0.297,0.2l0,0
	c0.369,0.368,0.369,0.971,0,1.339l-2.007,2.007c-0.368,0.368-0.97,0.368-1.338-0.001l0,0c-0.368-0.367-0.368-0.969,0-1.336
	l0.367-0.367c0.053-0.054,0.075-0.124,0.061-0.198s-0.061-0.131-0.13-0.16c-0.108-0.047-0.209-0.113-0.297-0.201l0,0
	C24.978,15.997,24.978,15.396,25.346,15.027L25.346,15.027z M18.314,15.027l0.367-0.367c0.053-0.053,0.075-0.122,0.06-0.196
	c-0.014-0.075-0.06-0.133-0.129-0.161c-0.108-0.047-0.21-0.113-0.298-0.202l0,0c-0.368-0.368-0.368-0.97,0-1.338l0.367-0.367
	c0.053-0.053,0.074-0.122,0.06-0.196c-0.014-0.075-0.061-0.132-0.13-0.161c-0.108-0.045-0.209-0.113-0.297-0.201l0,0
	c-0.368-0.368-0.368-0.97,0-1.338l0.367-0.366c0.053-0.054,0.074-0.124,0.06-0.197c-0.014-0.074-0.061-0.131-0.13-0.161
	c-0.108-0.046-0.209-0.112-0.297-0.2l0,0c-0.368-0.369-0.368-0.971,0-1.339l0.367-0.366c0.053-0.054,0.074-0.124,0.06-0.197
	c-0.014-0.074-0.061-0.132-0.13-0.161c-0.108-0.046-0.209-0.113-0.297-0.201l0,0c-0.368-0.368-0.368-0.971,0-1.339l2.007-2.006
	c0.368-0.369,0.97-0.369,1.338,0l0,0c0.368,0.368,0.368,0.97,0,1.338l-0.367,0.366c-0.053,0.055-0.075,0.125-0.061,0.199
	c0.015,0.073,0.061,0.13,0.13,0.159c0.108,0.047,0.209,0.113,0.297,0.201l0,0c0.368,0.368,0.368,0.971,0,1.337l-0.367,0.368
	c-0.053,0.054-0.075,0.124-0.061,0.197c0.015,0.074,0.061,0.132,0.13,0.16c0.108,0.046,0.209,0.113,0.297,0.201l0,0
	c0.368,0.367,0.368,0.971,0,1.338l-0.367,0.368c-0.053,0.053-0.075,0.123-0.061,0.197c0.015,0.074,0.061,0.132,0.13,0.16
	c0.108,0.046,0.209,0.112,0.297,0.2l0,0c0.368,0.368,0.368,0.97,0,1.338l-0.367,0.367c-0.054,0.055-0.075,0.125-0.061,0.198
	c0.015,0.074,0.061,0.131,0.13,0.161c0.108,0.046,0.209,0.112,0.297,0.2l0,0c0.368,0.368,0.368,0.971,0,1.339l-0.367,0.366
	c-0.053,0.053-0.075,0.124-0.06,0.197c0.014,0.074,0.061,0.131,0.13,0.16c0.108,0.047,0.209,0.113,0.297,0.2l0,0
	c0.368,0.368,0.368,0.971,0,1.339l-2.007,2.007c-0.369,0.368-0.97,0.368-1.338-0.001l0,0c-0.368-0.367-0.368-0.969,0-1.336
	l0.367-0.367c0.053-0.054,0.074-0.124,0.06-0.198s-0.061-0.131-0.13-0.16c-0.108-0.047-0.209-0.113-0.297-0.201l0,0
	C17.946,15.997,17.946,15.396,18.314,15.027L18.314,15.027z M11.282,15.027l0.367-0.367c0.053-0.053,0.075-0.122,0.06-0.196
	c-0.014-0.075-0.06-0.133-0.129-0.161c-0.108-0.047-0.21-0.113-0.298-0.202l0,0c-0.368-0.368-0.368-0.97,0-1.338l0.367-0.367
	c0.053-0.053,0.075-0.122,0.06-0.196c-0.014-0.075-0.061-0.132-0.13-0.161c-0.108-0.045-0.209-0.113-0.297-0.201l0,0
	c-0.368-0.368-0.368-0.97,0-1.338l0.367-0.366c0.053-0.054,0.075-0.124,0.06-0.197c-0.014-0.074-0.061-0.131-0.13-0.161
	c-0.108-0.046-0.209-0.112-0.297-0.2l0,0c-0.368-0.369-0.368-0.971,0-1.339l0.367-0.366c0.053-0.054,0.075-0.124,0.06-0.197
	c-0.014-0.074-0.061-0.132-0.13-0.161c-0.108-0.046-0.209-0.113-0.297-0.201l0,0c-0.368-0.368-0.368-0.971,0-1.339l2.007-2.006
	c0.368-0.369,0.97-0.369,1.338,0l0,0c0.368,0.368,0.368,0.97,0,1.338l-0.368,0.366c-0.053,0.055-0.074,0.125-0.06,0.199
	c0.015,0.073,0.061,0.13,0.13,0.159c0.108,0.047,0.209,0.113,0.297,0.201l0,0c0.368,0.368,0.368,0.971,0,1.337L14.26,7.934
	c-0.053,0.054-0.075,0.124-0.061,0.197c0.015,0.074,0.061,0.132,0.13,0.16c0.108,0.046,0.209,0.113,0.297,0.201l0,0
	c0.368,0.367,0.368,0.971,0,1.338l-0.367,0.368c-0.053,0.053-0.075,0.123-0.061,0.197c0.015,0.074,0.061,0.132,0.13,0.16
	c0.108,0.046,0.209,0.112,0.297,0.2l0,0c0.368,0.368,0.368,0.97,0,1.338l-0.368,0.367c-0.053,0.055-0.074,0.125-0.06,0.198
	c0.015,0.074,0.061,0.131,0.13,0.161c0.108,0.046,0.209,0.112,0.297,0.2l0,0c0.368,0.368,0.368,0.971,0,1.339l-0.367,0.366
	c-0.053,0.053-0.074,0.124-0.06,0.197c0.014,0.074,0.061,0.131,0.13,0.16c0.108,0.047,0.209,0.113,0.297,0.2l0,0
	c0.368,0.368,0.368,0.971,0,1.339l-2.007,2.007c-0.368,0.368-0.97,0.368-1.338-0.001l0,0c-0.368-0.367-0.368-0.969,0-1.336
	l0.367-0.367c0.053-0.054,0.075-0.124,0.06-0.198c-0.014-0.074-0.061-0.131-0.13-0.16c-0.108-0.047-0.209-0.113-0.297-0.201l0,0
	C10.914,15.997,10.914,15.396,11.282,15.027z"/>
</svg>
