<?xml version="1.0" encoding="iso-8859-1"?>
<!-- Generator: Adobe Illustrator 16.0.2, SVG Export Plug-In . SVG Version: 6.00 Build 0)  -->
<!DOCTYPE svg PUBLIC "-//W3C//DTD SVG 1.1//EN" "http://www.w3.org/Graphics/SVG/1.1/DTD/svg11.dtd">
<svg version="1.1" id="co_x5F_food_x5F_1" xmlns="http://www.w3.org/2000/svg" xmlns:xlink="http://www.w3.org/1999/xlink" x="0px"
	 y="0px" width="40px" height="40px" viewBox="0 0 40 40" style="enable-background:new 0 0 40 40;" xml:space="preserve">
<path fill="#0D47A1" style="fill-rule:evenodd;clip-rule:evenodd;" d="M36.072,18.404c-0.705,0.954-0.705,2.205,0,3.159l1.166,1.579
	c0.527,0.714,0.664,1.559,0.389,2.401c-0.271,0.844-0.883,1.447-1.727,1.715l-1.871,0.592c-1.131,0.357-1.867,1.37-1.857,2.557
	l0.016,1.962c0.006,0.888-0.379,1.651-1.096,2.173c-0.717,0.521-1.564,0.652-2.406,0.372l-1.861-0.622
	c-1.125-0.375-2.314,0.011-3.006,0.976l-1.141,1.597c-0.516,0.723-1.279,1.113-2.164,1.113c-0.887,0-1.648-0.391-2.164-1.113
	l-1.141-1.597c-0.689-0.965-1.879-1.351-3.006-0.976l-1.861,0.621c-0.842,0.28-1.688,0.149-2.404-0.371
	c-0.717-0.521-1.105-1.287-1.098-2.173l0.016-1.962c0.01-1.187-0.727-2.199-1.857-2.557l-1.871-0.592
	c-0.846-0.268-1.453-0.872-1.727-1.715c-0.275-0.844-0.137-1.689,0.389-2.401l1.166-1.579c0.705-0.954,0.705-2.205,0-3.159
	l-1.166-1.579c-0.525-0.713-0.664-1.56-0.389-2.402c0.273-0.844,0.881-1.447,1.727-1.714l1.871-0.592
	c1.131-0.357,1.867-1.37,1.857-2.558L8.84,7.598C8.832,6.712,9.221,5.946,9.938,5.426c0.717-0.521,1.563-0.652,2.404-0.372
	l1.861,0.621c1.127,0.376,2.316-0.011,3.006-0.977l1.141-1.597c0.516-0.722,1.277-1.113,2.164-1.113
	c0.885,0,1.648,0.393,2.164,1.113l1.141,1.597c0.691,0.966,1.881,1.353,3.006,0.977l1.861-0.621c0.842-0.28,1.689-0.15,2.406,0.371
	s1.102,1.287,1.096,2.173L32.172,9.56c-0.01,1.188,0.727,2.2,1.857,2.558l1.871,0.592c0.844,0.267,1.455,0.87,1.727,1.714
	c0.275,0.843,0.139,1.689-0.389,2.402L36.072,18.404z M20.5,17.2c-1.537,0-2.783,1.246-2.783,2.783c0,1.538,1.246,2.784,2.783,2.784
	s2.785-1.246,2.785-2.784C23.285,18.446,22.037,17.2,20.5,17.2z"/>
</svg>
