<?xml version="1.0" encoding="iso-8859-1"?>
<!-- Generator: Adobe Illustrator 16.0.2, SVG Export Plug-In . SVG Version: 6.00 Build 0)  -->
<!DOCTYPE svg PUBLIC "-//W3C//DTD SVG 1.1//EN" "http://www.w3.org/Graphics/SVG/1.1/DTD/svg11.dtd">
<svg version="1.1" id="co_x5F_food_x5F_1" xmlns="http://www.w3.org/2000/svg" xmlns:xlink="http://www.w3.org/1999/xlink" x="0px"
	 y="0px" width="40px" height="40px" viewBox="0 0 40 40" style="enable-background:new 0 0 40 40;" xml:space="preserve">
<path fill="#0D47A1" style="fill-rule:evenodd;clip-rule:evenodd;" d="M22.477,37.714c-4.004-0.865-5.289-8.717-5.393-7.828
	c-0.391,3.357,3.236,9.767-3.756,7.636c-5.25-1.599-8.457-8.003-8.457-13.419c0-4.071,1.881-8.711,5.027-11.266
	c5.08-4.119,9.902-2,8.352,4.515c3.816-12.302,16.793-3.88,16.793,6.751C35.043,30.899,29.564,39.25,22.477,37.714z M27.422,8.668
	c-2.516,1.307-5.334,1.2-8.076,3.103c-0.932-1.817-0.982-6.411,2.422-8.275c3.402-1.864,7.813-1.677,9.064,0.018
	C31.246,5.633,29.99,7.333,27.422,8.668z"/>
</svg>
