<?xml version="1.0" encoding="iso-8859-1"?>
<!-- Generator: Adobe Illustrator 16.0.2, SVG Export Plug-In . SVG Version: 6.00 Build 0)  -->
<!DOCTYPE svg PUBLIC "-//W3C//DTD SVG 1.1//EN" "http://www.w3.org/Graphics/SVG/1.1/DTD/svg11.dtd">
<svg version="1.1" id="co_x5F_food_x5F_1" xmlns="http://www.w3.org/2000/svg" xmlns:xlink="http://www.w3.org/1999/xlink" x="0px"
	 y="0px" width="40px" height="40px" viewBox="0 0 40 40" style="enable-background:new 0 0 40 40;" xml:space="preserve">
<path fill="#0D47A1" style="fill-rule:evenodd;clip-rule:evenodd;" d="M28.924,18.03c3.586,1.995,5.17,6.037,5.17,9.786
	c0,5.943-5.967,11.249-13.602,9.995c-7.195,1.253-13.6-4.052-13.6-9.995c0-3.621,1.838-7.751,5.229-9.852
	c0.82-4.915,3.939-9.857,8.371-8.535C25.707,7.913,28.295,13.048,28.924,18.03L28.924,18.03z M25.973,2.741
	c-0.207-0.207-2.422-0.014-3.906,1.472c-0.375,0.374-0.85,0.873-1.303,1.39c-0.656-1.163-1.699-2.275-3.012-2.938
	c-2.668-1.344-5.744-0.617-5.932-0.247c1.293,4.606,5.545,5.64,7.838,5.801c1.498,0.608,3.727-0.455,4.844-1.571
	C25.986,5.163,26.18,2.948,25.973,2.741z"/>
</svg>
