<?xml version="1.0" encoding="iso-8859-1"?>
<!-- Generator: Adobe Illustrator 16.0.2, SVG Export Plug-In . SVG Version: 6.00 Build 0)  -->
<!DOCTYPE svg PUBLIC "-//W3C//DTD SVG 1.1//EN" "http://www.w3.org/Graphics/SVG/1.1/DTD/svg11.dtd">
<svg version="1.1" id="co_x5F_food_x5F_1" xmlns="http://www.w3.org/2000/svg" xmlns:xlink="http://www.w3.org/1999/xlink" x="0px"
	 y="0px" width="40px" height="40px" viewBox="0 0 40 40" style="enable-background:new 0 0 40 40;" xml:space="preserve">
<path fill="#0D47A1" style="fill-rule:evenodd;clip-rule:evenodd;" d="M37.477,14.712c0.564,2.018,0.917,5.071-0.293,5.377
	c-0.632,0.16-1.385-0.849-1.905-1.95c-0.089,3.259-0.653,6.599-2.778,8.696c-1.159,1.892-3.264,3.162-5.679,3.164
	c-1.309,0.001-2.525-0.375-3.553-1.016c-0.528,0-1.055,0-1.59-0.001c-1.026,0.64-2.239,1.016-3.544,1.017
	c-1.316,0.001-2.539-0.379-3.571-1.025c-0.455-0.001-0.914-0.002-1.366-0.002c-1.029,0.646-2.25,1.026-3.563,1.027
	C8.45,30,7.34,29.692,6.377,29.16c-1.727,0.594-2.247,2.472-3.498,2.416c-1.125,0.001-0.881-3.429-0.883-6.185
	c-0.003-3.675,1.178-5.519,2.911-6.451c1.201-1.195,2.87-1.938,4.717-1.939c1.289-0.001,2.488,0.364,3.507,0.987
	c0.495,0,1.001-0.001,1.499-0.001c1.015-0.621,2.21-0.985,3.494-0.986c1.285-0.001,2.48,0.362,3.497,0.98
	c0.574,0,1.134,0,1.708-0.001c1.013-0.616,2.204-0.979,3.483-0.979c1.18-0.001,2.285,0.303,3.245,0.832
	c1.244-0.3,2.519-1.027,3.473-1.676c-1.801,0.063-3.3,0.02-3.509-0.352c-0.64-1.139,1.948-2.396,4.059-2.937
	c1.712-0.595,0.601-2.394,0.3-3.932c-0.373-1.904,2.454-2.285,3.102-0.513C38.638,10.712,37.511,13.613,37.477,14.712z
	 M9.458,20.236c-1.717,0.001-3.108,1.366-3.107,3.05c0.001,1.683,1.395,3.046,3.112,3.044c1.717-0.001,3.108-1.366,3.107-3.05
	C12.569,21.598,11.176,20.235,9.458,20.236z M18.103,20.229c-1.717,0.002-3.108,1.366-3.107,3.05
	c0.001,1.683,1.395,3.046,3.112,3.045c1.717-0.002,3.108-1.367,3.107-3.05C21.213,21.591,19.82,20.229,18.103,20.229z
	 M26.747,20.223c-1.717,0.002-3.108,1.366-3.107,3.05c0.001,1.683,1.395,3.046,3.112,3.045c1.717-0.002,3.108-1.367,3.107-3.05
	C29.857,21.585,28.464,20.222,26.747,20.223z"/>
</svg>
