<?xml version="1.0" encoding="iso-8859-1"?>
<!-- Generator: Adobe Illustrator 16.0.2, SVG Export Plug-In . SVG Version: 6.00 Build 0)  -->
<!DOCTYPE svg PUBLIC "-//W3C//DTD SVG 1.1//EN" "http://www.w3.org/Graphics/SVG/1.1/DTD/svg11.dtd">
<svg version="1.1" id="co_x5F_food_x5F_1" xmlns="http://www.w3.org/2000/svg" xmlns:xlink="http://www.w3.org/1999/xlink" x="0px"
	 y="0px" width="40px" height="40px" viewBox="0 0 40 40" style="enable-background:new 0 0 40 40;" xml:space="preserve">
<path fill="#0D47A1" style="fill-rule:evenodd;clip-rule:evenodd;" d="M37.927,19.165c-0.982,3.498-5.03,7.071-7.117,8.908
	c-1.064,0.938-4.835,2.629-7.433,3.657c-0.729,0.289-2.506,1.115-3.253,1.354c-0.411,0.132-0.815-0.327-1.205-0.211
	C17.167,33.395,3.26,32.604,2.44,30.37c-0.071-0.193-0.538-1.359-0.014-1.622c0.571-0.287,1.771-0.44,2.362-0.217
	c3.439,0.158,6.77-0.814,8.238-1.431c1.071-0.449,5.313-5.083,5.964-5.892c0.625-0.775,1.954-5.091,3.16-8.464
	c0.459-0.185,3.863-0.831,3.681-0.277c-0.69,0.704-1.519,1.215-1.807,1.95c-0.759,3.246-2.469,7.092-2.007,7.067
	c0.388-0.018,6.836-9.231,7.208-9.227c0.34,0.005,1.271-0.127,1.53-0.105c1.695-1.487,3.351-3.202,3.638-7.017
	c0.997-0.982,3.573,0.015,3.339,1.85c-1.405,1.185-2.359,4.646-2.998,7.459C35.881,15.611,37.524,17.901,37.927,19.165z"/>
</svg>
