<?xml version="1.0" encoding="iso-8859-1"?>
<!-- Generator: Adobe Illustrator 16.0.2, SVG Export Plug-In . SVG Version: 6.00 Build 0)  -->
<!DOCTYPE svg PUBLIC "-//W3C//DTD SVG 1.1//EN" "http://www.w3.org/Graphics/SVG/1.1/DTD/svg11.dtd">
<svg version="1.1" id="co_x5F_food_x5F_1" xmlns="http://www.w3.org/2000/svg" xmlns:xlink="http://www.w3.org/1999/xlink" x="0px"
	 y="0px" width="40px" height="40px" viewBox="0 0 40 40" style="enable-background:new 0 0 40 40;" xml:space="preserve">
<path fill="#0D47A1" style="fill-rule:evenodd;clip-rule:evenodd;" d="M33.67,21.462c-1.238,6.267-3.229,16.546-8.074,16.546
	c-3.229,0-4.931-1.499-5.652-1.499c-0.772,0-1.615,1.499-4.845,1.499c-4.844,0-7.635-10.34-8.882-16.546
	c-1.614-8.035,4.038-13.121,13.727-8.922C29.633,8.341,35.285,13.289,33.67,21.462z M21.867,9.724
	c-0.592,0.104-1.349,0.353-1.885,0.667c-0.63-0.194-1.388-0.387-1.875-0.475c-0.859-2.108-1.03-3.965,0.024-5.858
	c1.067-1.994,4.606-1.001,3.745,0.661C20.922,6.563,21.105,7.983,21.867,9.724z"/>
</svg>
