<?xml version="1.0" encoding="iso-8859-1"?>
<!-- Generator: Adobe Illustrator 16.0.2, SVG Export Plug-In . SVG Version: 6.00 Build 0)  -->
<!DOCTYPE svg PUBLIC "-//W3C//DTD SVG 1.1//EN" "http://www.w3.org/Graphics/SVG/1.1/DTD/svg11.dtd">
<svg version="1.1" id="co_x5F_food_x5F_1" xmlns="http://www.w3.org/2000/svg" xmlns:xlink="http://www.w3.org/1999/xlink" x="0px"
	 y="0px" width="40px" height="40px" viewBox="0 0 40 40" style="enable-background:new 0 0 40 40;" xml:space="preserve">
<path fill="#0D47A1" style="fill-rule:evenodd;clip-rule:evenodd;" d="M35.619,23.308c-2.198,11.1-12.563,14.905-15.635,14.716
	C16.976,38.149,6.3,35.507,4.348,23.308C2.396,11.106,10.096,7.971,19.983,10.627C31.049,8.23,37.816,12.207,35.619,23.308z
	 M22.976,7.938c-1,0.577-2.013,0.854-2.729,0.802c-0.023,0.002-0.045,0.016-0.069,0.016c-0.02,0-0.039-0.012-0.059-0.014
	c-0.713,0.039-1.704-0.238-2.684-0.804c-1.586-0.915-2.538-2.236-2.125-2.95c0.392-0.679,1.877-0.556,3.386,0.246
	c0.049-1.733,0.69-3.109,1.482-3.109c0.796,0,1.441,1.391,1.484,3.137c1.527-0.827,3.043-0.96,3.439-0.273
	C25.513,5.701,24.562,7.022,22.976,7.938z"/>
</svg>
