<?xml version="1.0" encoding="iso-8859-1"?>
<!-- Generator: Adobe Illustrator 16.0.2, SVG Export Plug-In . SVG Version: 6.00 Build 0)  -->
<!DOCTYPE svg PUBLIC "-//W3C//DTD SVG 1.1//EN" "http://www.w3.org/Graphics/SVG/1.1/DTD/svg11.dtd">
<svg version="1.1" id="co_x5F_food_x5F_1" xmlns="http://www.w3.org/2000/svg" xmlns:xlink="http://www.w3.org/1999/xlink" x="0px"
	 y="0px" width="40px" height="40px" viewBox="0 0 40 40" style="enable-background:new 0 0 40 40;" xml:space="preserve">
<path fill="#0D47A1" style="fill-rule:evenodd;clip-rule:evenodd;" d="M30.229,15.559c3.249,0.978,6.328,3.667,6.188,4.856
	c-0.168,1.422-4.13-2.004-8.498-1.938c0.386,0.965,0.635,1.97,0.75,2.986c-1.226-0.221-2.951,0.042-3.68-0.687
	c-0.995-0.995-0.159-3.722-1.133-4.696c-0.999-0.999-3.807-0.244-4.696-1.134c-0.775-0.775-0.583-2.481-0.746-3.668
	c1.042,0.111,2.073,0.358,3.062,0.755c0.066-4.368-3.359-8.33-1.937-8.498c1.19-0.141,3.878,2.938,4.856,6.188
	c1.468-4.2,1.204-7.998,2.741-7.682c0.724,0.148,1.477,3.869,0.6,7.803c3.268-3.125,6.099-5.183,6.804-4.479
	c0.71,0.711-1.377,3.576-4.541,6.873c3.974-0.915,7.762-0.152,7.912,0.579C38.226,14.354,34.428,14.091,30.229,15.559z
	 M23.385,22.38c0.997,0.997,3.718,0.155,4.696,1.134c0.278,0.277,0.41,0.706,0.486,1.19c-0.325,1.914-1.121,3.765-2.414,5.355
	c-0.272-1.22,0.019-3.097-0.751-3.867c-0.959-0.959-3.72-0.157-4.696-1.133c-0.995-0.995-0.159-3.722-1.134-4.696
	c-0.999-0.999-3.807-0.244-4.696-1.134c-1.06-1.06-0.306-3.868-1.134-4.695c-0.588-0.589-2.581-0.307-3.884-0.706
	c1.502-1.232,3.242-2.007,5.047-2.37c0.677,0.056,1.258,0.138,1.516,0.396c0.844,0.844,0.052,3.614,1.133,4.696
	c0.934,0.934,3.658,0.095,4.696,1.133C23.183,18.615,22.422,21.416,23.385,22.38z M13.273,20.833
	c0.934,0.934,3.658,0.095,4.696,1.133c0.931,0.932,0.17,3.732,1.134,4.696c0.996,0.997,3.718,0.155,4.696,1.134
	c0.792,0.792,0.464,2.753,0.779,3.966l-2.702,2.701c-0.315-1.213,0.013-3.173-0.779-3.966c-0.959-0.959-3.72-0.157-4.696-1.133
	c-0.995-0.996-0.159-3.722-1.134-4.696c-0.999-0.999-3.807-0.244-4.696-1.134c-1.06-1.06-0.306-3.867-1.133-4.695
	c-0.603-0.604-2.678-0.293-3.977-0.736l2.705-2.705c1.299,0.438,3.405,0.172,3.973,0.739C12.984,16.98,12.192,19.751,13.273,20.833z
	 M3.553,24.724c0.844,0.845,0.052,3.615,1.133,4.696c0.934,0.935,3.658,0.095,4.696,1.134c0.931,0.931,0.17,3.732,1.133,4.695
	c0.997,0.997,3.718,0.156,4.696,1.134c0.306,0.306,0.435,0.795,0.506,1.341c-3.619,0.663-7.492-0.4-10.291-3.199
	c-2.77-2.77-3.835-6.591-3.215-10.178C2.81,24.402,3.318,24.489,3.553,24.724z M10.985,28.95c-0.999-0.998-3.807-0.244-4.696-1.134
	c-1.06-1.059-0.305-3.867-1.133-4.695c-0.402-0.401-1.462-0.396-2.51-0.477c0.336-1.005,0.828-1.967,1.445-2.868
	c1.306,0.34,3.21,0.131,3.744,0.665c0.844,0.845,0.052,3.614,1.134,4.696c0.934,0.934,3.658,0.095,4.696,1.134
	c0.931,0.931,0.17,3.732,1.134,4.695c0.996,0.997,3.718,0.155,4.696,1.134c0.742,0.742,0.493,2.518,0.716,3.736
	c-0.879,0.606-1.815,1.093-2.795,1.432c-0.049-0.975-0.089-1.978-0.6-2.488c-0.959-0.959-3.72-0.158-4.696-1.134
	C11.124,32.651,11.96,29.925,10.985,28.95z"/>
</svg>
