<?xml version="1.0" encoding="iso-8859-1"?>
<!-- Generator: Adobe Illustrator 16.0.2, SVG Export Plug-In . SVG Version: 6.00 Build 0)  -->
<!DOCTYPE svg PUBLIC "-//W3C//DTD SVG 1.1//EN" "http://www.w3.org/Graphics/SVG/1.1/DTD/svg11.dtd">
<svg version="1.1" id="co_x5F_food_x5F_3" xmlns="http://www.w3.org/2000/svg" xmlns:xlink="http://www.w3.org/1999/xlink" x="0px"
	 y="0px" width="40px" height="40px" viewBox="0 0 40 40" style="enable-background:new 0 0 40 40;" xml:space="preserve">
<path fill="#0D47A1" d="M19.999,7.698c-6.745,0-12.214,5.491-12.214,12.262c0,6.77,5.47,12.26,12.214,12.26c6.745,0,12.215-5.49,12.215-12.26
	C32.214,13.189,26.744,7.698,19.999,7.698z M19.999,30.282c-5.67,0-10.269-4.623-10.269-10.322c0-5.701,4.599-10.323,10.269-10.323
	c5.671,0,10.271,4.622,10.271,10.323C30.27,25.659,25.67,30.282,19.999,30.282z M19.999,2.044c-9.924,0-17.971,8.022-17.971,17.916
	c0,9.892,8.047,17.914,17.971,17.914c9.925,0,17.973-8.022,17.973-17.914C37.972,10.066,29.924,2.044,19.999,2.044z M19.999,34.133
	c-7.796,0-14.12-6.347-14.12-14.173c0-7.827,6.323-14.175,14.12-14.175c7.797,0,14.12,6.348,14.12,14.175
	C34.119,27.786,27.796,34.133,19.999,34.133z"/>
</svg>
