<?xml version="1.0" encoding="iso-8859-1"?>
<!-- Generator: Adobe Illustrator 16.0.2, SVG Export Plug-In . SVG Version: 6.00 Build 0)  -->
<!DOCTYPE svg PUBLIC "-//W3C//DTD SVG 1.1//EN" "http://www.w3.org/Graphics/SVG/1.1/DTD/svg11.dtd">
<svg version="1.1" id="co_x5F_food_x5F_3" xmlns="http://www.w3.org/2000/svg" xmlns:xlink="http://www.w3.org/1999/xlink" x="0px"
	 y="0px" width="40px" height="40px" viewBox="0 0 40 40" style="enable-background:new 0 0 40 40;" xml:space="preserve">
<path fill="#0D47A1" style="fill-rule:evenodd;clip-rule:evenodd;" d="M34.5,16.251h-0.513v16.392c0,0.748-0.676,1.363-1.5,1.363h-2
	c-0.823,0-1.5-0.613-1.5-1.363V16.251H28.5c-1.381,0-2.5-0.369-2.5-1.75c0-7.222,0-9.5,0-9.5c0-0.553,0.448-1,1-1s1,0.447,1,1
	l-0.012,8.511h1L29,5.001c0-0.553,0.448-1,1-1s1,0.447,1,1l-0.012,8.511h1L32,5.001c0-0.553,0.448-1,1-1s1,0.447,1,1l-0.013,8.511h1
	L35,5.001c0-0.553,0.448-1,1-1s1,0.447,1,1c0,0,0,4.924,0,9.5C37.133,15.875,35.881,16.251,34.5,16.251z M16.995,27.601
	c-4.744,0-8.592-3.848-8.592-8.593s3.848-8.594,8.592-8.594c2.896,0,5.454,1.438,7.01,3.636c0.013,1.353,0.561,2.576,1.444,3.469
	c0.085,0.484,0.138,0.979,0.138,1.489C25.587,23.753,21.739,27.601,16.995,27.601z M16.995,12.415c-3.614,0-6.545,2.952-6.545,6.593
	s2.931,6.593,6.545,6.593s6.545-2.952,6.545-6.593S20.609,12.415,16.995,12.415z M6.284,19.013c0,5.955,4.795,10.784,10.708,10.784
	c4.581,0,8.479-2.904,10.009-6.979v7.342c-2.656,2.387-6.157,3.853-10.009,3.853c-8.281,0-14.996-6.717-14.996-14.999
	s6.715-15,14.996-15c2.535,0,4.916,0.641,7.009,1.751v5.106c-1.876-1.645-4.325-2.643-7.009-2.643
	C11.079,8.228,6.284,13.057,6.284,19.013z"/>
</svg>
