<?xml version="1.0" encoding="iso-8859-1"?>
<!-- Generator: Adobe Illustrator 16.0.2, SVG Export Plug-In . SVG Version: 6.00 Build 0)  -->
<!DOCTYPE svg PUBLIC "-//W3C//DTD SVG 1.1//EN" "http://www.w3.org/Graphics/SVG/1.1/DTD/svg11.dtd">
<svg version="1.1" id="co_x5F_food_x5F_1" xmlns="http://www.w3.org/2000/svg" xmlns:xlink="http://www.w3.org/1999/xlink" x="0px"
	 y="0px" width="40px" height="40px" viewBox="0 0 40 40" style="enable-background:new 0 0 40 40;" xml:space="preserve">
<path fill="#0D47A1" style="fill-rule:evenodd;clip-rule:evenodd;" d="M30.588,33.324c-6.112,6.113-16.028,6.113-22.141,0
	c-6.191-6.19-5.964-16.235,0.075-22.213c1.558-1.541,2.122-3.665,3.692-5.236c1.636-1.635,3.682-2.605,5.807-2.915
	c0.247-0.036,0.442-0.171,0.563-0.39c0.181-0.328,0.531-0.551,0.933-0.551s0.752,0.224,0.934,0.552
	c0.121,0.218,0.316,0.353,0.563,0.389c2.125,0.31,4.172,1.28,5.806,2.915c1.571,1.571,2.137,3.695,3.693,5.236
	C36.554,17.088,36.777,27.134,30.588,33.324z"/>
</svg>
