<?xml version="1.0" encoding="iso-8859-1"?>
<!-- Generator: Adobe Illustrator 16.0.2, SVG Export Plug-In . SVG Version: 6.00 Build 0)  -->
<!DOCTYPE svg PUBLIC "-//W3C//DTD SVG 1.1//EN" "http://www.w3.org/Graphics/SVG/1.1/DTD/svg11.dtd">
<svg version="1.1" id="co_x5F_food_x5F_1" xmlns="http://www.w3.org/2000/svg" xmlns:xlink="http://www.w3.org/1999/xlink" x="0px"
	 y="0px" width="40px" height="40px" viewBox="0 0 40 40" style="enable-background:new 0 0 40 40;" xml:space="preserve">
<path fill="#0D47A1" style="fill-rule:evenodd;clip-rule:evenodd;" d="M31.903,32.362c-1.063,1.484-9.2,5.331-11.497,5.589
	c-1.825,0.095-9.903-3.868-11.537-5.505c-1.212-1.367-3.151-10.155-2.89-12.452c0.233-1.343,3.463-5.546,5.867-8.143
	c0.26-0.28,0.704-0.326,1.222-0.128c0.246,0.093,0.514,0.137,0.792,0.137c1.341,0,2.429-1.089,2.429-2.432
	C16.29,8.087,15.202,7,13.86,7c-0.321,0-0.634,0.048-0.905,0.181c-0.356,0.172-0.788,0.072-0.963-0.211
	c-0.537-0.864-0.746-1.647-0.414-2.222c0.687-1.19,3.291-0.974,5.936,0.431c0.093-2.852,1.214-3.233,2.598-3.233
	c1.392,0,2.519,0.384,2.6,3.282c2.677-1.45,5.334-1.684,6.03-0.479c0.303,0.524,0.194,1.247-0.276,2.001
	C28.236,7.117,27.87,7.06,27.68,7.06C27.507,7.059,27.336,7,27.156,7c-1.342,0-2.43,1.087-2.43,2.429
	c0,1.343,1.088,2.432,2.43,2.432c0.258,0,0.508-0.037,0.741-0.115c0.31-0.104,0.661-0.287,1.172,0.279
	c2.234,2.48,5.104,6.347,5.633,7.864C35.2,21.646,33.135,30.405,31.903,32.362z"/>
</svg>
