<?xml version="1.0" encoding="iso-8859-1"?>
<!-- Generator: Adobe Illustrator 16.0.2, SVG Export Plug-In . SVG Version: 6.00 Build 0)  -->
<!DOCTYPE svg PUBLIC "-//W3C//DTD SVG 1.1//EN" "http://www.w3.org/Graphics/SVG/1.1/DTD/svg11.dtd">
<svg version="1.1" id="co_x5F_food_x5F_1" xmlns="http://www.w3.org/2000/svg" xmlns:xlink="http://www.w3.org/1999/xlink" x="0px"
	 y="0px" width="40px" height="40px" viewBox="0 0 40 40" style="enable-background:new 0 0 40 40;" xml:space="preserve">
<path fill="#0D47A1" style="fill-rule:evenodd;clip-rule:evenodd;" d="M34.08,25.97c-0.422,0.336-0.704,0.841-0.704,1.424
	c0,0.268,0.072,0.515,0.173,0.744c0.125,0.286,0.189,0.701,0.098,1.038c-0.233,0.86-0.528,1.604-0.783,2.171
	c-0.228,0.508-0.36,0.735-0.843,0.089c-0.363-0.485-0.941-0.8-1.594-0.8c-1.099,0-1.991,0.893-1.991,1.992
	c0,0.4,0.114,0.777,0.322,1.086c0.266,0.395,0.198,0.736-0.249,0.992c-2.883,1.656-6.644,3.082-8.104,3.245
	c-1.223,0.063-5.246-1.389-8.227-3.272c-0.327-0.206-0.38-0.696-0.222-0.92c0.225-0.318,0.353-0.71,0.353-1.131
	c0-1.1-0.892-1.992-1.992-1.992c-0.696,0-1.395,0.311-1.664,0.9c-0.146,0.32-0.52,0.351-0.757-0.023
	c-0.351-0.551-0.78-1.306-1.001-2.543c-0.059-0.326-0.085-0.608,0.118-0.954c0.105-0.181,0.141-0.398,0.141-0.622
	c0-0.454-0.121-0.954-0.49-1.156c-0.371-0.202-0.514-0.407-0.626-0.87c-0.478-1.979-0.887-3.956-0.805-5.271
	c0.025-0.404,0.243-0.667,0.719-0.798c0.768-0.212,1.351-0.883,1.351-1.713c0-0.258-0.072-0.496-0.159-0.721
	c-0.083-0.214-0.313-0.659-0.057-1.066c0.441-0.704,1.015-1.398,1.59-2.107c0.259-0.319,0.59-0.146,0.747,0.018
	c0.274,0.286,0.684,0.42,1.114,0.42c0.979,0,1.773-0.793,1.773-1.771c0-0.501-0.202-0.959-0.542-1.273
	c-0.228-0.211-0.367-0.505-0.035-0.907c0.675-0.817,1.39-1.352,1.847-1.639c0.516-0.424,1.02,0.481,1.888,0.415
	c1.779-0.138,1.862-1.504,1.827-1.829c0-1.009-0.839-2.034-1.827-1.827c-0.738,0.154-1.161,0.374-1.359,0.053
	c-0.423-0.688-0.616-1.298-0.357-1.746c0.517-0.896,2.475-0.732,4.465,0.324c0.069-2.145,0.913-2.433,1.954-2.433
	c1.047,0,1.895,0.289,1.956,2.469c2.013-1.091,4.012-1.267,4.535-0.36c0.235,0.407,0.146,0.975-0.23,1.564
	c-0.181,0.284-0.548,0.145-0.961,0.129c-1.008-0.038-1.828,0.818-1.828,1.827c0-0.072,0.089,1.829,1.828,1.829
	c0.899,0,1.23-0.697,1.55-0.464c0.467,0.196,1.295,0.794,2.087,1.772c0.174,0.215,0.19,0.546-0.026,0.733
	c-0.384,0.334-0.642,0.813-0.642,1.362c0,0.979,0.794,1.771,1.772,1.771c0.431,0,0.804-0.173,1.113-0.422
	c0.336-0.271,0.649-0.092,0.755,0.047c0.566,0.739,1.185,1.429,1.586,2.174c0.114,0.213,0.153,0.482-0.028,0.861
	c-0.116,0.242-0.192,0.51-0.192,0.797c0,0.894,0.666,1.632,1.528,1.745c-0.117-0.016,0.537-0.068,0.54,0.696
	c0.004,1.211-0.285,3.078-0.772,4.985C34.66,25.32,34.613,25.546,34.08,25.97z M10.317,20.391c-1.099,0-1.991,0.894-1.991,1.992
	c0,1.1,0.892,1.992,1.991,1.992c1.1,0,1.992-0.893,1.992-1.992C12.309,21.284,11.417,20.391,10.317,20.391z M15.049,15.626
	c-1.1,0-1.992,0.894-1.992,1.993c0,1.099,0.892,1.991,1.992,1.991s1.991-0.893,1.991-1.991
	C17.041,16.52,16.149,15.626,15.049,15.626z M15.049,25.873c-1.1,0-1.992,0.891-1.992,1.991c0,1.1,0.892,1.991,1.992,1.991
	s1.991-0.892,1.991-1.991C17.041,26.764,16.149,25.873,15.049,25.873z M20.37,10.563c-1.1,0-1.992,0.892-1.992,1.99
	c0,1.1,0.892,1.992,1.992,1.992c1.099,0,1.991-0.893,1.991-1.992C22.361,11.454,21.469,10.563,20.37,10.563z M20.37,20.807
	c-1.1,0-1.992,0.893-1.992,1.992s0.892,1.991,1.992,1.991c1.099,0,1.991-0.892,1.991-1.991S21.469,20.807,20.37,20.807z
	 M20.37,31.053c-1.1,0-1.992,0.892-1.992,1.99c0,1.101,0.892,1.992,1.992,1.992c1.099,0,1.991-0.892,1.991-1.992
	C22.361,31.944,21.469,31.053,20.37,31.053z M25.695,15.626c-1.1,0-1.992,0.894-1.992,1.993c0,1.099,0.892,1.991,1.992,1.991
	c1.1,0,1.992-0.893,1.992-1.991C27.687,16.52,26.795,15.626,25.695,15.626z M25.695,25.873c-1.1,0-1.992,0.891-1.992,1.991
	c0,1.1,0.892,1.991,1.992,1.991c1.1,0,1.992-0.892,1.992-1.991C27.687,26.764,26.795,25.873,25.695,25.873z M30.427,20.391
	c-1.099,0-1.991,0.894-1.991,1.992c0,1.1,0.892,1.992,1.991,1.992c1.1,0,1.992-0.893,1.992-1.992
	C32.418,21.284,31.526,20.391,30.427,20.391z"/>
</svg>
