<?xml version="1.0" encoding="iso-8859-1"?>
<!-- Generator: Adobe Illustrator 16.0.2, SVG Export Plug-In . SVG Version: 6.00 Build 0)  -->
<!DOCTYPE svg PUBLIC "-//W3C//DTD SVG 1.1//EN" "http://www.w3.org/Graphics/SVG/1.1/DTD/svg11.dtd">
<svg version="1.1" id="co_x5F_food_x5F_2" xmlns="http://www.w3.org/2000/svg" xmlns:xlink="http://www.w3.org/1999/xlink" x="0px"
	 y="0px" width="40px" height="40px" viewBox="0 0 40 40" style="enable-background:new 0 0 40 40;" xml:space="preserve">
<path fill="#0D47A1" style="fill-rule:evenodd;clip-rule:evenodd;" d="M15.028,23.893c-1.925-1.562-2.202-5.024-0.537-8.146
	c1.666-3.119,4.696-4.816,7.064-4.086c0.168,0.051,0.29,0.166,0.354,0.33c0.061,0.164,0.045,0.331-0.046,0.48
	c-2.301,3.783-4.059,7.075-5.99,11.226c-0.074,0.158-0.205,0.264-0.376,0.304C15.328,24.04,15.164,24.003,15.028,23.893
	L15.028,23.893z M4.438,13.341c0.103,0.143,0.251,0.219,0.426,0.226c0.176,0.004,0.329-0.065,0.441-0.199
	c2.922-3.523,5.458-6.261,8.646-9.333c0.126-0.122,0.184-0.28,0.166-0.455c-0.019-0.174-0.108-0.316-0.256-0.409
	c-2.107-1.308-5.468-0.437-7.873,2.157C3.585,7.921,2.972,11.341,4.438,13.341L4.438,13.341z M27.722,24.085
	c2.359-0.76,5.412,0.902,7.114,4.001c1.701,3.1,1.469,6.566-0.438,8.149c-0.135,0.112-0.299,0.152-0.468,0.115
	c-0.172-0.038-0.304-0.142-0.379-0.301c-1.91-3.994-3.707-7.266-6.126-11.151c-0.093-0.148-0.111-0.315-0.051-0.479
	C27.435,24.255,27.555,24.139,27.722,24.085L27.722,24.085z M37.229,14.623c-2.189,1.162-5.486,0.063-7.706-2.689
	c-2.221-2.752-2.597-6.205-0.999-8.1c0.112-0.135,0.267-0.202,0.44-0.195c0.176,0.007,0.323,0.086,0.427,0.229
	c2.58,3.598,4.924,6.502,7.988,9.902c0.118,0.13,0.164,0.291,0.134,0.464C37.481,14.406,37.384,14.541,37.229,14.623L37.229,14.623z
	 M28.639,33.708c0.122-0.124,0.174-0.284,0.149-0.458c-0.022-0.174-0.116-0.313-0.268-0.4c-3.961-2.296-7.081-4.342-10.643-6.974
	c-0.141-0.104-0.306-0.135-0.475-0.088c-0.168,0.047-0.294,0.159-0.361,0.321c-0.939,2.294,0.479,5.465,3.436,7.403
	C23.437,35.45,26.911,35.486,28.639,33.708L28.639,33.708z M4.459,32.584c1.112-2.215,4.436-3.228,7.842-2.27
	c3.403,0.958,5.711,3.556,5.505,6.025c-0.015,0.175-0.102,0.319-0.247,0.414c-0.147,0.096-0.314,0.117-0.479,0.061
	c-4.189-1.438-7.781-2.448-12.248-3.447c-0.171-0.038-0.303-0.144-0.377-0.301C4.379,32.908,4.382,32.741,4.459,32.584L4.459,32.584
	z M2.589,23.287c-0.109,0.138-0.146,0.302-0.104,0.473s0.148,0.299,0.308,0.372c4.106,1.859,7.368,3.556,11.116,5.784
	c0.152,0.089,0.32,0.103,0.482,0.039c0.164-0.065,0.277-0.188,0.328-0.357c0.687-2.342-1.019-5.308-4.107-6.915
	C7.52,21.074,4.112,21.38,2.589,23.287L2.589,23.287z M13.558,9.734c-0.1-0.145-0.246-0.228-0.421-0.237
	c-0.174-0.01-0.329,0.055-0.445,0.186c-3.021,3.439-5.634,6.104-8.908,9.086c-0.129,0.118-0.191,0.274-0.177,0.449
	s0.099,0.32,0.244,0.416c2.067,1.367,5.453,0.591,7.93-1.933C14.256,15.176,14.966,11.774,13.558,9.734L13.558,9.734z M26.603,8.194
	c0.023,0.173-0.031,0.332-0.154,0.457c-0.123,0.124-0.282,0.179-0.456,0.158c-4.546-0.541-8.27-0.778-12.697-0.813
	c-0.176-0.001-0.326-0.075-0.432-0.215c-0.108-0.14-0.141-0.303-0.097-0.473c0.626-2.399,3.665-4.084,7.193-3.857
	C23.49,3.676,26.289,5.734,26.603,8.194L26.603,8.194z M33.872,20.588c0.148-0.093,0.237-0.234,0.256-0.407
	c0.019-0.175-0.039-0.332-0.165-0.455c-3.292-3.18-5.831-5.916-8.654-9.326c-0.112-0.135-0.266-0.204-0.439-0.198
	c-0.176,0.005-0.324,0.083-0.428,0.225c-1.464,2.001-0.849,5.42,1.557,8.012C28.403,21.03,31.767,21.899,33.872,20.588
	L33.872,20.588z M27.33,29.388c0.172-0.034,0.305-0.136,0.384-0.294c0.077-0.155,0.079-0.324,0.003-0.481
	c-1.977-4.129-3.401-7.578-4.857-11.761c-0.058-0.165-0.176-0.283-0.343-0.339c-0.165-0.057-0.332-0.035-0.479,0.062
	c-2.069,1.364-2.686,4.783-1.337,8.052C22.052,27.895,24.901,29.882,27.33,29.388z"/>
</svg>
