<?xml version="1.0" encoding="iso-8859-1"?>
<!-- Generator: Adobe Illustrator 16.0.2, SVG Export Plug-In . SVG Version: 6.00 Build 0)  -->
<!DOCTYPE svg PUBLIC "-//W3C//DTD SVG 1.1//EN" "http://www.w3.org/Graphics/SVG/1.1/DTD/svg11.dtd">
<svg version="1.1" id="co_x5F_food_x5F_3" xmlns="http://www.w3.org/2000/svg" xmlns:xlink="http://www.w3.org/1999/xlink" x="0px"
	 y="0px" width="40px" height="40px" viewBox="0 0 40 40" style="enable-background:new 0 0 40 40;" xml:space="preserve">
<path fill="#0D47A1" style="fill-rule:evenodd;clip-rule:evenodd;" d="M33.5,7.001c0,0-0.5,0.027-0.5,0.443v22.114c0,0.242,0.197,0.44,0.44,0.44
	l0.06,0.002c0.829,0,1.5,0.671,1.5,1.5c0,0.828-0.671,1.5-1.5,1.5h-25c-0.829,0-1.5-0.672-1.5-1.5c0-0.829,0.671-1.5,1.5-1.5
	l0.065-0.002c0.243,0,0.44-0.198,0.44-0.44V7.444c0-0.415-0.505-0.443-0.505-0.443c-0.829,0-1.5-0.672-1.5-1.5
	c0-0.829,0.671-1.5,1.5-1.5h25c0.829,0,1.5,0.671,1.5,1.5C35,6.329,34.329,7.001,33.5,7.001z M30,13.662
	c0-0.363-0.296-0.66-0.66-0.66H12.665c-0.363,0-0.66,0.297-0.66,0.66v9.678c0,0.364,0.297,0.66,0.66,0.66H29.34
	c0.364,0,0.66-0.296,0.66-0.66V13.662z"/>
</svg>
