<?xml version="1.0" encoding="iso-8859-1"?>
<!-- Generator: Adobe Illustrator 16.0.2, SVG Export Plug-In . SVG Version: 6.00 Build 0)  -->
<!DOCTYPE svg PUBLIC "-//W3C//DTD SVG 1.1//EN" "http://www.w3.org/Graphics/SVG/1.1/DTD/svg11.dtd">
<svg version="1.1" id="co_x5F_food_x5F_3" xmlns="http://www.w3.org/2000/svg" xmlns:xlink="http://www.w3.org/1999/xlink" x="0px"
	 y="0px" width="40px" height="40px" viewBox="0 0 40 40" style="enable-background:new 0 0 40 40;" xml:space="preserve">
<path fill="#0D47A1" style="fill-rule:evenodd;clip-rule:evenodd;" d="M33.5,7.001h-0.509v22.558c0,0.242,0.198,0.439,0.439,0.439h0.56
	c0.004,0,0.008,0.003,0.012,0.003H33.5c0.829,0,1.5,0.671,1.5,1.5c0,0.828-0.671,1.5-1.5,1.5h-25c-0.829,0-1.5-0.672-1.5-1.5
	c0-0.829,0.671-1.5,1.5-1.5c0,0,0.496-0.025,0.496-0.442V7.001H8.5c-0.829,0-1.5-0.672-1.5-1.5c0-0.829,0.671-1.5,1.5-1.5h25
	c0.829,0,1.5,0.671,1.5,1.5C35,6.329,34.329,7.001,33.5,7.001z M12.436,29.998h17.115c0.243,0,0.44-0.197,0.44-0.439l0-10.118
	c0-0.242-0.197-0.439-0.44-0.439l-3.658,0.001c0-2.761-2.196-4.999-4.904-4.999c-2.708,0-4.904,2.238-4.904,4.999l-3.649-0.001
	c-0.243,0-0.44,0.197-0.44,0.439v10.118C11.996,29.801,12.193,29.998,12.436,29.998z M20.99,23.999
	c-2.708,0-4.904-2.237-4.904-4.997h9.808C25.894,21.762,23.698,23.999,20.99,23.999z"/>
</svg>
