<?xml version="1.0" encoding="iso-8859-1"?>
<!-- Generator: Adobe Illustrator 16.0.2, SVG Export Plug-In . SVG Version: 6.00 Build 0)  -->
<!DOCTYPE svg PUBLIC "-//W3C//DTD SVG 1.1//EN" "http://www.w3.org/Graphics/SVG/1.1/DTD/svg11.dtd">
<svg version="1.1" id="co_x5F_food_x5F_2" xmlns="http://www.w3.org/2000/svg" xmlns:xlink="http://www.w3.org/1999/xlink" x="0px"
	 y="0px" width="40px" height="40px" viewBox="0 0 40 40" style="enable-background:new 0 0 40 40;" xml:space="preserve">
<path fill="#0D47A1" style="fill-rule:evenodd;clip-rule:evenodd;" d="M36.236,22.998c-0.467,0.944-1.035,1.886-1.701,2.808
	c-0.617,0.857-1.313,1.684-2.072,2.461c-0.047,0.055-0.096,0.109-0.148,0.161l-0.006,0.006c-2.377,2.376-5.148,4.041-7.918,4.928
	c-0.615,0.24-1.258,0.424-1.924,0.55c-0.773,0.146-1.58,0.207-2.406,0.194c-0.826,0.013-1.633-0.049-2.406-0.194
	c-0.666-0.126-1.307-0.308-1.922-0.55c-2.77-0.886-5.543-2.552-7.92-4.928l-0.006-0.006c-0.053-0.052-0.102-0.106-0.148-0.163
	c-0.764-0.777-1.455-1.602-2.074-2.459c-0.664-0.922-1.232-1.863-1.701-2.808C1.277,17.742,1.518,12.071,5.01,8.578l0.004-0.004
	c0.059-0.059,0.119-0.113,0.182-0.166c2.479-2.354,5.965-3.14,9.629-2.498c1.729,0.304,3.51,0.934,5.236,1.871
	c1.727-0.938,3.508-1.567,5.238-1.871c3.662-0.642,7.148,0.144,9.627,2.499c0.063,0.052,0.125,0.106,0.182,0.165l0.004,0.004
	C38.604,12.071,38.844,17.742,36.236,22.998z M13.891,11.258c-1.977-0.346-3.77-0.021-4.934,1.048
	c-0.033,0.037-0.068,0.073-0.102,0.109L8.85,12.419c-1.756,1.758-1.689,4.989-0.107,8.182c0.271,0.544,0.582,1.08,0.932,1.604
	c0.029-0.261,0.068-0.52,0.113-0.782c0.588-3.355,2.404-6.902,5.314-9.874l0.002-0.001C14.695,11.425,14.289,11.327,13.891,11.258z
	 M21.164,15.353c-0.047-0.039-0.092-0.082-0.135-0.126l-0.008-0.005l-0.006-0.007l0.006-0.005c-0.313-0.313-0.635-0.609-0.961-0.887
	c-0.326,0.277-0.648,0.573-0.961,0.887l0.006,0.005L19.1,15.222l-0.006,0.005c-0.045,0.044-0.088,0.084-0.135,0.124
	c-2.111,2.161-3.418,4.674-3.824,7.005c-0.357,2.039,0,3.88,1.15,5.04l0.006-0.007l0.006,0.005l0.002,0.004
	c0.037,0.037,0.072,0.073,0.107,0.113c0.275,0.253,0.584,0.465,0.918,0.633c0.148,0.075,0.301,0.141,0.459,0.2
	c0.783,0.219,1.547,0.337,2.277,0.352c0.73-0.014,1.496-0.133,2.279-0.352c0.158-0.06,0.309-0.125,0.457-0.2
	c0.334-0.168,0.641-0.38,0.918-0.633c0.035-0.038,0.068-0.076,0.107-0.113l0.002-0.004l0.006-0.005l0.006,0.007
	c1.152-1.16,1.508-3.001,1.15-5.04C24.58,20.024,23.273,17.515,21.164,15.353z M31.271,12.419l-0.004-0.004
	c-0.037-0.036-0.072-0.072-0.105-0.11c-1.164-1.068-2.953-1.393-4.93-1.047c-0.4,0.07-0.807,0.168-1.215,0.29
	c2.912,2.971,4.729,6.519,5.316,9.874c0.047,0.263,0.084,0.521,0.115,0.782c0.35-0.523,0.658-1.06,0.928-1.604
	C32.959,17.408,33.027,14.177,31.271,12.419z"/>
</svg>
