<?xml version="1.0" encoding="iso-8859-1"?>
<!-- Generator: Adobe Illustrator 16.0.2, SVG Export Plug-In . SVG Version: 6.00 Build 0)  -->
<!DOCTYPE svg PUBLIC "-//W3C//DTD SVG 1.1//EN" "http://www.w3.org/Graphics/SVG/1.1/DTD/svg11.dtd">
<svg version="1.1" id="co_x5F_food_x5F_1" xmlns="http://www.w3.org/2000/svg" xmlns:xlink="http://www.w3.org/1999/xlink" x="0px"
	 y="0px" width="40px" height="40px" viewBox="0 0 40 40" style="enable-background:new 0 0 40 40;" xml:space="preserve">
<path fill="#0D47A1" style="fill-rule:evenodd;clip-rule:evenodd;" d="M31.209,12.819c0.617,0.03,1.297,0.254,1.902,0.476
	c9.465,3.459,4.125,22.045-6.16,22.258c-1.732,0.121,1.205-2.466,1.781-4.465c0.307-1.069,0.059-2.104-0.93-1.311
	s-1.814,2.765-3.652,4.437c-0.393,0.357-0.977,1.289-2.291,1.498c-1.031,0.177-0.266,0.188-0.273-1.377
	c-0.004-1.084,0.014-4.219-1.143-3.293s-0.992,2.32-1.553,3.495c-0.496,1.037-0.734,1.251-1.169,1.235
	c-0.409,0.021-1.001-0.658-1.33-1.101c-7.087-6.48-8.813-14.793-5.057-21.203c1.325-2.263,4.603-2.678,6.701-2.017
	c0.803,0.253,0.961,0.92,1.26,1.655c0.459,1.145,0.066,3.528,1.184,3.553c1.117,0.022,0.813-2.747,0.863-4.053
	c0.025-0.643,0.113-0.895,0.785-1.129c2.35-0.819,5.26-0.096,6.668,2.601c0.973,1.864,0.477,5.747,1.883,5.966
	s0.732-3.559,0.492-5.271C31.029,13.767,29.605,12.74,31.209,12.819L31.209,12.819z M18.132,4.058
	c-1.055,1.895-0.884,3.75-0.025,5.858c1.034,0.448,3.29,0.067,3.76-0.192c-0.762-1.74-0.943-3.16,0.01-5.005
	C22.738,3.057,19.199,2.063,18.132,4.058z M13.335,35.555c1.85-0.007,0.444-0.834-0.148-1.521
	c-4.318-4.141-7.851-12.035-4.206-19.88c0.403-1.322,0.47-1.487-0.785-1.27c-0.647,0.113-1.283,0.345-1.697,0.541
	C-2.498,17.712,3.065,35.597,13.335,35.555z"/>
</svg>
