<?xml version="1.0" encoding="iso-8859-1"?>
<!-- Generator: Adobe Illustrator 16.0.2, SVG Export Plug-In . SVG Version: 6.00 Build 0)  -->
<!DOCTYPE svg PUBLIC "-//W3C//DTD SVG 1.1//EN" "http://www.w3.org/Graphics/SVG/1.1/DTD/svg11.dtd">
<svg version="1.1" id="co_x5F_food_x5F_1" xmlns="http://www.w3.org/2000/svg" xmlns:xlink="http://www.w3.org/1999/xlink" x="0px"
	 y="0px" width="40px" height="40px" viewBox="0 0 40 40" style="enable-background:new 0 0 40 40;" xml:space="preserve">
<path fill="#0D47A1" style="fill-rule:evenodd;clip-rule:evenodd;" d="M19.496,13.858c9.541-2.653,13.527,1.79,13.527,7.487
	c0,3.792-3.111,7.171-7.29,8.9c-0.857,0.354-2.022,0.748-2.782,1.62c-0.755,0.865,0.867,1.169,0.383,2.662
	c-0.87,2.689-6.264,0.532-4.098,3.27c-1.483-0.509-2.761-2.861-0.692-3.311c2.876-0.623-5.693-3.814-6.39-4.191
	c-3.906-2.11-6.185-5.122-6.185-8.95C5.968,15.649,11.233,11.087,19.496,13.858L19.496,13.858z M13.055,4.551
	c-0.692,0.566,0.244,2.858,2.091,5.117c3.333,4.077,5.845,4.115,9.126-0.097c1.795-2.302,2.678-4.613,1.973-5.164
	c-0.705-0.55-2.732,0.871-4.526,3.173c-0.119,0.152-0.234,0.305-0.345,0.458C21.377,7.893,21.38,7.746,21.38,7.6
	c0-2.931-0.727-5.308-1.622-5.308c-0.893,0-1.619,2.377-1.619,5.308c0,0.222,0.004,0.44,0.013,0.656
	c-0.157-0.213-0.324-0.426-0.498-0.639C15.807,5.357,13.749,3.984,13.055,4.551z"/>
</svg>
