<?xml version="1.0" encoding="iso-8859-1"?>
<!-- Generator: Adobe Illustrator 16.0.2, SVG Export Plug-In . SVG Version: 6.00 Build 0)  -->
<!DOCTYPE svg PUBLIC "-//W3C//DTD SVG 1.1//EN" "http://www.w3.org/Graphics/SVG/1.1/DTD/svg11.dtd">
<svg version="1.1" id="co_x5F_food_x5F_1" xmlns="http://www.w3.org/2000/svg" xmlns:xlink="http://www.w3.org/1999/xlink" x="0px"
	 y="0px" width="40px" height="40px" viewBox="0 0 40 40" style="enable-background:new 0 0 40 40;" xml:space="preserve">
<path fill="#0D47A1" style="fill-rule:evenodd;clip-rule:evenodd;" d="M32.5,21.724c0,1.012-0.563,1.893-1.392,2.347
	c0.497,0.622,0.793,1.411,0.793,2.267c0,1.521-0.931,2.824-2.253,3.371c0.144,0.359,0.223,0.75,0.223,1.161
	c0,1.652-1.283,3.006-2.906,3.119c-0.136,1.518-1.411,2.707-2.963,2.707c-0.551,0-1.066-0.151-1.509-0.412
	c-0.416,1.003-1.403,1.709-2.556,1.709c-1.176,0-2.181-0.736-2.581-1.771c-0.465,0.3-1.018,0.475-1.612,0.475
	c-1.552,0-2.827-1.189-2.963-2.707c-1.624-0.113-2.906-1.467-2.906-3.12c0-0.429,0.087-0.835,0.243-1.207
	c-1.264-0.572-2.144-1.846-2.144-3.324c0-0.856,0.297-1.645,0.793-2.267c-0.829-0.454-1.392-1.334-1.392-2.347
	c0-1.232,0.835-2.269,1.971-2.578c-0.232-0.372-0.368-0.813-0.368-1.284c0-1.341,1.088-2.43,2.43-2.43
	c0.412,0,0.801,0.104,1.141,0.285c0.149-1.198,1.171-2.128,2.41-2.128c1.07,0,1.979,0.691,2.303,1.652
	c0.638-0.768,1.599-1.258,2.674-1.258s2.037,0.49,2.675,1.259c0.324-0.96,1.233-1.653,2.303-1.653c1.239,0,2.261,0.93,2.41,2.128
	c0.34-0.182,0.729-0.285,1.141-0.285c1.341,0,2.429,1.089,2.429,2.43c0,0.472-0.135,0.913-0.368,1.285
	C31.664,19.455,32.5,20.491,32.5,21.724z M11.347,23.581c0,1.097,0.889,1.985,1.985,1.985s1.985-0.889,1.985-1.985
	c0-1.096-0.889-1.984-1.985-1.984S11.347,22.485,11.347,23.581z M14.601,17.059c-0.727,0-1.316,0.589-1.316,1.315
	s0.589,1.316,1.316,1.316c0.727,0,1.316-0.59,1.316-1.316S15.328,17.059,14.601,17.059z M14.519,27.728
	c-0.943,0-1.707,0.765-1.707,1.707s0.764,1.707,1.707,1.707s1.707-0.765,1.707-1.707S15.461,27.728,14.519,27.728z M19.956,34.079
	c0.943,0,1.707-0.764,1.707-1.707c0-0.942-0.764-1.707-1.707-1.707s-1.707,0.765-1.707,1.707
	C18.249,33.315,19.013,34.079,19.956,34.079z M19.957,17.886c-1.096,0-1.985,0.889-1.985,1.985c0,1.096,0.889,1.984,1.985,1.984
	s1.985-0.889,1.985-1.984C21.941,18.774,21.053,17.886,19.957,17.886z M19.957,23.826c-1.267,0-2.293,1.026-2.293,2.293
	s1.026,2.293,2.293,2.293s2.293-1.026,2.293-2.293S21.224,23.826,19.957,23.826z M23.687,29.435c0,0.942,0.764,1.707,1.707,1.707
	s1.707-0.765,1.707-1.707s-0.764-1.707-1.707-1.707S23.687,28.492,23.687,29.435z M25.497,17.059c-0.727,0-1.316,0.589-1.316,1.315
	s0.589,1.316,1.316,1.316s1.316-0.59,1.316-1.316S26.224,17.059,25.497,17.059z M26.519,21.597c-1.096,0-1.985,0.889-1.985,1.984
	c0,1.097,0.889,1.985,1.985,1.985s1.985-0.889,1.985-1.985C28.504,22.485,27.615,21.597,26.519,21.597z M24.179,11.661
	c-1.495,0.863-3.007,1.276-4.076,1.197c-0.035,0.004-0.067,0.023-0.103,0.023c-0.03,0-0.058-0.018-0.088-0.02
	c-1.065,0.057-2.546-0.355-4.01-1.201c-2.368-1.367-3.79-3.34-3.174-4.406c0.585-1.014,2.803-0.829,5.057,0.367
	C17.859,5.034,18.817,2.979,20,2.979c1.189,0,2.152,2.077,2.216,4.685c2.281-1.234,4.544-1.434,5.136-0.408
	C27.969,8.321,26.547,10.294,24.179,11.661z"/>
</svg>
