<?xml version="1.0" encoding="iso-8859-1"?>
<!-- Generator: Adobe Illustrator 16.0.2, SVG Export Plug-In . SVG Version: 6.00 Build 0)  -->
<!DOCTYPE svg PUBLIC "-//W3C//DTD SVG 1.1//EN" "http://www.w3.org/Graphics/SVG/1.1/DTD/svg11.dtd">
<svg version="1.1" id="co_x5F_finance" xmlns="http://www.w3.org/2000/svg" xmlns:xlink="http://www.w3.org/1999/xlink" x="0px"
	 y="0px" width="40px" height="40px" viewBox="0 0 40 40" style="enable-background:new 0 0 40 40;" xml:space="preserve">
<path fill="#0D47A1" style="fill-rule:evenodd;clip-rule:evenodd;" d="M36.986,15.006c0,1.177-0.746,1.993-1.992,1.993
	c-1.211,0-7.855-0.003-7.855-0.003c-1.095,0-1.989-0.895-1.989-1.989s0.896-1.989,1.989-1.989h3.054l-6.449-6.449
	c-0.773-0.774-0.773-2.04,0-2.813c0.773-0.772,2.039-0.772,2.813,0l6.449,6.449V7.15c0-1.093,0.896-1.989,1.989-1.989
	c1.474,0,2.018,1.364,2.018,1.989C37.012,7.15,36.986,12.379,36.986,15.006z M22.478,36.829c-0.166,0.1-0.359,0.157-0.566,0.157
	h-3.799c-0.606,0-1.101-0.494-1.101-1.1V19.19c0-1.212,0.988-2.2,2.2-2.2h1.599c0.666,0,1.263,0.297,1.667,0.767
	c0.331,0.385,0.533,0.886,0.533,1.433v16.696C23.011,36.285,22.797,36.635,22.478,36.829z M14.912,36.986h-3.799
	c-0.605,0-1.1-0.494-1.1-1.1V12.192c0-1.212,0.987-2.2,2.199-2.2h1.6c1.211,0,2.199,0.988,2.199,2.2v23.694
	C16.012,36.492,15.518,36.986,14.912,36.986z M7.914,36.986H4.115c-0.605,0-1.1-0.494-1.1-1.1V5.193c0-1.211,0.988-2.2,2.2-2.2
	h1.599c1.211,0,2.199,0.989,2.199,2.2v30.693C9.014,36.492,8.52,36.986,7.914,36.986z M26.21,23.989h1.6
	c1.212,0,2.199,0.989,2.199,2.2v9.702c0,0.606-0.494,1.101-1.1,1.101H25.11c-0.606,0-1.101-0.494-1.101-1.1v-9.703
	C24.01,24.978,24.998,23.989,26.21,23.989z M33.209,30.988h1.599c1.212,0,2.2,0.988,2.2,2.199v2.699c0,0.605-0.494,1.1-1.101,1.1
	h-3.798c-0.606,0-1.101-0.494-1.101-1.1v-2.699C31.009,31.976,31.997,30.988,33.209,30.988z"/>
</svg>
