<?xml version="1.0" encoding="iso-8859-1"?>
<!-- Generator: Adobe Illustrator 16.0.2, SVG Export Plug-In . SVG Version: 6.00 Build 0)  -->
<!DOCTYPE svg PUBLIC "-//W3C//DTD SVG 1.1//EN" "http://www.w3.org/Graphics/SVG/1.1/DTD/svg11.dtd">
<svg version="1.1" id="co_x5F_food_x5F_2" xmlns="http://www.w3.org/2000/svg" xmlns:xlink="http://www.w3.org/1999/xlink" x="0px"
	 y="0px" width="40px" height="40px" viewBox="0 0 40 40" style="enable-background:new 0 0 40 40;" xml:space="preserve">
<path fill="#0D47A1" style="fill-rule:evenodd;clip-rule:evenodd;" d="M3.953,3.976C4.93,2.999,6.197,2.683,6.781,3.268
	c0.586,0.587,0.27,1.853-0.705,2.828C5.1,7.071,3.832,7.389,3.248,6.803C2.662,6.217,2.977,4.951,3.953,3.976L3.953,3.976z
	 M33.947,33.904c0.977-0.976,2.242-1.293,2.828-0.707c0.584,0.585,0.27,1.853-0.707,2.828s-2.242,1.293-2.828,0.706
	C32.656,36.146,32.971,34.88,33.947,33.904L33.947,33.904z M27.949,33.904c0.975-0.976,2.242-1.293,2.826-0.707
	c0.588,0.585,0.27,1.853-0.705,2.828c-0.977,0.976-2.244,1.293-2.828,0.706C26.656,36.146,26.973,34.88,27.949,33.904L27.949,33.904
	z M21.951,33.904c0.975-0.976,2.24-1.293,2.826-0.707c0.586,0.585,0.27,1.853-0.707,2.828s-2.24,1.293-2.828,0.706
	C20.658,36.146,20.975,34.88,21.951,33.904L21.951,33.904z M15.951,33.904c0.977-0.976,2.242-1.293,2.828-0.707
	c0.586,0.585,0.27,1.853-0.707,2.828s-2.242,1.293-2.828,0.706C14.658,36.146,14.975,34.88,15.951,33.904L15.951,33.904z
	 M9.953,33.904c0.975-0.976,2.242-1.293,2.828-0.707c0.584,0.585,0.268,1.853-0.709,2.828c-0.975,0.976-2.24,1.293-2.826,0.706
	C8.66,36.146,8.977,34.88,9.953,33.904L9.953,33.904z M3.953,33.904c0.977-0.976,2.244-1.293,2.828-0.707
	c0.586,0.585,0.27,1.853-0.705,2.828c-0.977,0.976-2.244,1.293-2.828,0.706C2.662,36.146,2.977,34.88,3.953,33.904L3.953,33.904z
	 M33.947,27.97c0.977-0.976,2.242-1.293,2.828-0.707c0.584,0.586,0.27,1.853-0.707,2.827c-0.977,0.977-2.242,1.293-2.828,0.708
	C32.656,30.212,32.971,28.946,33.947,27.97L33.947,27.97z M33.947,21.971c0.977-0.976,2.242-1.292,2.828-0.706
	c0.584,0.585,0.27,1.852-0.707,2.827c-0.977,0.977-2.242,1.292-2.828,0.707C32.656,24.214,32.971,22.947,33.947,21.971
	L33.947,21.971z M33.947,15.973c0.977-0.976,2.242-1.292,2.828-0.707c0.584,0.585,0.27,1.852-0.707,2.828
	c-0.977,0.976-2.242,1.292-2.828,0.706C32.656,18.215,32.971,16.948,33.947,15.973L33.947,15.973z M33.947,9.975
	c0.977-0.977,2.242-1.293,2.828-0.708c0.584,0.587,0.27,1.852-0.707,2.828c-0.977,0.976-2.242,1.293-2.828,0.706
	C32.656,12.216,32.971,10.949,33.947,9.975L33.947,9.975z M27.949,27.97c0.975-0.976,2.242-1.293,2.826-0.707
	c0.588,0.586,0.27,1.853-0.705,2.827c-0.977,0.977-2.244,1.293-2.828,0.708C26.656,30.212,26.973,28.946,27.949,27.97L27.949,27.97z
	 M27.949,21.971c0.975-0.976,2.242-1.292,2.826-0.706c0.588,0.585,0.27,1.852-0.705,2.827c-0.977,0.977-2.244,1.292-2.828,0.707
	C26.656,24.214,26.973,22.947,27.949,21.971L27.949,21.971z M27.949,15.973c0.975-0.976,2.242-1.292,2.826-0.707
	c0.588,0.585,0.27,1.852-0.705,2.828c-0.977,0.976-2.244,1.292-2.828,0.706C26.656,18.215,26.973,16.948,27.949,15.973
	L27.949,15.973z M27.949,9.975c0.975-0.977,2.242-1.293,2.826-0.708c0.588,0.587,0.27,1.852-0.705,2.828
	c-0.977,0.976-2.244,1.293-2.828,0.706C26.656,12.216,26.973,10.949,27.949,9.975L27.949,9.975z M21.951,27.97
	c0.975-0.976,2.24-1.293,2.826-0.707s0.27,1.853-0.707,2.827c-0.977,0.977-2.24,1.293-2.828,0.708
	C20.658,30.212,20.975,28.946,21.951,27.97L21.951,27.97z M21.951,21.971c0.975-0.976,2.24-1.292,2.826-0.706
	c0.586,0.585,0.27,1.852-0.707,2.827c-0.977,0.977-2.24,1.292-2.828,0.707C20.658,24.214,20.975,22.947,21.951,21.971L21.951,21.971
	z M21.951,15.973c0.975-0.976,2.24-1.292,2.826-0.707s0.27,1.852-0.707,2.828c-0.977,0.976-2.24,1.292-2.828,0.706
	C20.658,18.215,20.975,16.948,21.951,15.973L21.951,15.973z M21.951,9.975c0.975-0.977,2.24-1.293,2.826-0.708
	c0.586,0.587,0.27,1.852-0.707,2.828c-0.977,0.976-2.24,1.293-2.828,0.706C20.658,12.216,20.975,10.949,21.951,9.975L21.951,9.975z
	 M15.951,27.97c0.977-0.976,2.242-1.293,2.828-0.707s0.27,1.853-0.707,2.827c-0.977,0.977-2.242,1.293-2.828,0.708
	C14.658,30.212,14.975,28.946,15.951,27.97L15.951,27.97z M15.951,21.971c0.977-0.976,2.242-1.292,2.828-0.706
	c0.586,0.585,0.27,1.852-0.707,2.827c-0.977,0.977-2.242,1.292-2.828,0.707S14.975,22.947,15.951,21.971L15.951,21.971z
	 M15.951,15.973c0.977-0.976,2.242-1.292,2.828-0.707s0.27,1.852-0.707,2.828c-0.977,0.976-2.242,1.292-2.828,0.706
	C14.658,18.215,14.975,16.948,15.951,15.973L15.951,15.973z M15.951,9.975c0.977-0.977,2.242-1.293,2.828-0.708
	c0.586,0.587,0.27,1.852-0.707,2.828c-0.977,0.976-2.242,1.293-2.828,0.706C14.658,12.216,14.975,10.949,15.951,9.975L15.951,9.975z
	 M9.953,27.97c0.975-0.976,2.242-1.293,2.828-0.707c0.584,0.586,0.268,1.853-0.709,2.827c-0.975,0.977-2.24,1.293-2.826,0.708
	C8.66,30.212,8.977,28.946,9.953,27.97L9.953,27.97z M9.953,21.971c0.975-0.976,2.242-1.292,2.828-0.706
	c0.584,0.585,0.268,1.852-0.709,2.827c-0.975,0.977-2.24,1.292-2.826,0.707S8.977,22.947,9.953,21.971L9.953,21.971z M9.953,15.973
	c0.975-0.976,2.242-1.292,2.828-0.707c0.584,0.585,0.268,1.852-0.709,2.828c-0.975,0.976-2.24,1.292-2.826,0.706
	C8.66,18.215,8.977,16.948,9.953,15.973L9.953,15.973z M9.953,9.975c0.975-0.977,2.242-1.293,2.828-0.708
	c0.584,0.587,0.268,1.852-0.709,2.828c-0.975,0.976-2.24,1.293-2.826,0.706C8.66,12.216,8.977,10.949,9.953,9.975L9.953,9.975z
	 M3.953,27.97c0.977-0.976,2.244-1.293,2.828-0.707c0.586,0.586,0.27,1.853-0.705,2.827c-0.977,0.977-2.244,1.293-2.828,0.708
	C2.662,30.212,2.977,28.946,3.953,27.97L3.953,27.97z M3.953,21.971c0.977-0.976,2.244-1.292,2.828-0.706
	c0.586,0.585,0.27,1.852-0.705,2.827c-0.977,0.977-2.244,1.292-2.828,0.707C2.662,24.214,2.977,22.947,3.953,21.971L3.953,21.971z
	 M3.953,15.973c0.977-0.976,2.244-1.292,2.828-0.707c0.586,0.585,0.27,1.852-0.705,2.828C5.1,19.069,3.832,19.386,3.248,18.8
	C2.662,18.215,2.977,16.948,3.953,15.973L3.953,15.973z M3.953,9.975C4.93,8.998,6.197,8.682,6.781,9.267
	c0.586,0.587,0.27,1.852-0.705,2.828C5.1,13.07,3.832,13.388,3.248,12.801C2.662,12.216,2.977,10.949,3.953,9.975L3.953,9.975z
	 M33.947,3.976c0.977-0.977,2.242-1.293,2.828-0.708c0.584,0.587,0.27,1.853-0.707,2.828s-2.242,1.293-2.828,0.707
	C32.656,6.217,32.971,4.951,33.947,3.976L33.947,3.976z M27.949,3.976c0.975-0.977,2.242-1.293,2.826-0.708
	c0.588,0.587,0.27,1.853-0.705,2.828c-0.977,0.976-2.244,1.293-2.828,0.707C26.656,6.217,26.973,4.951,27.949,3.976L27.949,3.976z
	 M21.951,3.976c0.975-0.977,2.24-1.293,2.826-0.708c0.586,0.587,0.27,1.853-0.707,2.828s-2.24,1.293-2.828,0.707
	C20.658,6.217,20.975,4.951,21.951,3.976L21.951,3.976z M15.951,3.976c0.977-0.977,2.242-1.293,2.828-0.708
	c0.586,0.587,0.27,1.853-0.707,2.828s-2.242,1.293-2.828,0.707S14.975,4.951,15.951,3.976L15.951,3.976z M9.953,3.976
	c0.975-0.977,2.242-1.293,2.828-0.708c0.584,0.587,0.268,1.853-0.709,2.828c-0.975,0.976-2.24,1.293-2.826,0.707
	S8.977,4.951,9.953,3.976z"/>
</svg>
