<?xml version="1.0" encoding="iso-8859-1"?>
<!-- Generator: Adobe Illustrator 16.0.2, SVG Export Plug-In . SVG Version: 6.00 Build 0)  -->
<!DOCTYPE svg PUBLIC "-//W3C//DTD SVG 1.1//EN" "http://www.w3.org/Graphics/SVG/1.1/DTD/svg11.dtd">
<svg version="1.1" id="co_x5F_food_x5F_2" xmlns="http://www.w3.org/2000/svg" xmlns:xlink="http://www.w3.org/1999/xlink" x="0px"
	 y="0px" width="40px" height="40px" viewBox="0 0 40 40" style="enable-background:new 0 0 40 40;" xml:space="preserve">
<path fill="#0D47A1" style="fill-rule:evenodd;clip-rule:evenodd;" d="M32.371,19.007h-2.139c-2.354,0-4.277-2.248-4.277-4.998
	c0-2.749,1.924-4.999,4.277-4.999h2.514c2.354,0,4.277,2.25,4.277,4.999C37.023,16.759,34.725,19.007,32.371,19.007z M32.455,10.369
	h-1.932c-1.707,0-3.105,1.638-3.105,3.64s1.398,3.64,3.105,3.64h1.932c1.709,0,3.105-1.638,3.105-3.64S34.164,10.369,32.455,10.369z
	 M32.199,16.446h-1.42c-1.15,0-2.09-1.097-2.09-2.438s0.939-2.437,2.09-2.437h1.42c1.148,0,2.09,1.096,2.09,2.437
	S33.348,16.446,32.199,16.446z M20.371,31.007h-2.139c-2.354,0-4.277-2.248-4.277-4.998c0-2.749,1.924-4.999,4.277-4.999h2.514
	c2.354,0,4.277,2.25,4.277,4.999C25.023,28.759,22.725,31.007,20.371,31.007z M20.455,22.369h-1.932
	c-1.707,0-3.105,1.638-3.105,3.64s1.398,3.64,3.105,3.64h1.932c1.709,0,3.105-1.638,3.105-3.64S22.164,22.369,20.455,22.369z
	 M20.199,28.446h-1.42c-1.15,0-2.09-1.097-2.09-2.438s0.939-2.438,2.09-2.438h1.42c1.148,0,2.09,1.097,2.09,2.438
	S21.348,28.446,20.199,28.446z M20.371,19.007h-2.139c-2.354,0-4.277-2.248-4.277-4.998c0-2.749,1.924-4.999,4.277-4.999h2.514
	c2.354,0,4.277,2.25,4.277,4.999C25.023,16.759,22.725,19.007,20.371,19.007z M20.455,10.369h-1.932
	c-1.707,0-3.105,1.638-3.105,3.64s1.398,3.64,3.105,3.64h1.932c1.709,0,3.105-1.638,3.105-3.64S22.164,10.369,20.455,10.369z
	 M20.199,16.446h-1.42c-1.15,0-2.09-1.097-2.09-2.438s0.939-2.437,2.09-2.437h1.42c1.148,0,2.09,1.096,2.09,2.437
	S21.348,16.446,20.199,16.446z M8.371,31.007H6.232c-2.354,0-4.277-2.248-4.277-4.998c0-2.749,1.924-4.999,4.277-4.999h2.514
	c2.354,0,4.277,2.25,4.277,4.999C13.023,28.759,10.725,31.007,8.371,31.007z M8.455,22.369H6.523c-1.707,0-3.105,1.638-3.105,3.64
	s1.398,3.64,3.105,3.64h1.932c1.709,0,3.105-1.638,3.105-3.64S10.164,22.369,8.455,22.369z M8.199,28.446h-1.42
	c-1.15,0-2.09-1.097-2.09-2.438s0.939-2.438,2.09-2.438h1.42c1.148,0,2.09,1.097,2.09,2.438S9.348,28.446,8.199,28.446z
	 M8.371,19.007H6.232c-2.354,0-4.277-2.248-4.277-4.998c0-2.749,1.924-4.999,4.277-4.999h2.514c2.354,0,4.277,2.25,4.277,4.999
	C13.023,16.759,10.725,19.007,8.371,19.007z M8.455,10.369H6.523c-1.707,0-3.105,1.638-3.105,3.64s1.398,3.64,3.105,3.64h1.932
	c1.709,0,3.105-1.638,3.105-3.64S10.164,10.369,8.455,10.369z M8.199,16.446h-1.42c-1.15,0-2.09-1.097-2.09-2.438
	s0.939-2.437,2.09-2.437h1.42c1.148,0,2.09,1.096,2.09,2.437S9.348,16.446,8.199,16.446z M30.232,21.01h2.514
	c2.354,0,4.277,2.25,4.277,4.999c0,2.75-2.299,4.998-4.652,4.998h-2.139c-2.354,0-4.277-2.248-4.277-4.998
	C25.955,23.26,27.879,21.01,30.232,21.01z M30.523,29.648h1.932c1.709,0,3.105-1.638,3.105-3.64s-1.396-3.64-3.105-3.64h-1.932
	c-1.707,0-3.105,1.638-3.105,3.64S28.816,29.648,30.523,29.648z M30.779,23.571h1.42c1.148,0,2.09,1.097,2.09,2.438
	s-0.941,2.438-2.09,2.438h-1.42c-1.15,0-2.09-1.097-2.09-2.438S29.629,23.571,30.779,23.571z"/>
</svg>
