<?xml version="1.0" encoding="iso-8859-1"?>
<!-- Generator: Adobe Illustrator 16.0.2, SVG Export Plug-In . SVG Version: 6.00 Build 0)  -->
<!DOCTYPE svg PUBLIC "-//W3C//DTD SVG 1.1//EN" "http://www.w3.org/Graphics/SVG/1.1/DTD/svg11.dtd">
<svg version="1.1" id="co_x5F_food_x5F_2" xmlns="http://www.w3.org/2000/svg" xmlns:xlink="http://www.w3.org/1999/xlink" x="0px"
	 y="0px" width="40px" height="40px" viewBox="0 0 40 40" style="enable-background:new 0 0 40 40;" xml:space="preserve">
<path fill="#0D47A1" d="M7.98,30.617H7.018c-0.648,0-1.176,0.617-1.176,1.37c0,0.754,0.527,1.371,1.176,1.371H7.98c0.645,0,1.174-0.617,1.174-1.371
	C9.154,31.234,8.625,30.617,7.98,30.617z M21.027,14.991h-2.139c-2.352,0-4.277,2.249-4.277,5c0,2.749,1.926,4.998,4.277,4.998
	h2.139c2.354,0,4.279-2.249,4.279-4.998C25.307,17.24,23.381,14.991,21.027,14.991z M20.742,23.654h-1.564
	c-1.723,0-3.131-1.648-3.131-3.663c0-2.017,1.408-3.665,3.131-3.665h1.564c1.719,0,3.127,1.648,3.127,3.665
	C23.869,22.006,22.461,23.654,20.742,23.654z M33.211,17.149h-1.209c-1.326,0-2.412,1.278-2.412,2.842
	c0,1.562,1.086,2.84,2.412,2.84h1.209c1.328,0,2.414-1.278,2.414-2.84C35.625,18.428,34.539,17.149,33.211,17.149z M33.068,22.164
	h-0.924c-1.014,0-1.844-0.978-1.844-2.173c0-1.196,0.83-2.175,1.844-2.175h0.924c1.016,0,1.846,0.979,1.846,2.175
	C34.914,21.187,34.084,22.164,33.068,22.164z M8.754,26.989H6.24c-2.352,0-4.277,2.249-4.277,4.998c0,2.75,1.926,5,4.277,5h2.514
	c2.355,0,4.279-2.25,4.279-5C13.033,29.238,11.109,26.989,8.754,26.989z M8.334,34.952H6.662c-1.424,0-2.59-1.334-2.59-2.965
	c0-1.63,1.166-2.964,2.59-2.964h1.672c1.424,0,2.59,1.334,2.59,2.964C10.924,33.618,9.758,34.952,8.334,34.952z M20.48,17.553
	h-1.045c-1.15,0-2.09,1.097-2.09,2.438c0,1.34,0.939,2.437,2.09,2.437h1.045c1.15,0,2.092-1.097,2.092-2.437
	C22.572,18.649,21.631,17.553,20.48,17.553z M20.266,21.38h-0.613c-0.674,0-1.225-0.625-1.225-1.389c0-0.766,0.551-1.39,1.225-1.39
	h0.613c0.672,0,1.225,0.624,1.225,1.39C21.49,20.755,20.938,21.38,20.266,21.38z M31.537,13.009h2.139
	c2.354,0,4.279-2.249,4.279-4.999c0-2.749-1.926-4.998-4.279-4.998h-2.139c-2.352,0-4.279,2.249-4.279,4.998
	C27.258,10.76,29.186,13.009,31.537,13.009z M31.715,3.824H33.5c1.963,0,3.568,1.884,3.568,4.186c0,2.303-1.605,4.187-3.568,4.187
	h-1.785c-1.963,0-3.57-1.884-3.57-4.187C28.145,5.708,29.752,3.824,31.715,3.824z M33.676,14.991h-2.139
	c-2.352,0-4.279,2.249-4.279,5c0,2.749,1.928,4.998,4.279,4.998h2.139c2.354,0,4.279-2.249,4.279-4.998
	C37.955,17.24,36.029,14.991,33.676,14.991z M33.5,24.177h-1.785c-1.963,0-3.57-1.884-3.57-4.186c0-2.304,1.607-4.187,3.57-4.187
	H33.5c1.963,0,3.568,1.883,3.568,4.187C37.068,22.293,35.463,24.177,33.5,24.177z M20.48,5.573h-1.045
	c-1.15,0-2.09,1.097-2.09,2.437c0,1.341,0.939,2.438,2.09,2.438h1.045c1.15,0,2.092-1.097,2.092-2.438
	C22.572,6.67,21.631,5.573,20.48,5.573z M32.24,9.751h0.734c0.807,0,1.467-0.783,1.467-1.741s-0.66-1.741-1.467-1.741H32.24
	c-0.807,0-1.467,0.783-1.467,1.741S31.434,9.751,32.24,9.751z M31.875,11.453h1.463c1.609,0,2.926-1.55,2.926-3.443
	s-1.316-3.442-2.926-3.442h-1.463c-1.609,0-2.926,1.549-2.926,3.442S30.266,11.453,31.875,11.453z M32.061,5.434h1.094
	c1.201,0,2.188,1.159,2.188,2.576s-0.986,2.577-2.188,2.577h-1.094c-1.203,0-2.188-1.16-2.188-2.577S30.857,5.434,32.061,5.434z
	 M8.416,16.548H6.58c-1.611,0-2.928,1.549-2.928,3.443c0,1.893,1.316,3.442,2.928,3.442h1.836c1.609,0,2.928-1.55,2.928-3.442
	C11.344,18.097,10.025,16.548,8.416,16.548z M8.232,22.566H6.764c-1.203,0-2.188-1.159-2.188-2.575c0-1.418,0.984-2.577,2.188-2.577
	h1.469c1.203,0,2.188,1.159,2.188,2.577C10.42,21.407,9.436,22.566,8.232,22.566z M20.617,28.888h-1.316
	c-1.449,0-2.635,1.395-2.635,3.1c0,1.706,1.186,3.101,2.635,3.101h1.316c1.449,0,2.635-1.395,2.635-3.101
	C23.252,30.282,22.066,28.888,20.617,28.888z M20.396,34.055H19.52c-0.965,0-1.756-0.931-1.756-2.067s0.791-2.066,1.756-2.066h0.877
	c0.967,0,1.756,0.93,1.756,2.066S21.363,34.055,20.396,34.055z M21.027,26.989h-2.139c-2.352,0-4.277,2.249-4.277,4.998
	c0,2.75,1.926,5,4.277,5h2.139c2.354,0,4.279-2.25,4.279-5C25.307,29.238,23.381,26.989,21.027,26.989z M20.797,35.919h-1.676
	c-1.844,0-3.354-1.769-3.354-3.932c0-2.162,1.51-3.931,3.354-3.931h1.676c1.844,0,3.352,1.769,3.352,3.931
	C24.148,34.15,22.641,35.919,20.797,35.919z M32.971,30.261h-0.727c-0.801,0-1.455,0.777-1.455,1.727
	c0,0.95,0.654,1.728,1.455,1.728h0.727c0.801,0,1.455-0.777,1.455-1.728C34.426,31.038,33.771,30.261,32.971,30.261z M32.777,32.797
	h-0.342c-0.373,0-0.68-0.364-0.68-0.81c0-0.444,0.307-0.809,0.68-0.809h0.342c0.375,0,0.682,0.364,0.682,0.809
	C33.459,32.433,33.152,32.797,32.777,32.797z M33.676,26.989h-2.139c-2.352,0-4.279,2.249-4.279,4.998c0,2.75,1.928,5,4.279,5h2.139
	c2.354,0,4.279-2.25,4.279-5C37.955,29.238,36.029,26.989,33.676,26.989z M33.197,34.812h-1.18c-1.297,0-2.357-1.271-2.357-2.824
	s1.061-2.823,2.357-2.823h1.18c1.295,0,2.357,1.271,2.357,2.823S34.492,34.812,33.197,34.812z M21.027,3.012h-2.139
	c-2.352,0-4.277,2.249-4.277,4.998c0,2.75,1.926,4.999,4.277,4.999h2.139c2.354,0,4.279-2.249,4.279-4.999
	C25.307,5.261,23.381,3.012,21.027,3.012z M20.803,11.964h-1.688c-1.857,0-3.377-1.779-3.377-3.954s1.52-3.954,3.377-3.954h1.688
	c1.857,0,3.377,1.779,3.377,3.954S22.66,11.964,20.803,11.964z M8.754,14.991H6.24c-2.352,0-4.277,2.249-4.277,5
	c0,2.749,1.926,4.998,4.277,4.998h2.514c2.355,0,4.279-2.249,4.279-4.998C13.033,17.24,11.109,14.991,8.754,14.991z M8.578,24.177
	h-2.16c-1.963,0-3.568-1.884-3.568-4.186c0-2.304,1.605-4.187,3.568-4.187h2.16c1.963,0,3.568,1.883,3.568,4.187
	C12.146,22.293,10.541,24.177,8.578,24.177z M20.174,30.974h-0.428c-0.471,0-0.855,0.457-0.855,1.014
	c0,0.559,0.385,1.015,0.855,1.015h0.428c0.469,0,0.852-0.456,0.852-1.015C21.025,31.431,20.643,30.974,20.174,30.974z
	 M32.916,18.521h-0.617c-0.684,0-1.238,0.66-1.238,1.47c0,0.808,0.555,1.468,1.238,1.468h0.617c0.682,0,1.236-0.66,1.236-1.468
	C34.152,19.182,33.598,18.521,32.916,18.521z M8.754,3.012H6.24c-2.352,0-4.277,2.249-4.277,4.998c0,2.75,1.926,4.999,4.277,4.999
	h2.514c2.355,0,4.279-2.249,4.279-4.999C13.033,5.261,11.109,3.012,8.754,3.012z M8.172,10.447H6.824
	c-1.07,0-1.943-1.097-1.943-2.438c0-1.34,0.873-2.437,1.943-2.437h1.348c1.068,0,1.945,1.097,1.945,2.437
	C10.117,9.351,9.24,10.447,8.172,10.447z"/>
</svg>
