<?xml version="1.0" encoding="iso-8859-1"?>
<!-- Generator: Adobe Illustrator 16.0.2, SVG Export Plug-In . SVG Version: 6.00 Build 0)  -->
<!DOCTYPE svg PUBLIC "-//W3C//DTD SVG 1.1//EN" "http://www.w3.org/Graphics/SVG/1.1/DTD/svg11.dtd">
<svg version="1.1" id="co_x5F_food_x5F_2" xmlns="http://www.w3.org/2000/svg" xmlns:xlink="http://www.w3.org/1999/xlink" x="0px"
	 y="0px" width="40px" height="40px" viewBox="0 0 40 40" style="enable-background:new 0 0 40 40;" xml:space="preserve">
<path fill="#0D47A1" style="fill-rule:evenodd;clip-rule:evenodd;" d="M34.346,30.979h-5.664c-1.471,0-2.674-1.204-2.674-2.675
	c0-2.046,0-2.606,0-4.634c0-1.472,1.203-2.676,2.674-2.676h5.664c1.471,0,2.674,1.204,2.674,2.676c0,2.027,0,2.588,0,4.634
	C37.02,29.775,35.816,30.979,34.346,30.979z M36.146,23.952c0-1.061-0.803-1.932-1.783-1.932h-5.699
	c-0.98,0-1.781,0.863-1.781,1.926v0.215c0,1.063,0.803,1.932,1.781,1.932h5.699c0.979,0,1.783-0.863,1.783-1.925V23.952z
	 M34.365,25.023h-5.691c-0.424-0.002-0.691-0.536-0.691-0.925v-0.277c0-0.38,0.26-0.807,0.68-0.804h5.691
	c0.424,0.002,0.691,0.444,0.691,0.832v0.341C35.045,24.568,34.785,25.023,34.365,25.023z M34.346,18.979h-5.664
	c-1.471,0-2.674-1.204-2.674-2.675c0-2.046,0-2.606,0-4.634c0-1.472,1.203-2.676,2.674-2.676h5.664c1.471,0,2.674,1.204,2.674,2.676
	c0,2.027,0,2.588,0,4.634C37.02,17.775,35.816,18.979,34.346,18.979z M36.146,11.953c0-1.062-0.803-1.933-1.783-1.933h-5.699
	c-0.98,0-1.781,0.863-1.781,1.926v0.215c0,1.063,0.803,1.932,1.781,1.932h5.699c0.979,0,1.783-0.863,1.783-1.925V11.953z
	 M34.365,13.024h-5.691c-0.424-0.003-0.691-0.537-0.691-0.926v-0.277c0-0.38,0.26-0.807,0.68-0.804h5.691
	c0.424,0.002,0.691,0.444,0.691,0.832v0.341C35.045,12.568,34.785,13.024,34.365,13.024z M22.346,30.979h-5.664
	c-1.471,0-2.674-1.204-2.674-2.675c0-2.046,0-2.606,0-4.634c0-1.472,1.203-2.676,2.674-2.676h5.664c1.471,0,2.674,1.204,2.674,2.676
	c0,2.027,0,2.588,0,4.634C25.02,29.775,23.816,30.979,22.346,30.979z M24.146,23.952c0-1.061-0.803-1.932-1.783-1.932h-5.699
	c-0.98,0-1.781,0.863-1.781,1.926v0.215c0,1.063,0.803,1.932,1.781,1.932h5.699c0.979,0,1.783-0.863,1.783-1.925V23.952z
	 M22.365,25.023h-5.691c-0.426-0.002-0.691-0.536-0.691-0.925v-0.277c0-0.38,0.26-0.807,0.68-0.804h5.691
	c0.424,0.002,0.691,0.444,0.691,0.832v0.341C23.045,24.568,22.785,25.023,22.365,25.023z M22.346,18.979h-5.664
	c-1.471,0-2.674-1.204-2.674-2.675c0-2.046,0-2.606,0-4.634c0-1.472,1.203-2.676,2.674-2.676h5.664c1.471,0,2.674,1.204,2.674,2.676
	c0,2.027,0,2.588,0,4.634C25.02,17.775,23.816,18.979,22.346,18.979z M24.146,11.953c0-1.062-0.803-1.933-1.783-1.933h-5.699
	c-0.98,0-1.781,0.863-1.781,1.926v0.215c0,1.063,0.803,1.932,1.781,1.932h5.699c0.979,0,1.783-0.863,1.783-1.925V11.953z
	 M22.365,13.024h-5.691c-0.426-0.003-0.691-0.537-0.691-0.926v-0.277c0-0.38,0.26-0.807,0.68-0.804h5.691
	c0.424,0.002,0.691,0.444,0.691,0.832v0.341C23.045,12.568,22.785,13.024,22.365,13.024z M10.346,30.979H4.682
	c-1.471,0-2.674-1.204-2.674-2.675c0-2.046,0-2.606,0-4.634c0-1.472,1.203-2.676,2.674-2.676h5.664c1.471,0,2.674,1.204,2.674,2.676
	c0,2.027,0,2.588,0,4.634C13.02,29.775,11.816,30.979,10.346,30.979z M12.146,23.952c0-1.061-0.803-1.932-1.783-1.932H4.664
	c-0.98,0-1.781,0.863-1.781,1.926v0.215c0,1.063,0.803,1.932,1.781,1.932h5.699c0.979,0,1.783-0.863,1.783-1.925V23.952z
	 M10.365,25.023H4.674c-0.426-0.002-0.691-0.536-0.691-0.925v-0.277c0-0.38,0.26-0.807,0.68-0.804h5.691
	c0.424,0.002,0.691,0.444,0.691,0.832v0.341C11.045,24.568,10.785,25.023,10.365,25.023z M10.346,18.979H4.682
	c-1.471,0-2.674-1.204-2.674-2.675c0-2.046,0-2.606,0-4.634c0-1.472,1.203-2.676,2.674-2.676h5.664c1.471,0,2.674,1.204,2.674,2.676
	c0,2.027,0,2.588,0,4.634C13.02,17.775,11.816,18.979,10.346,18.979z M12.146,11.953c0-1.062-0.803-1.933-1.783-1.933H4.664
	c-0.98,0-1.781,0.863-1.781,1.926v0.215c0,1.063,0.803,1.932,1.781,1.932h5.699c0.979,0,1.783-0.863,1.783-1.925V11.953z
	 M10.365,13.024H4.674c-0.426-0.003-0.691-0.537-0.691-0.926v-0.277c0-0.38,0.26-0.807,0.68-0.804h5.691
	c0.424,0.002,0.691,0.444,0.691,0.832v0.341C11.045,12.568,10.785,13.024,10.365,13.024z"/>
</svg>
