<?xml version="1.0" encoding="iso-8859-1"?>
<!-- Generator: Adobe Illustrator 16.0.2, SVG Export Plug-In . SVG Version: 6.00 Build 0)  -->
<!DOCTYPE svg PUBLIC "-//W3C//DTD SVG 1.1//EN" "http://www.w3.org/Graphics/SVG/1.1/DTD/svg11.dtd">
<svg version="1.1" id="co_x5F_finance" xmlns="http://www.w3.org/2000/svg" xmlns:xlink="http://www.w3.org/1999/xlink" x="0px"
	 y="0px" width="40px" height="40px" viewBox="0 0 40 40" style="enable-background:new 0 0 40 40;" xml:space="preserve">
<path fill="#0D47A1" style="fill-rule:evenodd;clip-rule:evenodd;" d="M3.993,19.996h33.993v5.999H1.994c0-6.063,0-12.064,0-18.126
	c0-0.485,0.395-0.88,0.88-0.88h0.239c0.485,0,0.88,0.396,0.88,0.88V19.996L3.993,19.996z M5.873,15.987
	c-0.485,0-0.88,0.396-0.88,0.88v1.239c0,0.484,0.395,0.88,0.88,0.88c3.08,0,6.158,0,9.238,0c0.485,0,0.88-0.396,0.88-0.88V8.988
	h-3.119c-0.485,0-0.88,0.396-0.88,0.88v6.119H5.873L5.873,15.987z M16.99,8.988v9.118c0,0.484,0.396,0.88,0.88,0.88h20.115v-7.798
	c0-1.212-0.988-2.2-2.2-2.2H16.99L16.99,8.988z M7.993,8.988c-1.656,0-3,1.344-3,3s1.343,3,3,3c1.656,0,2.999-1.344,2.999-3
	S9.648,8.988,7.993,8.988L7.993,8.988z M33.986,26.984h4v6.119c0,0.484-0.396,0.88-0.88,0.88h-2.239c-0.485,0-0.88-0.396-0.88-0.88
	L33.986,26.984L33.986,26.984z M1.994,26.984h3.999v6.119c0,0.484-0.395,0.88-0.88,0.88H2.874c-0.485,0-0.88-0.396-0.88-0.88V26.984
	z"/>
</svg>
