<?xml version="1.0" encoding="iso-8859-1"?>
<!-- Generator: Adobe Illustrator 16.0.2, SVG Export Plug-In . SVG Version: 6.00 Build 0)  -->
<!DOCTYPE svg PUBLIC "-//W3C//DTD SVG 1.1//EN" "http://www.w3.org/Graphics/SVG/1.1/DTD/svg11.dtd">
<svg version="1.1" id="co_x5F_navigation" xmlns="http://www.w3.org/2000/svg" xmlns:xlink="http://www.w3.org/1999/xlink" x="0px"
	 y="0px" width="40px" height="40px" viewBox="0 0 40 40" style="enable-background:new 0 0 40 40;" xml:space="preserve">
<path fill="#FFFFFF" style="fill-rule:evenodd;clip-rule:evenodd;" d="M31.441,21.014h-6.573c-0.484,0-0.88-0.395-0.88-0.879v-3.33l-3.015,4.622
	l4.288,2.65c0.47,0.288,0.735,0.762,0.735,1.313v9.458c0,0.968-0.791,1.759-1.76,1.759h-0.455c-0.969,0-1.76-0.791-1.76-1.759
	v-8.252l-4.035-2.332v5.628c0,0.606-0.494,1.1-1.1,1.1H8.558c-0.969,0-1.76-0.79-1.76-1.759v-0.485c0-0.97,0.791-1.76,1.76-1.76
	h5.423v-5.387c0-0.429,0.105-0.797,0.333-1.162l5.223-8.432h-5.052l-1.821,2.941c-0.442,0.724-1.392,0.953-2.116,0.513l-0.014-0.009
	c-0.725-0.442-0.955-1.393-0.512-2.117l2.347-3.843c0.206-0.336,0.545-0.526,0.939-0.526h7.38c0.435,0,0.808,0.108,1.175,0.34
	l1.096,0.73c-0.431-0.629-0.684-1.387-0.684-2.206c0-2.157,1.75-3.907,3.908-3.907c2.158,0,3.908,1.75,3.908,3.907
	c0,2.159-1.75,3.908-3.908,3.908c-0.269,0-0.532-0.028-0.786-0.08l0.563,0.375c0.65,0.41,1.017,1.067,1.024,1.837l0.015,4.103h4.442
	c0.848,0,1.54,0.629,1.54,1.477v0.024C32.981,20.323,32.289,21.014,31.441,21.014z"/>
</svg>
