<?xml version="1.0" encoding="iso-8859-1"?>
<!-- Generator: Adobe Illustrator 16.0.2, SVG Export Plug-In . SVG Version: 6.00 Build 0)  -->
<!DOCTYPE svg PUBLIC "-//W3C//DTD SVG 1.1//EN" "http://www.w3.org/Graphics/SVG/1.1/DTD/svg11.dtd">
<svg version="1.1" id="co_x5F_navigation" xmlns="http://www.w3.org/2000/svg" xmlns:xlink="http://www.w3.org/1999/xlink" x="0px"
	 y="0px" width="40px" height="40px" viewBox="0 0 40 40" style="enable-background:new 0 0 40 40;" xml:space="preserve">
<path fill="#0D47A1" style="fill-rule:evenodd;clip-rule:evenodd;" d="M32.194,11.247c-0.29,0-0.57-0.037-0.842-0.096
	c0.899,0.674,1.162,1.932,0.563,2.906l-1.907,3.097l2.871,1.815c0.727,0.436,0.964,1.383,0.529,2.11L33.4,21.092
	c-0.218,0.364-0.535,0.6-0.947,0.703c-0.412,0.103-0.803,0.045-1.167-0.173l-2.901-1.835l-1.498,2.432l4.491,2.749
	c0.403,0.247,0.63,0.653,0.63,1.126v9.092c0,0.969-0.791,1.759-1.76,1.759h-0.486c-0.969,0-1.76-0.791-1.76-1.759v-7.793
	l-5.177-3.124l-3.558,5.116c-0.251,0.385-0.646,0.601-1.106,0.601h-6.474c-0.969,0-1.76-0.791-1.76-1.76v-0.455
	c0-0.969,0.791-1.759,1.76-1.759h5.194c2.922-4.488,6.22-9.438,9.032-14.004h-4.907v3.509c0,1.505-1.564,1.541-1.564,1.541
	c-0.848,0-1.446-0.692-1.446-1.541v-5.199c0-0.728,0.592-1.32,1.32-1.32h7.946c0.428,0,0.795,0.104,1.159,0.33l0.748,0.459
	c-0.544-0.671-0.884-1.516-0.884-2.448c0-2.158,1.75-3.907,3.909-3.907c2.158,0,3.908,1.75,3.908,3.907
	C36.103,9.497,34.352,11.247,32.194,11.247z M13.141,20.881c-0.403,0.704-1.099,1.108-1.91,1.108H5.404
	c-0.25,0-0.465,0.05-0.688,0.163l-2.037,1.018c-0.088,0.044-0.19,0.026-0.258-0.045c-0.067-0.072-0.08-0.175-0.031-0.261
	l2.174-3.749c0.402-0.704,1.099-1.108,1.91-1.108H12.3c0.25,0,0.464-0.05,0.688-0.162l2.037-1.019
	c0.088-0.043,0.19-0.025,0.258,0.046s0.08,0.175,0.031,0.26L13.141,20.881z M10.66,14.878c-0.402,0.704-1.098,1.108-1.91,1.108
	H4.393c-0.25,0-0.465,0.051-0.688,0.163L2.679,16.66c-0.088,0.045-0.19,0.026-0.258-0.045c-0.068-0.072-0.08-0.175-0.031-0.261
	l1.006-1.76c0.402-0.704,1.504-1.607,2.316-1.607h4.358c0.25,0,0.464-0.051,0.688-0.163l1.025-0.513
	c0.088-0.043,0.19-0.025,0.258,0.046c0.068,0.071,0.081,0.175,0.032,0.261L10.66,14.878z M5.559,25h1.238
	c0.25,0,0.464-0.05,0.688-0.162l1.247-0.623c0.088-0.045,0.19-0.026,0.258,0.045c0.068,0.072,0.081,0.174,0.031,0.26L7.7,26.889
	c-0.402,0.704-1.099,1.107-1.91,1.107H4.552c-0.25,0-0.464,0.051-0.688,0.162l-1.248,0.624c-0.088,0.043-0.19,0.025-0.258-0.046
	c-0.068-0.072-0.08-0.175-0.031-0.261l1.322-2.367C4.051,25.404,4.748,25,5.559,25z M5.593,31.993h6.158
	c0.25,0,0.465-0.052,0.689-0.163l1.625-0.812c0.088-0.045,0.19-0.026,0.258,0.045c0.068,0.072,0.081,0.175,0.032,0.26l-1.387,2.559
	c-0.402,0.704-1.099,1.108-1.91,1.108H4.898c-0.25,0-0.464,0.051-0.688,0.162l-1.625,0.813c-0.088,0.044-0.19,0.026-0.258-0.046
	c-0.067-0.071-0.08-0.175-0.031-0.26l1.387-2.56C4.085,32.397,4.782,31.993,5.593,31.993z"/>
</svg>
