<?xml version="1.0" encoding="iso-8859-1"?>
<!-- Generator: Adobe Illustrator 16.0.2, SVG Export Plug-In . SVG Version: 6.00 Build 0)  -->
<!DOCTYPE svg PUBLIC "-//W3C//DTD SVG 1.1//EN" "http://www.w3.org/Graphics/SVG/1.1/DTD/svg11.dtd">
<svg version="1.1" id="co_x5F_food_x5F_3" xmlns="http://www.w3.org/2000/svg" xmlns:xlink="http://www.w3.org/1999/xlink" x="0px"
	 y="0px" width="40px" height="40px" viewBox="0 0 40 40" style="enable-background:new 0 0 40 40;" xml:space="preserve">
<path fill="#0D47A1" d="M10.511,12.979h20.995c0.824,0,1.5-0.674,1.5-1.499s-0.676-1.5-1.5-1.5h-0.702c-0.933-4.549-4.98-7.998-9.796-7.998
	c-4.814,0-8.862,3.449-9.794,7.998h-0.703c-0.824,0-1.499,0.675-1.499,1.5S9.687,12.979,10.511,12.979z M24.892,9.566
	c0,0.798-0.646,1.443-1.444,1.443s-1.444-0.646-1.444-1.443s0.646-1.444,1.444-1.444S24.892,8.769,24.892,9.566z M21.029,3.921
	c0.798,0,1.444,0.646,1.444,1.444c0,0.797-0.646,1.444-1.444,1.444c-0.797,0-1.443-0.647-1.443-1.444
	C19.586,4.567,20.232,3.921,21.029,3.921z M18.613,8.122c0.798,0,1.444,0.646,1.444,1.444s-0.646,1.443-1.444,1.443
	c-0.798,0-1.444-0.646-1.444-1.443S17.814,8.122,18.613,8.122z M30.292,24.4c-3.094-1.109-6.188-3.422-9.284-3.422
	c-3.095,0-6.188,2.313-9.283,3.422c-0.249,0.09-0.412,0.303-0.435,0.566l-0.716,8.871c0.006-0.066-0.083,0.145,0.219,0.145h20.43
	c0.301,0,0.216-0.305,0.22-0.238l-0.716-8.777C30.705,24.704,30.542,24.49,30.292,24.4z M35.608,33.21l-1.267-15.164
	c-0.191-2.288-2.089-4.035-4.384-4.035H12.06c-2.294,0-4.193,1.747-4.385,4.035L6.409,33.21c-0.214,2.563,1.811,4.765,4.384,4.765
	h20.43C33.8,37.975,35.819,35.773,35.608,33.21z M31.224,34.989h-20.43c-0.772,0-1.38-0.66-1.315-1.43l1.266-15.353
	c0.058-0.69,0.622-1.21,1.315-1.21h17.898c0.693,0,1.257,0.52,1.315,1.21l1.266,15.353C32.602,34.329,31.998,34.989,31.224,34.989z"
	/>
</svg>
