<?xml version="1.0" encoding="iso-8859-1"?>
<!-- Generator: Adobe Illustrator 16.0.2, SVG Export Plug-In . SVG Version: 6.00 Build 0)  -->
<!DOCTYPE svg PUBLIC "-//W3C//DTD SVG 1.1//EN" "http://www.w3.org/Graphics/SVG/1.1/DTD/svg11.dtd">
<svg version="1.1" id="co_x5F_food_x5F_2" xmlns="http://www.w3.org/2000/svg" xmlns:xlink="http://www.w3.org/1999/xlink" x="0px"
	 y="0px" width="40px" height="40px" viewBox="0 0 40 40" style="enable-background:new 0 0 40 40;" xml:space="preserve">
<path fill="#0D47A1" style="fill-rule:evenodd;clip-rule:evenodd;" d="M19.96,1.994c9.938,0,17.996,8.059,17.996,17.997
	c0,9.937-8.059,17.995-17.996,17.995c-9.937,0-17.996-8.059-17.996-17.995C1.964,10.053,10.023,1.994,19.96,1.994L19.96,1.994z
	 M12.962,7.464c-0.844,0-1.529,0.685-1.529,1.529c0,0.844,0.685,1.528,1.529,1.528s1.529-0.685,1.529-1.528
	C14.491,8.148,13.806,7.464,12.962,7.464L12.962,7.464z M9.003,25.989c-0.574,0-1.04,0.466-1.04,1.04s0.466,1.04,1.04,1.04
	c0.575,0,1.041-0.466,1.041-1.04S9.578,25.989,9.003,25.989L9.003,25.989z M13.928,30.544c-0.844,0-1.529,0.684-1.529,1.528
	s0.685,1.529,1.529,1.529s1.529-0.685,1.529-1.529S14.772,30.544,13.928,30.544L13.928,30.544z M34.548,18.352
	c-0.844,0-1.529,0.685-1.529,1.528c0,0.845,0.685,1.529,1.529,1.529s1.529-0.685,1.529-1.529
	C36.077,19.036,35.392,18.352,34.548,18.352L34.548,18.352z M24.488,19.932c-0.844,0-1.529,0.685-1.529,1.529
	c0,0.844,0.685,1.528,1.529,1.528s1.529-0.685,1.529-1.528C26.018,20.616,25.333,19.932,24.488,19.932L24.488,19.932z M7.003,14.991
	c-1.082,0-1.959,0.878-1.959,1.959c0,1.082,0.877,1.959,1.959,1.959s1.959-0.877,1.959-1.959
	C8.962,15.869,8.085,14.991,7.003,14.991L7.003,14.991z M20.919,31.987c-1.082,0-1.959,0.878-1.959,1.96
	c0,1.081,0.877,1.959,1.959,1.959s1.959-0.878,1.959-1.959C22.878,32.865,22.001,31.987,20.919,31.987L20.919,31.987z M29.58,12.059
	c-1.082,0-1.959,0.878-1.959,1.959s0.877,1.959,1.959,1.959s1.959-0.878,1.959-1.959S30.662,12.059,29.58,12.059L29.58,12.059z
	 M29.888,26.332c-1.082,0-1.959,0.878-1.959,1.959c0,1.082,0.877,1.96,1.959,1.96c1.081,0,1.959-0.878,1.959-1.96
	C31.847,27.21,30.969,26.332,29.888,26.332L29.888,26.332z M14.921,21.99c-1.082,0-1.959,0.878-1.959,1.959s0.877,1.959,1.959,1.959
	c1.082,0,1.959-0.878,1.959-1.959S16.002,21.99,14.921,21.99L14.921,21.99z M19.785,4.993c-0.618,0-1.119,0.502-1.119,1.119
	c0,0.618,0.501,1.119,1.119,1.119c0.618,0,1.119-0.501,1.119-1.119C20.904,5.495,20.403,4.993,19.785,4.993L19.785,4.993z
	 M25.999,6.993c-0.574,0-1.04,0.466-1.04,1.041c0,0.573,0.466,1.04,1.04,1.04c0.575,0,1.041-0.467,1.041-1.04
	C27.04,7.459,26.574,6.993,25.999,6.993L25.999,6.993z M19.431,11.503c-1.082,0-1.959,0.878-1.959,1.96
	c0,1.081,0.877,1.959,1.959,1.959c1.082,0,1.959-0.878,1.959-1.959C21.39,12.381,20.513,11.503,19.431,11.503z"/>
</svg>
