<?xml version="1.0" encoding="iso-8859-1"?>
<!-- Generator: Adobe Illustrator 16.0.2, SVG Export Plug-In . SVG Version: 6.00 Build 0)  -->
<!DOCTYPE svg PUBLIC "-//W3C//DTD SVG 1.1//EN" "http://www.w3.org/Graphics/SVG/1.1/DTD/svg11.dtd">
<svg version="1.1" id="co_x5F_food_x5F_2" xmlns="http://www.w3.org/2000/svg" xmlns:xlink="http://www.w3.org/1999/xlink" x="0px"
	 y="0px" width="40px" height="40px" viewBox="0 0 40 40" style="enable-background:new 0 0 40 40;" xml:space="preserve">
<path fill="#0D47A1" style="fill-rule:evenodd;clip-rule:evenodd;" d="M4.622,23.778C4.255,24.325,4.708,26.73,2.8,24.454
	c-1.89-2.257,0.347-1.486,0.973-1.736c-1.506-2.368-0.424-4.574,0.941-5.805c0.244-0.22,0.54-0.313,0.865-0.275
	c0.326,0.039,0.54,0.242,0.778,0.469c1.837,1.765,3.198,3.899,4.294,6.241c0.132,0.282,0.235,0.542,0.171,0.847
	c-0.062,0.305-0.229,0.543-0.491,0.709c-1.676,1.055-4.144,0.443-5.62-1.034L4.622,23.778L4.622,23.778z M35.536,23.882
	c0.272,0.688-0.035,2.727,1.77,0.572c1.806-2.156-0.154-1.548-0.88-1.708c1.088-1.942,0.596-4.386-0.996-5.938
	c-0.241-0.234-0.541-0.34-0.876-0.307c-0.334,0.033-0.561,0.233-0.799,0.471c-1.763,1.768-3.103,3.853-4.205,6.114
	c-0.14,0.284-0.237,0.553-0.169,0.861c0.068,0.31,0.244,0.55,0.518,0.711C31.451,25.571,33.821,25.512,35.536,23.882L35.536,23.882z
	 M12.506,13.509c-1.034-2.173-6.51,0.484-5.578,2.667c1.178,2.751,2.83,4.974,4.747,6.898c1.029,1.032,3.163-0.056,3-1.47
	C14.338,18.674,13.667,15.945,12.506,13.509L12.506,13.509z M19.583,12.216c0.467,2.78,0.439,5.605,0,8.468
	c-0.25,1.632-3.535,1.894-4.092,0.464c-0.965-2.478-1.748-5.088-2.137-7.978C13.041,10.844,19.204,9.964,19.583,12.216
	L19.583,12.216z M26.674,12.956c-0.261,2.884-0.97,5.655-2.22,8.292c-0.68,1.431-3.654,1.038-3.871-0.538
	c-0.387-2.806-0.438-5.611,0-8.417C20.932,10.054,26.885,10.624,26.674,12.956L26.674,12.956z M33.269,15.916
	c-1.139,2.673-2.771,4.985-4.815,6.998c-1.021,1.006-3.211,0.016-3.027-1.433c0.357-2.795,1.052-5.478,2.15-8.026
	C28.479,11.361,34.217,13.688,33.269,15.916z"/>
</svg>
