<?xml version="1.0" encoding="iso-8859-1"?>
<!-- Generator: Adobe Illustrator 16.0.2, SVG Export Plug-In . SVG Version: 6.00 Build 0)  -->
<!DOCTYPE svg PUBLIC "-//W3C//DTD SVG 1.1//EN" "http://www.w3.org/Graphics/SVG/1.1/DTD/svg11.dtd">
<svg version="1.1" id="co_x5F_food_x5F_2" xmlns="http://www.w3.org/2000/svg" xmlns:xlink="http://www.w3.org/1999/xlink" x="0px"
	 y="0px" width="40px" height="40px" viewBox="0 0 40 40" style="enable-background:new 0 0 40 40;" xml:space="preserve">
<path fill="#0D47A1" style="fill-rule:evenodd;clip-rule:evenodd;" d="M8.501,15.991l24.007,0.031c1.736-0.002,3.187,1.284,3.449,2.949
	c0.048-0.021,0.095-0.047,0.138-0.077c0.543-0.383,1.923-2.448,1.906,0.65c-0.018,3.1-1.356,1.038-1.961,0.679
	c-0.033-0.021-0.068-0.038-0.103-0.055c-0.309,1.611-1.733,2.837-3.43,2.839L8.501,22.977c-1.726,0.003-3.169-1.269-3.445-2.919
	c-0.079,0.026-0.155,0.061-0.227,0.104c-0.605,0.358-1.943,2.421-1.961-0.679c-0.017-3.099,1.362-1.034,1.906-0.65
	c0.082,0.058,0.175,0.099,0.273,0.129C5.302,17.286,6.757,15.993,8.501,15.991z"/>
</svg>
