<?xml version="1.0" encoding="iso-8859-1"?>
<!-- Generator: Adobe Illustrator 16.0.2, SVG Export Plug-In . SVG Version: 6.00 Build 0)  -->
<!DOCTYPE svg PUBLIC "-//W3C//DTD SVG 1.1//EN" "http://www.w3.org/Graphics/SVG/1.1/DTD/svg11.dtd">
<svg version="1.1" id="co_x5F_food_x5F_2" xmlns="http://www.w3.org/2000/svg" xmlns:xlink="http://www.w3.org/1999/xlink" x="0px"
	 y="0px" width="40px" height="40px" viewBox="0 0 40 40" style="enable-background:new 0 0 40 40;" xml:space="preserve">
<path fill="#0D47A1" style="fill-rule:evenodd;clip-rule:evenodd;" d="M4.564,24.929c-0.368,0.545,0.086,2.953-1.822,0.676
	c-1.975-2.357,0.554-1.411,1.046-1.776c-0.883-1.746-0.595-3.934,0.864-5.393l0.002-0.002c0.096-0.097,0.196-0.187,0.298-0.272
	c0.426-0.403,0.885-0.788,1.375-1.151c0.581-0.43,1.209-0.833,1.879-1.205c3.197-1.774,7.411-2.864,11.951-2.864h0.005v0.019
	c3.122,0,6.052,0.494,8.574,1.354c0.365,0.124,0.787,0.285,1.261,0.479c2.205,0.903,4.103,2.115,5.555,3.549
	c1.519,1.493,1.792,3.774,0.811,5.552c0.72,0.165,2.698-0.451,0.885,1.711c-1.805,2.154-1.496,0.115-1.769-0.573
	c-1.807,1.704-4.653,1.688-6.438-0.068c-0.605-0.598-1.485-1.14-2.572-1.585c-0.165-0.068-0.404-0.156-0.717-0.263
	c-1.64-0.56-3.55-0.881-5.589-0.881v0.018h-0.005c-2.97,0-5.582,0.634-7.44,1.665c-0.312,0.173-0.6,0.357-0.861,0.55
	c-0.159,0.118-0.305,0.239-0.438,0.36c-0.058,0.064-0.118,0.129-0.18,0.19l-0.002,0.002c-1.818,1.818-4.766,1.818-6.584,0
	C4.622,24.989,4.593,24.959,4.564,24.929z"/>
</svg>
