<?xml version="1.0" encoding="iso-8859-1"?>
<!-- Generator: Adobe Illustrator 16.0.2, SVG Export Plug-In . SVG Version: 6.00 Build 0)  -->
<!DOCTYPE svg PUBLIC "-//W3C//DTD SVG 1.1//EN" "http://www.w3.org/Graphics/SVG/1.1/DTD/svg11.dtd">
<svg version="1.1" id="co_x5F_food_x5F_2" xmlns="http://www.w3.org/2000/svg" xmlns:xlink="http://www.w3.org/1999/xlink" x="0px"
	 y="0px" width="40px" height="40px" viewBox="0 0 40 40" style="enable-background:new 0 0 40 40;" xml:space="preserve">
<path fill="#0D47A1" style="fill-rule:evenodd;clip-rule:evenodd;" d="M30.925,26.989c-3.864,0-6.999-3.134-6.999-6.998
	c0-3.865,3.134-6.999,6.999-6.999c3.865,0,6.999,3.134,6.999,6.999C37.923,23.855,34.79,26.989,30.925,26.989z M31.298,26.18
	c0.42,0,0.762-0.341,0.762-0.762s-0.341-0.762-0.762-0.762c-0.421,0-0.762,0.341-0.762,0.762S30.877,26.18,31.298,26.18z
	 M27.886,17.046c-0.421,0-0.762,0.342-0.762,0.762c0,0.421,0.341,0.762,0.762,0.762c0.42,0,0.762-0.341,0.762-0.762
	C28.648,17.388,28.307,17.046,27.886,17.046z M27.965,21.768c-0.421,0-0.762,0.342-0.762,0.762c0,0.421,0.341,0.763,0.762,0.763
	c0.42,0,0.761-0.342,0.761-0.763C28.727,22.109,28.386,21.768,27.965,21.768z M30.719,14.689c-0.42,0-0.762,0.342-0.762,0.762
	c0,0.421,0.342,0.763,0.762,0.763c0.421,0,0.762-0.342,0.762-0.763C31.481,15.031,31.14,14.689,30.719,14.689z M31.666,18.906
	c-0.421,0-0.762,0.341-0.762,0.762s0.341,0.762,0.762,0.762s0.762-0.341,0.762-0.762S32.087,18.906,31.666,18.906z M34.786,23.98
	c0.42,0,0.762-0.341,0.762-0.762s-0.341-0.762-0.762-0.762c-0.421,0-0.762,0.341-0.762,0.762S34.365,23.98,34.786,23.98z
	 M34.886,17.046c-0.421,0-0.762,0.342-0.762,0.762c0,0.421,0.341,0.762,0.762,0.762c0.42,0,0.762-0.341,0.762-0.762
	C35.648,17.388,35.307,17.046,34.886,17.046z M25.262,26.989H9.016c-3.849,0-6.999-3.149-6.999-6.998
	c0-3.85,3.149-6.999,6.999-6.999h16.246c-2.518,1.32-4.235,3.959-4.235,6.999C21.027,23.03,22.745,25.669,25.262,26.989z"/>
</svg>
