<?xml version="1.0" encoding="iso-8859-1"?>
<!-- Generator: Adobe Illustrator 16.0.2, SVG Export Plug-In . SVG Version: 6.00 Build 0)  -->
<!DOCTYPE svg PUBLIC "-//W3C//DTD SVG 1.1//EN" "http://www.w3.org/Graphics/SVG/1.1/DTD/svg11.dtd">
<svg version="1.1" id="co_x5F_basic" xmlns="http://www.w3.org/2000/svg" xmlns:xlink="http://www.w3.org/1999/xlink" x="0px"
	 y="0px" width="40px" height="40px" viewBox="0 0 40 40" style="enable-background:new 0 0 40 40;" xml:space="preserve">
<path fill="#0D47A1" style="fill-rule:evenodd;clip-rule:evenodd;" d="M31.481,3.017c3.028,0,5.499,2.471,5.499,5.5v8.997
	c0,3.028-2.471,5.499-5.499,5.499l-17.892,0l-1.668,3.02c0.583,0.547,1.045,1.223,1.339,1.981h7.947
	c0.781-2.012,2.736-3.439,5.024-3.439c2.976,0,5.389,2.412,5.389,5.388c0,2.975-2.413,5.388-5.389,5.388
	c-2.249,0-4.176-1.379-4.982-3.337h-8.03c-0.808,1.958-2.734,3.337-4.983,3.337c-2.975,0-5.388-2.413-5.388-5.388
	c0-2.944,2.363-5.338,5.296-5.387l1.841-3.319V7.015h-4.07c-1.061,0-1.928-0.899-1.928-2l0,0c0-1.1,0.867-1.999,1.928-1.999H31.481z
	 M8.237,28.462c-0.828,0-1.5,0.672-1.5,1.5c0,0.828,0.671,1.499,1.5,1.499s1.5-0.671,1.5-1.499
	C9.736,29.134,9.065,28.462,8.237,28.462L8.237,28.462z M26.232,28.462c-0.828,0-1.5,0.672-1.5,1.5s0.672,1.5,1.5,1.5
	s1.5-0.671,1.5-1.5S27.061,28.462,26.232,28.462L26.232,28.462z M28.981,7.015c-0.55,0-0.999,0.451-0.999,1v3
	c0,0.549,0.449,1,0.999,1h3c0.55,0,1-0.45,1-1v-3c0-0.549-0.45-1-1-1H28.981L28.981,7.015z M14.985,14.014c-0.55,0-1,0.45-1,0.999v3
	c0,0.55,0.45,1,1,1h3c0.55,0,1-0.45,1-1v-3c0-0.549-0.45-0.999-1-0.999H14.985L14.985,14.014z M14.985,7.015c-0.55,0-1,0.451-1,1v3
	c0,0.549,0.45,1,1,1h3c0.55,0,1-0.45,1-1v-3c0-0.549-0.45-1-1-1H14.985L14.985,7.015z M21.983,14.014
	c-0.55,0-0.999,0.45-0.999,0.999v3c0,0.55,0.449,1,0.999,1h3c0.55,0,0.999-0.45,0.999-1v-3c0-0.549-0.449-0.999-0.999-0.999H21.983
	L21.983,14.014z M21.983,7.015c-0.55,0-0.999,0.451-0.999,1v3c0,0.549,0.449,1,0.999,1h3c0.55,0,0.999-0.45,0.999-1v-3
	c0-0.549-0.449-1-0.999-1H21.983L21.983,7.015z M28.981,14.014c-0.55,0-0.999,0.45-0.999,0.999v3c0,0.55,0.449,1,0.999,1h3
	c0.55,0,1-0.45,1-1v-3c0-0.549-0.45-0.999-1-0.999H28.981z"/>
</svg>
