<?xml version="1.0" encoding="iso-8859-1"?>
<!-- Generator: Adobe Illustrator 16.0.2, SVG Export Plug-In . SVG Version: 6.00 Build 0)  -->
<!DOCTYPE svg PUBLIC "-//W3C//DTD SVG 1.1//EN" "http://www.w3.org/Graphics/SVG/1.1/DTD/svg11.dtd">
<svg version="1.1" id="co_x5F_finance" xmlns="http://www.w3.org/2000/svg" xmlns:xlink="http://www.w3.org/1999/xlink" x="0px"
	 y="0px" width="40px" height="40px" viewBox="0 0 40 40" style="enable-background:new 0 0 40 40;" xml:space="preserve">
<path fill="#0D47A1" style="fill-rule:evenodd;clip-rule:evenodd;" d="M5.198,15.018h1.599c1.212,0,2.2,0.988,2.2,2.201v18.66
	c0,0.605-0.494,1.1-1.1,1.1H4.098c-0.606,0-1.1-0.494-1.1-1.1v-18.66C2.998,16.006,3.986,15.018,5.198,15.018L5.198,15.018z
	 M33.191,7.02h1.599c1.212,0,2.2,0.988,2.2,2.2v26.694c0,0.605-0.495,1.099-1.1,1.099h-3.799c-0.606,0-1.1-0.494-1.1-1.099V9.22
	C30.992,8.008,31.98,7.02,33.191,7.02L33.191,7.02z M26.193,18.018h1.6c1.211,0,2.2,0.988,2.2,2.2v15.661c0,0.605-0.494,1.1-1.1,1.1
	h-3.799c-0.605,0-1.1-0.494-1.1-1.1V20.218C23.993,19.006,24.981,18.018,26.193,18.018L26.193,18.018z M19.194,11.019h1.6
	c1.211,0,2.2,0.988,2.2,2.2v22.66c0,0.605-0.494,1.1-1.1,1.1h-3.799c-0.606,0-1.1-0.494-1.1-1.1v-22.66
	C16.995,12.007,17.983,11.019,19.194,11.019L19.194,11.019z M12.196,3.021h1.599c1.211,0,2.2,0.987,2.2,2.199v30.693
	c0,0.605-0.494,1.099-1.1,1.099h-3.799c-0.605,0-1.1-0.494-1.1-1.099V5.221C9.997,4.009,10.985,3.021,12.196,3.021z"/>
</svg>
