<?xml version="1.0" encoding="iso-8859-1"?>
<!-- Generator: Adobe Illustrator 16.0.2, SVG Export Plug-In . SVG Version: 6.00 Build 0)  -->
<!DOCTYPE svg PUBLIC "-//W3C//DTD SVG 1.1//EN" "http://www.w3.org/Graphics/SVG/1.1/DTD/svg11.dtd">
<svg version="1.1" id="co_x5F_food_x5F_2" xmlns="http://www.w3.org/2000/svg" xmlns:xlink="http://www.w3.org/1999/xlink" x="0px"
	 y="0px" width="40px" height="40px" viewBox="0 0 40 40" style="enable-background:new 0 0 40 40;" xml:space="preserve">
<path fill="#0D47A1" style="fill-rule:evenodd;clip-rule:evenodd;" d="M23.967,3.879c5.855,0,10.207,2.134,12.683,5.718
	c3.028,4.382-0.114,6.197-0.114,9.992c0,3.796,3.142,5.611,0.114,9.993c-2.476,3.583-6.827,5.718-12.683,5.718
	c-10.41,0-21.994-8.379-21.994-15.711C1.973,12.258,13.557,3.879,23.967,3.879L23.967,3.879z M9.523,19.589
	c0,0.792,10.416,1.741,14.437,1.827c0.616,0.014,1.131,0.422,1.285,1.019c1.077,4.176,4.255,6.508,4.159,5.086
	c-0.11-1.62-1.375-5.24-1.375-7.932c0-2.689,1.265-6.311,1.375-7.932c0.096-1.411-3.078,0.898-4.157,5.078
	c-0.155,0.602-0.68,1.012-1.301,1.018C18.115,17.807,9.523,18.761,9.523,19.589L9.523,19.589z M23.967,6.959
	c-2.429,0-4.893,0.536-7.165,1.378c-3.106,1.151-6.224,3.017-8.571,5.369c-1.444,1.449-3.179,3.729-3.179,5.883
	c0,2.155,1.734,4.434,3.179,5.883c2.347,2.354,5.465,4.218,8.571,5.369c2.272,0.842,4.736,1.379,7.165,1.379
	c3.841,0,7.86-1.076,10.149-4.389c0.566-0.819,0.923-1.49,0.687-2.478c-0.168-0.701-0.476-1.423-0.703-2.112
	c-0.398-1.205-0.645-2.377-0.645-3.652c0-1.274,0.247-2.446,0.645-3.651c0.227-0.689,0.534-1.411,0.702-2.113
	c0.237-0.986-0.12-1.658-0.687-2.478C31.827,8.034,27.808,6.959,23.967,6.959z"/>
</svg>
