<?xml version="1.0" encoding="iso-8859-1"?>
<!-- Generator: Adobe Illustrator 16.0.2, SVG Export Plug-In . SVG Version: 6.00 Build 0)  -->
<!DOCTYPE svg PUBLIC "-//W3C//DTD SVG 1.1//EN" "http://www.w3.org/Graphics/SVG/1.1/DTD/svg11.dtd">
<svg version="1.1" id="co_x5F_food_x5F_2" xmlns="http://www.w3.org/2000/svg" xmlns:xlink="http://www.w3.org/1999/xlink" x="0px"
	 y="0px" width="40px" height="40px" viewBox="0 0 40 40" style="enable-background:new 0 0 40 40;" xml:space="preserve">
<path fill="#0D47A1" style="fill-rule:evenodd;clip-rule:evenodd;" d="M23.939,3.763c5.854,0,10.205,2.134,12.682,5.717
	c3.027,4.382-0.115,6.198-0.115,9.993c0,3.796,3.143,5.611,0.115,9.992c-2.477,3.584-6.828,5.718-12.682,5.718
	c-10.41,0-21.994-8.378-21.994-15.71C1.945,12.142,13.529,3.763,23.939,3.763L23.939,3.763z M7.182,19.473
	c0,0.941,13.424,1.283,18.205,1.387c0.732,0.017,1.342,0.5,1.525,1.21c1.283,4.964,4.012,8.52,3.896,6.829
	c-0.131-1.926-1.633-6.229-1.633-9.426s1.502-7.5,1.633-9.426c0.115-1.68-2.609,1.851-3.893,6.818
	c-0.186,0.717-0.807,1.202-1.547,1.209C18.438,18.14,7.182,18.488,7.182,19.473z"/>
</svg>
