<?xml version="1.0" encoding="iso-8859-1"?>
<!-- Generator: Adobe Illustrator 16.0.2, SVG Export Plug-In . SVG Version: 6.00 Build 0)  -->
<!DOCTYPE svg PUBLIC "-//W3C//DTD SVG 1.1//EN" "http://www.w3.org/Graphics/SVG/1.1/DTD/svg11.dtd">
<svg version="1.1" id="co_x5F_food_x5F_1" xmlns="http://www.w3.org/2000/svg" xmlns:xlink="http://www.w3.org/1999/xlink" x="0px"
	 y="0px" width="40px" height="40px" viewBox="0 0 40 40" style="enable-background:new 0 0 40 40;" xml:space="preserve">
<path fill="#0D47A1" style="fill-rule:evenodd;clip-rule:evenodd;" d="M20.471,38.002c-4.035,0-12.439-8.725-12.439-15.524
	c0-6.801,3.178-9.106,12.439-9.106c9.264,0,12.441,2.306,12.441,9.106C32.912,29.277,24.506,38.002,20.471,38.002z M23.219,33.484
	c0.66,0,1.193-1.093,1.193-1.91c0-0.816-0.533-1.049-1.193-1.049c-0.658,0-1.193,0.232-1.193,1.049
	C22.025,32.392,22.561,33.484,23.219,33.484z M20.547,29.106c0.674,0,1.219-1.214,1.219-2.122s-0.545-1.166-1.219-1.166
	c-0.672,0-1.217,0.258-1.217,1.166S19.875,29.106,20.547,29.106z M17.816,33.484c0.66,0,1.195-1.093,1.195-1.91
	c0-0.816-0.535-1.049-1.195-1.049c-0.658,0-1.193,0.232-1.193,1.049C16.623,32.392,17.158,33.484,17.816,33.484z M12.742,21.336
	c-0.605,0-1.096,0.231-1.096,1.049s0.49,1.909,1.096,1.909s1.096-1.092,1.096-1.909S13.348,21.336,12.742,21.336z M15.064,16.787
	c-0.605,0-1.096,0.231-1.096,1.049c0,0.816,0.49,1.909,1.096,1.909s1.096-1.093,1.096-1.909
	C16.16,17.019,15.67,16.787,15.064,16.787z M15.064,25.818c-0.674,0-1.219,0.258-1.219,1.165c0,0.909,0.545,2.123,1.219,2.123
	c0.672,0,1.217-1.214,1.217-2.123C16.281,26.076,15.736,25.818,15.064,25.818z M17.816,21.178c-0.732,0-1.326,0.258-1.326,1.165
	c0,0.908,0.594,2.123,1.326,2.123s1.326-1.215,1.326-2.123C19.143,21.436,18.549,21.178,17.816,21.178z M20.441,16.629
	c-0.734,0-1.326,0.258-1.326,1.165c0,0.908,0.592,2.122,1.326,2.122c0.732,0,1.326-1.214,1.326-2.122
	C21.768,16.887,21.174,16.629,20.441,16.629z M23.219,21.178c-0.732,0-1.326,0.258-1.326,1.165c0,0.908,0.594,2.123,1.326,2.123
	s1.326-1.215,1.326-2.123C24.545,21.436,23.951,21.178,23.219,21.178z M25.941,16.787c-0.631,0-1.145,0.231-1.145,1.049
	c0,0.816,0.514,1.909,1.145,1.909c0.633,0,1.145-1.093,1.145-1.909C27.086,17.019,26.574,16.787,25.941,16.787z M25.941,25.818
	c-0.701,0-1.271,0.258-1.271,1.165c0,0.909,0.57,2.123,1.271,2.123c0.703,0,1.271-1.214,1.271-2.123
	C27.213,26.076,26.645,25.818,25.941,25.818z M28.406,21.342c-0.658,0-1.193,0.231-1.193,1.049c0,0.816,0.535,1.91,1.193,1.91
	c0.66,0,1.193-1.094,1.193-1.91C29.6,21.573,29.066,21.342,28.406,21.342z M24.84,10.885c-1.563,0.897-3.145,1.326-4.262,1.244
	c-0.037,0.004-0.07,0.024-0.107,0.024c-0.031,0-0.061-0.018-0.092-0.021c-1.113,0.06-2.662-0.369-4.193-1.248
	c-2.477-1.421-3.963-3.472-3.32-4.579c0.613-1.054,2.932-0.862,5.289,0.381c0.076-2.689,1.078-4.825,2.316-4.825
	c1.244,0,2.25,2.158,2.318,4.868c2.385-1.283,4.752-1.49,5.371-0.424C28.803,7.413,27.318,9.464,24.84,10.885z"/>
</svg>
