<?xml version="1.0" encoding="iso-8859-1"?>
<!-- Generator: Adobe Illustrator 16.0.2, SVG Export Plug-In . SVG Version: 6.00 Build 0)  -->
<!DOCTYPE svg PUBLIC "-//W3C//DTD SVG 1.1//EN" "http://www.w3.org/Graphics/SVG/1.1/DTD/svg11.dtd">
<svg version="1.1" id="co_x5F_food_x5F_2" xmlns="http://www.w3.org/2000/svg" xmlns:xlink="http://www.w3.org/1999/xlink" x="0px"
	 y="0px" width="40px" height="40px" viewBox="0 0 40 40" style="enable-background:new 0 0 40 40;" xml:space="preserve">
<path fill="#0D47A1" style="fill-rule:evenodd;clip-rule:evenodd;" d="M32.486,22.904L32.486,22.904c0,3.908-3.199,7.107-7.107,7.107H13.367
	c-3.126,0-5.799-2.049-6.742-4.869c-0.286-0.856,0.43-1.711,1.322-1.581c0.777,0.113,1.683,0.17,2.74,0.156
	c4.914-0.063,10.457-4.807,16.84-6.978c0.48-0.163,0.984-0.023,1.312,0.363c0.979,1.155,1.821,2.379,3.015,3.369
	C32.066,20.649,32.486,21.138,32.486,22.904z M31.105,11.314c-1.568-0.559-2.901-0.835-4.578-1.222
	c-1.739-0.367-0.812,3.957-1.899,3.706c-1.072-0.246-0.368-4.295-2.355-4.563c-2.639-0.358,0.403,6.163-1.119,6.14
	C19.768,15.354,19.983,9,17.622,9.14c-2.434,0.144,1.513,7.597-0.07,7.831c-1.472,0.216-1.847-7.755-4.415-7.18
	c-2.673,0.663,2.114,8.725,0.564,9.178c-1.695,0.496-2.273-8.606-5.231-7.761c-2.619,0.91,2.364,7.356,0.851,8.236
	c-1.425,0.831-2.974-7.332-4.954-5.834c-1.403,1.108-1.504,1.673-1.342,2.793c0.161,1.111,0.714,5.392,7.539,5.303
	c5.032-0.065,10.726-5.036,17.304-7.128c0.502-0.161,1.026,0.009,1.34,0.434c5.48,7.411,9.241,4.217,5.251-0.354
	C40.479,17.912,38.635,13.149,31.105,11.314z"/>
</svg>
