<?xml version="1.0" encoding="iso-8859-1"?>
<!-- Generator: Adobe Illustrator 16.0.2, SVG Export Plug-In . SVG Version: 6.00 Build 0)  -->
<!DOCTYPE svg PUBLIC "-//W3C//DTD SVG 1.1//EN" "http://www.w3.org/Graphics/SVG/1.1/DTD/svg11.dtd">
<svg version="1.1" id="co_x5F_food_x5F_2" xmlns="http://www.w3.org/2000/svg" xmlns:xlink="http://www.w3.org/1999/xlink" x="0px"
	 y="0px" width="40px" height="40px" viewBox="0 0 40 40" style="enable-background:new 0 0 40 40;" xml:space="preserve">
<path fill="#0D47A1" style="fill-rule:evenodd;clip-rule:evenodd;" d="M34.458,14.658c3.99,4.57,0.229,7.765-5.251,0.354
	c-0.313-0.425-0.837-0.595-1.34-0.434c-6.579,2.092-12.272,7.063-17.304,7.128c-6.825,0.089-7.378-4.191-7.539-5.303
	c-0.162-1.12-0.062-1.685,1.342-2.793c1.979-1.498,3.529,6.665,4.954,5.834c1.513-0.88-3.469-7.326-0.851-8.236
	c2.958-0.846,3.536,8.257,5.231,7.761c1.55-0.453-3.237-8.515-0.564-9.178c2.568-0.575,2.943,7.396,4.415,7.18
	c1.583-0.234-2.364-7.688,0.07-7.831c2.362-0.14,2.146,6.215,3.532,6.235c1.522,0.023-1.52-6.498,1.119-6.14
	c1.987,0.269,1.283,4.317,2.355,4.563c1.088,0.251,0.161-4.073,1.899-3.706c1.677,0.387,3.01,0.663,4.578,1.222
	C38.635,13.149,40.479,17.912,34.458,14.658z M7.483,26.042c0.552,0,1,0.447,1,1c0,0.552-0.448,1-1,1c-0.552,0-1-0.448-1-1
	C6.483,26.489,6.931,26.042,7.483,26.042z M9.022,28.152c0.552,0,1,0.449,1,1c0,0.553-0.447,1-1,1s-1-0.447-1-1
	C8.022,28.602,8.47,28.152,9.022,28.152z M9.061,25.931c-0.552,0-1-0.449-1-1s0.448-0.999,1-0.999s1,0.448,1,0.999
	S9.613,25.931,9.061,25.931z M10.48,26.042c0.552,0,1,0.447,1,1c0,0.552-0.447,1-1,1s-1-0.448-1-1
	C9.48,26.489,9.928,26.042,10.48,26.042z M12.02,28.152c0.552,0,1,0.449,1,1c0,0.553-0.448,1-1,1c-0.552,0-1-0.447-1-1
	C11.02,28.602,11.467,28.152,12.02,28.152z M12.058,25.931c-0.552,0-1-0.449-1-1s0.448-0.999,1-0.999c0.552,0,1,0.448,1,0.999
	S12.61,25.931,12.058,25.931z M13.477,26.042c0.553,0,1,0.447,1,1c0,0.552-0.447,1-1,1c-0.552,0-1-0.448-1-1
	C12.477,26.489,12.925,26.042,13.477,26.042z M15.017,28.152c0.552,0,1,0.449,1,1c0,0.553-0.448,1-1,1c-0.552,0-1-0.447-1-1
	C14.017,28.602,14.465,28.152,15.017,28.152z M16.474,26.042c0.552,0,1,0.447,1,1c0,0.552-0.448,1-1,1c-0.552,0-1-0.448-1-1
	C15.475,26.489,15.922,26.042,16.474,26.042z M18.014,28.152c0.552,0,1,0.449,1,1c0,0.553-0.448,1-1,1c-0.552,0-1-0.447-1-1
	C17.014,28.602,17.462,28.152,18.014,28.152z M19.471,26.042c0.552,0,1,0.447,1,1c0,0.552-0.447,1-1,1s-1-0.448-1-1
	C18.471,26.489,18.919,26.042,19.471,26.042z M21.011,28.152c0.552,0,1,0.449,1,1c0,0.553-0.448,1-1,1c-0.553,0-1-0.447-1-1
	C20.011,28.602,20.458,28.152,21.011,28.152z M22.468,26.042c0.552,0,1,0.447,1,1c0,0.552-0.447,1-1,1c-0.552,0-1-0.448-1-1
	C21.468,26.489,21.917,26.042,22.468,26.042z M24.008,28.152c0.553,0,1,0.449,1,1c0,0.553-0.447,1-1,1c-0.552,0-1-0.447-1-1
	C23.008,28.602,23.456,28.152,24.008,28.152z M25.466,26.042c0.552,0,1,0.447,1,1c0,0.552-0.448,1-1,1c-0.553,0-1-0.448-1-1
	C24.466,26.489,24.913,26.042,25.466,26.042z M27.005,28.152c0.552,0,1,0.449,1,1c0,0.553-0.448,1-1,1c-0.552,0-1-0.447-1-1
	C26.005,28.602,26.453,28.152,27.005,28.152z M28.462,26.042c0.552,0,1,0.447,1,1c0,0.552-0.448,1-1,1s-1-0.448-1-1
	C27.463,26.489,27.91,26.042,28.462,26.042z M30.002,28.152c0.552,0,1,0.449,1,1c0,0.553-0.448,1-1,1c-0.552,0-1-0.447-1-1
	C29.003,28.602,29.45,28.152,30.002,28.152z M31.459,21.82c0.552,0,1,0.447,1,1c0,0.552-0.448,0.999-1,0.999
	c-0.552,0-1-0.447-1-0.999C30.459,22.268,30.908,21.82,31.459,21.82z M30.002,19.709c0.552,0,1,0.448,1,1s-0.448,1-1,1
	c-0.552,0-1-0.448-1-1S29.45,19.709,30.002,19.709z M28.462,17.599c0.552,0,1,0.447,1,0.999c0,0.553-0.448,1.001-1,1.001
	s-1-0.448-1-1.001C27.463,18.046,27.91,17.599,28.462,17.599z M27.005,19.709c0.552,0,1,0.448,1,1s-0.448,1-1,1
	c-0.552,0-1-0.448-1-1S26.453,19.709,27.005,19.709z M25.466,17.599c0.552,0,1,0.447,1,0.999c0,0.553-0.448,1.001-1,1.001
	c-0.553,0-1-0.448-1-1.001C24.466,18.046,24.913,17.599,25.466,17.599z M24.008,19.709c0.553,0,1,0.448,1,1s-0.447,1-1,1
	c-0.552,0-1-0.448-1-1S23.456,19.709,24.008,19.709z M24.046,25.931c-0.552,0-1-0.449-1-1s0.448-0.999,1-0.999
	c0.552,0,1,0.448,1,0.999S24.598,25.931,24.046,25.931z M25.466,23.819c-0.553,0-1-0.447-1-0.999c0-0.553,0.447-1,1-1
	c0.552,0,1,0.447,1,1C26.465,23.372,26.018,23.819,25.466,23.819z M27.043,25.931c-0.552,0-1-0.449-1-1s0.448-0.999,1-0.999
	c0.552,0,1,0.448,1,0.999S27.595,25.931,27.043,25.931z M30.041,23.932c0.552,0,1,0.448,1,0.999s-0.447,1-1,1s-1-0.449-1-1
	S29.488,23.932,30.041,23.932z M28.462,23.819c-0.552,0-1-0.447-1-0.999c0-0.553,0.447-1,1-1s1,0.447,1,1
	C29.462,23.372,29.015,23.819,28.462,23.819z M22.468,21.82c0.552,0,1,0.447,1,1c0,0.552-0.447,0.999-1,0.999
	c-0.552,0-1-0.447-1-0.999C21.468,22.268,21.917,21.82,22.468,21.82z M21.011,19.709c0.552,0,1,0.448,1,1s-0.448,1-1,1
	c-0.553,0-1-0.448-1-1S20.458,19.709,21.011,19.709z M21.049,23.932c0.552,0,1,0.448,1,0.999s-0.448,1-1,1c-0.552,0-1-0.449-1-1
	S20.497,23.932,21.049,23.932z M19.471,21.82c0.552,0,1,0.447,1,1c0,0.552-0.447,0.999-1,0.999s-1-0.447-1-0.999
	C18.471,22.268,18.919,21.82,19.471,21.82z M18.052,23.932c0.552,0,1,0.448,1,0.999s-0.448,1-1,1s-1-0.449-1-1
	S17.5,23.932,18.052,23.932z M15.055,25.931c-0.553,0-1-0.449-1-1s0.447-0.999,1-0.999c0.552,0,1,0.448,1,0.999
	S15.607,25.931,15.055,25.931z M16.474,21.82c0.552,0,1,0.447,1,1c0,0.552-0.448,0.999-1,0.999c-0.552,0-1-0.447-1-0.999
	C15.475,22.268,15.922,21.82,16.474,21.82z M31.459,26.042c0.552,0,1,0.447,1,1c0,0.552-0.448,1-1,1c-0.552,0-1-0.448-1-1
	C30.459,26.489,30.908,26.042,31.459,26.042z"/>
</svg>
