<?xml version="1.0" encoding="iso-8859-1"?>
<!-- Generator: Adobe Illustrator 16.0.2, SVG Export Plug-In . SVG Version: 6.00 Build 0)  -->
<!DOCTYPE svg PUBLIC "-//W3C//DTD SVG 1.1//EN" "http://www.w3.org/Graphics/SVG/1.1/DTD/svg11.dtd">
<svg version="1.1" id="co_x5F_food_x5F_3" xmlns="http://www.w3.org/2000/svg" xmlns:xlink="http://www.w3.org/1999/xlink" x="0px"
	 y="0px" width="40px" height="40px" viewBox="0 0 40 40" style="enable-background:new 0 0 40 40;" xml:space="preserve">
<path fill="#0D47A1" style="fill-rule:evenodd;clip-rule:evenodd;" d="M8.613,2.005h24.725c0.385,0,0.713,0.236,0.835,0.602l0.606,1.819
	c0.046,0.139,0.024,0.278-0.061,0.396s-0.211,0.183-0.357,0.183H7.59c-0.147,0-0.272-0.064-0.357-0.183
	C7.147,4.704,7.126,4.564,7.172,4.426l0.606-1.819C7.9,2.241,8.228,2.005,8.613,2.005L8.613,2.005z M33.658,7.021l-3.942,25.234
	c-0.067,0.431-0.433,0.743-0.87,0.743h-15.74c-0.437,0-0.802-0.313-0.869-0.743L8.293,7.021C8.252,6.757,8.321,6.515,8.495,6.312
	c0.172-0.202,0.401-0.308,0.668-0.308h23.625c0.267,0,0.495,0.105,0.668,0.308C33.631,6.515,33.698,6.757,33.658,7.021L33.658,7.021
	z M29.283,35.015l-0.192,1.239c-0.068,0.432-0.434,0.744-0.87,0.744h-14.49c-0.438,0-0.803-0.313-0.869-0.744l-0.194-1.239
	c-0.041-0.264,0.028-0.507,0.202-0.708c0.173-0.202,0.401-0.308,0.668-0.308h14.876c0.267,0,0.495,0.105,0.669,0.308
	C29.256,34.509,29.324,34.751,29.283,35.015z"/>
</svg>
