<?xml version="1.0" encoding="iso-8859-1"?>
<!-- Generator: Adobe Illustrator 16.0.2, SVG Export Plug-In . SVG Version: 6.00 Build 0)  -->
<!DOCTYPE svg PUBLIC "-//W3C//DTD SVG 1.1//EN" "http://www.w3.org/Graphics/SVG/1.1/DTD/svg11.dtd">
<svg version="1.1" id="co_x5F_food_x5F_3" xmlns="http://www.w3.org/2000/svg" xmlns:xlink="http://www.w3.org/1999/xlink" x="0px"
	 y="0px" width="40px" height="40px" viewBox="0 0 40 40" style="enable-background:new 0 0 40 40;" xml:space="preserve">
<path fill="#0D47A1" style="fill-rule:evenodd;clip-rule:evenodd;" d="M37.674,22.333l-1.355,1.355c-0.214,0.214-0.475,0.322-0.778,0.322h-3.088
	c-0.303,0-0.563-0.108-0.778-0.322l-1.355-1.355c-0.214-0.214-0.322-0.475-0.322-0.777v-6.883c0-0.363,0.296-0.66,0.66-0.66h6.679
	c0.363,0,0.66,0.297,0.66,0.66v6.883C37.996,21.858,37.888,22.119,37.674,22.333z M30.456,29.746
	c0.027,0.272-0.116,0.524-0.475,0.587c-0.144,0.025-0.34,0.037-0.59,0.025c-0.309-0.015-0.606-0.041-0.606-0.041
	c-0.256-0.028-0.46-0.236-0.483-0.492c-0.03-0.34,0.263-0.625,0.601-0.588c0,0,0.275,0.036,0.528,0.039
	c0.214,0.003,0.326-0.02,0.442-0.022C30.2,29.245,30.429,29.479,30.456,29.746z M26.536,29.389c-0.124-0.078-0.278-0.2-0.456-0.375
	c-0.22-0.218-0.423-0.436-0.423-0.436c-0.172-0.192-0.185-0.483-0.03-0.689c0.204-0.272,0.613-0.289,0.84-0.035
	c0,0,0.181,0.21,0.367,0.382c0.157,0.145,0.255,0.202,0.344,0.278c0.249,0.212,0.263,0.538,0.104,0.756
	C27.12,29.49,26.845,29.582,26.536,29.389z M25.206,26.79c-0.268,0.057-0.534-0.059-0.635-0.408
	c-0.041-0.141-0.074-0.334-0.09-0.583c-0.019-0.309-0.025-0.607-0.025-0.607c0-0.259,0.185-0.483,0.437-0.534
	c0.334-0.066,0.649,0.194,0.649,0.534c0,0-0.005,0.276,0.019,0.529c0.021,0.213,0.055,0.321,0.071,0.438
	C25.675,26.481,25.468,26.734,25.206,26.79z M25.105,23.551c-0.333,0.066-0.649-0.193-0.649-0.532v-1.087
	c0-0.257,0.185-0.482,0.437-0.533c0.334-0.066,0.649,0.193,0.649,0.533v1.087C25.542,23.275,25.357,23.5,25.105,23.551z
	 M25.105,20.292c-0.333,0.066-0.649-0.194-0.649-0.533v-1.087c0-0.257,0.185-0.482,0.437-0.532c0.334-0.067,0.649,0.192,0.649,0.532
	v1.087C25.542,20.016,25.357,20.241,25.105,20.292z M25.105,17.032c-0.333,0.066-0.649-0.194-0.649-0.533v-1.086
	c0-0.257,0.185-0.483,0.437-0.533c0.334-0.066,0.649,0.193,0.649,0.533v1.086C25.542,16.756,25.357,16.981,25.105,17.032z
	 M25.105,13.772c-0.333,0.067-0.649-0.193-0.649-0.532v-1.087c0-0.257,0.185-0.482,0.437-0.533c0.334-0.066,0.649,0.193,0.649,0.533
	v1.087C25.542,13.497,25.357,13.723,25.105,13.772z M25.105,10.514c-0.333,0.066-0.649-0.193-0.649-0.533l0.001-1.077
	c0-0.715,1.083-0.717,1.083-0.019l0.003,1.096C25.542,10.237,25.357,10.463,25.105,10.514z M24.109,6.935
	c0,0-0.107-0.271-0.213-0.515c-0.092-0.214-0.185-0.406-0.185-0.406c-0.335-0.62,0.609-1.087,0.957-0.511
	c0.097,0.161,0.155,0.265,0.259,0.519c0.145,0.353,0.207,0.553,0.207,0.553C25.377,7.232,24.357,7.605,24.109,6.935z M22.511,4.409
	c0,0-0.219-0.192-0.424-0.361c-0.18-0.148-0.35-0.276-0.35-0.276c-0.581-0.399,0.046-1.246,0.618-0.892
	c0.161,0.1,0.259,0.165,0.467,0.343c0.29,0.249,0.437,0.398,0.437,0.398C23.774,4.095,23.037,4.893,22.511,4.409z M19.979,2.869
	c0,0-0.282-0.073-0.541-0.132C19.21,2.685,19,2.646,19,2.646c-0.698-0.097-0.517-1.135,0.153-1.073
	c0.188,0.017,0.305,0.031,0.571,0.098c0.37,0.092,0.568,0.159,0.568,0.159C20.968,2.022,20.666,3.066,19.979,2.869z M17.014,2.626
	c0,0-0.285,0.058-0.544,0.119c-0.227,0.053-0.432,0.109-0.432,0.109c-0.669,0.221-0.963-0.792-0.334-1.031
	c0.177-0.067,0.289-0.106,0.556-0.163c0.373-0.079,0.581-0.105,0.581-0.105C17.531,1.432,17.718,2.501,17.014,2.626z M14.245,3.781
	c0,0-0.231,0.177-0.438,0.346c-0.181,0.146-0.34,0.288-0.34,0.288c-0.505,0.491-1.212-0.29-0.752-0.781
	c0.129-0.138,0.213-0.222,0.429-0.391c0.3-0.234,0.476-0.349,0.476-0.349C14.187,2.48,14.823,3.36,14.245,3.781z M12.059,6.516
	C11.967,6.73,11.893,6.93,11.893,6.93c-0.217,0.67-1.208,0.31-1.03-0.339c0.05-0.183,0.084-0.296,0.196-0.546
	c0.156-0.349,0.257-0.531,0.257-0.531c0.308-0.631,1.282-0.15,0.968,0.492C12.284,6.006,12.163,6.271,12.059,6.516z M11.545,8.847
	c0,0.785-0.001,0.877-0.001,1.167h2.819c0.424,0,0.789,0.15,1.089,0.451l4.096,4.097C19.849,14.86,20,15.227,20,15.65v19.817
	c0,0.848-0.692,1.54-1.54,1.54H3.544c-0.848,0-1.54-0.692-1.54-1.54V15.65c0-0.424,0.151-0.79,0.452-1.089l4.097-4.097
	c0.3-0.301,0.665-0.451,1.088-0.451h2.822c0-0.433,0-1.133,0-1.133C10.462,8.214,11.545,8.234,11.545,8.847z M13.001,12.013
	c-0.552,0-1,0.448-1,1.001c0,0.551,0.448,0.999,1,0.999c0.552,0,1-0.448,1-0.999C14.001,12.461,13.554,12.013,13.001,12.013z
	 M9.002,12.013c-0.552,0-1,0.448-1,1.001c0,0.551,0.448,0.999,1,0.999c0.552,0,1-0.448,1-0.999
	C10.002,12.461,9.555,12.013,9.002,12.013z M5.47,28.768c-0.294,0.157-0.467,0.443-0.467,0.777v4.023
	c0,0.242,0.198,0.439,0.44,0.439h11.117c0.242,0,0.44-0.197,0.44-0.439v-4.023c0-0.334-0.172-0.62-0.466-0.777
	c-1.714-0.913-1.855-1.758-5.532-1.758C7.326,27.01,7.184,27.854,5.47,28.768z M31.636,28.649c0,0,0.23-0.154,0.422-0.319
	c0.162-0.14,0.231-0.23,0.317-0.31c0.24-0.222,0.565-0.198,0.762-0.015c0.2,0.187,0.259,0.471,0.032,0.754
	c-0.092,0.114-0.231,0.253-0.426,0.409c-0.242,0.193-0.482,0.369-0.482,0.369c-0.211,0.149-0.501,0.127-0.688-0.051
	C31.327,29.253,31.358,28.845,31.636,28.649z M33.312,26.401c0,0,0.068-0.269,0.102-0.521c0.028-0.212,0.019-0.325,0.03-0.441
	c0.031-0.325,0.29-0.524,0.559-0.52c0.273,0.005,0.507,0.178,0.526,0.541c0.007,0.146-0.003,0.343-0.045,0.589
	c-0.051,0.305-0.113,0.598-0.113,0.598c-0.059,0.251-0.29,0.428-0.547,0.421C33.483,27.058,33.234,26.732,33.312,26.401z"/>
</svg>
