<?xml version="1.0" encoding="iso-8859-1"?>
<!-- Generator: Adobe Illustrator 16.0.2, SVG Export Plug-In . SVG Version: 6.00 Build 0)  -->
<!DOCTYPE svg PUBLIC "-//W3C//DTD SVG 1.1//EN" "http://www.w3.org/Graphics/SVG/1.1/DTD/svg11.dtd">
<svg version="1.1" id="co_x5F_food_x5F_3" xmlns="http://www.w3.org/2000/svg" xmlns:xlink="http://www.w3.org/1999/xlink" x="0px"
	 y="0px" width="40px" height="40px" viewBox="0 0 40 40" style="enable-background:new 0 0 40 40;" xml:space="preserve">
<path fill="#0D47A1" style="fill-rule:evenodd;clip-rule:evenodd;" d="M11.455,25.415c2.152-1.138,3.395-2.203,7.959-2.203
	c4.565,0,5.964,1.065,8.116,2.203c0.296,0.155,0.469,0.441,0.469,0.777v5.915c0,0.484-0.395,0.88-0.88,0.88H11.865
	c-0.484,0-0.879-0.396-0.879-0.88v-5.915C10.986,25.856,11.159,25.57,11.455,25.415L11.455,25.415z M8.495,7.588
	C8.152,7.932,7.979,8.349,7.979,8.832v25.396c0,0.97,0.791,1.76,1.76,1.76h19.476c0.969,0,1.759-0.79,1.759-1.76V8.832
	c0-0.483-0.173-0.9-0.515-1.244L25.38,2.51c-0.342-0.343-0.76-0.515-1.244-0.515h-4.128v1.999h1.604c0.242,0,0.45,0.086,0.622,0.258
	l1.484,1.484c0.171,0.171,0.257,0.38,0.257,0.621v6.975c0,0.363-0.296,0.66-0.66,0.66h-7.679c-0.363,0-0.66-0.297-0.66-0.66V6.357
	c0-0.241,0.086-0.45,0.258-0.621l1.484-1.484c0.171-0.172,0.38-0.258,0.622-0.258h1.635V1.995h-4.159
	c-0.485,0-0.901,0.172-1.245,0.515L8.495,7.588z"/>
</svg>
