<?xml version="1.0" encoding="iso-8859-1"?>
<!-- Generator: Adobe Illustrator 16.0.2, SVG Export Plug-In . SVG Version: 6.00 Build 0)  -->
<!DOCTYPE svg PUBLIC "-//W3C//DTD SVG 1.1//EN" "http://www.w3.org/Graphics/SVG/1.1/DTD/svg11.dtd">
<svg version="1.1" id="co_x5F_food_x5F_3" xmlns="http://www.w3.org/2000/svg" xmlns:xlink="http://www.w3.org/1999/xlink" x="0px"
	 y="0px" width="40px" height="40px" viewBox="0 0 40 40" style="enable-background:new 0 0 40 40;" xml:space="preserve">
<path fill="#0D47A1" style="fill-rule:evenodd;clip-rule:evenodd;" d="M34.557,19.995h-7.119c-0.242,0-0.44-0.197-0.44-0.439v-7.194
	c0-0.242,0.086-0.451,0.258-0.622l1.484-1.484c0.171-0.171,0.379-0.258,0.622-0.258h3.271c0.243,0,0.451,0.087,0.622,0.258
	l1.484,1.484c0.171,0.171,0.257,0.38,0.257,0.622v7.194C34.997,19.798,34.799,19.995,34.557,19.995z M30.276,7.236
	c0,0-0.097-0.274-0.193-0.523c-0.084-0.217-0.17-0.412-0.17-0.412c-0.312-0.632,0.649-1.063,0.975-0.475
	c0.091,0.165,0.145,0.271,0.239,0.527c0.131,0.358,0.186,0.561,0.186,0.561C31.532,7.581,30.499,7.915,30.276,7.236z M28.788,4.685
	c0,0-0.215-0.196-0.417-0.369c-0.177-0.152-0.344-0.284-0.344-0.284c-0.573-0.41,0.071-1.244,0.636-0.878
	c0.159,0.103,0.256,0.17,0.46,0.353c0.285,0.254,0.428,0.406,0.428,0.406C30.057,4.396,29.304,5.179,28.788,4.685z M26.272,3.048
	c0,0-0.276-0.092-0.532-0.167c-0.223-0.066-0.43-0.118-0.43-0.118c-0.69-0.141-0.443-1.166,0.222-1.062
	c0.187,0.029,0.303,0.051,0.564,0.134c0.363,0.116,0.557,0.196,0.557,0.196C27.313,2.267,26.945,3.288,26.272,3.048z M25,35.001
	c0,1.104-0.896,2-2,2H9c-1.104,0-2-0.896-2-2l0.003-19.458c0-0.363,0.13-0.677,0.387-0.934l4.226-4.226
	c0.257-0.257,0.57-0.387,0.933-0.387h6.905c0.363,0,0.676,0.13,0.933,0.387l4.226,4.226c0.257,0.257,0.387,0.57,0.387,0.934
	L25,35.001z M14.001,11.996c-0.552,0-1,0.448-1,1.001c0,0.552,0.448,0.999,1,0.999s1-0.447,1-0.999
	C15.001,12.444,14.554,11.996,14.001,11.996z M18,11.996c-0.552,0-1,0.448-1,1.001c0,0.552,0.448,0.999,1,0.999
	c0.552,0,1-0.447,1-0.999C19,12.444,18.553,11.996,18,11.996z M22,28.528c0-0.333-0.172-0.619-0.466-0.776
	c-1.714-0.913-1.855-1.759-5.532-1.759c-3.676,0-3.818,0.846-5.532,1.759c-0.295,0.157-0.466,0.443-0.466,0.776v5.024
	c0,0.242,0.197,0.438,0.439,0.438H21.56c0.242,0,0.44-0.196,0.44-0.438V28.528z M23.263,2.558c0,0-0.291,0.018-0.556,0.041
	c-0.232,0.021-0.443,0.048-0.443,0.048c-0.694,0.124-0.842-0.919-0.186-1.067c0.184-0.042,0.3-0.064,0.574-0.084
	c0.38-0.026,0.59-0.023,0.59-0.023C23.943,1.447,23.978,2.532,23.263,2.558z M20.322,3.233c0,0-0.264,0.123-0.501,0.243
	c-0.208,0.105-0.394,0.21-0.394,0.21c-0.599,0.371-1.122-0.544-0.567-0.925c0.156-0.106,0.255-0.171,0.502-0.289
	c0.344-0.165,0.54-0.239,0.54-0.239C20.543,1.95,20.977,2.946,20.322,3.233z M17.605,5.444c-0.134,0.19-0.25,0.37-0.25,0.37
	c-0.354,0.609-1.246,0.048-0.935-0.549c0.087-0.167,0.145-0.271,0.307-0.491c0.226-0.308,0.364-0.466,0.364-0.466
	c0.434-0.551,1.284,0.124,0.842,0.686C17.933,4.994,17.758,5.227,17.605,5.444z M16.649,7.657c0,0-0.042,0.288-0.073,0.553
	c-0.026,0.231-0.042,0.443-0.042,0.443c-0.02,0.705-1.071,0.639-1.084-0.034c-0.003-0.189-0.002-0.308,0.035-0.579
	c0.051-0.378,0.097-0.582,0.097-0.582C15.699,6.767,16.77,6.952,16.649,7.657z"/>
</svg>
