<?xml version="1.0" encoding="iso-8859-1"?>
<!-- Generator: Adobe Illustrator 16.0.2, SVG Export Plug-In . SVG Version: 6.00 Build 0)  -->
<!DOCTYPE svg PUBLIC "-//W3C//DTD SVG 1.1//EN" "http://www.w3.org/Graphics/SVG/1.1/DTD/svg11.dtd">
<svg version="1.1" id="co_x5F_food_x5F_3" xmlns="http://www.w3.org/2000/svg" xmlns:xlink="http://www.w3.org/1999/xlink" x="0px"
	 y="0px" width="40px" height="40px" viewBox="0 0 40 40" style="enable-background:new 0 0 40 40;" xml:space="preserve">
<path fill="#0D47A1" style="fill-rule:evenodd;clip-rule:evenodd;" d="M32.49,25.979c-1.335,3.508-4.734,6.014-8.701,6.014h-2.535
	c-4.115,0-7.619-2.695-8.843-6.41c-5.22-1.491-6.565-10.31-9.715-11.72c-0.178-0.079-0.301-0.216-0.359-0.401
	c-0.06-0.185-0.038-0.367,0.061-0.535c0.104-0.179,0.207-0.352,0.313-0.52C2.895,12.111,3.214,11.958,3.562,12
	c3.401,0.408,5.327,4.439,8.69,4.943c0.238-0.903,0.609-1.755,1.092-2.532c0.749-1.022,2.022-3.148,5.976-4.155
	c0.189-0.048,0.384-0.083,0.577-0.132c0.241-0.061,0.389-0.294,0.313-0.548c-0.051-0.175-0.062-0.363-0.062-0.554
	c0-1.403,1.138-2.541,2.541-2.541s2.541,1.138,2.541,2.541c0,0.185-0.02,0.363-0.06,0.536c-0.076,0.327,0.104,0.554,0.404,0.638
	c0.2,0.057,0.401,0.099,0.598,0.154c2.358,0.673,4.262,1.988,5.326,3.646h1.419c2.828,0.4,5.017,2.841,5.017,5.778v0.385
	C37.935,23.241,35.523,25.778,32.49,25.979z M35.64,19.926c0-1.608-1.112-2.966-2.608-3.344c-0.164-0.042-0.309,0.112-0.265,0.271
	c0.214,0.782,0.329,1.604,0.329,2.451v3.383c0,0.157-0.005,0.312-0.013,0.467c-0.01,0.157,0.149,0.271,0.296,0.217
	c1.317-0.485,2.261-1.753,2.261-3.235V19.926z"/>
</svg>
