<?xml version="1.0" encoding="iso-8859-1"?>
<!-- Generator: Adobe Illustrator 16.0.2, SVG Export Plug-In . SVG Version: 6.00 Build 0)  -->
<!DOCTYPE svg PUBLIC "-//W3C//DTD SVG 1.1//EN" "http://www.w3.org/Graphics/SVG/1.1/DTD/svg11.dtd">
<svg version="1.1" id="co_x5F_food_x5F_1" xmlns="http://www.w3.org/2000/svg" xmlns:xlink="http://www.w3.org/1999/xlink" x="0px"
	 y="0px" width="40px" height="40px" viewBox="0 0 40 40" style="enable-background:new 0 0 40 40;" xml:space="preserve">
<path fill="#0D47A1" style="fill-rule:evenodd;clip-rule:evenodd;" d="M1.969,23.243c0-7.169,6.489-15.095,18.017-11.037
	C32.8,9.042,38.002,16.074,38.002,23.243C38.002,42.779,1.969,42.987,1.969,23.243z M23.746,9.824
	c-1.339,0.772-2.692,1.142-3.649,1.071c-0.031,0.004-0.061,0.021-0.092,0.021c-0.027,0-0.052-0.016-0.079-0.018
	c-0.953,0.051-2.279-0.318-3.589-1.075c-2.12-1.225-3.392-2.99-2.841-3.943c0.524-0.908,2.509-0.743,4.526,0.328
	c0.065-2.317,0.923-4.156,1.982-4.156c1.065,0,1.926,1.858,1.984,4.192c2.041-1.105,4.067-1.283,4.598-0.364
	C27.138,6.834,25.865,8.6,23.746,9.824z"/>
</svg>
