<?xml version="1.0" encoding="iso-8859-1"?>
<!-- Generator: Adobe Illustrator 16.0.2, SVG Export Plug-In . SVG Version: 6.00 Build 0)  -->
<!DOCTYPE svg PUBLIC "-//W3C//DTD SVG 1.1//EN" "http://www.w3.org/Graphics/SVG/1.1/DTD/svg11.dtd">
<svg version="1.1" id="co_x5F_food_x5F_1" xmlns="http://www.w3.org/2000/svg" xmlns:xlink="http://www.w3.org/1999/xlink" x="0px"
	 y="0px" width="40px" height="40px" viewBox="0 0 40 40" style="enable-background:new 0 0 40 40;" xml:space="preserve">
<path fill="#0D47A1" style="fill-rule:evenodd;clip-rule:evenodd;" d="M5.016,23.324c0-7.159,5.396-15.074,14.98-11.021
	c10.654-3.159,14.979,3.862,14.979,11.021C34.976,42.836,5.016,43.043,5.016,23.324z M23.746,9.824
	c-1.339,0.772-2.692,1.142-3.648,1.071c-0.031,0.004-0.061,0.021-0.093,0.021c-0.026,0-0.052-0.016-0.078-0.018
	c-0.953,0.051-2.278-0.318-3.589-1.075c-2.12-1.225-3.393-2.989-2.842-3.943c0.524-0.908,2.51-0.743,4.526,0.328
	c0.065-2.317,0.924-4.156,1.982-4.156c1.065,0,1.927,1.858,1.984,4.192c2.041-1.105,4.067-1.283,4.598-0.364
	C27.138,6.835,25.865,8.6,23.746,9.824z"/>
</svg>
