<?xml version="1.0" encoding="iso-8859-1"?>
<!-- Generator: Adobe Illustrator 16.0.2, SVG Export Plug-In . SVG Version: 6.00 Build 0)  -->
<!DOCTYPE svg PUBLIC "-//W3C//DTD SVG 1.1//EN" "http://www.w3.org/Graphics/SVG/1.1/DTD/svg11.dtd">
<svg version="1.1" id="co_x5F_food_x5F_2" xmlns="http://www.w3.org/2000/svg" xmlns:xlink="http://www.w3.org/1999/xlink" x="0px"
	 y="0px" width="40px" height="40px" viewBox="0 0 40 40" style="enable-background:new 0 0 40 40;" xml:space="preserve">
<path fill="#0D47A1" style="fill-rule:evenodd;clip-rule:evenodd;" d="M33,37.001H7c-2.209,0-4-1.791-4-4v-26c0-2.209,1.791-4,4-4h26
	c2.209,0,4,1.791,4,4v26C37,35.21,35.209,37.001,33,37.001z M10.024,6.896c0-0.485-0.396-0.881-0.879-0.881h-2.24
	c-0.484,0-0.88,0.396-0.88,0.881v2.238c0,0.485,0.396,0.881,0.88,0.881h2.24c0.484,0,0.879-0.396,0.879-0.881V6.896z M10.024,12.895
	c0-0.484-0.396-0.88-0.879-0.88h-2.24c-0.484,0-0.88,0.396-0.88,0.88v2.239c0,0.485,0.396,0.879,0.88,0.879h2.24
	c0.484,0,0.879-0.394,0.879-0.879V12.895z M10.024,18.893c0-0.485-0.396-0.879-0.879-0.879h-2.24c-0.484,0-0.88,0.394-0.88,0.879
	v2.24c0,0.483,0.396,0.88,0.88,0.88h2.24c0.484,0,0.879-0.396,0.879-0.88V18.893z M10.024,24.892c0-0.484-0.396-0.88-0.879-0.88
	h-2.24c-0.484,0-0.88,0.396-0.88,0.88v2.239c0,0.485,0.396,0.881,0.88,0.881h2.24c0.484,0,0.879-0.396,0.879-0.881V24.892z
	 M10.024,30.892c0-0.485-0.396-0.881-0.879-0.881h-2.24c-0.484,0-0.88,0.396-0.88,0.881v2.238c0,0.484,0.396,0.88,0.88,0.88h2.24
	c0.484,0,0.879-0.396,0.879-0.88V30.892z M16.022,6.896c0-0.485-0.395-0.881-0.879-0.881h-2.24c-0.484,0-0.88,0.396-0.88,0.881
	v2.238c0,0.485,0.396,0.881,0.88,0.881h2.24c0.484,0,0.879-0.396,0.879-0.881V6.896z M16.022,12.895c0-0.484-0.395-0.88-0.879-0.88
	h-2.24c-0.484,0-0.88,0.396-0.88,0.88v2.239c0,0.485,0.396,0.879,0.88,0.879h2.24c0.484,0,0.879-0.394,0.879-0.879V12.895z
	 M16.022,18.893c0-0.485-0.395-0.879-0.879-0.879h-2.24c-0.484,0-0.88,0.394-0.88,0.879v2.24c0,0.483,0.396,0.88,0.88,0.88h2.24
	c0.484,0,0.879-0.396,0.879-0.88V18.893z M16.022,24.892c0-0.484-0.395-0.88-0.879-0.88h-2.24c-0.484,0-0.88,0.396-0.88,0.88v2.239
	c0,0.485,0.396,0.881,0.88,0.881h2.24c0.484,0,0.879-0.396,0.879-0.881V24.892z M16.022,30.892c0-0.485-0.395-0.881-0.879-0.881
	h-2.24c-0.484,0-0.88,0.396-0.88,0.881v2.238c0,0.484,0.396,0.88,0.88,0.88h2.24c0.484,0,0.879-0.396,0.879-0.88V30.892z
	 M22.021,6.896c0-0.485-0.395-0.881-0.879-0.881h-2.24c-0.484,0-0.88,0.396-0.88,0.881v2.238c0,0.485,0.396,0.881,0.88,0.881h2.24
	c0.484,0,0.879-0.396,0.879-0.881V6.896z M22.021,12.895c0-0.484-0.395-0.88-0.879-0.88h-2.24c-0.484,0-0.88,0.396-0.88,0.88v2.239
	c0,0.485,0.396,0.879,0.88,0.879h2.24c0.484,0,0.879-0.394,0.879-0.879V12.895z M22.021,18.893c0-0.485-0.395-0.879-0.879-0.879
	h-2.24c-0.484,0-0.88,0.394-0.88,0.879v2.24c0,0.483,0.396,0.88,0.88,0.88h2.24c0.484,0,0.879-0.396,0.879-0.88V18.893z
	 M22.021,24.892c0-0.484-0.395-0.88-0.879-0.88h-2.24c-0.484,0-0.88,0.396-0.88,0.88v2.239c0,0.485,0.396,0.881,0.88,0.881h2.24
	c0.484,0,0.879-0.396,0.879-0.881V24.892z M22.021,30.892c0-0.485-0.395-0.881-0.879-0.881h-2.24c-0.484,0-0.88,0.396-0.88,0.881
	v2.238c0,0.484,0.396,0.88,0.88,0.88h2.24c0.484,0,0.879-0.396,0.879-0.88V30.892z M28.02,6.896c0-0.485-0.396-0.881-0.88-0.881
	H24.9c-0.484,0-0.879,0.396-0.879,0.881v2.238c0,0.485,0.395,0.881,0.879,0.881h2.24c0.484,0,0.88-0.396,0.88-0.881V6.896z
	 M28.02,12.895c0-0.484-0.396-0.88-0.88-0.88H24.9c-0.484,0-0.879,0.396-0.879,0.88v2.239c0,0.485,0.395,0.879,0.879,0.879h2.24
	c0.484,0,0.88-0.394,0.88-0.879V12.895z M28.02,18.893c0-0.485-0.396-0.879-0.88-0.879H24.9c-0.484,0-0.879,0.394-0.879,0.879v2.24
	c0,0.483,0.395,0.88,0.879,0.88h2.24c0.484,0,0.88-0.396,0.88-0.88V18.893z M28.02,24.892c0-0.484-0.396-0.88-0.88-0.88H24.9
	c-0.484,0-0.879,0.396-0.879,0.88v2.239c0,0.485,0.395,0.881,0.879,0.881h2.24c0.484,0,0.88-0.396,0.88-0.881V24.892z M28.02,30.892
	c0-0.485-0.396-0.881-0.88-0.881H24.9c-0.484,0-0.879,0.396-0.879,0.881v2.238c0,0.484,0.395,0.88,0.879,0.88h2.24
	c0.484,0,0.88-0.396,0.88-0.88V30.892z M34.019,6.896c0-0.485-0.396-0.881-0.88-0.881h-2.239c-0.485,0-0.88,0.396-0.88,0.881v2.238
	c0,0.485,0.395,0.881,0.88,0.881h2.239c0.484,0,0.88-0.396,0.88-0.881V6.896z M34.019,12.895c0-0.484-0.396-0.88-0.88-0.88h-2.239
	c-0.485,0-0.88,0.396-0.88,0.88v2.239c0,0.485,0.395,0.879,0.88,0.879h2.239c0.484,0,0.88-0.394,0.88-0.879V12.895z M34.019,18.893
	c0-0.485-0.396-0.879-0.88-0.879h-2.239c-0.485,0-0.88,0.394-0.88,0.879v2.24c0,0.483,0.395,0.88,0.88,0.88h2.239
	c0.484,0,0.88-0.396,0.88-0.88V18.893z M34.019,24.892c0-0.484-0.396-0.88-0.88-0.88h-2.239c-0.485,0-0.88,0.396-0.88,0.88v2.239
	c0,0.485,0.395,0.881,0.88,0.881h2.239c0.484,0,0.88-0.396,0.88-0.881V24.892z M34.019,30.892c0-0.485-0.396-0.881-0.88-0.881
	h-2.239c-0.485,0-0.88,0.396-0.88,0.881v2.238c0,0.484,0.395,0.88,0.88,0.88h2.239c0.484,0,0.88-0.396,0.88-0.88V30.892z"/>
</svg>
