<?xml version="1.0" encoding="iso-8859-1"?>
<!-- Generator: Adobe Illustrator 16.0.2, SVG Export Plug-In . SVG Version: 6.00 Build 0)  -->
<!DOCTYPE svg PUBLIC "-//W3C//DTD SVG 1.1//EN" "http://www.w3.org/Graphics/SVG/1.1/DTD/svg11.dtd">
<svg version="1.1" id="co_x5F_food_x5F_2" xmlns="http://www.w3.org/2000/svg" xmlns:xlink="http://www.w3.org/1999/xlink" x="0px"
	 y="0px" width="40px" height="40px" viewBox="0 0 40 40" style="enable-background:new 0 0 40 40;" xml:space="preserve">
<path fill="#0D47A1" style="fill-rule:evenodd;clip-rule:evenodd;" d="M19.951,3.017c4.444,0,8.714,1.781,11.899,4.863
	c3.243,3.181,5.097,7.605,5.097,12.133c0,2.739-0.67,5.474-1.946,7.898c-2.907,5.521-8.808,9.099-15.05,9.099
	c-5.43,0-10.546-2.628-13.729-6.981c-2.13-2.897-3.267-6.429-3.267-10.016c0-4.504,1.868-8.957,5.084-12.12
	C11.18,4.804,15.546,3.017,19.951,3.017L19.951,3.017z M27.949,7.325v2.029c0,0.364-0.297,0.659-0.66,0.659H21.61
	c-0.363,0-0.66-0.295-0.66-0.659V5.051c-0.667-0.044-1.333-0.044-2,0v4.304c0,0.364-0.296,0.661-0.66,0.661h-5.679
	c-0.363,0-0.66-0.297-0.66-0.661V7.327c-0.709,0.447-1.378,0.953-2,1.511v1.178H8.775c-0.557,0.621-1.062,1.29-1.51,1.999h2.027
	c0.364,0,0.66,0.296,0.66,0.659v5.68c0,0.364-0.296,0.659-0.66,0.659H4.988c-0.021,0.33-0.034,0.664-0.034,1
	c0,0.337,0.013,0.669,0.034,1.001h4.304c0.363,0,0.66,0.295,0.66,0.659v5.679c0,0.362-0.296,0.66-0.66,0.66H7.266
	c0.448,0.709,0.953,1.378,1.51,1.999h0.517c0.363,0,0.66,0.297,0.66,0.659v0.519c0.622,0.556,1.291,1.061,2,1.51V30.67
	c0-0.362,0.296-0.659,0.66-0.659h5.679c0.364,0,0.66,0.297,0.66,0.659v4.306c0.331,0.021,0.664,0.033,1,0.033s0.669-0.012,1-0.033
	v-4.305c0-0.363,0.296-0.66,0.66-0.66h5.678c0.363,0,0.66,0.297,0.66,0.66v2.027c0.709-0.447,1.377-0.952,2-1.51v-0.518
	c0-0.363,0.296-0.66,0.66-0.66h0.518c0.557-0.621,1.062-1.29,1.51-1.999h-2.028c-0.363,0-0.66-0.298-0.66-0.66v-5.679
	c0-0.364,0.296-0.661,0.66-0.661h4.305c0.022-0.33,0.034-0.662,0.034-0.999c0-0.336-0.012-0.67-0.034-1h-4.305
	c-0.363,0-0.66-0.295-0.66-0.659v-5.68c0-0.363,0.297-0.659,0.66-0.659h2.029c-0.448-0.709-0.953-1.378-1.51-2.001h-0.519
	c-0.363,0-0.66-0.295-0.66-0.659V8.837C29.326,8.28,28.657,7.774,27.949,7.325L27.949,7.325z M12.612,28.012h5.679
	c0.364,0,0.66-0.298,0.66-0.66v-5.679c0-0.364-0.296-0.659-0.66-0.659h-5.679c-0.363,0-0.66,0.295-0.66,0.659v5.679
	C11.952,27.714,12.249,28.012,12.612,28.012L12.612,28.012z M21.61,28.012h5.678c0.363,0,0.66-0.298,0.66-0.66v-5.679
	c0-0.364-0.297-0.661-0.66-0.661H21.61c-0.363,0-0.66,0.297-0.66,0.661v5.679C20.95,27.714,21.247,28.012,21.61,28.012L21.61,28.012
	z M11.952,12.674v5.68c0,0.364,0.296,0.659,0.66,0.659h5.679c0.363,0,0.66-0.295,0.66-0.659v-5.68c0-0.363-0.296-0.659-0.66-0.659
	h-5.679C12.249,12.015,11.952,12.311,11.952,12.674L11.952,12.674z M27.949,18.354v-5.68c0-0.363-0.297-0.659-0.66-0.659H21.61
	c-0.363,0-0.66,0.296-0.66,0.659v5.68c0,0.364,0.296,0.659,0.66,0.659h5.679C27.652,19.013,27.949,18.718,27.949,18.354z"/>
</svg>
