<?xml version="1.0" encoding="iso-8859-1"?>
<!-- Generator: Adobe Illustrator 16.0.2, SVG Export Plug-In . SVG Version: 6.00 Build 0)  -->
<!DOCTYPE svg PUBLIC "-//W3C//DTD SVG 1.1//EN" "http://www.w3.org/Graphics/SVG/1.1/DTD/svg11.dtd">
<svg version="1.1" id="co_x5F_food_x5F_2" xmlns="http://www.w3.org/2000/svg" xmlns:xlink="http://www.w3.org/1999/xlink" x="0px"
	 y="0px" width="40px" height="40px" viewBox="0 0 40 40" style="enable-background:new 0 0 40 40;" xml:space="preserve">
<path fill="#0D47A1" style="fill-rule:evenodd;clip-rule:evenodd;" d="M20.004,3.017c0.397,0,0.791,0.014,1.181,0.041
	c0.462,0.031,0.819,0.415,0.819,0.877l0,2.201c0,0.485-0.395,0.881-0.88,0.881h-2.24c-0.484,0-0.88-0.396-0.88-0.881V3.935
	c0-0.462,0.357-0.846,0.819-0.877C19.213,3.03,19.606,3.017,20.004,3.017L20.004,3.017z M24.094,3.512
	c0.812,0.2,1.601,0.46,2.363,0.773c0.337,0.138,0.545,0.448,0.545,0.813v1.037c0,0.485-0.395,0.881-0.88,0.881h-2.239
	c-0.484,0-0.88-0.396-0.88-0.881V4.365c0-0.278,0.118-0.52,0.338-0.692C23.561,3.501,23.823,3.445,24.094,3.512L24.094,3.512z
	 M28.002,5.014c1.055,0.563,2.043,1.237,2.951,2.003h-2.071c-0.485,0-0.88-0.396-0.88-0.881V5.014L28.002,5.014z M33.001,9.063
	c0.766,0.908,1.437,1.896,2.001,2.951h-1.121c-0.485,0-0.88-0.396-0.88-0.881V9.063L33.001,9.063z M35.731,13.56
	c0.313,0.762,0.572,1.552,0.772,2.362c0.067,0.271,0.011,0.534-0.162,0.754c-0.172,0.222-0.413,0.338-0.693,0.338h-1.769
	c-0.485,0-0.88-0.396-0.88-0.88v-2.239c0-0.485,0.395-0.881,0.88-0.881h1.037C35.282,13.014,35.593,13.223,35.731,13.56
	L35.731,13.56z M36.958,18.832C36.986,19.222,37,19.616,37,20.013c0,0.397-0.014,0.791-0.042,1.182
	c-0.032,0.462-0.415,0.818-0.878,0.818h-2.2c-0.485,0-0.88-0.395-0.88-0.88v-2.24c0-0.485,0.395-0.88,0.88-0.88h2.2
	C36.544,18.013,36.926,18.37,36.958,18.832L36.958,18.832z M36.504,24.102c-0.201,0.813-0.46,1.604-0.773,2.365
	c-0.138,0.337-0.45,0.544-0.814,0.544h-1.036c-0.485,0-0.88-0.394-0.88-0.879v-2.24c0-0.484,0.395-0.879,0.88-0.879h1.769
	c0.28,0,0.521,0.116,0.693,0.336C36.515,23.57,36.571,23.831,36.504,24.102L36.504,24.102z M35.001,28.012
	c-0.563,1.055-1.236,2.043-2.001,2.949l0-2.07c0-0.485,0.395-0.879,0.88-0.879H35.001L35.001,28.012z M30.952,33.01
	c-0.907,0.766-1.896,1.437-2.951,2.001v-1.12c0-0.485,0.396-0.881,0.88-0.881H30.952L30.952,33.01z M26.457,35.739
	c-0.762,0.314-1.551,0.573-2.363,0.773c-0.271,0.066-0.533,0.012-0.753-0.161c-0.22-0.172-0.337-0.413-0.337-0.692v-1.769
	c0-0.485,0.396-0.881,0.88-0.881h2.239c0.485,0,0.88,0.396,0.88,0.881v1.035C27.002,35.291,26.794,35.602,26.457,35.739
	L26.457,35.739z M21.185,36.968c-0.39,0.026-0.784,0.042-1.181,0.042c-0.397,0-0.791-0.016-1.181-0.042
	c-0.462-0.032-0.819-0.414-0.819-0.878v-2.199c0-0.485,0.396-0.881,0.88-0.881h2.24c0.485,0,0.88,0.396,0.88,0.881v2.199
	C22.003,36.554,21.647,36.936,21.185,36.968L21.185,36.968z M15.914,36.513c-0.812-0.2-1.602-0.461-2.363-0.773
	c-0.337-0.138-0.546-0.448-0.546-0.813v-1.035c0-0.485,0.396-0.881,0.88-0.881h2.24c0.484,0,0.88,0.396,0.88,0.881v1.769
	c0,0.279-0.118,0.521-0.338,0.692C16.447,36.524,16.185,36.579,15.914,36.513L15.914,36.513z M12.006,35.011
	c-1.055-0.564-2.043-1.235-2.95-2.001h2.07c0.484,0,0.88,0.396,0.88,0.881V35.011L12.006,35.011z M7.007,30.961
	c-0.765-0.906-1.437-1.895-2.001-2.949h1.121c0.484,0,0.88,0.396,0.88,0.879V30.961L7.007,30.961z M4.277,26.465
	c-0.313-0.76-0.572-1.55-0.773-2.363c-0.067-0.271-0.011-0.531,0.162-0.753c0.172-0.22,0.413-0.336,0.692-0.336h1.769
	c0.484,0,0.88,0.396,0.88,0.879v2.24c0,0.485-0.396,0.879-0.88,0.879H5.091C4.727,27.011,4.415,26.804,4.277,26.465L4.277,26.465z
	 M3.049,21.194c-0.027-0.391-0.041-0.784-0.041-1.182c0-0.396,0.014-0.791,0.041-1.181c0.032-0.462,0.415-0.819,0.878-0.819h2.2
	c0.484,0,0.88,0.395,0.88,0.88v2.24c0,0.483-0.396,0.88-0.88,0.88h-2.2C3.463,22.013,3.081,21.656,3.049,21.194L3.049,21.194z
	 M3.504,15.922c0.201-0.812,0.46-1.601,0.772-2.362c0.138-0.337,0.449-0.546,0.814-0.546h1.037c0.484,0,0.88,0.396,0.88,0.881v2.238
	c0,0.485-0.396,0.881-0.88,0.881H4.358c-0.28,0-0.521-0.116-0.693-0.338C3.493,16.456,3.437,16.193,3.504,15.922L3.504,15.922z
	 M5.005,12.015C5.57,10.96,6.241,9.97,7.007,9.063v2.07c0,0.485-0.396,0.881-0.88,0.881H5.005L5.005,12.015z M9.055,7.017
	c0.908-0.766,1.896-1.439,2.951-2.003v1.122c0,0.485-0.395,0.881-0.88,0.881H9.055L9.055,7.017z M13.551,4.285
	c0.761-0.313,1.55-0.573,2.363-0.773c0.271-0.068,0.533-0.011,0.753,0.161c0.22,0.173,0.337,0.414,0.337,0.692v1.771
	c0,0.485-0.395,0.881-0.88,0.881h-2.239c-0.485,0-0.88-0.396-0.88-0.881V5.099C13.005,4.733,13.214,4.423,13.551,4.285L13.551,4.285
	z M8.006,8.896v2.238c0,0.485,0.395,0.881,0.88,0.881h2.239c0.485,0,0.88-0.396,0.88-0.881V8.896c0-0.484-0.395-0.881-0.88-0.881
	H8.886C8.401,8.015,8.006,8.411,8.006,8.896L8.006,8.896z M8.006,13.895v2.238c0,0.485,0.395,0.881,0.88,0.881h2.239
	c0.485,0,0.88-0.396,0.88-0.881v-2.238c0-0.485-0.395-0.881-0.88-0.881H8.886C8.401,13.014,8.006,13.409,8.006,13.895L8.006,13.895z
	 M8.006,18.893v2.24c0,0.485,0.395,0.88,0.88,0.88h2.24c0.484,0,0.88-0.395,0.88-0.88v-2.24c0-0.485-0.396-0.88-0.88-0.88h-2.24
	C8.401,18.013,8.006,18.407,8.006,18.893L8.006,18.893z M8.006,23.892v2.24c0,0.485,0.395,0.879,0.88,0.879h2.24
	c0.484,0,0.88-0.394,0.88-0.879v-2.24c0-0.483-0.396-0.879-0.88-0.879h-2.24C8.401,23.013,8.006,23.408,8.006,23.892L8.006,23.892z
	 M8.006,28.891v2.239c0,0.485,0.395,0.881,0.88,0.881h2.24c0.484,0,0.88-0.396,0.88-0.881v-2.239c0-0.483-0.396-0.879-0.88-0.879
	h-2.24C8.401,28.012,8.006,28.407,8.006,28.891L8.006,28.891z M13.885,32.011h2.24c0.484,0,0.88-0.396,0.88-0.881v-2.239
	c0-0.483-0.396-0.879-0.88-0.879h-2.24c-0.485,0-0.88,0.396-0.88,0.879v2.239C13.005,31.615,13.4,32.011,13.885,32.011
	L13.885,32.011z M18.884,32.011h2.24c0.485,0,0.88-0.396,0.88-0.881v-2.239c0-0.483-0.395-0.879-0.88-0.879h-2.24
	c-0.484,0-0.88,0.396-0.88,0.879v2.239C18.004,31.615,18.399,32.011,18.884,32.011L18.884,32.011z M23.883,32.011h2.239
	c0.485,0,0.88-0.396,0.88-0.881v-2.239c0-0.483-0.395-0.879-0.88-0.879h-2.239c-0.484,0-0.88,0.396-0.88,0.879v2.239
	C23.003,31.615,23.398,32.011,23.883,32.011L23.883,32.011z M28.882,32.011h2.24c0.485,0,0.88-0.396,0.88-0.881v-2.239
	c0-0.483-0.395-0.879-0.88-0.879h-2.24c-0.485,0-0.88,0.396-0.88,0.879v2.239C28.001,31.615,28.397,32.011,28.882,32.011
	L28.882,32.011z M31.121,8.015h-2.239c-0.485,0-0.88,0.396-0.88,0.881v2.238c0,0.485,0.395,0.881,0.88,0.881h2.239
	c0.485,0,0.88-0.396,0.88-0.881V8.896C32.001,8.411,31.606,8.015,31.121,8.015L31.121,8.015z M26.122,8.015h-2.239
	c-0.484,0-0.88,0.396-0.88,0.881v2.238c0,0.485,0.396,0.881,0.88,0.881h2.239c0.485,0,0.88-0.396,0.88-0.881V8.896
	C27.002,8.411,26.607,8.015,26.122,8.015L26.122,8.015z M21.124,8.015h-2.24c-0.484,0-0.88,0.396-0.88,0.881v2.238
	c0,0.485,0.396,0.881,0.88,0.881h2.24c0.485,0,0.88-0.396,0.88-0.881V8.896C22.003,8.411,21.608,8.015,21.124,8.015L21.124,8.015z
	 M16.125,8.015h-2.239c-0.485,0-0.88,0.396-0.88,0.881v2.238c0,0.485,0.395,0.881,0.88,0.881h2.239c0.485,0,0.88-0.396,0.88-0.881
	V8.896C17.004,8.411,16.609,8.015,16.125,8.015L16.125,8.015z M31.121,13.014h-2.239c-0.485,0-0.88,0.396-0.88,0.881v2.239
	c0,0.484,0.395,0.88,0.88,0.88h2.239c0.485,0,0.88-0.396,0.88-0.88v-2.239C32.001,13.409,31.606,13.014,31.121,13.014L31.121,13.014
	z M26.122,13.014h-2.239c-0.484,0-0.88,0.396-0.88,0.881v2.239c0,0.484,0.396,0.88,0.88,0.88h2.239c0.485,0,0.88-0.396,0.88-0.88
	v-2.239C27.002,13.409,26.607,13.014,26.122,13.014L26.122,13.014z M21.124,13.014h-2.24c-0.484,0-0.88,0.396-0.88,0.881v2.238
	c0,0.485,0.396,0.881,0.88,0.881h2.24c0.485,0,0.88-0.396,0.88-0.881v-2.238C22.003,13.409,21.608,13.014,21.124,13.014
	L21.124,13.014z M16.125,13.014h-2.239c-0.485,0-0.88,0.396-0.88,0.881v2.238c0,0.485,0.395,0.881,0.88,0.881h2.239
	c0.485,0,0.88-0.396,0.88-0.881v-2.238C17.004,13.409,16.609,13.014,16.125,13.014L16.125,13.014z M31.122,18.013h-2.24
	c-0.485,0-0.88,0.395-0.88,0.88v2.24c0,0.485,0.395,0.88,0.88,0.88h2.24c0.485,0,0.88-0.396,0.88-0.88v-2.24
	C32.001,18.407,31.606,18.013,31.122,18.013L31.122,18.013z M26.122,18.013h-2.239c-0.484,0-0.88,0.395-0.88,0.88v2.24
	c0,0.485,0.396,0.88,0.88,0.88h2.239c0.485,0,0.88-0.395,0.88-0.88v-2.24C27.002,18.407,26.607,18.013,26.122,18.013L26.122,18.013z
	 M21.124,18.013h-2.24c-0.484,0-0.88,0.395-0.88,0.88v2.24c0,0.485,0.396,0.88,0.88,0.88h2.24c0.485,0,0.88-0.395,0.88-0.88v-2.24
	C22.003,18.407,21.608,18.013,21.124,18.013L21.124,18.013z M16.125,18.013h-2.24c-0.485,0-0.88,0.395-0.88,0.88v2.24
	c0,0.485,0.395,0.88,0.88,0.88h2.24c0.484,0,0.88-0.396,0.88-0.88v-2.24C17.004,18.407,16.609,18.013,16.125,18.013L16.125,18.013z
	 M31.122,23.013h-2.24c-0.485,0-0.88,0.395-0.88,0.879v2.24c0,0.485,0.396,0.879,0.88,0.879h2.24c0.485,0,0.88-0.394,0.88-0.879
	v-2.24C32.001,23.407,31.606,23.013,31.122,23.013L31.122,23.013z M26.122,23.013h-2.239c-0.484,0-0.88,0.395-0.88,0.879v2.24
	c0,0.485,0.396,0.879,0.88,0.879h2.239c0.485,0,0.88-0.394,0.88-0.879v-2.24C27.002,23.407,26.607,23.013,26.122,23.013
	L26.122,23.013z M21.124,23.013h-2.24c-0.484,0-0.88,0.395-0.88,0.879v2.24c0,0.485,0.396,0.879,0.88,0.879h2.24
	c0.485,0,0.88-0.394,0.88-0.879v-2.24C22.003,23.407,21.608,23.013,21.124,23.013L21.124,23.013z M16.125,23.013h-2.24
	c-0.485,0-0.88,0.396-0.88,0.879v2.24c0,0.485,0.396,0.879,0.88,0.879h2.24c0.484,0,0.88-0.394,0.88-0.879v-2.24
	C17.005,23.408,16.609,23.013,16.125,23.013z"/>
</svg>
