<?xml version="1.0" encoding="iso-8859-1"?>
<!-- Generator: Adobe Illustrator 16.0.2, SVG Export Plug-In . SVG Version: 6.00 Build 0)  -->
<!DOCTYPE svg PUBLIC "-//W3C//DTD SVG 1.1//EN" "http://www.w3.org/Graphics/SVG/1.1/DTD/svg11.dtd">
<svg version="1.1" id="co_x5F_food_x5F_2" xmlns="http://www.w3.org/2000/svg" xmlns:xlink="http://www.w3.org/1999/xlink" x="0px"
	 y="0px" width="40px" height="40px" viewBox="0 0 40 40" style="enable-background:new 0 0 40 40;" xml:space="preserve">
<path fill="#0D47A1" style="fill-rule:evenodd;clip-rule:evenodd;" d="M19.995,2.009c3.146,0,5.707,2.523,5.761,5.658
	c0.47-0.123,0.964-0.19,1.472-0.19c3.183,0,5.764,2.582,5.764,5.765c0,2.924-2.178,5.338-4.999,5.713v0.051h-0.192l-1.341,1.34
	l-1.341-1.34h-1.559l-1.341,1.34l-1.34-1.34h-1.562l-1.34,1.34l-1.341-1.34h-1.56l-1.341,1.34l-1.341-1.34h-0.396v-0.051
	c-2.821-0.375-4.999-2.789-4.999-5.713c0-3.183,2.581-5.765,5.763-5.765c0.509,0,1.002,0.067,1.472,0.19
	C14.289,4.532,16.847,2.009,19.995,2.009L19.995,2.009z M28.178,20.04l-1.013,1.013l0.435,0.434L28.178,20.04L28.178,20.04z
	 M27.196,22.496l-0.808,2.02l-1.343-1.343l1.414-1.414L27.196,22.496L27.196,22.496z M25.35,27.111l-0.173,0.435l-0.132-0.131
	L25.35,27.111L25.35,27.111z M24.772,28.556l-0.808,2.02l-1.04-1.039l1.414-1.414L24.772,28.556L24.772,28.556z M23.56,31.585
	l-1.342-1.343l-1.414,1.414l1.414,1.414l1.249-1.247L23.56,31.585L23.56,31.585z M22.349,34.615l-0.808,2.021l-0.736-0.736
	l1.413-1.415L22.349,34.615L22.349,34.615z M21.096,37.605l-1-1l-1.105,1.106c0.197,0.184,0.46,0.289,0.749,0.289h0.51
	C20.59,38.001,20.893,37.854,21.096,37.605L21.096,37.605z M18.507,36.781l-0.808-2.02l0.277-0.277l1.414,1.415L18.507,36.781
	L18.507,36.781z M16.083,30.722l-0.808-2.02l0.579-0.58l1.414,1.414L16.083,30.722L16.083,30.722z M14.872,27.693l-0.369-0.923
	l0.646,0.645L14.872,27.693L14.872,27.693z M13.56,24.413l-0.708-1.771l0.882-0.884l1.414,1.414l-1.414,1.414L13.56,24.413
	L13.56,24.413z M12.447,21.632l0.581-0.579l-1.354-1.354L12.447,21.632L12.447,21.632z M24.338,19.639l-1.414,1.414l1.414,1.413
	l1.414-1.413L24.338,19.639L24.338,19.639z M20.097,19.639l-1.414,1.414l1.414,1.414l1.414-1.414L20.097,19.639L20.097,19.639z
	 M22.217,21.759l1.414,1.414l-1.414,1.414l-1.415-1.414L22.217,21.759L22.217,21.759z M24.338,23.88l-1.414,1.414l1.414,1.414
	l1.415-1.414L24.338,23.88L24.338,23.88z M15.855,19.639l-1.413,1.414l1.413,1.414l1.414-1.414L15.855,19.639L15.855,19.639z
	 M17.976,21.759l1.414,1.414l-1.414,1.414l-1.414-1.414L17.976,21.759L17.976,21.759z M20.097,23.88l-1.414,1.414l1.414,1.414
	l1.414-1.414L20.097,23.88L20.097,23.88z M22.217,26.002l-1.415,1.413l1.415,1.415l1.414-1.415L22.217,26.002L22.217,26.002z
	 M15.855,23.88l-1.413,1.415l1.413,1.413l1.414-1.413L15.855,23.88L15.855,23.88z M17.976,26.002l-1.414,1.413l1.414,1.415
	l1.414-1.415L17.976,26.002L17.976,26.002z M20.097,28.122l1.414,1.414l-1.414,1.414l-1.414-1.414L20.097,28.122L20.097,28.122z
	 M17.976,30.242l-1.414,1.414l1.414,1.414l1.414-1.414L17.976,30.242L17.976,30.242z M20.097,32.364l1.414,1.414l-1.414,1.412
	l-1.414-1.412L20.097,32.364z"/>
</svg>
