<?xml version="1.0" encoding="iso-8859-1"?>
<!-- Generator: Adobe Illustrator 16.0.2, SVG Export Plug-In . SVG Version: 6.00 Build 0)  -->
<!DOCTYPE svg PUBLIC "-//W3C//DTD SVG 1.1//EN" "http://www.w3.org/Graphics/SVG/1.1/DTD/svg11.dtd">
<svg version="1.1" id="co_x5F_food_x5F_1" xmlns="http://www.w3.org/2000/svg" xmlns:xlink="http://www.w3.org/1999/xlink" x="0px"
	 y="0px" width="40px" height="40px" viewBox="0 0 40 40" style="enable-background:new 0 0 40 40;" xml:space="preserve">
<path fill="#0D47A1" style="fill-rule:evenodd;clip-rule:evenodd;" d="M36.146,7.43c-1.697,0.641-3.328,1.581-3.631,3.179
	c2.201,2.87,3.512,6.459,3.512,10.356c0,9.401-7.625,17.025-17.028,17.025c-9.401,0-17.027-7.624-17.025-17.025
	C1.973,11.562,9.599,3.938,19,3.938c4.342,0,8.305,1.626,11.313,4.304c0.889-1.797,2.766-3.113,4.537-3.385
	C36.619,4.586,37.844,6.789,36.146,7.43z M10.113,12.054c-5.238,5.242-5.935,13.13-1.788,18.109
	c-1.559-2.937-0.591-10.34,4.482-15.413c5.057-5.057,12.429-6.033,15.384-4.497C23.217,6.113,15.346,6.815,10.113,12.054z
	 M29.107,11.105c-0.051-0.053-0.092-0.11-0.145-0.162c-0.127-0.128-0.268-0.237-0.4-0.358c-2.078-0.408-8.771,5.399-11.646,8.273
	c-2.601,2.601-8.686,9.577-8.27,11.665c0.121,0.133,0.229,0.272,0.356,0.4c0.034,0.033,0.071,0.06,0.105,0.093
	c1.133,0.398,3.945-1.459,6.699-3.691c1.925-1.561,3.81-3.29,5.048-4.527c1.348-1.348,3.262-3.445,4.914-5.528
	C27.789,14.722,29.4,12.207,29.107,11.105z M29.447,11.486c0.914,1.721,0.963,4.973-0.18,8.399c-0.807,2.419-2.205,4.92-4.305,7.02
	c-1.898,1.9-4.129,3.226-6.329,4.059c-3.686,1.395-7.285,1.405-9.116,0.42c4.957,4.387,13.011,3.76,18.337-1.57
	C33.17,24.492,33.805,16.45,29.447,11.486z"/>
</svg>
