<?xml version="1.0" encoding="iso-8859-1"?>
<!-- Generator: Adobe Illustrator 16.0.2, SVG Export Plug-In . SVG Version: 6.00 Build 0)  -->
<!DOCTYPE svg PUBLIC "-//W3C//DTD SVG 1.1//EN" "http://www.w3.org/Graphics/SVG/1.1/DTD/svg11.dtd">
<svg version="1.1" id="co_x5F_food_x5F_3" xmlns="http://www.w3.org/2000/svg" xmlns:xlink="http://www.w3.org/1999/xlink" x="0px"
	 y="0px" width="40px" height="40px" viewBox="0 0 40 40" style="enable-background:new 0 0 40 40;" xml:space="preserve">
<path fill="#0D47A1" style="fill-rule:evenodd;clip-rule:evenodd;" d="M28,35.001c0,1.656-1.343,3-3,3h-9c-1.657,0-3-1.344-3-3l-0.009-15.066
	c0-0.645,0.117-1.196,0.379-1.785l3.241-7.292c0.262-0.59,0.379-1.143,0.379-1.787V5.796c-0.271-0.141-0.458-0.425-0.458-0.75
	c0-0.232,0.095-0.444,0.249-0.597c-0.153-0.153-0.249-0.366-0.249-0.598c0-0.326,0.186-0.611,0.458-0.751V3.005c0-0.549,0.45-1,1-1
	h4.999c0.55,0,1,0.451,1,1v0.097c0.271,0.141,0.458,0.424,0.458,0.75c0,0.231-0.095,0.444-0.248,0.598
	c0.153,0.152,0.248,0.364,0.248,0.597c0,0.326-0.186,0.61-0.458,0.751V9.07c0,0.645,0.117,1.197,0.379,1.787l3.241,7.292
	c0.262,0.589,0.379,1.141,0.379,1.785L28,35.001z M24.989,20.441c0-0.242-0.198-0.439-0.44-0.439h-8.118
	c-0.243,0-0.44,0.197-0.44,0.439v6.119c0,0.242,0.197,0.439,0.44,0.439h8.118c0.242,0,0.44-0.197,0.44-0.439V20.441z"/>
</svg>
