<?xml version="1.0" encoding="iso-8859-1"?>
<!-- Generator: Adobe Illustrator 16.0.2, SVG Export Plug-In . SVG Version: 6.00 Build 0)  -->
<!DOCTYPE svg PUBLIC "-//W3C//DTD SVG 1.1//EN" "http://www.w3.org/Graphics/SVG/1.1/DTD/svg11.dtd">
<svg version="1.1" id="co_x5F_food_x5F_3" xmlns="http://www.w3.org/2000/svg" xmlns:xlink="http://www.w3.org/1999/xlink" x="0px"
	 y="0px" width="40px" height="40px" viewBox="0 0 40 40" style="enable-background:new 0 0 40 40;" xml:space="preserve">
<path fill="#0D47A1" style="fill-rule:evenodd;clip-rule:evenodd;" d="M16.961,0.974h7.051c0.478,0,0.992,0.45,0.992,1v2c0,0.549-0.515,1-0.992,1
	v0.56c0,0.241-0.197,0.439-0.439,0.439H17.4c-0.242,0-0.439-0.198-0.439-0.439v-0.56c-0.477,0-0.961-0.451-0.961-1v-2
	C16,1.424,16.484,0.974,16.961,0.974L16.961,0.974z M16.442,19.97h8.119c0.242,0,0.439,0.197,0.439,0.439v8.119
	c0,0.242-0.197,0.439-0.439,0.439h-8.119c-0.242,0-0.439-0.197-0.439-0.439v-8.119C16.003,20.167,16.2,19.97,16.442,19.97
	L16.442,19.97z M23.788,8.158c-0.017-0.108-0.107-0.186-0.217-0.186h-0.284c-0.112,0-0.205,0.082-0.219,0.192
	c-0.096,0.767-1.753,1.367-2.545,1.367s-2.45-0.601-2.546-1.367c-0.014-0.11-0.105-0.192-0.218-0.192h-0.39
	c-0.109,0-0.2,0.077-0.217,0.186c-0.181,1.142-0.524,2.218-1.049,3.306l-1.933,4.016c-0.822,1.709-1.2,3.386-1.2,5.341v13.978
	c0,1.212,0.856,2.199,1.907,2.199h11.185c1.049,0,1.906-0.988,1.906-2.199V20.82c0-1.955-0.377-3.632-1.2-5.341l-1.933-4.016
	C24.313,10.376,23.969,9.301,23.788,8.158z"/>
</svg>
