<?xml version="1.0" encoding="UTF-8" standalone="no"?>
<!-- Generator: Adobe Illustrator 16.0.2, SVG Export Plug-In . SVG Version: 6.00 Build 0)  -->

<svg
   xmlns:dc="http://purl.org/dc/elements/1.1/"
   xmlns:cc="http://creativecommons.org/ns#"
   xmlns:rdf="http://www.w3.org/1999/02/22-rdf-syntax-ns#"
   xmlns:svg="http://www.w3.org/2000/svg"
   xmlns="http://www.w3.org/2000/svg"
   xmlns:sodipodi="http://sodipodi.sourceforge.net/DTD/sodipodi-0.dtd"
   xmlns:inkscape="http://www.inkscape.org/namespaces/inkscape"
   version="1.1"
   id="co_x5F_food_x5F_3"
   x="0px"
   y="0px"
   width="40px"
   height="40px"
   viewBox="0 0 40 40"
   style="enable-background:new 0 0 40 40;"
   xml:space="preserve"
   inkscape:version="0.91 r13725"
   sodipodi:docname="logo.svg"><metadata
     id="metadata25"><rdf:RDF><cc:Work
         rdf:about=""><dc:format>image/svg+xml</dc:format><dc:type
           rdf:resource="http://purl.org/dc/dcmitype/StillImage" /></cc:Work></rdf:RDF></metadata><defs
     id="defs23" /><sodipodi:namedview
     pagecolor="#ffffff"
     bordercolor="#666666"
     borderopacity="1"
     objecttolerance="10"
     gridtolerance="10"
     guidetolerance="10"
     inkscape:pageopacity="0"
     inkscape:pageshadow="2"
     inkscape:window-width="1097"
     inkscape:window-height="779"
     id="namedview21"
     showgrid="false"
     inkscape:zoom="5.9"
     inkscape:cx="20"
     inkscape:cy="20"
     inkscape:window-x="359"
     inkscape:window-y="112"
     inkscape:window-maximized="0"
     inkscape:current-layer="co_x5F_food_x5F_3" /><path
     style="clip-rule:evenodd;fill:#0d47a1;fill-rule:evenodd"
     d="m 5.2091159,18.846909 0.6037446,0 c 0.666534,0 1.2074899,0.540956 1.2074899,1.20749 l 0,9.056169 c 0,0.666534 -0.5409559,1.20749 -1.2074899,1.20749 l -0.6037446,0 c -0.6665339,0 -1.2074898,-0.540956 -1.2074898,-1.20749 l 0,-9.056169 c 0,-0.667139 0.5409559,-1.20749 1.2074898,-1.20749 z"
     id="path3"
     inkscape:connector-curvature="0" /><path
     style="clip-rule:evenodd;fill:#0d47a1;fill-rule:evenodd"
     d="m 2.4922655,9.7907408 c 0.5005037,0 0.9056161,0.4051122 0.9056161,0.9056172 l 0,6.641191 c 0,0.499899 -0.4051124,0.905616 -0.9056161,0.905616 -0.5005045,0 -0.9056176,-0.405717 -0.9056176,-0.905616 l 0,-6.641191 c 0,-0.500505 0.4051131,-0.9056172 0.9056176,-0.9056172 z"
     id="path5"
     inkscape:connector-curvature="0" /><path
     style="clip-rule:evenodd;fill:#0d47a1;fill-rule:evenodd"
     d="m 5.5109883,9.7907408 c 0.5005044,0 0.9056167,0.4051122 0.9056167,0.9056172 l 0,6.641191 c 0,0.499899 -0.4051123,0.905616 -0.9056167,0.905616 -0.5005046,0 -0.9056169,-0.405717 -0.9056169,-0.905616 l 0,-6.641191 c 0,-0.500505 0.4051123,-0.9056172 0.9056169,-0.9056172 z"
     id="path7"
     inkscape:connector-curvature="0" /><path
     style="clip-rule:evenodd;fill:#0d47a1;fill-rule:evenodd"
     d="m 8.5297109,9.7907408 c 0.5005045,0 0.9056176,0.4051122 0.9056176,0.9056172 l 0,6.641191 c 0,0.499899 -0.4051131,0.905616 -0.9056176,0.905616 -0.5005037,0 -0.905616,-0.405717 -0.905616,-0.905616 l 0,-6.641191 c 0,-0.500505 0.4051123,-0.9056172 0.905616,-0.9056172 z"
     id="path9"
     inkscape:connector-curvature="0" /><path
     style="clip-rule:evenodd;fill:#0d47a1;fill-rule:evenodd"
     d="m 2.7941378,17.035676 5.4337008,0 c 0.666534,0 1.2074899,-0.666534 1.2074899,0 l 0,1.811233 c 0,0.666535 -0.5409559,1.20749 -1.2074899,1.20749 l -5.4337009,0 c -0.6665339,0 -1.2074898,-0.540955 -1.2074898,-1.20749 l 0,-1.811233 c 0,-0.667138 0.5409559,0 1.2074898,0 z"
     id="path11"
     inkscape:connector-curvature="0" /><path
     style="clip-rule:evenodd;fill:#0d47a1;fill-rule:evenodd"
     d="m 35.498595,15.856933 1.237289,0 c 1.025093,0 1.855932,0.830838 1.855932,1.855932 l 0,3.093221 c 0,1.024473 -0.830839,1.855931 -1.855932,1.855931 l -1.237289,0 c -1.025092,0 -1.855931,-0.831458 -1.855931,-1.855931 l 0,-3.093221 c 0,-1.025094 0.830839,-1.855932 1.855931,-1.855932 z"
     id="path13"
     inkscape:connector-curvature="0" /><path
     style="clip-rule:evenodd;fill:#0d47a1;fill-rule:evenodd"
     d="m 37.045206,12.145068 c 0.854348,0 1.54661,0.692263 1.54661,1.54661 l 0,15.466102 c 0,0.854347 -0.692262,1.54661 -1.54661,1.54661 -0.854347,0 -1.546611,-0.692263 -1.546611,-1.54661 l 0,-15.466102 c 0,-0.854347 0.692264,-1.54661 1.546611,-1.54661 z"
     id="path15"
     inkscape:connector-curvature="0" /><path
     style="clip-rule:evenodd;fill:#0d47a1;fill-rule:evenodd"
     d="m 36.11724,9.6704916 c 1.366585,0 2.474576,1.1079914 2.474576,2.4745764 l 0,6.186441 c 0,1.366585 -1.107991,2.474577 -2.474576,2.474577 -1.366585,0 -2.474576,-1.107992 -2.474576,-2.474577 l 0,-6.186441 c 0,-1.366585 1.107991,-2.4745764 2.474576,-2.4745764 z"
     id="path17"
     inkscape:connector-curvature="0" /><path
     style="clip-rule:evenodd;fill:#0d47a1;fill-rule:evenodd"
     d="m 13.70988,9.7649082 15.238193,0 c 1.054956,0 1.969574,0.6182138 2.399663,1.5116608 l -5.0673,8.613865 -1.669542,-3.757073 c -0.06473,-0.195385 -0.195989,-0.369598 -0.386535,-0.486345 -0.426458,-0.261924 -0.984181,-0.128845 -1.247921,0.297614 l -3.920397,6.373292 -1.116052,-2.60412 c -0.05384,-0.133685 -0.139129,-0.257087 -0.257086,-0.356895 -0.381695,-0.323021 -0.952727,-0.275233 -1.275747,0.106462 l -5.358864,6.333369 0,-13.370847 c 0,-1.465689 1.195295,-2.6609828 2.661588,-2.6609828 l 0,0 z m 17.900385,4.6317678 -4.660803,7.923062 0,0 c -0.09194,0.157879 -0.234099,0.289144 -0.414965,0.368991 -0.4561,0.201434 -0.989022,-0.0049 -1.191061,-0.460333 l -1.720353,-3.871399 -3.938545,6.399907 -6.05e-4,0 c -0.09497,0.154251 -0.238333,0.281886 -0.417385,0.358709 -0.459729,0.19599 -0.991441,-0.01875 -1.187431,-0.47848 l -1.236428,-2.884798 -5.674021,6.705386 c 0.338748,1.080967 1.349546,1.869765 2.540607,1.869765 l 15.238192,0 c 1.466294,0 2.661588,-1.195899 2.661588,-2.660983 l 0,-13.269827 z"
     id="path19"
     inkscape:connector-curvature="0" /></svg>